<svg width="304" height="61" viewBox="0 0 304 61" fill="none" xmlns="http://www.w3.org/2000/svg">
<path fill-rule="evenodd" clip-rule="evenodd" d="M0 21.5801L5.79202 11.3955H16.8538L11.0653 21.5714L21.7466 39.9907L35.6679 39.873L45.4073 23.0784L50.9924 32.5244L50.9832 32.5395L41.199 49.4121L21.724 49.5731L21.7153 49.5593L16.252 49.6043L0 21.5801Z" fill="url(#paint0_linear)"/>
<path fill-rule="evenodd" clip-rule="evenodd" d="M58.4218 0L64.4113 10.0116L58.8564 19.4787L52.8726 9.47399H31.417L24.5288 21.4468L34.3107 38.1177L23.2545 38.2088L23.2458 38.1933L13.4189 21.4451L23.0558 4.69853H23.0728L25.7774 0H58.4218Z" fill="url(#paint1_linear)"/>
<path fill-rule="evenodd" clip-rule="evenodd" d="M61.6454 28.143L61.6537 28.1274L51.7959 11.3955H32.2692H32.2501L26.8379 20.9463H46.2765L53.3255 32.9073L42.6668 51.352L30.9432 51.4492L36.4626 60.9999L48.1927 60.9011L64.4112 32.8375L61.6454 28.143Z" fill="url(#paint2_linear)"/>
<path d="M80.7458 52.1318C82.0485 52.1318 83.1203 51.7035 83.9118 50.9128L83.3182 50.1055C82.6916 50.748 81.7682 51.1105 80.8613 51.1105C79.1464 51.1105 78.091 49.8584 77.9921 48.3593H84.4394V48.0463C84.4394 45.6576 83.0214 43.7795 80.6139 43.7795C78.3384 43.7795 76.6895 45.6411 76.6895 47.9474C76.6895 50.435 78.3879 52.1318 80.7458 52.1318ZM83.2192 47.4532H77.9921C78.0581 46.2342 78.899 44.8009 80.5974 44.8009C82.4112 44.8009 83.2027 46.2671 83.2192 47.4532Z" fill="#C0C6D4"/>
<path d="M90.9111 51.9342L94.2255 43.9772H92.8733L90.235 50.5009L87.5803 43.9772H86.2446L89.559 51.9342H90.9111Z" fill="#C0C6D4"/>
<path d="M99.9841 52.1318C102.408 52.1318 103.925 50.2538 103.925 47.9474C103.925 45.6411 102.408 43.7795 99.9841 43.7795C97.5602 43.7795 96.0431 45.6411 96.0431 47.9474C96.0431 50.2538 97.5602 52.1318 99.9841 52.1318ZM99.9841 51.0281C98.2857 51.0281 97.3293 49.5784 97.3293 47.9474C97.3293 46.333 98.2857 44.8833 99.9841 44.8833C101.682 44.8833 102.622 46.333 102.622 47.9474C102.622 49.5784 101.682 51.0281 99.9841 51.0281Z" fill="#C0C6D4"/>
<path d="M108.167 51.9342V40.946H106.93V51.9342H108.167Z" fill="#C0C6D4"/>
<path d="M118.236 51.9342V43.9772H116.999V49.8255C116.537 50.468 115.614 51.0281 114.641 51.0281C113.569 51.0281 112.86 50.6162 112.86 49.2159V43.9772H111.623V49.5949C111.623 51.3246 112.497 52.1318 114.163 52.1318C115.35 52.1318 116.389 51.5058 116.999 50.8139V51.9342H118.236Z" fill="#C0C6D4"/>
<path d="M123.707 52.1318C124.432 52.1318 124.877 51.9177 125.191 51.6212L124.828 50.6986C124.663 50.8798 124.333 51.0281 123.987 51.0281C123.443 51.0281 123.179 50.5998 123.179 50.0067V45.0645H124.795V43.9772H123.179V41.8026H121.942V43.9772H120.623V45.0645H121.942V50.2703C121.942 51.4564 122.536 52.1318 123.707 52.1318Z" fill="#C0C6D4"/>
<path d="M128.141 42.8405C128.603 42.8405 128.982 42.4781 128.982 42.0168C128.982 41.5555 128.603 41.1766 128.141 41.1766C127.696 41.1766 127.317 41.5555 127.317 42.0168C127.317 42.4781 127.696 42.8405 128.141 42.8405ZM128.768 51.9342V43.9772H127.531V51.9342H128.768Z" fill="#C0C6D4"/>
<path d="M135.703 52.1318C138.127 52.1318 139.644 50.2538 139.644 47.9474C139.644 45.6411 138.127 43.7795 135.703 43.7795C133.28 43.7795 131.762 45.6411 131.762 47.9474C131.762 50.2538 133.28 52.1318 135.703 52.1318ZM135.703 51.0281C134.005 51.0281 133.049 49.5784 133.049 47.9474C133.049 46.333 134.005 44.8833 135.703 44.8833C137.402 44.8833 138.342 46.333 138.342 47.9474C138.342 49.5784 137.402 51.0281 135.703 51.0281Z" fill="#C0C6D4"/>
<path d="M149.262 51.9342V46.3495C149.262 44.6197 148.388 43.7795 146.723 43.7795C145.535 43.7795 144.447 44.4714 143.887 45.1304V43.9772H142.65V51.9342H143.887V46.1188C144.348 45.4763 145.272 44.8833 146.244 44.8833C147.316 44.8833 148.025 45.3281 148.025 46.7284V51.9342H149.262Z" fill="#C0C6D4"/>
<path d="M161.441 52.1318C163.865 52.1318 165.382 50.2538 165.382 47.9474C165.382 45.6411 163.865 43.7795 161.441 43.7795C159.017 43.7795 157.5 45.6411 157.5 47.9474C157.5 50.2538 159.017 52.1318 161.441 52.1318ZM161.441 51.0281C159.743 51.0281 158.786 49.5784 158.786 47.9474C158.786 46.333 159.743 44.8833 161.441 44.8833C163.139 44.8833 164.079 46.333 164.079 47.9474C164.079 49.5784 163.139 51.0281 161.441 51.0281Z" fill="#C0C6D4"/>
<path d="M169.97 51.9342V45.0645H171.586V43.9772H169.97V43.3677C169.97 42.3628 170.416 41.8026 171.223 41.8026C171.636 41.8026 171.949 41.9674 172.213 42.198L172.724 41.3908C172.229 40.9295 171.669 40.7812 171.042 40.7812C169.624 40.7812 168.734 41.7367 168.734 43.3677V43.9772H167.414V45.0645H168.734V51.9342H169.97Z" fill="#C0C6D4"/>
<path d="M178.842 55.0478C179.073 55.1136 179.485 55.1631 179.749 55.1631C180.804 55.1466 181.612 54.7018 182.09 53.5486L186.081 43.9772H184.729L182.09 50.5009L179.435 43.9772H178.1L181.431 52.0165L180.903 53.2191C180.623 53.8781 180.26 54.0593 179.716 54.0593C179.518 54.0593 179.221 54.0099 179.04 53.9275L178.842 55.0478Z" fill="#C0C6D4"/>
<path d="M191.839 52.1318C194.263 52.1318 195.78 50.2538 195.78 47.9474C195.78 45.6411 194.263 43.7795 191.839 43.7795C189.415 43.7795 187.898 45.6411 187.898 47.9474C187.898 50.2538 189.415 52.1318 191.839 52.1318ZM191.839 51.0281C190.141 51.0281 189.184 49.5784 189.184 47.9474C189.184 46.333 190.141 44.8833 191.839 44.8833C193.538 44.8833 194.478 46.333 194.478 47.9474C194.478 49.5784 193.538 51.0281 191.839 51.0281Z" fill="#C0C6D4"/>
<path d="M205.398 51.9342V43.9772H204.161V49.8255C203.699 50.468 202.776 51.0281 201.803 51.0281C200.731 51.0281 200.022 50.6162 200.022 49.2159V43.9772H198.786V49.5949C198.786 51.3246 199.66 52.1318 201.325 52.1318C202.512 52.1318 203.551 51.5058 204.161 50.8139V51.9342H205.398Z" fill="#C0C6D4"/>
<path d="M210.094 51.9342V46.3C210.456 45.6576 211.495 45.0315 212.254 45.0315C212.452 45.0315 212.6 45.048 212.748 45.081V43.8125C211.66 43.8125 210.737 44.422 210.094 45.2622V43.9772H208.857V51.9342H210.094Z" fill="#C0C6D4"/>
<path d="M221.766 49.7761V46.1683C222.195 45.4763 223.168 44.8833 224.141 44.8833C225.757 44.8833 226.713 46.2012 226.713 47.9639C226.713 49.7266 225.757 51.0281 224.141 51.0281C223.168 51.0281 222.195 50.468 221.766 49.7761ZM221.766 51.9342V50.748C222.36 51.5553 223.333 52.1318 224.454 52.1318C226.532 52.1318 227.999 50.5503 227.999 47.9639C227.999 45.4269 226.532 43.7795 224.454 43.7795C223.366 43.7795 222.409 44.3067 221.766 45.1798V40.946H220.53V51.9342H221.766Z" fill="#C0C6D4"/>
<path d="M237.616 51.9342V43.9772H236.379V49.8255C235.917 50.468 234.994 51.0281 234.021 51.0281C232.949 51.0281 232.24 50.6162 232.24 49.2159V43.9772H231.004V49.5949C231.004 51.3246 231.878 52.1318 233.543 52.1318C234.73 52.1318 235.769 51.5058 236.379 50.8139V51.9342H237.616Z" fill="#C0C6D4"/>
<path d="M243.598 52.1318C245.659 52.1318 246.731 51.061 246.731 49.7266C246.731 46.6295 241.8 47.7827 241.8 46.0365C241.8 45.3281 242.477 44.7844 243.565 44.7844C244.587 44.7844 245.461 45.2128 245.939 45.7894L246.516 44.9327C245.873 44.2902 244.917 43.7795 243.565 43.7795C241.669 43.7795 240.597 44.8339 240.597 46.0694C240.597 49.0183 245.527 47.8321 245.527 49.7596C245.527 50.5503 244.867 51.1269 243.647 51.1269C242.559 51.1269 241.553 50.5998 241.025 49.9902L240.382 50.8798C241.19 51.7365 242.295 52.1318 243.598 52.1318Z" fill="#C0C6D4"/>
<path d="M250.339 42.8405C250.801 42.8405 251.18 42.4781 251.18 42.0168C251.18 41.5555 250.801 41.1766 250.339 41.1766C249.894 41.1766 249.515 41.5555 249.515 42.0168C249.515 42.4781 249.894 42.8405 250.339 42.8405ZM250.966 51.9342V43.9772H249.729V51.9342H250.966Z" fill="#C0C6D4"/>
<path d="M261.034 51.9342V46.3495C261.034 44.6197 260.161 43.7795 258.495 43.7795C257.308 43.7795 256.22 44.4714 255.659 45.1304V43.9772H254.422V51.9342H255.659V46.1188C256.121 45.4763 257.044 44.8833 258.017 44.8833C259.089 44.8833 259.798 45.3281 259.798 46.7284V51.9342H261.034Z" fill="#C0C6D4"/>
<path d="M268.088 52.1318C269.391 52.1318 270.463 51.7035 271.254 50.9128L270.661 50.1055C270.034 50.748 269.111 51.1105 268.204 51.1105C266.489 51.1105 265.434 49.8584 265.335 48.3593H271.782V48.0463C271.782 45.6576 270.364 43.7795 267.956 43.7795C265.681 43.7795 264.032 45.6411 264.032 47.9474C264.032 50.435 265.73 52.1318 268.088 52.1318ZM270.562 47.4532H265.335C265.401 46.2342 266.242 44.8009 267.94 44.8009C269.754 44.8009 270.545 46.2671 270.562 47.4532Z" fill="#C0C6D4"/>
<path d="M277.297 52.1318C279.358 52.1318 280.43 51.061 280.43 49.7266C280.43 46.6295 275.5 47.7827 275.5 46.0365C275.5 45.3281 276.176 44.7844 277.264 44.7844C278.287 44.7844 279.16 45.2128 279.639 45.7894L280.216 44.9327C279.573 44.2902 278.616 43.7795 277.264 43.7795C275.368 43.7795 274.296 44.8339 274.296 46.0694C274.296 49.0183 279.226 47.8321 279.226 49.7596C279.226 50.5503 278.567 51.1269 277.347 51.1269C276.258 51.1269 275.253 50.5998 274.725 49.9902L274.082 50.8798C274.89 51.7365 275.995 52.1318 277.297 52.1318Z" fill="#C0C6D4"/>
<path d="M285.952 52.1318C288.013 52.1318 289.085 51.061 289.085 49.7266C289.085 46.6295 284.154 47.7827 284.154 46.0365C284.154 45.3281 284.83 44.7844 285.919 44.7844C286.941 44.7844 287.815 45.2128 288.293 45.7894L288.87 44.9327C288.227 44.2902 287.271 43.7795 285.919 43.7795C284.022 43.7795 282.95 44.8339 282.95 46.0694C282.95 49.0183 287.881 47.8321 287.881 49.7596C287.881 50.5503 287.221 51.1269 286.001 51.1269C284.913 51.1269 283.907 50.5998 283.379 49.9902L282.736 50.8798C283.544 51.7365 284.649 52.1318 285.952 52.1318Z" fill="#C0C6D4"/>
<path d="M102.33 33.916L108.39 14.0237H102.949L99.2386 27.4088L94.8689 14.0237H90.2107L85.841 27.4088L82.1309 14.0237H76.6895L82.7493 33.916H88.3556L92.5604 20.3661L96.7652 33.916H102.33Z" fill="white"/>
<path d="M121.151 34.4103C124.243 34.4103 127.376 33.463 129.354 31.6509L127.046 28.2737C125.768 29.5092 123.418 30.2506 121.728 30.2506C118.348 30.2506 116.328 28.1501 115.998 25.6378H130.797V24.4847C130.797 17.9774 126.757 13.5294 120.821 13.5294C114.761 13.5294 110.515 18.1833 110.515 23.9493C110.515 30.3329 115.091 34.4103 121.151 34.4103ZM125.727 22.0959H115.916C116.163 20.119 117.565 17.6891 120.821 17.6891C124.284 17.6891 125.603 20.2014 125.727 22.0959Z" fill="white"/>
<path d="M140.639 27.5323V20.4897C141.504 19.1718 143.442 18.1833 145.132 18.1833C148.183 18.1833 150.203 20.5309 150.203 23.9904C150.203 27.45 148.183 29.7563 145.132 29.7563C143.442 29.7563 141.504 28.8091 140.639 27.5323ZM140.639 33.916V31.3626C142.205 33.3394 144.39 34.4103 146.781 34.4103C151.81 34.4103 155.603 30.6212 155.603 23.9904C155.603 17.4832 151.851 13.5294 146.781 13.5294C144.431 13.5294 142.205 14.5591 140.639 16.5771V6.4456H135.403V33.916H140.639Z" fill="white"/>
<path d="M169.616 34.4103C176.212 34.4103 180.169 29.6328 180.169 23.9493C180.169 18.3069 176.212 13.5294 169.616 13.5294C163.062 13.5294 159.104 18.3069 159.104 23.9493C159.104 29.6328 163.062 34.4103 169.616 34.4103ZM169.616 29.7563C166.359 29.7563 164.546 27.0793 164.546 23.9493C164.546 20.8604 166.359 18.1833 169.616 18.1833C172.873 18.1833 174.728 20.8604 174.728 23.9493C174.728 27.0793 172.873 29.7563 169.616 29.7563Z" fill="white"/>
<path d="M190.113 33.916V6.4456H184.878V33.916H190.113Z" fill="white"/>
<path d="M214.803 33.916V14.0237H209.568V27.4912C208.661 28.6443 207.053 29.7563 205.033 29.7563C202.807 29.7563 201.364 28.8503 201.364 26.0909V14.0237H196.129V28.1501C196.129 32.0215 198.19 34.4103 202.56 34.4103C205.816 34.4103 208.207 32.9276 209.568 31.4037V33.916H214.803Z" fill="white"/>
<path d="M227.504 34.4103C229.689 34.4103 231.09 33.8337 231.874 33.1335L230.761 29.1798C230.472 29.468 229.73 29.7563 228.947 29.7563C227.792 29.7563 227.133 28.8091 227.133 27.5735V18.5952H231.173V14.0237H227.133V8.58723H221.856V14.0237H218.558V18.5952H221.856V28.9738C221.856 32.5157 223.835 34.4103 227.504 34.4103Z" fill="white"/>
<path d="M238.176 11.882C239.908 11.882 241.309 10.4817 241.309 8.75197C241.309 7.02219 239.908 5.66309 238.176 5.66309C236.486 5.66309 235.043 7.02219 235.043 8.75197C235.043 10.4817 236.486 11.882 238.176 11.882ZM240.815 33.916V14.0237H235.579V33.916H240.815Z" fill="white"/>
<path d="M256.064 34.4103C262.66 34.4103 266.617 29.6328 266.617 23.9493C266.617 18.3069 262.66 13.5294 256.064 13.5294C249.51 13.5294 245.552 18.3069 245.552 23.9493C245.552 29.6328 249.51 34.4103 256.064 34.4103ZM256.064 29.7563C252.808 29.7563 250.994 27.0793 250.994 23.9493C250.994 20.8604 252.808 18.1833 256.064 18.1833C259.321 18.1833 261.176 20.8604 261.176 23.9493C261.176 27.0793 259.321 29.7563 256.064 29.7563Z" fill="white"/>
<path d="M290 33.916V19.8719C290 16.0005 287.898 13.5294 283.528 13.5294C280.271 13.5294 277.839 15.0945 276.561 16.6183V14.0237H271.326V33.916H276.561V20.5309C277.427 19.3365 279.035 18.1833 281.096 18.1833C283.322 18.1833 284.765 19.1306 284.765 21.89V33.916H290Z" fill="white"/>
<g clip-path="url(#clip0)">
<path d="M303.999 10.723L303.988 10.6027C303.98 10.5213 303.973 10.4394 303.963 10.3604C303.858 9.36028 303.519 8.43953 302.955 7.62442C302.119 6.41099 300.972 5.59618 299.546 5.20282C299.163 5.09658 298.758 5.0319 298.341 5.01024L298.276 5L297.723 5.00059L297.355 5.03541C296.612 5.11414 295.908 5.32487 295.262 5.66203C293.945 6.35363 292.99 7.40287 292.426 8.78108C292.208 9.3196 292.072 9.89412 292.024 10.4845C292.016 10.5649 292.006 10.6451 292 10.737L292.001 11.2767L292.012 11.3956C292.019 11.4775 292.026 11.5597 292.036 11.6394C292.141 12.635 292.479 13.5543 293.041 14.3715C293.762 15.4245 294.733 16.1843 295.926 16.6298C296.586 16.8759 297.269 17.0006 297.956 17.0006C298.071 17.0006 298.186 16.9971 298.301 16.9903C300.038 16.8867 301.49 16.1589 302.616 14.826C303.301 14.0159 303.738 13.0638 303.913 11.9985C303.938 11.8559 303.952 11.7119 303.966 11.5679C303.973 11.4915 303.981 11.4152 303.994 11.3118L304 11.2776L303.999 10.723ZM298.01 5.93305L298.017 6.0791C300.725 6.08261 302.925 8.29231 302.922 11.0045C302.917 13.7165 300.709 15.9227 297.997 15.9227C296.683 15.9212 295.447 15.4078 294.518 14.4774C293.589 13.5473 293.078 12.3119 293.08 10.9996C293.083 8.28646 295.294 6.0791 298.01 6.0791V5.93305Z" fill="white"/>
<path d="M295.605 7.75098C295.587 7.75098 295.572 7.75303 295.547 7.75683L295.418 7.77176V14.5542H296.524V11.6635L296.95 11.6626C297.078 11.6626 297.205 11.6629 297.34 11.6646C297.47 11.6664 297.604 11.6679 297.725 11.6898C297.934 11.727 298.111 11.8326 298.252 12.0038C298.394 12.1768 298.577 12.4072 298.733 12.6553C299.023 13.1154 299.306 13.5808 299.588 14.0461L299.83 14.4436C299.851 14.4749 299.906 14.5583 300.029 14.5583H300.032C300.2 14.5572 300.367 14.5572 300.534 14.5572H300.95C300.967 14.5572 300.981 14.5557 301.018 14.5516L301.243 14.5326L301.134 14.335C301.117 14.3049 301.104 14.2838 301.092 14.2656L300.854 13.872C300.683 13.5875 300.511 13.3033 300.337 13.0206C300.148 12.7183 299.954 12.4057 299.744 12.1086C299.571 11.8616 299.381 11.6646 299.165 11.5113C299.225 11.4958 299.284 11.4791 299.343 11.4606C299.835 11.3058 300.193 11.0272 300.408 10.6315C300.724 10.0511 300.741 9.43211 300.461 8.79115C300.259 8.33047 299.928 8.02668 299.477 7.88795C299.182 7.79839 298.855 7.75595 298.448 7.7542C297.806 7.75127 297.164 7.75098 296.523 7.75098H295.605ZM296.524 10.6268V8.76568H297.158C297.6 8.76568 298.042 8.76627 298.483 8.77212C298.611 8.77388 298.753 8.797 298.908 8.84119C299.269 8.94422 299.499 9.2445 299.51 9.62527C299.521 10.0034 299.385 10.273 299.094 10.4497C298.955 10.5343 298.789 10.5826 298.572 10.6016C298.401 10.6166 298.225 10.6248 298.048 10.6259C297.823 10.6271 297.599 10.6277 297.375 10.6277L296.524 10.6268Z" fill="white"/>
</g>
<defs>
<linearGradient id="paint0_linear" x1="-0.118051" y1="11.6111" x2="41.2465" y2="48.3743" gradientUnits="userSpaceOnUse">
<stop stop-color="#F97695"/>
<stop offset="1" stop-color="#FEDD44"/>
</linearGradient>
<linearGradient id="paint1_linear" x1="55.6134" y1="-2.14859" x2="24.8073" y2="38.7249" gradientUnits="userSpaceOnUse">
<stop stop-color="#4AB1FE"/>
<stop offset="1" stop-color="#07EBFE"/>
</linearGradient>
<linearGradient id="paint2_linear" x1="45.5959" y1="60.9686" x2="38.6286" y2="11.3054" gradientUnits="userSpaceOnUse">
<stop stop-color="#F3648A"/>
<stop offset="1" stop-color="#FF83D4"/>
</linearGradient>
<clipPath id="clip0">
<rect width="12" height="12.0006" fill="white" transform="translate(292 5)"/>
</clipPath>
</defs>
</svg>
