<svg width="135" height="24" viewBox="0 0 135 24" fill="none" xmlns="http://www.w3.org/2000/svg">
<g clip-path="url(#clip0_717:3581)">
<path d="M91.7314 17.3242H103.916V14.6642H95.8853C96.993 10.299 103.778 9.34416 103.778 4.50157C103.778 1.90976 101.978 0 98.1699 0C95.8161 0 93.7391 0.682056 92.3545 1.36411L93.1853 3.81951C94.4315 3.20566 95.8853 2.66002 97.6853 2.66002C99.0699 2.66002 100.385 3.27387 100.385 4.8426C100.385 8.38929 92.4238 8.66211 91.7314 17.3242ZM104.262 13.0955H112.085V17.3242H115.201V13.0955H117.831V10.5037H115.201V0H112.916L104.262 11.0493V13.0955ZM107.793 10.6401L112.224 4.77439C112.224 5.25183 112.085 6.75235 112.085 8.11646V10.5719H110.008C109.385 10.5719 108.208 10.6401 107.793 10.6401Z" fill="#005893"/>
<path d="M3.25385 14.6642V9.27596H4.56923C5.74615 9.27596 6.71538 9.41237 7.40769 9.8216C8.1 10.2308 8.51538 10.9129 8.51538 12.0042C8.51538 13.8457 7.40769 14.6642 4.77692 14.6642H3.25385ZM0.0692308 17.256H4.70769C9.9 17.256 11.7692 15.0052 11.7692 11.8678C11.7692 9.7534 10.8692 8.32108 9.27692 7.50261C8.03077 6.82056 6.43846 6.61594 4.5 6.61594H3.25385V2.52361H10.2462L11.0769 0H0V17.256H0.0692308ZM13.9154 17.256H16.9615L20.9077 11.6632C21.6692 10.6401 22.2231 9.61699 22.5692 9.07134H22.6385C22.5692 9.8216 22.5 10.7765 22.5 11.7314V17.1878H25.6154V4.9108H22.5692L18.6231 10.5037C17.9308 11.5267 17.3077 12.5498 16.9615 13.0955H16.8923C16.9615 12.3452 17.0308 11.3903 17.0308 10.4355V4.97901H13.9154V17.256ZM30.9462 17.256H34.1308V7.50261H37.8692L38.7 4.9108H27.1385V7.50261H30.9462V17.256ZM39.8077 23.4627H42.9231V17.256C43.5462 17.4606 44.1692 17.5288 44.8615 17.5288C48.8077 17.5288 51.3692 14.8688 51.3692 11.0493C51.3692 7.09338 49.0154 4.56977 44.5154 4.56977C42.7846 4.56977 41.1231 4.9108 39.7385 5.32003V23.4627H39.8077ZM42.9231 14.596V7.3662C43.4077 7.22979 43.8231 7.16159 44.3769 7.16159C46.6615 7.16159 48.1154 8.38929 48.1154 11.0493C48.1154 13.4365 46.9385 14.937 44.5846 14.937C43.9615 14.937 43.4769 14.8006 42.9231 14.596ZM53.2385 17.256H56.2846L60.2308 11.6632C60.9923 10.6401 61.5462 9.61699 61.8923 9.07134H61.9615C61.8923 9.8216 61.8231 10.7765 61.8231 11.7314V17.1878H64.9385V4.9108H61.8923L57.9461 10.5037C57.2538 11.5267 56.6308 12.5498 56.2846 13.0955H56.2154C56.2846 12.3452 56.3538 11.3903 56.3538 10.4355V4.97901H53.2385V17.256ZM67.4308 17.256H70.6154V12.1406H72.4846C72.8308 12.1406 73.1769 12.4816 73.5923 13.3001L75.1846 17.256H78.5769L76.2923 12.5498C75.8769 11.7314 75.4615 11.2539 74.8385 11.0493V10.9811C75.8769 10.3672 76.0154 8.5939 76.6385 7.70723C76.8461 7.43441 77.1231 7.298 77.5385 7.298C77.7461 7.298 78.0231 7.298 78.2308 7.43441V4.77439C77.8846 4.63798 77.2615 4.56977 76.9154 4.56977C75.8077 4.56977 75.1154 4.97901 74.6308 5.66106C73.5923 7.16159 73.5923 9.7534 72.0692 9.7534H70.6154V4.9108H67.4308V17.256ZM85.6385 17.5288C87.3692 17.5288 88.9615 16.9832 89.9308 16.3011L89.0308 14.1868C88.1308 14.6642 87.3 15.0052 86.1231 15.0052C83.9769 15.0052 82.5923 13.6411 82.5923 11.1175C82.5923 8.86672 83.9769 7.09338 86.3308 7.09338C87.5769 7.09338 88.4769 7.43441 89.3769 8.04826V5.38824C88.6846 4.97901 87.5769 4.56977 85.9846 4.56977C82.2461 4.56977 79.3385 7.298 79.3385 11.1857C79.3385 14.7324 81.5538 17.5288 85.6385 17.5288Z" fill="#2FC6F7"/>
<path d="M128.145 13.0957C131.538 13.0957 134.307 10.3674 134.307 7.02537C134.307 3.6833 131.538 0.955078 128.145 0.955078C124.753 0.955078 121.984 3.6833 121.984 7.02537C122.053 10.3674 124.753 13.0957 128.145 13.0957Z" stroke="#005893" stroke-width="1.7688"/>
<path d="M132.023 7.02664H128.631V3.68457H127.731V7.91332H132.023V7.02664Z" fill="#005893"/>
</g>
<defs>
<clipPath id="clip0_717:3581">
<rect width="135" height="23.872" fill="white"/>
</clipPath>
</defs>
</svg>
