<svg width="120" height="39" viewBox="0 0 120 39" fill="none" xmlns="http://www.w3.org/2000/svg">
<g clip-path="url(#clip0_717:3681)">
<path d="M51.243 15.9409H45.5259V37.872H51.243V15.9409Z" fill="#0E0F0F"/>
<path d="M60.8505 12.7163H55.1333V37.9032H60.8505V12.7163Z" fill="#0E0F0F"/>
<path d="M70.4926 9.45947H64.7754V37.8716H70.4926V9.45947Z" fill="#0E0F0F"/>
<path d="M67.633 0C65.7475 0 64.2271 1.53579 64.2271 3.44017C64.2271 5.34455 65.7475 6.88034 67.633 6.88034C69.5185 6.88034 71.039 5.34455 71.039 3.44017C71.039 1.53579 69.5185 0 67.633 0Z" fill="#0E0F0F"/>
<path d="M9.94425 24.2349C11.6472 24.2349 13.3807 25.2178 13.8064 26.9993H19.706C19.0978 21.8697 15.0228 18.7061 9.91383 18.7061C4.80487 18.7367 0 22.9448 0 28.5351C0 34.0946 4.40952 38.3335 9.94425 38.3335C14.6579 38.3335 19.0978 35.139 19.706 30.0401H13.8064C13.4111 31.7602 11.6472 32.8046 9.91383 32.8046C7.7851 32.8046 5.80842 31.1766 5.80842 28.5044C5.778 25.9856 7.63305 24.2349 9.94425 24.2349Z" fill="#0E0F0F"/>
<path d="M35.8847 20.824C31.171 15.8788 21.5005 20.0254 21.5005 28.5337C21.5005 36.6427 29.4681 41.0044 35.8847 36.5199V37.902H41.6018V19.1961H35.8847V20.824ZM31.5056 32.8339C29.316 32.8339 27.2785 31.1753 27.2785 28.5337C27.2785 25.9536 29.2856 24.2642 31.5056 24.2642C33.7255 24.2642 35.8847 25.9536 35.8847 28.5337C35.8847 31.1753 33.7255 32.8339 31.5056 32.8339Z" fill="#0E0F0F"/>
<path d="M85.5441 18.7673C83.6891 18.7673 81.8038 19.4124 80.1312 20.7639V6.23531L74.4141 6.20459V37.8726L80.1312 37.9033V36.3368C85.4833 41.0363 94.5758 36.9204 94.5158 28.5657C94.485 22.6068 90.1366 18.7673 85.5441 18.7673ZM84.51 32.9581C82.2904 32.9581 80.1312 31.1766 80.1312 28.5657C80.1312 25.9856 82.2904 24.2347 84.51 24.2347C86.73 24.2347 88.7375 25.9856 88.7375 28.5657C88.7375 31.1766 86.7 32.9581 84.51 32.9581Z" fill="#0E0F0F"/>
<path d="M116.503 24.9111C118.389 24.9111 119.909 23.3753 119.909 21.4709C119.909 19.5666 118.389 18.0308 116.503 18.0308C114.618 18.0308 113.098 19.5666 113.098 21.4709C113.128 23.3753 114.648 24.9111 116.503 24.9111Z" fill="#0E0F0F"/>
<path d="M109.387 18.7989C106.771 18.5839 104.156 19.7204 102.97 21.5941V19.1675H97.2524V37.8734H102.97V29.7952C102.97 26.355 106.406 24.5428 109.812 24.7885C109.295 23.7442 108.961 22.577 108.961 21.3176C108.961 20.4268 109.143 19.5975 109.387 18.7989Z" fill="#0E0F0F"/>
<path d="M116.503 28.9347C115.257 28.9347 114.071 28.6275 113.006 28.0747V37.9037H120.001V28.0747C118.967 28.5969 117.781 28.9347 116.503 28.9347Z" fill="#0E0F0F"/>
</g>
<defs>
<clipPath id="clip0_717:3681">
<rect width="120" height="38.3333" fill="white"/>
</clipPath>
</defs>
</svg>
