<svg width="130" height="25" viewBox="0 0 130 25" fill="none" xmlns="http://www.w3.org/2000/svg">
<g clip-path="url(#clip0_717:3696)">
<path d="M36.0712 20.4145H37.8925V9.96582H35.239C32.5713 9.96582 31.1732 11.3318 31.1732 13.3475C31.1732 14.9554 31.9388 15.904 33.3131 16.881L30.9307 20.4145H32.9041L35.5576 16.4589L34.6398 15.8423C33.5223 15.093 32.9802 14.5048 32.9802 13.2432C32.9802 12.1286 33.7649 11.3792 35.258 11.3792H36.0712V20.4145ZM71.2371 20.5616C72.0693 20.5616 72.6542 20.4145 73.0917 20.0968V18.6407C72.64 18.9537 72.0979 19.1482 71.3465 19.1482C70.0626 19.1482 69.5347 18.1569 69.5347 16.5965C69.5347 14.9554 70.1862 14.1159 71.3608 14.1159C72.0551 14.1159 72.7303 14.3531 73.0917 14.5807V13.063C72.7161 12.8495 72.0551 12.7025 71.1658 12.7025C68.8737 12.7025 67.6801 14.3388 67.6801 16.6392C67.6801 19.1672 68.8404 20.5616 71.2371 20.5616ZM60.024 19.9023V18.4415C59.4676 18.8209 58.5308 19.1482 57.6558 19.1482C56.3433 19.1482 55.8488 18.5363 55.7727 17.27H60.1001V16.3261C60.1001 13.6938 58.9398 12.7025 57.1422 12.7025C54.9595 12.7025 53.9181 14.3673 53.9181 16.6534C53.9181 19.2857 55.2163 20.5616 57.5084 20.5616C58.6497 20.5616 59.4961 20.2628 60.024 19.9023ZM65.7542 20.4145H67.7847L64.9077 16.3973L67.4424 12.8495H65.6306L63.1007 16.3973V12.8495H61.3032V20.4145H63.1007V16.7577L65.7542 20.4145ZM53.4806 19.0011H52.6817V12.8495H47.4508V13.4993C47.4508 15.3443 47.3319 17.7348 46.6995 19.0011H46.1383V22.141H47.7979V20.4145H51.821V22.141H53.4806V19.0011ZM43.5942 12.8495V15.8423H41.1975V12.8495H39.4V20.4145H41.1975V17.2557H43.5942V20.4145H45.387V12.8495H43.5942ZM57.1137 14.1159C58.003 14.1159 58.274 14.8511 58.274 15.7997V15.9467H55.7727C55.8202 14.7467 56.253 14.1159 57.1137 14.1159ZM50.8889 19.0011H48.3543C48.8536 17.8581 48.9915 15.7997 48.9915 14.4906V14.2629H50.8889V19.0011ZM80.9904 20.4145H82.5882L84.6996 12.6266V20.4145H86.4496V9.96582H84.0053L81.8797 17.7964L79.7397 9.96582H77.3145V20.4145H78.8838V12.6266L80.9904 20.4145ZM93.7586 19.9023V18.4415C93.2022 18.8209 92.2701 19.1482 91.3951 19.1482C90.0827 19.1482 89.5833 18.5363 89.5073 17.27H93.8346V16.3261C93.8346 13.6938 92.6743 12.7025 90.8816 12.7025C88.6941 12.7025 87.6574 14.3673 87.6574 16.6534C87.6574 19.2857 88.9509 20.5616 91.243 20.5616C92.389 20.5616 93.2307 20.2628 93.7586 19.9023ZM90.853 14.1159C91.7423 14.1159 92.0133 14.8511 92.0133 15.7997V15.9467H89.5073C89.5548 14.7467 89.9923 14.1159 90.853 14.1159ZM100.226 14.2629V12.8495H94.2103V14.2629H96.3217V20.4145H98.1192V14.2629H100.226ZM102.941 12.8495H101.282V22.5916H103.074V19.5276C103.531 20.2011 104.192 20.5616 104.962 20.5616C106.707 20.5616 107.915 19.1672 107.915 16.6249C107.915 14.0969 106.741 12.7025 105.053 12.7025C104.206 12.7025 103.512 13.0914 103.032 13.8266L102.941 12.8495ZM104.51 19.1482C103.559 19.1482 103.074 18.3846 103.074 16.6392C103.074 14.8795 103.588 14.1159 104.601 14.1159C105.58 14.1159 106.061 14.8795 106.061 16.6249C106.061 18.3846 105.547 19.1482 104.51 19.1482ZM109.123 12.8495V20.4145H110.721L113.465 15.738V20.4145H115.196V12.8495H113.598L110.854 17.5261V12.8495H109.123ZM121.149 20.4145H123.185L120.308 16.3973L122.838 12.8495H121.031L118.496 16.3973V12.8495H116.703V20.4145H118.496V16.7577L121.149 20.4145ZM129.305 15.2542C129.305 13.4234 128.373 12.731 126.471 12.731C125.282 12.731 124.345 13.1057 123.803 13.4234V14.9127C124.288 14.5475 125.344 14.1586 126.261 14.1586C127.122 14.1586 127.512 14.4574 127.512 15.2732V15.6906H127.227C124.483 15.6906 123.261 16.5965 123.261 18.1284C123.261 19.6604 124.198 20.5189 125.581 20.5189C126.637 20.5189 127.089 20.1727 127.436 19.8122H127.512C127.526 20.0067 127.588 20.2628 127.65 20.4145H129.395C129.338 19.798 129.305 19.1814 129.305 18.5648V15.2542ZM127.512 18.6075C127.284 18.9395 126.865 19.2098 126.233 19.2098C125.477 19.2098 125.101 18.7877 125.101 18.1427C125.101 17.2842 125.719 16.9712 127.255 16.9712H127.512V18.6075Z" fill="black"/>
</g>
<g clip-path="url(#clip1_717:3696)">
<path d="M16.7754 0H24.1763V24.6697H16.7754V0Z" fill="#FFCC00"/>
<path d="M8.3877 7.89404H15.7886V24.6694H8.3877V7.89404Z" fill="#0077FF"/>
<path d="M0 15.2954H7.40091V24.6699H0V15.2954Z" fill="#FF3333"/>
</g>
<defs>
<clipPath id="clip0_717:3696">
<rect width="99.8535" height="17.6212" fill="white" transform="translate(30.1465 6.46143)"/>
</clipPath>
<clipPath id="clip1_717:3696">
<rect width="24.6697" height="24.6697" fill="white"/>
</clipPath>
</defs>
</svg>
