<svg width="145" height="37" viewBox="0 0 145 37" fill="none" xmlns="http://www.w3.org/2000/svg">
<g clip-path="url(#clip0_717:3673)">
<path fill-rule="evenodd" clip-rule="evenodd" d="M49.9561 10.055C52.0916 10.0359 54.3941 10.7093 55.9929 12.2436L54.5885 14.4756C53.4315 13.4929 51.7037 12.7684 50.1185 12.7829C46.536 12.8149 44.6761 15.4445 44.7034 18.4734C44.7308 21.5486 46.7076 24.3284 50.2453 24.2956C51.9899 24.2804 53.7276 23.4089 54.9567 22.1718L56.5372 24.3086C55.1495 25.7544 53.0709 26.9984 50.1542 27.025C45.0329 27.0708 41.6926 23.3792 41.6493 18.5472C41.6068 13.7846 45.042 10.1007 49.9561 10.0557V10.055ZM62.4428 24.6704C64.0735 24.6559 65.115 22.9815 65.1021 21.5486L65.0991 21.2249L64.5942 21.2295C63.1245 21.2424 60.6458 21.4732 60.661 23.1377C60.6686 23.9239 61.2721 24.6818 62.4428 24.6704ZM64.5532 19.2184L65.0581 19.2138L65.0566 19.0515C65.0429 17.5029 64.0507 16.9795 62.8337 16.9909C61.6851 17.0008 60.5183 17.4975 59.583 18.1534L58.4845 16.0593C59.4418 15.2648 61.3192 14.5769 63.0645 14.5609C66.1186 14.5335 67.9482 16.2276 67.9748 19.21L68.0408 26.5855L65.3306 26.6099L65.3223 25.6158C65.3187 25.3292 65.3391 25.0427 65.383 24.7595H65.3375C64.6368 26.0149 63.2437 26.9062 61.6593 26.9207C59.5466 26.9397 57.7891 25.5685 57.7694 23.4188C57.7382 19.8811 61.9584 19.2412 64.5532 19.2184ZM70.8793 10.1433L73.7725 10.1174L73.8833 22.4163C73.8947 23.7113 74.3343 24.0313 75.0912 24.0237C75.2066 24.0237 75.3667 24.0221 75.5277 23.997L75.5505 26.5634C75.344 26.5885 75.0228 26.6381 74.6319 26.6411C73.0255 26.6563 71.0236 26.2572 70.9932 22.8825L70.8793 10.1433ZM77.5159 10.0832L80.4099 10.0565L80.5192 22.3561C80.5306 23.6511 80.9709 23.9711 81.7285 23.9635C81.8424 23.9635 82.0041 23.9612 82.1643 23.9368L82.1871 26.5032C81.9806 26.5284 81.6594 26.5771 81.2692 26.5809C79.6621 26.5962 77.6602 26.197 77.6298 22.8223L77.5159 10.0832ZM84.7902 17.1387L83.2749 17.1524L83.2537 14.8168L84.8381 14.8031L84.8077 11.4269L87.6561 11.4018L87.6857 14.7765L90.3503 14.7528L90.3708 17.0877L87.7062 17.1113L87.7479 21.7124C87.7654 23.655 89.2837 23.9185 90.0877 23.9109C90.2478 23.9101 90.386 23.9086 90.6153 23.8606L90.6381 26.4263C90.4088 26.4514 90.1332 26.5002 89.743 26.504C88.1123 26.5192 84.8699 26.0622 84.835 22.1086L84.7902 17.1387ZM98.4491 24.0899C100.355 24.0724 101.926 22.5786 101.906 20.3816C101.887 18.2083 100.289 16.7205 98.383 16.738C96.4768 16.7548 94.9288 18.2722 94.9486 20.4448C94.9683 22.6418 96.5428 24.1067 98.4483 24.0899H98.4491ZM98.3375 14.2402C101.921 14.2082 104.813 16.7487 104.846 20.3549C104.878 23.9848 102.031 26.5543 98.4711 26.5863C94.9114 26.6183 92.0182 24.1014 91.9856 20.4715C91.9537 16.8653 94.8005 14.2729 98.3375 14.2402ZM107.089 14.439L110.006 14.4123L110.069 21.3948C110.081 22.8277 110.458 23.7959 111.904 23.7822C114.017 23.7639 115.171 21.88 115.152 19.776L115.104 14.3666L117.997 14.34L118.104 26.1307L115.302 26.1559L115.29 24.7694C115.285 24.3299 115.35 23.9589 115.35 23.9589L115.305 23.9597C114.764 25.1671 113.26 26.4522 111.262 26.4705C108.736 26.4933 107.186 25.2356 107.157 22.0217L107.089 14.439ZM126.791 13.9827C128.375 13.9682 130.171 14.4839 131.307 15.699L130.017 17.7222C129.275 16.9894 128.122 16.4676 126.974 16.4783C124.816 16.4981 123.429 18.1519 123.447 20.1637C123.464 22.152 124.882 23.85 127.131 23.8294C128.371 23.818 129.697 23.159 130.562 22.2952L131.706 24.3657C130.615 25.5548 128.784 26.3113 126.901 26.3288C123.02 26.3638 120.516 23.6351 120.485 20.2133C120.454 16.8614 122.909 14.0177 126.791 13.9819V13.9827ZM133.686 9.57354L136.603 9.54688L136.655 15.2808C136.66 15.8582 136.595 16.2749 136.595 16.2749H136.64C137.204 15.1368 138.663 13.8753 140.684 13.8562C143.279 13.8334 144.784 15.184 144.812 18.305L144.88 25.8877L141.963 25.9144L141.9 18.9319C141.888 17.499 141.512 16.5308 140.042 16.5445C137.998 16.5636 136.681 18.2395 136.702 20.4829L136.75 25.9616L133.834 25.9883L133.686 9.57354Z" fill="#1F292B"/>
<path fill-rule="evenodd" clip-rule="evenodd" d="M18.21 15.8779L28.3903 25.9433C33.0152 20.0898 32.9977 11.6387 28.1186 5.72119L18.21 15.8779Z" fill="#1F292B"/>
<path fill-rule="evenodd" clip-rule="evenodd" d="M11.7068 27.4217L15.8731 23.2273L20.0386 27.4217H11.7068ZM15.8435 18.3032L2.68945 31.7867C10.5832 38.1437 21.7315 37.9212 29.3133 31.6221L15.8442 18.3032H15.8435Z" fill="#1EB0CD"/>
<path fill-rule="evenodd" clip-rule="evenodd" d="M25.86 3.48728C19.5536 -1.57471 10.3412 -1.11689 4.56701 4.80211C-1.20717 10.7211 -1.49641 20.0026 3.64463 26.259L25.86 3.48728Z" fill="#1F292B"/>
</g>
<defs>
<clipPath id="clip0_717:3673">
<rect width="145" height="36.5652" fill="white"/>
</clipPath>
</defs>
</svg>
