<svg width="76" height="26" viewBox="0 0 76 26" fill="none" xmlns="http://www.w3.org/2000/svg">
<g clip-path="url(#clip0_1124:672)">
<path fill-rule="evenodd" clip-rule="evenodd" d="M65.9818 10.673L69.0507 19.4309H62.958L65.9818 10.673ZM71.4877 25.9537H75.9556L65.9818 0.0449219L56.053 25.9537H60.5661L61.6041 23.0344H70.4046L71.4877 25.9537ZM43.9129 21.8484V4.88001C43.9129 4.88001 54.2478 3.28352 54.2478 13.3642C54.2478 23.3081 43.9129 21.8484 43.9129 21.8484ZM39.7157 0.774746V25.9537H43.9129C50.0958 25.9537 58.445 24.1291 58.445 13.3642C58.445 2.18878 49.9604 0.774746 43.9129 0.774746H39.7157ZM25.7252 4.97124H29.0649C29.0649 4.97124 33.2169 4.97124 33.2169 8.11861C33.2169 10.5818 30.6896 11.1291 29.6065 11.266L25.7252 4.97124ZM38.6777 25.9537L31.9081 15.0063C34.3001 14.3221 37.3689 12.5888 37.3689 8.11861C37.3689 0.774746 29.0649 0.774746 29.0649 0.774746H20.7609V4.97124L24.6872 11.266H20.7609V25.9537H24.9129V15.4625H27.3048L33.8036 25.9537H38.6777ZM9.97464 10.673L12.9984 19.4309H6.95089L9.97464 10.673ZM15.4354 25.9537H19.9485L9.97464 0.0449219L0.0458984 25.9537H4.51383L5.59697 23.0344H14.3523L15.4354 25.9537Z" fill="white" stroke="white" stroke-width="0.900109"/>
</g>
<defs>
<clipPath id="clip0_1124:672">
<rect width="76" height="26" fill="white"/>
</clipPath>
</defs>
</svg>
