<svg width="144" height="49" viewBox="0 0 144 49" fill="none" xmlns="http://www.w3.org/2000/svg">
<path fill-rule="evenodd" clip-rule="evenodd" d="M125.08 20.1004L130.901 36.6637H119.344L125.08 20.1004ZM135.524 49H144L125.08 0L106.245 49H114.806L116.775 43.4789H133.47L135.524 49ZM83.2152 41.2359V9.14437C83.2152 9.14437 102.82 6.125 102.82 25.1901C102.82 43.9965 83.2152 41.2359 83.2152 41.2359ZM75.2533 1.38028V49H83.2152C94.9441 49 110.782 45.5493 110.782 25.1901C110.782 4.05458 94.6873 1.38028 83.2152 1.38028H75.2533ZM48.7134 9.3169H55.0488C55.0488 9.3169 62.9251 9.3169 62.9251 15.2694C62.9251 19.9278 58.1308 20.963 56.0761 21.2218L48.7134 9.3169ZM73.2842 49L60.4423 28.2958C64.9798 27.0018 70.8014 23.7236 70.8014 15.2694C70.8014 1.38028 55.0488 1.38028 55.0488 1.38028H39.2961V9.3169L46.7444 21.2218H39.2961V49H47.1724V29.1585H51.7099L64.038 49H73.2842ZM18.8347 20.1004L24.5707 36.6637H13.0987L18.8347 20.1004ZM29.1938 49H37.7551L18.8347 0L0 49H8.47562L10.5303 43.4789H27.1391L29.1938 49Z" fill="#7685A8"/>
</svg>
