<svg width="999" height="640" viewBox="0 0 999 640" fill="none" xmlns="http://www.w3.org/2000/svg">
<g clip-path="url(#clip0)">
<path fill-rule="evenodd" clip-rule="evenodd" d="M5 203.538L113.086 4.12427H319.513L211.491 203.368L410.818 564.017L670.606 561.712L852.356 232.874L956.579 417.827L956.409 418.123L773.823 748.487L410.396 751.64L410.234 751.369L308.282 752.25L5 203.538Z" fill="white" fill-opacity="0.04"/>
<path fill-rule="evenodd" clip-rule="evenodd" d="M1095.23 -219L1207 -22.9741L1103.34 162.392L991.674 -33.4998H591.287L462.745 200.927L645.286 527.342L438.965 529.126L438.802 528.823L255.421 200.893L435.257 -127.003H435.574L486.044 -219H1095.23Z" fill="white" fill-opacity="0.04"/>
<path fill-rule="evenodd" clip-rule="evenodd" d="M1155.39 332.04L1155.54 331.734L971.582 4.12427H607.19H606.834L505.835 191.127H868.583L1000.13 425.325L801.221 786.471L582.445 788.373L685.444 975.376L904.341 973.44L1207 423.958L1155.39 332.04Z" fill="white" fill-opacity="0.04"/>
</g>
<defs>
<clipPath id="clip0">
<rect width="999" height="640" fill="white"/>
</clipPath>
</defs>
</svg>
