<svg width="669" height="635" viewBox="0 0 669 635" fill="none" xmlns="http://www.w3.org/2000/svg">
<path fill-rule="evenodd" clip-rule="evenodd" d="M0 224.347L60.1576 118.469H175.049L114.927 224.257L225.867 415.744L370.457 414.519L471.614 239.924L529.622 338.124L529.527 338.281L427.905 513.687L225.632 515.362L225.541 515.218L168.798 515.686L0 224.347Z" fill="white" fill-opacity="0.2"/>
<path fill-rule="evenodd" clip-rule="evenodd" d="M0 224.347L60.1576 118.469H175.049L114.927 224.257L225.867 415.744L370.457 414.519L471.614 239.924L529.622 338.124L529.527 338.281L427.905 513.687L225.632 515.362L225.541 515.218L168.798 515.686L0 224.347Z" fill="white" fill-opacity="0.2"/>
<path fill-rule="evenodd" clip-rule="evenodd" d="M606.78 0L668.988 104.08L611.293 202.499L549.144 98.491H326.3L254.757 222.96L356.354 396.269L241.522 397.216L241.431 397.056L139.367 222.942L239.458 48.8457H239.635L267.725 0H606.78Z" fill="white" fill-opacity="0.2"/>
<path fill-rule="evenodd" clip-rule="evenodd" d="M606.78 0L668.988 104.08L611.293 202.499L549.144 98.491H326.3L254.757 222.96L356.354 396.269L241.522 397.216L241.431 397.056L139.367 222.942L239.458 48.8457H239.635L267.725 0H606.78Z" fill="white" fill-opacity="0.2"/>
<path fill-rule="evenodd" clip-rule="evenodd" d="M640.255 292.575L640.341 292.413L537.955 118.469H335.145H334.947L278.734 217.758H480.629L553.842 342.105L443.137 533.855L321.372 534.865L378.699 634.154L500.531 633.126L668.981 341.379L640.255 292.575Z" fill="white" fill-opacity="0.2"/>
<path fill-rule="evenodd" clip-rule="evenodd" d="M640.255 292.575L640.341 292.413L537.955 118.469H335.145H334.947L278.734 217.758H480.629L553.842 342.105L443.137 533.855L321.372 534.865L378.699 634.154L500.531 633.126L668.981 341.379L640.255 292.575Z" fill="white" fill-opacity="0.2"/>
</svg>
