<svg width="235" height="234" viewBox="0 0 235 234" fill="none" xmlns="http://www.w3.org/2000/svg">
<path d="M36.4984 125.258L25.4841 123.91L25.7124 125.364L34.8655 126.308L26.4567 130.106L26.6278 131.196L35.7958 132.235L27.3746 135.954L27.6028 137.408L37.6744 132.75L37.4511 131.328L28.5825 130.339L36.7217 126.681L36.4984 125.258Z" fill="white"/>
<path d="M36.3735 117.089C36.375 115.825 35.9602 114.784 35.1931 114.015L34.4084 114.591C35.0317 115.199 35.3826 116.096 35.3816 116.976C35.3797 118.64 34.1625 119.662 32.7064 119.757L32.7137 113.501L32.4097 113.5C30.0897 113.498 28.2641 114.871 28.2613 117.207C28.2588 119.415 30.0649 121.018 32.3049 121.02C34.7209 121.023 36.3708 119.377 36.3735 117.089ZM31.8323 114.684L31.8264 119.756C30.6424 119.69 29.2514 118.873 29.2533 117.225C29.2554 115.465 30.6803 114.698 31.8323 114.684Z" fill="white"/>
<path d="M34.5567 107.997L31.082 107.545C30.4692 107.046 30.0198 106.036 30.1416 105.099C30.3439 103.545 31.7329 102.789 33.4306 103.01C35.1283 103.231 36.262 104.314 36.0598 105.869C35.938 106.805 35.2767 107.671 34.5567 107.997ZM36.6352 108.268L35.4928 108.119C36.3446 107.649 37.0217 106.785 37.162 105.706C37.4221 103.707 36.0826 102.097 33.5916 101.773C31.1482 101.455 29.3779 102.661 29.1178 104.66C28.9816 105.707 29.3696 106.693 30.13 107.421L26.0523 106.891L25.8975 108.081L36.4804 109.458L36.6352 108.268Z" fill="white"/>
<path d="M38.9985 96.6081C39.5934 94.3326 38.201 92.4471 36.0338 91.8805C33.8667 91.314 31.7451 92.2808 31.1503 94.5564C30.5554 96.8319 31.9323 98.7133 34.0995 99.2799C36.2666 99.8464 38.4036 98.8836 38.9985 96.6081ZM37.9614 96.337C37.5445 97.9314 35.9476 98.4731 34.4151 98.0724C32.8981 97.6759 31.7706 96.4219 32.1874 94.8275C32.6042 93.2331 34.1971 92.7068 35.7141 93.1034C37.2466 93.5041 38.3782 94.7425 37.9614 96.337Z" fill="white"/>
<path d="M41.1191 89.1971L31.072 85.5989L30.6674 86.7286L40.7145 90.3268L41.1191 89.1971Z" fill="white"/>
<path d="M44.6952 80.7954L37.6639 77.5888L37.166 78.6806L42.3339 81.0374C42.7158 81.7039 42.839 82.7449 42.4473 83.6038C42.0158 84.55 41.3663 85.01 40.1289 84.4457L35.4996 82.3346L35.0017 83.4264L39.9659 85.6902C41.4944 86.3873 42.5596 85.9411 43.2301 84.4708C43.7081 83.4226 43.5732 82.2532 43.2074 81.4357L44.1973 81.8872L44.6952 80.7954Z" fill="white"/>
<path d="M48.301 74.7825C48.6589 74.1763 48.6994 73.6985 48.6059 73.2903L47.6554 73.1379C47.7256 73.3652 47.687 73.714 47.5161 74.0033C47.2477 74.458 46.7593 74.4669 46.2633 74.1741L42.1299 71.7338L42.9271 70.3836L42.0177 69.8467L41.2206 71.197L39.4019 70.1232L38.7918 71.1566L40.6105 72.2303L39.9598 73.3325L40.8691 73.8694L41.5198 72.7672L45.8737 75.3376C46.8657 75.9233 47.7235 75.7608 48.301 74.7825Z" fill="white"/>
<path d="M43.3 65.9508C43.5539 65.5816 43.4723 65.079 43.1032 64.8251C42.734 64.5713 42.2223 64.666 41.9685 65.0352C41.7237 65.3911 41.8184 65.9029 42.1876 66.1567C42.5567 66.4105 43.0553 66.3068 43.3 65.9508ZM50.9221 70.454L44.5542 66.0753L43.8743 67.0641L50.2421 71.4428L50.9221 70.454Z" fill="white"/>
<path d="M55.0132 65.417C56.5101 63.6028 56.0399 61.3066 54.312 59.881C52.5842 58.4555 50.2528 58.4403 48.756 60.2546C47.2592 62.0688 47.717 64.3549 49.4448 65.7804C51.1727 67.2059 53.5164 67.2313 55.0132 65.417ZM54.1863 64.7348C53.1376 66.006 51.4609 65.8258 50.2391 64.8177C49.0296 63.8199 48.5341 62.208 49.5829 60.9368C50.6317 59.6656 52.2981 59.8582 53.5076 60.856C54.7295 61.8641 55.2351 63.4636 54.1863 64.7348Z" fill="white"/>
<path d="M63.5119 56.2882L59.7757 52.3562C58.6184 51.1384 57.4416 51.1309 56.2701 52.2441C55.435 53.0376 55.1324 54.2522 55.1789 55.0908L54.4074 54.2789L53.5375 55.1055L58.8607 60.7078L59.7306 59.8812L55.8401 55.7868C55.7351 55.0258 55.9879 53.9911 56.6722 53.3408C57.4261 52.6244 58.2224 52.4637 59.1592 53.4496L62.6419 57.1148L63.5119 56.2882Z" fill="white"/>
<path d="M72.3726 45.5199L71.7864 44.6415L68.5924 46.7732L69.1786 47.6515L72.3726 45.5199Z" fill="white"/>
<path d="M87.8394 41.4504L85.7037 36.5867C84.951 34.8727 83.4099 34.7456 81.9156 35.4017C80.7583 35.91 80.0172 36.6897 79.6028 37.8153L80.4501 38.3519C80.7841 37.4014 81.3375 36.7914 82.1872 36.4183C83.2127 35.968 84.2125 36.1755 84.6307 37.1278L85.1903 38.4023C84.3295 37.994 83.3887 38.0401 82.4218 38.4647C81.2205 38.9922 80.2741 40.299 80.9688 41.8812C81.6443 43.4194 83.2726 43.6655 84.4739 43.138C85.4262 42.7198 86.0839 42.0291 86.3869 41.1272L86.7407 41.9329L87.8394 41.4504ZM84.5221 42.1732C83.4966 42.6235 82.4957 42.2941 82.1033 41.4005C81.7045 40.4922 82.1392 39.5324 83.1647 39.0821C83.9412 38.7411 84.817 38.7061 85.4991 39.1055L86.0845 40.4386C85.917 41.2112 85.2985 41.8323 84.5221 42.1732Z" fill="white"/>
<path d="M94.0421 31.3021L88.8855 32.9318L91.2143 40.3005L92.3585 39.9389L90.348 33.5771L94.3604 32.309L94.0421 31.3021Z" fill="white"/>
<path d="M101.146 37.8416C102.386 37.5929 103.324 36.9804 103.925 36.0763L103.206 35.4209C102.733 36.1524 101.924 36.6738 101.061 36.847C99.4296 37.1744 98.1863 36.1836 97.8057 34.775L103.939 33.544L103.88 33.246C103.423 30.9713 101.715 29.4537 99.4248 29.9134C97.2599 30.3478 96.047 32.4353 96.4877 34.6315C96.9631 37.0003 98.9032 38.2918 101.146 37.8416ZM102.605 32.9142L97.6326 33.9122C97.4623 32.7388 97.9885 31.2134 99.6043 30.8891C101.33 30.5428 102.363 31.7879 102.605 32.9142Z" fill="white"/>
<path d="M108.557 36.4615L108.284 33.0162L112.304 32.6984L112.576 36.1436L113.772 36.0491L113.163 28.3451L111.967 28.4397L112.22 31.6457L108.201 31.9635L107.947 28.7575L106.751 28.8521L107.36 36.5561L108.557 36.4615Z" fill="white"/>
<path d="M119.986 36.0735L120.197 29.4048L122.451 29.4759L122.485 28.4204L116.792 28.241L116.758 29.2965L118.997 29.367L118.787 36.0357L119.986 36.0735Z" fill="white"/>
<path d="M128.848 37.0627C130.243 37.2548 131.145 36.7977 131.837 36.1177L131.145 35.2794C130.544 35.8911 129.85 36.1186 129.058 36.0095C127.425 35.7847 126.585 34.3769 126.819 32.6809C127.052 30.9849 128.239 29.8725 129.872 30.0973C130.664 30.2064 131.273 30.5971 131.684 31.3643L132.577 30.7444C132.095 29.9028 131.349 29.2187 129.955 29.0266C127.672 28.7123 125.894 30.2441 125.582 32.5107C125.268 34.7931 126.565 36.7484 128.848 37.0627Z" fill="white"/>
<path d="M136.595 38.3949L138.187 31.9156L140.378 32.4539L140.63 31.4284L135.098 30.0693L134.846 31.0948L137.022 31.6293L135.43 38.1085L136.595 38.3949Z" fill="white"/>
<path d="M145.994 41.326C147.335 41.8061 148.404 41.2883 148.825 40.1134C149.122 39.2849 148.809 38.3063 148.136 37.8612C148.824 37.8866 149.591 37.4987 149.904 36.625C150.298 35.5254 149.805 34.4821 148.525 34.0235L144.518 32.5886L141.912 39.8641L145.994 41.326ZM146.125 40.2509L143.398 39.2745L144.202 37.0301L146.928 38.0065C147.697 38.2816 147.909 38.9696 147.699 39.557C147.451 40.2499 146.848 40.5099 146.125 40.2509ZM147.239 36.9962L144.558 36.0359L145.292 33.9873L147.973 34.9476C148.666 35.1957 148.912 35.7427 148.685 36.3753C148.48 36.9477 147.947 37.2497 147.239 36.9962Z" fill="white"/>
<path d="M152.944 44.5917C155.055 45.6295 157.181 44.6422 158.169 42.6321C159.157 40.6219 158.634 38.3499 156.524 37.3121C154.413 36.2743 152.294 37.2473 151.306 39.2574C150.317 41.2676 150.834 43.5539 152.944 44.5917ZM153.417 43.6297C151.938 42.9026 151.727 41.2296 152.426 39.8081C153.118 38.401 154.572 37.547 156.051 38.2741C157.53 39.0013 157.727 40.6672 157.035 42.0743C156.336 43.4958 154.896 44.3569 153.417 43.6297Z" fill="white"/>
<path d="M168.318 54.0895L168.015 48.6504L172.844 47.8259L171.614 46.933L165.91 47.8736L168.325 44.5458L167.354 43.8409L162.815 50.0952L163.786 50.8001L165.083 49.0131L166.861 48.7421L167.075 53.1873L168.318 54.0895Z" fill="white"/>
<path d="M171.817 57.5177C173.553 59.1055 175.87 58.7535 177.382 57.1009C178.894 55.4483 179.029 53.1208 177.294 51.533C175.558 49.9453 173.252 50.2855 171.74 51.938C170.228 53.5906 170.082 55.93 171.817 57.5177ZM172.541 56.7269C171.325 55.6144 171.591 53.9491 172.66 52.7805C173.719 51.6237 175.354 51.2114 176.57 52.3239C177.786 53.4364 177.508 55.0908 176.45 56.2476C175.38 57.4163 173.757 57.8394 172.541 56.7269Z" fill="white"/>
<path d="M181.835 68.0458L187.724 63.0416L186.688 61.8223L180.81 63.7513L183.642 58.2377L182.616 57.0307L176.727 62.0349L177.504 62.9493L182.125 59.0226L179.141 64.8757L179.431 65.2171L185.679 63.2046L181.058 67.1313L181.835 68.0458Z" fill="white"/>
<path d="M186.553 75.1453L193.029 70.9282L189.519 65.5383L183.043 69.7554L183.698 70.761L189.289 67.1201L191.489 70.4989L185.898 74.1397L186.553 75.1453Z" fill="white"/>
<path d="M187.583 77.1818C188.248 78.5129 189.594 78.7707 192.327 77.7981L195.075 76.8183L196.47 79.6092L190.502 82.5919L191.038 83.6653L197.951 80.2105L195.547 75.4016L191.919 76.6603C189.737 77.4112 188.792 77.3824 188.471 76.7384L187.583 77.1818Z" fill="white"/>
<path d="M192.97 89.0861C193.402 90.2741 194.148 91.1096 195.132 91.5691L195.672 90.7601C194.878 90.4017 194.241 89.6797 193.941 88.8526C193.373 87.2886 194.166 85.911 195.501 85.3236L197.638 91.2035L197.923 91.0997C200.104 90.3075 201.348 88.3914 200.551 86.1958C199.797 84.1205 197.551 83.234 195.446 83.9989C193.175 84.8239 192.189 86.9356 192.97 89.0861ZM198.061 89.7902L196.329 85.0231C197.463 84.6789 199.05 84.9705 199.613 86.5195C200.214 88.1737 199.138 89.3818 198.061 89.7902Z" fill="white"/>
<path d="M197.022 102.924L200.355 98.6155L204.545 101.155L204.2 99.6747L199.273 96.6499L203.278 95.7167L203.005 94.548L195.479 96.3018L195.751 97.4704L197.902 96.9694L199.423 97.9292L196.674 101.428L197.022 102.924Z" fill="white"/>
<path d="M197.452 107.992C197.622 109.39 198.295 110.146 199.129 110.641L199.763 109.758C199.018 109.333 198.621 108.72 198.524 107.926C198.325 106.29 199.472 105.119 201.172 104.912C202.871 104.705 204.249 105.569 204.449 107.205C204.545 107.999 204.323 108.687 203.686 109.28L204.513 109.986C205.204 109.305 205.675 108.41 205.505 107.012C205.227 104.725 203.292 103.397 201.021 103.673C198.734 103.952 197.174 105.705 197.452 107.992Z" fill="white"/>
<path d="M198.14 114.033L201.596 114.011L201.622 118.043L198.166 118.065L198.173 119.265L205.901 119.215L205.893 118.015L202.678 118.036L202.652 114.004L205.868 113.983L205.86 112.784L198.132 112.833L198.14 114.033Z" fill="white"/>
<path d="M197.45 126.147C197.181 128.484 198.825 130.154 201.051 130.41C203.276 130.666 205.24 129.409 205.509 127.073C205.777 124.736 204.149 123.067 201.924 122.812C199.698 122.556 197.718 123.81 197.45 126.147ZM198.515 126.269C198.703 124.632 200.208 123.871 201.781 124.052C203.339 124.231 204.632 125.313 204.444 126.951C204.256 128.588 202.753 129.333 201.195 129.154C199.621 128.973 198.327 127.907 198.515 126.269Z" fill="white"/>
<path d="M203.024 139.616L204.197 134.337L196.653 132.66L196.393 133.832L202.906 135.28L201.993 139.387L203.024 139.616Z" fill="white"/>
<path d="M193.877 142.358C193.133 144.589 194.397 146.563 196.522 147.272C198.647 147.98 200.828 147.156 201.572 144.925C202.316 142.693 201.067 140.725 198.942 140.016C196.817 139.308 194.621 140.127 193.877 142.358ZM194.894 142.697C195.415 141.134 197.044 140.699 198.547 141.2C200.034 141.696 201.076 143.022 200.555 144.586C200.034 146.149 198.409 146.569 196.922 146.072C195.419 145.571 194.372 144.261 194.894 142.697Z" fill="white"/>
<path d="M189.619 153.263L192.962 159.718L187.674 156.85L187.102 157.905L193.895 161.589L194.46 160.548L191.2 154.175L196.39 156.99L196.962 155.935L190.169 152.251L189.619 153.263Z" fill="white"/>
<path d="M184.69 161.774L187.509 163.774L185.176 167.062L182.358 165.063L181.663 166.042L187.967 170.513L188.661 169.534L186.038 167.673L188.37 164.385L190.994 166.245L191.688 165.266L185.384 160.795L184.69 161.774Z" fill="white"/>
<path d="M177.627 170.886L182.615 175.317L181.116 177.003L181.906 177.705L185.689 173.447L184.899 172.745L183.412 174.42L178.424 169.988L177.627 170.886Z" fill="white"/>
<path d="M171.453 176.855C170.514 177.701 170.021 178.707 169.965 179.791L170.918 179.988C170.951 179.117 171.381 178.256 172.034 177.666C173.27 176.552 174.845 176.768 175.891 177.785L171.246 181.976L171.45 182.202C173.004 183.924 175.247 184.357 176.982 182.792C178.621 181.313 178.598 178.899 177.098 177.236C175.479 175.442 173.152 175.322 171.453 176.855ZM172.715 181.836L176.481 178.439C177.226 179.361 177.553 180.941 176.329 182.045C175.022 183.224 173.498 182.681 172.715 181.836Z" fill="white"/>
<path d="M163.004 183.558C161.34 184.723 161.086 186.816 162.518 188.86C163.959 190.917 165.994 191.368 167.658 190.202C168.549 189.578 169.014 188.568 169.023 187.605L169.684 188.548L170.667 187.86L164.544 179.119L163.561 179.807L165.92 183.175C164.914 182.826 163.869 182.952 163.004 183.558ZM163.868 184.261C164.641 183.72 165.745 183.65 166.471 183.962L168.472 186.818C168.517 187.608 168.065 188.608 167.292 189.149C166.021 190.04 164.536 189.537 163.553 188.135C162.571 186.733 162.597 185.152 163.868 184.261Z" fill="white"/>
<path d="M157.131 187.507L158.735 190.568L155.163 192.439L153.56 189.378L152.497 189.934L156.083 196.78L157.146 196.223L155.653 193.374L159.225 191.504L160.717 194.352L161.78 193.796L158.194 186.95L157.131 187.507Z" fill="white"/>
<path d="M146.57 192.261C145.388 192.711 144.565 193.47 144.12 194.461L144.937 194.989C145.284 194.189 145.996 193.541 146.818 193.228C148.373 192.636 149.763 193.408 150.371 194.734L144.524 196.961L144.632 197.245C145.458 199.413 147.393 200.628 149.576 199.797C151.64 199.011 152.491 196.752 151.694 194.658C150.834 192.401 148.708 191.447 146.57 192.261ZM145.944 197.362L150.684 195.557C151.045 196.686 150.778 198.277 149.238 198.864C147.593 199.49 146.369 198.433 145.944 197.362Z" fill="white"/>
<path d="M137.558 195.373L139.222 201.834L137.038 202.397L137.301 203.42L142.817 201.999L142.554 200.976L140.384 201.535L138.72 195.074L137.558 195.373Z" fill="white"/>
<path d="M127.32 200.751L127.476 201.796L131.274 201.229L131.118 200.185L127.32 200.751Z" fill="white"/>
<path d="M114.755 198.088L114.952 205.814L116.551 205.773L118.741 199.987L121.254 205.653L122.837 205.613L122.64 197.887L121.441 197.918L121.595 203.98L118.914 197.982L118.466 197.994L116.109 204.12L115.955 198.058L114.755 198.088Z" fill="white"/>
<path d="M105.08 197.173L104.513 202.454C104.314 204.316 105.587 205.192 107.21 205.367C108.467 205.501 109.498 205.194 110.417 204.423L109.949 203.536C109.186 204.195 108.403 204.449 107.48 204.35C106.367 204.23 105.602 203.553 105.713 202.519L105.862 201.135C106.406 201.917 107.245 202.345 108.295 202.458C109.599 202.598 111.07 201.935 111.255 200.217C111.434 198.546 110.144 197.523 108.839 197.383C107.805 197.272 106.891 197.544 106.179 198.176L106.273 197.301L105.08 197.173ZM108.317 198.196C109.431 198.315 110.135 199.099 110.031 200.069C109.925 201.056 109.071 201.672 107.957 201.552C107.114 201.462 106.337 201.057 105.944 200.371L106.099 198.923C106.629 198.336 107.474 198.105 108.317 198.196Z" fill="white"/>
<path d="M97.49 195.376C95.5149 194.899 93.7778 196.092 93.1912 198.518C92.6008 200.96 93.6084 202.784 95.5835 203.261C96.641 203.517 97.7058 203.198 98.4343 202.568L98.1636 203.687L99.33 203.969L101.838 193.596L100.672 193.314L99.7053 197.311C99.3018 196.325 98.5164 195.624 97.49 195.376ZM97.5335 196.49C98.4511 196.712 99.2333 197.493 99.4797 198.244L98.6599 201.635C98.0977 202.19 97.0485 202.512 96.1309 202.291C94.6224 201.926 94.0175 200.479 94.4198 198.815C94.8222 197.151 96.025 196.125 97.5335 196.49Z" fill="white"/>
<path d="M84.768 191.346L86.5071 196.509L82.0712 198.588L83.4946 199.122L88.7431 196.697L87.3001 200.548L88.4238 200.969L91.1356 193.732L90.0119 193.311L89.2371 195.379L87.595 196.113L86.2064 191.885L84.768 191.346Z" fill="white"/>
<path d="M80.8592 189.171C79.7331 188.597 78.6176 188.495 77.5846 188.83L77.7416 189.79C78.5667 189.511 79.5248 189.604 80.3088 190.004C81.7912 190.76 82.1511 192.308 81.5752 193.649L76.0019 190.807L75.8638 191.078C74.8099 193.145 75.2072 195.395 77.2883 196.456C79.2553 197.459 81.502 196.575 82.5196 194.579C83.617 192.427 82.8975 190.21 80.8592 189.171ZM76.6569 192.129L81.1754 194.433C80.5806 195.459 79.2213 196.328 77.7532 195.579C76.1852 194.78 76.1479 193.162 76.6569 192.129Z" fill="white"/>
<path d="M72.7001 184.677L69.0406 190.256L67.1542 189.018L66.575 189.901L71.3378 193.025L71.917 192.142L70.044 190.914L73.7035 185.335L72.7001 184.677Z" fill="white"/>
<path d="M67.5665 181.065L60.5908 183.109L64.4194 178.468L63.4937 177.705L58.5756 183.666L59.4889 184.419L66.3687 182.441L62.6114 186.996L63.537 187.759L68.4551 181.798L67.5665 181.065Z" fill="white"/>
<path d="M60.4325 174.856L57.9359 177.246L55.1478 174.333L57.6444 171.943L56.8146 171.077L51.232 176.42L52.0618 177.287L54.385 175.063L57.1731 177.976L54.8499 180.2L55.6797 181.067L61.2623 175.723L60.4325 174.856Z" fill="white"/>
<path d="M44.6499 168.247L47.9484 172.533L54.0725 167.819L53.3406 166.869L48.0533 170.938L45.4868 167.603L44.6499 168.247Z" fill="white"/>
<path d="M46.2183 156.218L41.6815 158.981C40.0826 159.955 40.1614 161.499 41.0103 162.893C41.6677 163.972 42.539 164.603 43.7097 164.864L44.129 163.953C43.1426 163.749 42.4644 163.281 41.9817 162.489C41.3992 161.532 41.4721 160.513 42.3603 159.973L43.5492 159.248C43.2588 160.156 43.4296 161.082 43.9788 161.984C44.6613 163.105 46.0822 163.869 47.5581 162.97C48.9929 162.097 49.0205 160.45 48.3381 159.329C47.7971 158.441 47.0251 157.881 46.0909 157.701L46.8425 157.243L46.2183 156.218ZM47.3754 159.41C47.958 160.366 47.7645 161.402 46.9309 161.91C46.0837 162.426 45.0746 162.122 44.4921 161.166C44.051 160.442 43.8998 159.578 44.2051 158.849L45.4487 158.092C46.2366 158.155 46.9343 158.686 47.3754 159.41Z" fill="white"/>
</svg>
