<svg width="60" height="60" viewBox="0 0 60 60" fill="none" xmlns="http://www.w3.org/2000/svg">
<g clip-path="url(#clip0)">
<path fill-rule="evenodd" clip-rule="evenodd" d="M60.0009 36.0937C59.7078 36.5763 59.2825 36.7254 58.7216 36.719C57.5865 36.706 56.4511 36.7068 55.3158 36.7076H55.3146C54.2825 36.7083 53.2505 36.709 52.2185 36.6994C51.8209 36.6957 51.6526 36.814 51.5129 37.1943C51.1505 38.181 50.7441 39.1536 50.3032 40.108C50.1332 40.476 50.1751 40.6804 50.459 40.9593C51.8239 42.3003 53.173 43.6573 54.5221 45.0143L54.5231 45.0153L55.1013 45.5968C55.7558 46.2548 55.755 46.6774 55.094 47.3397C52.514 49.9245 49.9316 52.5069 47.3469 55.0869C46.6678 55.7648 46.2565 55.7559 45.5628 55.0645C45.2264 54.7292 44.8896 54.3941 44.5528 54.0591L44.5524 54.0587C43.3663 52.8787 42.1802 51.6988 41.0089 50.5043C40.7038 50.193 40.479 50.1253 40.0634 50.3238C39.1326 50.7681 38.1733 51.158 37.206 51.5175C36.8376 51.6544 36.6959 51.8043 36.7003 52.2129C36.719 53.9821 36.7156 55.7513 36.7122 57.5205C36.7114 57.9191 36.7106 58.3176 36.7101 58.7161C36.7089 59.7211 36.4274 59.9995 35.422 59.9998C31.809 60.0008 28.1961 60.0008 24.583 59.9998C23.5736 59.9995 23.2908 59.724 23.2894 58.72L23.2882 57.9513V57.9508C23.285 56.0394 23.2819 54.1279 23.3005 52.2167C23.3044 51.819 23.1856 51.6518 22.8051 51.5114C21.8006 51.1414 20.8125 50.7221 19.8372 50.2796C19.5105 50.1313 19.3244 50.1716 19.0818 50.4174C17.781 51.7358 16.4702 53.0442 15.1594 54.3526L14.4891 55.0217C13.7396 55.7701 13.3514 55.7738 12.6199 55.043C10.0643 52.4891 7.5096 49.9344 4.95569 47.3787C4.23841 46.661 4.23404 46.2598 4.93944 45.5526C5.21121 45.2801 5.48285 45.0075 5.75449 44.735C7.01305 43.472 8.27164 42.209 9.54408 40.9601C9.82802 40.6815 9.86599 40.4768 9.69659 40.1086C9.24919 39.1358 8.84414 38.142 8.468 37.1393C8.34236 36.8046 8.18812 36.6993 7.84183 36.7016C6.86734 36.7084 5.89277 36.7081 4.91819 36.7079C3.70542 36.7076 2.49265 36.7074 1.28007 36.7205C0.720628 36.7266 0.292293 36.5793 0.00100708 36.0937V23.9063C0.291825 23.4212 0.718128 23.2748 1.27835 23.2812C2.43324 23.2943 3.5883 23.2935 4.7434 23.2927H4.74401C5.75454 23.292 6.76509 23.2913 7.77557 23.2999C8.16515 23.3032 8.34439 23.2009 8.48535 22.8133C8.84414 21.8265 9.25326 20.8559 9.69081 19.9009C9.8549 19.5429 9.84521 19.3337 9.55345 19.0475C8.31713 17.8352 7.09543 16.6079 5.87373 15.3806L5.87314 15.38L5.87273 15.3796L5.87267 15.3795C5.55298 15.0584 5.23329 14.7372 4.91334 14.4163C4.25576 13.7569 4.24826 13.3243 4.89553 12.676C7.48694 10.0797 10.0807 7.48594 12.6767 4.89436C13.3253 4.24678 13.7576 4.25256 14.4178 4.91046C14.6901 5.18185 14.9626 5.45309 15.2351 5.72433L15.2351 5.72438L15.2352 5.72443L15.2352 5.72447L15.2354 5.7246L15.2358 5.72502L15.2358 5.72503C16.5119 6.99528 17.788 8.26562 19.0482 9.55135C19.334 9.84295 19.543 9.85389 19.9015 9.68934C20.8383 9.25928 21.7928 8.86314 22.7595 8.50544C23.1423 8.36386 23.3075 8.21181 23.3024 7.77425C23.2894 6.67553 23.2903 5.5766 23.2912 4.47768C23.292 3.41079 23.2929 2.34389 23.2811 1.27719C23.2749 0.717277 23.4217 0.290661 23.9071 0H36.0946C36.5804 0.29113 36.7283 0.72009 36.7223 1.27907C36.7098 2.46194 36.71 3.645 36.7102 4.82807V4.82955C36.7104 5.83333 36.7105 6.83713 36.7029 7.84082C36.7003 8.19227 36.8164 8.33776 37.1455 8.46215C38.1472 8.84126 39.1411 9.24616 40.1131 9.69527C40.4828 9.86623 40.6864 9.82263 40.9636 9.54025C42.1394 8.34248 43.3281 7.15739 44.5168 5.97232L44.5185 5.97063L44.5193 5.96979L44.5202 5.96894C44.8517 5.6384 45.1833 5.30785 45.5145 4.97703C46.2626 4.2299 46.6514 4.22334 47.3841 4.95515C49.9404 7.50828 52.4952 10.0631 55.0484 12.6194C55.7634 13.3353 55.7661 13.7408 55.0607 14.4482L54.6784 14.8317C53.2615 16.2529 51.8447 17.6741 50.4162 19.0835C50.1688 19.3276 50.1329 19.5146 50.2801 19.8394C50.722 20.8149 51.1426 21.8026 51.5131 22.8069C51.6537 23.1882 51.8236 23.304 52.2197 23.3003C53.2682 23.2901 54.3168 23.2903 55.3654 23.2905C56.4846 23.2907 57.6038 23.2909 58.7229 23.2785C59.2822 23.2724 59.7103 23.4201 60.001 23.906C60.0009 27.9688 60.0009 32.0312 60.0009 36.0937ZM13.658 53.3479C13.6908 53.3009 13.7231 53.2496 13.7563 53.1967C13.8315 53.077 13.9119 52.9491 14.0157 52.8444C15.3859 51.4632 16.7626 50.0885 18.1393 48.7139L18.1399 48.7134L18.1404 48.7128L18.1413 48.712L18.3617 48.4918C18.9579 47.8966 19.2129 47.9002 19.9655 48.2337C21.3523 48.8485 22.7543 49.4321 24.17 49.977C24.9698 50.2849 25.1635 50.4682 25.1648 51.3281C25.1669 52.7586 25.1666 54.189 25.1662 55.6194C25.1661 56.2195 25.166 56.8196 25.166 57.4197V58.0891H34.8313L34.8313 57.8974L34.8313 57.8477L34.8313 57.4217C34.8317 56.8559 34.8319 56.29 34.8321 55.7242C34.8326 54.2397 34.8331 52.7552 34.8371 51.2708C34.8393 50.4782 35.0404 50.2891 35.7764 50.0056C37.1742 49.4674 38.565 48.9052 39.9288 48.287C40.8111 47.8871 41.0169 47.8647 41.7211 48.5717C42.8394 49.6945 43.9555 50.8196 45.0437 51.9165C45.4831 52.3594 45.9179 52.7977 46.3465 53.2295L48.929 50.6499L53.225 46.3588L51.931 45.0688L51.928 45.0659C50.7841 43.9257 49.6224 42.7679 48.4624 41.6086C47.9014 41.0479 47.9061 40.7718 48.2263 40.0491C48.8485 38.6442 49.4406 37.2245 49.9962 35.792C50.291 35.0316 50.4779 34.837 51.3115 34.8351C52.787 34.832 54.2625 34.8313 55.7381 34.8307H55.7381H55.7382H55.7449L57.4624 34.8298L57.8757 34.8298L58.0948 34.8298V25.1666H57.4368L55.4451 25.1666C54.1173 25.1666 52.7894 25.1666 51.4617 25.1661C50.4359 25.1656 50.2928 25.0053 49.9444 24.0749C49.4398 22.7274 48.8879 21.3947 48.2914 20.0853C47.8828 19.1885 47.8648 18.9875 48.5622 18.2904C49.7151 17.138 50.8686 15.9861 52.0045 14.8517L52.0052 14.851L52.0196 14.8366L52.0249 14.8313L53.2397 13.6181L46.3731 6.761L45.0138 8.12439C43.9064 9.23529 42.784 10.3613 41.6606 11.4861C41.0366 12.1109 40.7934 12.1004 40.0112 11.7504C38.6261 11.1306 37.2221 10.5504 35.806 10.0052C35.0344 9.70825 34.8383 9.52775 34.8369 8.70109C34.8344 7.22638 34.8349 5.75159 34.8353 4.27683V4.27107C34.8355 3.69743 34.8357 3.12379 34.8357 2.55016V1.91883H25.1656C25.1656 2.56642 25.1658 3.21057 25.1661 3.85225V3.85812V3.864V3.86988V3.87106V3.87224V3.87341C25.1668 5.51145 25.1675 7.13346 25.1637 8.75547C25.162 9.51025 24.9515 9.717 24.2554 9.99125C22.7899 10.5688 21.336 11.1773 19.8919 11.8065C19.2454 12.0881 18.9376 12.081 18.4266 11.5719C17.5084 10.6573 16.5922 9.7405 15.676 8.82372L15.676 8.82372L15.676 8.82371L15.676 8.8237C15.1153 8.26266 14.5545 7.70162 13.9934 7.14105C13.8904 7.03819 13.7833 6.93938 13.6913 6.85455C13.6527 6.819 13.6168 6.7859 13.585 6.756L6.73138 13.6122C7.1764 14.0544 7.62385 14.4987 8.07292 14.9445C9.22916 16.0925 10.3961 17.2512 11.56 18.4131C12.0921 18.9442 12.0892 19.2477 11.7894 19.927C11.1687 21.3325 10.569 22.7489 10.0149 24.1818C9.70894 24.973 9.52939 25.1636 8.65803 25.1652C7.21001 25.1679 5.76191 25.1686 4.31385 25.1694H4.3138H4.31376H4.31372L2.6829 25.1703L2.18441 25.1704L1.91547 25.1703V34.8114C1.97984 34.8143 2.03991 34.8176 2.0971 34.8208L2.09764 34.8208L2.09805 34.8209L2.09827 34.8209C2.21204 34.8272 2.31445 34.8329 2.41678 34.8329C3.2683 34.8335 4.11982 34.8334 4.97134 34.8334H4.9862C6.21907 34.8333 7.45196 34.8331 8.68491 34.835C9.52282 34.8362 9.70941 35.0311 10.0043 35.787C10.5697 37.2365 11.1777 38.6705 11.8034 40.0953C12.0874 40.7418 12.0817 41.0592 11.5829 41.5636C11.0629 42.0894 10.5393 42.6116 10.0158 43.1338L10.0138 43.1359C9.84674 43.3025 9.67972 43.4691 9.51282 43.6358C8.87513 44.2728 8.23708 44.9096 7.60629 45.5392L6.72732 46.4166L13.658 53.3479ZM46.3972 30.0061C46.3928 39.0303 39.0153 46.4019 29.9928 46.397C20.9687 46.3922 13.5974 39.0144 13.6024 29.9922C13.6074 20.9659 20.9812 13.5989 30.0062 13.603C39.0323 13.6072 46.4014 20.9817 46.3972 30.0061ZM30.012 44.5221C37.9853 44.5148 44.5122 37.9897 44.5221 30.0161C44.5319 22.0167 37.9875 15.471 29.987 15.478C22.0126 15.4851 15.4869 22.0087 15.4774 29.9828C15.468 37.9805 22.0147 44.5293 30.012 44.5221ZM23.3426 30.7697C22.9479 30.5223 22.5482 30.2717 22.1418 30.0163C22.2126 29.9666 22.2732 29.923 22.3276 29.8839C22.4301 29.8103 22.5103 29.7527 22.5938 29.7001C22.9816 29.4558 23.3703 29.2127 23.759 28.9695C24.5946 28.4469 25.4302 27.9242 26.2577 27.3889C26.7399 27.0769 26.8476 26.5557 26.5852 26.1141C26.3211 25.6695 25.7862 25.5024 25.3121 25.7934C23.4828 26.9162 21.6596 28.0493 19.8541 29.2098C19.2413 29.6037 19.2346 30.3865 19.8401 30.7772C21.6435 31.9406 23.4647 33.0768 25.2922 34.2023C25.807 34.5193 26.3824 34.3168 26.6268 33.8018C26.846 33.3397 26.7002 32.8896 26.1844 32.561C25.2499 31.9656 24.3111 31.377 23.3426 30.7697ZM37.8661 29.9869L36.6415 29.2172C35.7718 28.6705 34.9196 28.1348 34.0671 27.5993C34.0254 27.573 33.9827 27.548 33.94 27.5231C33.8647 27.479 33.7894 27.435 33.7193 27.3838C33.2664 27.0528 33.1489 26.5418 33.4188 26.1007C33.6879 25.6604 34.2083 25.517 34.6964 25.7917C35.0358 25.9827 35.364 26.1937 35.6922 26.4046C35.8398 26.4996 35.9875 26.5945 36.1362 26.6876C36.521 26.9286 36.9062 27.169 37.2915 27.4094L37.2916 27.4095C38.1799 27.9639 39.0683 28.5183 39.9519 29.0801C40.8216 29.633 40.8316 30.3671 39.9694 30.9131C38.273 31.9878 36.5676 33.0484 34.8615 34.1076C34.2675 34.4764 33.7369 34.3922 33.4283 33.9054C33.1201 33.4195 33.277 32.8993 33.8652 32.5272C34.588 32.07 35.3131 31.6167 36.0383 31.1634L36.0393 31.1628L36.0398 31.1625C36.4879 30.8824 36.9361 30.6022 37.3837 30.3212C37.4779 30.2619 37.5688 30.1973 37.6776 30.1199L37.6778 30.1198C37.7346 30.0793 37.7964 30.0354 37.8661 29.9869ZM28.1732 35.1529C28.0664 35.7873 28.5016 36.321 29.1717 36.3158C29.618 36.2486 29.9307 35.9728 30.0225 35.4317C30.3066 33.7543 30.5933 32.0775 30.8801 30.4006C31.1983 28.5399 31.5165 26.6791 31.8311 24.8177C31.9255 24.2595 31.5734 23.7797 31.0529 23.6935C30.5641 23.6125 30.1128 23.9343 29.9976 24.4823C29.9092 24.9033 29.8386 25.328 29.7681 25.7526C29.7459 25.8862 29.7237 26.0197 29.701 26.1532C29.5996 26.7488 29.4981 27.3444 29.3966 27.9401C28.987 30.3441 28.5774 32.748 28.1732 35.1529Z" fill="url(#paint0_linear)"/>
</g>
<defs>
<linearGradient id="paint0_linear" x1="49.649" y1="-3.374" x2="-0.673011" y2="46.6544" gradientUnits="userSpaceOnUse">
<stop stop-color="#4AB1FE"/>
<stop offset="1" stop-color="#07EBFE"/>
</linearGradient>
<clipPath id="clip0">
<rect width="60" height="60.0003" fill="white"/>
</clipPath>
</defs>
</svg>
