<svg width="70" height="70" viewBox="0 0 70 70" fill="none" xmlns="http://www.w3.org/2000/svg">
<path d="M64.5617 29.0259C63.4321 23.3933 60.6936 18.0226 56.3355 13.6645C51.9774 9.30759 46.6067 6.56914 40.9741 5.43948C40.67 2.39448 38.1234 0 35 0C31.8766 0 29.33 2.39448 29.0259 5.43948C23.3933 6.56914 18.0226 9.30759 13.6645 13.6645C9.30638 18.0226 6.56793 23.3933 5.43828 29.0259C2.39448 29.33 0 31.8766 0 35C0 38.1234 2.39448 40.67 5.43828 40.9741C6.56793 46.6067 9.30638 51.9774 13.6645 56.3355C18.0226 60.6924 23.3933 63.4309 29.0259 64.5605C29.33 67.6055 31.8766 70 35 70C38.1234 70 40.67 67.6055 40.9741 64.5605C46.6067 63.4309 51.9774 60.6924 56.3355 56.3355C60.6936 51.9774 63.4321 46.6067 64.5617 40.9741C67.6055 40.67 70 38.1234 70 35C70 31.8766 67.6055 29.33 64.5617 29.0259ZM4.82759 38.4143C3.42276 37.9159 2.41379 36.5738 2.41379 35C2.41379 33.4262 3.42276 32.0841 4.82759 31.5857V38.4143ZM35 2.41379C36.5738 2.41379 37.9159 3.42276 38.4143 4.82759H31.5857C32.0841 3.42276 33.4262 2.41379 35 2.41379ZM53.7564 14.5371L45.2079 23.0843C42.2812 20.574 38.6412 19.3176 35 19.3176C31.3588 19.3176 27.7188 20.574 24.7921 23.0843L16.2436 14.5371C26.8257 4.82759 43.1743 4.82759 53.7564 14.5371ZM44.3872 44.3872C39.2109 49.5636 30.7879 49.5636 25.6116 44.3872C20.4352 39.2109 20.4352 30.7879 25.6116 25.6116C30.7879 20.4352 39.2109 20.4352 44.3872 25.6116C49.5636 30.7879 49.5636 39.2109 44.3872 44.3872ZM14.5371 16.2436L23.0843 24.7921C18.0624 30.6467 18.0624 39.3533 23.0843 45.2079L14.5371 53.7564C4.82879 43.1743 4.82879 26.8257 14.5371 16.2436ZM35 67.5862C33.4262 67.5862 32.0841 66.5772 31.5857 65.1724H38.4143C37.9159 66.5772 36.5738 67.5862 35 67.5862ZM16.2436 55.4629L24.7921 46.9157C30.6455 51.9364 39.3545 51.9364 45.2079 46.9157L53.7564 55.4629C43.1743 65.1724 26.8257 65.1724 16.2436 55.4629ZM55.4629 53.7564L46.9157 45.2079C51.9376 39.3533 51.9376 30.6467 46.9157 24.7921L55.4629 16.2436C65.1712 26.8257 65.1712 43.1743 55.4629 53.7564ZM65.1724 38.4143V31.5857C66.5772 32.0841 67.5862 33.4262 67.5862 35C67.5862 36.5738 66.5772 37.9159 65.1724 38.4143Z" fill="url(#paint0_linear)"/>
<defs>
<linearGradient id="paint0_linear" x1="57.9227" y1="-3.9363" x2="-0.78582" y2="54.4302" gradientUnits="userSpaceOnUse">
<stop stop-color="#4AB1FE"/>
<stop offset="1" stop-color="#07EBFE"/>
</linearGradient>
</defs>
</svg>
