<svg width="129" height="91" viewBox="0 0 129 91" fill="none" xmlns="http://www.w3.org/2000/svg">
<path fill-rule="evenodd" clip-rule="evenodd" d="M88.8095 16.2946C88.5416 16.458 88.2202 16.7493 88.0954 16.9418C87.9704 17.1345 85.4527 22.1962 82.5003 28.1902C79.5479 34.1842 77.1258 39.0988 77.1177 39.1118C77.1096 39.1247 71.6185 39.932 64.9153 40.9055C56.6792 42.1018 52.5559 42.7614 52.1979 42.9397C51.9066 43.0849 51.5342 43.3872 51.3704 43.6116C50.947 44.1912 50.8726 45.3632 51.2199 45.9803C51.3719 46.2501 54.9599 49.8393 59.1934 53.9565C63.4269 58.0736 67.3938 61.9405 68.0088 62.5496L69.1272 63.6569L67.0404 75.8235C65.7216 83.5131 64.9851 88.183 65.0388 88.5142C65.22 89.6303 66.115 90.3768 67.2717 90.377C67.8793 90.377 69.2153 89.7162 78.9701 84.5898L89.9825 78.8027L100.995 84.5898C110.75 89.7162 112.086 90.377 112.693 90.377C113.85 90.3768 114.745 89.6303 114.926 88.5142C114.98 88.183 114.243 83.5131 112.925 75.8235L110.838 63.6569L111.956 62.5496C112.571 61.9405 116.538 58.0736 120.772 53.9565C125.005 49.8393 128.589 46.2512 128.736 45.9828C129.33 44.8953 128.885 43.4847 127.775 42.9397C127.414 42.7624 123.232 42.0941 115.05 40.9055C108.346 39.932 102.855 39.1247 102.847 39.1118C102.839 39.0988 100.417 34.1842 97.4647 28.1902C94.5123 22.1962 91.9946 17.1345 91.8696 16.9418C91.2784 16.0302 89.7674 15.7106 88.8095 16.2946Z" fill="#07EBFE" fill-opacity="0.4"/>
<path d="M66.7777 85.628C66.6897 85.393 66.5567 85.18 66.3847 84.997C66.2117 84.812 66.0077 84.667 65.7797 84.564C65.5507 84.46 65.3067 84.404 64.9957 84.395C64.7647 84.395 64.5377 84.437 64.3227 84.518C63.1297 84.968 61.8877 85.359 60.6347 85.677C60.1867 85.79 59.7947 86.065 59.5307 86.449C59.2707 86.833 59.1587 87.298 59.2157 87.759C59.2747 88.219 59.4967 88.642 59.8447 88.948C60.1917 89.256 60.6377 89.426 61.1037 89.427H61.1137C61.2697 89.424 61.4267 89.403 61.5767 89.363C62.9607 89.013 64.3377 88.582 65.6707 88.082C65.9067 87.992 66.1187 87.86 66.3007 87.689C66.4847 87.517 66.6297 87.314 66.7357 87.082C66.8397 86.85 66.8947 86.605 66.9017 86.36C66.9077 86.108 66.8667 85.861 66.7777 85.628Z" fill="#475678"/>
<path d="M79.1407 78.749C79.0687 78.507 78.9517 78.286 78.7927 78.091C78.6307 77.894 78.4377 77.734 78.2207 77.618C78.0007 77.499 77.7627 77.425 77.5087 77.398C77.2617 77.37 77.0087 77.396 76.7707 77.467C76.5307 77.539 76.3097 77.655 76.1127 77.815C75.0527 78.68 73.9347 79.494 72.7877 80.231C72.4427 80.453 72.1757 80.786 72.0327 81.168C71.8887 81.551 71.8737 81.978 71.9887 82.372C72.1057 82.77 72.3437 83.112 72.6757 83.36C73.0027 83.605 73.4077 83.74 73.8177 83.74C74.1827 83.74 74.5397 83.636 74.8467 83.437C76.1107 82.624 77.3457 81.726 78.5167 80.771C78.7107 80.614 78.8707 80.421 78.9917 80.199C79.1117 79.977 79.1847 79.738 79.2107 79.49C79.2347 79.24 79.2127 78.991 79.1407 78.749Z" fill="#475678"/>
<path d="M49.9387 12.642C49.1287 12.643 48.3147 12.685 47.5017 12.748C47.3427 12.411 47.1597 12.085 46.9497 11.771C46.1217 10.53 44.9537 9.572 43.5747 9C42.2027 8.432 40.6847 8.281 39.2277 8.572C37.7647 8.863 36.4327 9.575 35.3757 10.631C34.3197 11.687 33.6077 13.018 33.3167 14.483C33.1367 15.388 33.1447 16.305 33.2967 17.201C29.2927 19.559 25.7897 22.767 23.1127 26.566C20.1467 30.777 18.1937 35.696 17.4647 40.793C16.7357 45.891 17.2307 51.161 18.8967 56.033C20.4107 60.46 22.8977 64.547 26.1107 67.946C25.9417 68.37 25.7977 68.804 25.7077 69.258C25.4157 70.722 25.5637 72.225 26.1357 73.605C26.7077 74.984 27.6657 76.152 28.9067 76.981C30.1487 77.81 31.5937 78.249 33.0867 78.249C35.0567 78.247 36.9087 77.489 38.3187 76.119C42.0277 77.53 45.9177 78.249 49.9037 78.249H49.9397C58.7017 78.249 66.9397 74.837 73.1357 68.641C79.3307 62.446 82.7427 54.208 82.7427 45.446C82.7427 36.684 79.3307 28.446 73.1357 22.251C66.9387 16.054 58.7017 12.642 49.9387 12.642ZM37.2647 14.529C37.5467 13.848 38.0197 13.272 38.6327 12.862C39.2447 12.452 39.9587 12.236 40.6957 12.236C41.6877 12.236 42.6197 12.622 43.3217 13.324C44.0227 14.025 44.4087 14.958 44.4087 15.95C44.4087 16.687 44.1927 17.4 43.7837 18.013C43.3737 18.626 42.7977 19.098 42.1167 19.381C41.4397 19.661 40.6887 19.735 39.9707 19.592C39.2477 19.448 38.5907 19.096 38.0697 18.575C37.5487 18.054 37.1977 17.397 37.0537 16.674C36.9097 15.952 36.9827 15.209 37.2647 14.529ZM29.6547 69.305C29.9367 68.624 30.4097 68.048 31.0227 67.639C31.6357 67.229 32.3487 67.012 33.0857 67.012C34.0627 67.012 35.0197 67.408 35.7107 68.1C36.4017 68.792 36.7987 69.748 36.7987 70.726C36.7987 71.463 36.5827 72.177 36.1727 72.789C35.7637 73.402 35.1877 73.875 34.5067 74.156C33.8307 74.436 33.0797 74.51 32.3607 74.368C31.6377 74.223 30.9807 73.872 30.4597 73.351C29.9387 72.83 29.5867 72.171 29.4427 71.45C29.2997 70.728 29.3727 69.985 29.6547 69.305ZM78.3377 51.277C77.4797 55.463 75.6647 59.48 73.0907 62.896C70.5187 66.309 67.1557 69.16 63.3667 71.14C59.5787 73.12 55.3177 74.253 51.0467 74.416C47.3737 74.561 43.7577 74.004 40.3157 72.789C40.5047 72.126 40.6077 71.434 40.6087 70.725C40.6087 69.232 40.1707 67.787 39.3407 66.546C38.5117 65.305 37.3447 64.347 35.9647 63.775C34.5937 63.207 33.0747 63.059 31.6187 63.347C30.4387 63.582 29.3527 64.102 28.4197 64.842C25.7997 61.938 23.7667 58.503 22.5007 54.8C21.0287 50.493 20.5907 45.835 21.2357 41.33C21.8807 36.825 23.6077 32.476 26.2297 28.756C28.5117 25.518 31.4697 22.759 34.8597 20.695C35.3307 21.274 35.8857 21.784 36.5157 22.205C37.7567 23.034 39.2017 23.473 40.6947 23.473C42.7027 23.471 44.5907 22.688 46.0107 21.267C47.2957 19.982 48.0537 18.311 48.1877 16.516C53.0487 16.217 57.9887 17.172 62.3737 19.255C66.2347 21.088 69.7037 23.809 72.4047 27.122C75.1057 30.434 77.0727 34.38 78.0927 38.532C79.1137 42.685 79.1977 47.092 78.3377 51.277Z" fill="#475678"/>
<path d="M57.6557 26.816C53.9797 25.294 49.9097 24.891 46.0057 25.669C42.0807 26.45 38.5107 28.358 35.6817 31.187C32.8517 34.017 30.9437 37.587 30.1637 41.511C29.3827 45.436 29.7797 49.464 31.3107 53.16C32.8427 56.857 35.4107 59.986 38.7367 62.209C42.0637 64.433 45.9367 65.607 49.9387 65.607C55.3227 65.601 60.3827 63.502 64.1897 59.695C67.9967 55.888 70.0957 50.828 70.1017 45.444C70.1017 41.443 68.9267 37.569 66.7037 34.242C64.4817 30.916 61.3537 28.348 57.6557 26.816ZM63.5377 54.529C61.7337 57.228 59.1957 59.311 56.1977 60.553C53.2157 61.788 49.9147 62.112 46.7487 61.484C43.5657 60.85 40.6707 59.302 38.3747 57.007C36.0807 54.713 34.5327 51.818 33.8987 48.634C33.2657 45.451 33.5877 42.184 34.8297 39.185C36.0717 36.187 38.1547 33.649 40.8527 31.845C43.5507 30.042 46.6917 29.089 49.9377 29.089C54.3037 29.094 58.4097 30.797 61.4977 33.884C64.5847 36.972 66.2877 41.077 66.2927 45.443C66.2937 48.689 65.3407 51.831 63.5377 54.529Z" fill="#475678"/>
<path d="M99.7337 39.861C98.9047 38.62 97.7367 37.662 96.3577 37.09C95.7677 36.846 95.1487 36.695 94.5217 36.607C92.5697 26.553 87.2547 17.425 79.4287 10.771C71.2607 3.826 60.8557 0 50.1337 0H49.9377C40.6367 0.03 31.6817 2.85 24.0407 8.154C16.8257 13.162 11.2787 20.045 7.9227 28.118C7.2997 28.085 6.6737 28.112 6.0567 28.235C4.5937 28.526 3.2617 29.238 2.2047 30.294C1.1487 31.35 0.436704 32.682 0.145704 34.146C-0.146296 35.61 0.00270373 37.113 0.573704 38.493C1.1447 39.872 2.1027 41.039 3.3447 41.868C3.7417 42.134 4.1667 42.344 4.6007 42.528C4.5387 43.497 4.4957 44.471 4.4957 45.446C4.5097 57.579 9.2417 68.986 17.8207 77.565C26.3997 86.144 37.8067 90.877 49.9387 90.889C50.3787 90.889 50.8197 90.889 51.2457 90.859C51.7527 90.821 52.2147 90.588 52.5467 90.203C52.8787 89.818 53.0407 89.327 53.0037 88.825C52.9867 88.57 52.9217 88.327 52.8107 88.103C52.6987 87.876 52.5437 87.678 52.3517 87.512C52.1597 87.346 51.9397 87.223 51.6997 87.146C51.4617 87.068 51.1857 87.042 50.9647 87.06C50.6317 87.084 50.2827 87.079 49.9397 87.083C38.8237 87.07 28.3737 82.734 20.5127 74.874C12.6527 67.015 8.3167 56.563 8.3047 45.448C8.3047 44.642 8.3327 43.855 8.3757 43.083C10.0617 42.893 11.6237 42.148 12.8407 40.93C14.2607 39.51 15.0437 37.622 15.0467 35.613C15.0467 34.12 14.6087 32.675 13.7787 31.434C13.2007 30.569 12.4507 29.852 11.5867 29.297C14.6767 22.022 19.6877 15.81 26.2107 11.282C33.2127 6.422 41.4187 3.838 49.9417 3.81H50.1197C59.9417 3.81 69.4727 7.314 76.9557 13.677C84.0487 19.708 88.8957 27.956 90.7297 37.053C89.7727 37.429 88.8957 37.986 88.1597 38.722C87.1047 39.778 86.3927 41.109 86.1007 42.574C85.8097 44.038 85.9577 45.541 86.5287 46.92C87.1007 48.3 88.0587 49.467 89.2997 50.296C89.8787 50.683 90.5067 50.977 91.1597 51.189C90.1957 58.127 87.5127 64.72 83.3037 70.341C83.0907 70.624 82.9617 70.96 82.9297 71.314C82.8977 71.668 82.9647 72.021 83.1227 72.335C83.2797 72.651 83.5217 72.917 83.8247 73.106C84.1257 73.292 84.4707 73.389 84.8237 73.389H84.8317C85.1247 73.389 85.4177 73.32 85.6797 73.189C85.9427 73.057 86.1747 72.864 86.3537 72.627C91.0107 66.403 93.9567 59.092 94.9687 51.415C96.4097 51.126 97.7347 50.42 98.7957 49.357C100.217 47.936 101 46.048 101.002 44.041C101.002 42.548 100.563 41.103 99.7337 39.861ZM10.6117 37.676C10.2017 38.289 9.6257 38.761 8.9447 39.044C8.2677 39.324 7.5197 39.398 6.7987 39.255C6.0757 39.111 5.4187 38.76 4.8977 38.239C4.3767 37.718 4.0257 37.06 3.8817 36.337C3.7377 35.615 3.8117 34.873 4.0927 34.192C4.3747 33.511 4.8477 32.935 5.4607 32.525C6.0737 32.116 6.7867 31.9 7.5237 31.9C7.8127 31.9 8.0937 31.942 8.3687 32.006C8.3967 32.018 8.4227 32.036 8.4517 32.047C8.5317 32.077 8.6207 32.093 8.7097 32.109C9.2447 32.289 9.7397 32.577 10.1507 32.987C10.8517 33.689 11.2377 34.621 11.2377 35.613C11.2377 36.35 11.0207 37.063 10.6117 37.676ZM96.5657 46.104C96.1567 46.717 95.5807 47.19 94.8997 47.471C94.4937 47.639 94.0597 47.723 93.6227 47.741C93.5697 47.731 93.5197 47.715 93.4657 47.71C93.3267 47.696 93.1877 47.702 93.0487 47.72C92.9507 47.709 92.8517 47.703 92.7537 47.684C92.0307 47.539 91.3727 47.188 90.8527 46.667C90.3327 46.146 89.9807 45.489 89.8357 44.766C89.6917 44.042 89.7657 43.3 90.0477 42.62C90.3287 41.94 90.8017 41.364 91.4147 40.954C92.0277 40.544 92.7417 40.328 93.4777 40.328C94.4557 40.328 95.4127 40.724 96.1037 41.416C96.8047 42.118 97.1917 43.05 97.1917 44.042C97.1927 44.777 96.9767 45.491 96.5657 46.104Z" fill="#475678"/>
</svg>
