<svg width="60" height="60" viewBox="0 0 60 60" fill="none" xmlns="http://www.w3.org/2000/svg">
<path d="M6.01915 8.97596C6.69995 8.97596 7.25184 8.42406 7.25184 7.74327C7.25184 7.06247 6.69995 6.51057 6.01915 6.51057C5.33835 6.51057 4.78645 7.06247 4.78645 7.74327C4.78645 8.42406 5.33835 8.97596 6.01915 8.97596Z" fill="url(#paint0_linear)"/>
<path d="M10.7076 8.97596C11.3884 8.97596 11.9403 8.42406 11.9403 7.74327C11.9403 7.06247 11.3884 6.51057 10.7076 6.51057C10.0269 6.51057 9.47495 7.06247 9.47495 7.74327C9.47495 8.42406 10.0269 8.97596 10.7076 8.97596Z" fill="url(#paint1_linear)"/>
<path d="M15.3944 8.97596C16.0752 8.97596 16.6271 8.42406 16.6271 7.74327C16.6271 7.06247 16.0752 6.51057 15.3944 6.51057C14.7136 6.51057 14.1617 7.06247 14.1617 7.74327C14.1617 8.42406 14.7136 8.97596 15.3944 8.97596Z" fill="url(#paint2_linear)"/>
<path d="M59.0712 52.0257C58.721 51.6776 58.3054 51.4207 57.8476 51.2666C57.8446 50.615 57.5875 49.9778 57.1177 49.508L51.5974 43.9877C53.4879 41.1561 54.5032 37.8267 54.5032 34.3381C54.5032 29.6822 52.6948 25.3096 49.4109 22.0257C46.1223 18.737 41.7497 16.9258 37.0986 16.9258C32.4476 16.9258 28.0748 18.737 24.7862 22.0257C21.5024 25.3094 19.6939 29.6821 19.6939 34.3381C19.6939 36.5451 20.1009 38.6881 20.8781 40.682H3.13453C2.34891 40.682 1.70977 40.0428 1.70977 39.2572V12.4588H51.9202V21.2842C51.9202 21.7563 52.3029 22.139 52.775 22.139C53.2472 22.139 53.6299 21.7563 53.6299 21.2842V5.66236C53.6299 3.93397 52.2238 2.52783 50.4954 2.52783H17.71C17.2378 2.52783 16.8551 2.91057 16.8551 3.38271C16.8551 3.85486 17.2378 4.2376 17.71 4.2376H50.4954C51.281 4.2376 51.9202 4.87674 51.9202 5.66236V10.749H1.70977V5.66236C1.70977 4.87674 2.34891 4.2376 3.13453 4.2376H13.3357C13.8079 4.2376 14.1906 3.85486 14.1906 3.38271C14.1906 2.91057 13.8079 2.52783 13.3357 2.52783H3.13453C1.40613 2.52783 0 3.93397 0 5.66236V39.2571C0 40.9855 1.40613 42.3916 3.13453 42.3916H21.6553C22.4652 43.9432 23.5145 45.3787 24.7862 46.6503C28.0748 49.9391 32.4475 51.7503 37.0986 51.7503C40.4723 51.7503 43.6991 50.7965 46.4723 49.018L52.0399 54.5856C52.5097 55.0555 53.147 55.3126 53.7986 55.3155C53.9537 55.7763 54.2129 56.1943 54.5645 56.5459C55.7984 57.8259 58.0341 57.7754 59.1953 56.4224C60.315 55.1792 60.2593 53.2067 59.0712 52.0257ZM25.9952 45.4415C23.0344 42.4807 21.4038 38.5374 21.4038 34.3381C21.4038 30.1388 23.0345 26.1956 25.9952 23.2347C28.961 20.269 32.9041 18.6356 37.0986 18.6356C41.293 18.6356 45.2362 20.269 48.202 23.2347C51.1629 26.1956 52.7934 30.1388 52.7934 34.3381C52.7934 38.5374 51.1628 42.4807 48.202 45.4415C45.2362 48.4073 41.293 50.0407 37.0986 50.0407C32.9043 50.0407 28.9609 48.4073 25.9952 45.4415ZM57.9247 55.2784C57.3843 55.907 56.346 55.9342 55.7734 55.3372C55.541 55.1048 55.3957 54.8097 55.3532 54.4843C55.2857 53.8555 54.6139 53.4071 54.0066 53.5809C53.7319 53.6526 53.4484 53.5764 53.2488 53.3768L47.8827 48.0108C48.8591 47.2392 49.7764 46.3396 50.5673 45.3758L55.9086 50.7171C56.1081 50.9165 56.1844 51.1998 56.1129 51.4744C55.9394 52.0809 56.3858 52.7539 57.0143 52.8212C57.339 52.8633 57.6335 53.0075 57.8658 53.2385C58.4175 53.7867 58.444 54.7019 57.9247 55.2784Z" fill="url(#paint3_linear)"/>
<path d="M46.978 24.458C44.339 21.8189 40.8301 20.3656 37.0981 20.3656C33.3659 20.3656 29.8571 21.8189 27.218 24.458C24.5789 27.0971 23.1255 30.6059 23.1255 34.3381C23.1255 38.0703 24.5789 41.579 27.218 44.2182C28.7627 45.7629 30.5829 46.8952 32.6281 47.5834C33.0756 47.7341 33.5604 47.4934 33.711 47.0459C33.8616 46.5985 33.6209 46.1136 33.1735 45.963C31.3805 45.3596 29.7836 44.3658 28.427 43.0093C26.1108 40.6931 24.8354 37.6137 24.8354 34.3382C24.8354 31.0627 26.1109 27.9832 28.427 25.6672C30.7431 23.3511 33.8226 22.0756 37.0981 22.0756C40.3736 22.0756 43.4529 23.3512 45.7691 25.6672C50.5504 30.4484 50.5504 38.228 45.7691 43.0093C43.4529 45.3254 40.3736 46.6008 37.0981 46.6008C36.6259 46.6008 36.2432 46.9836 36.2432 47.4557C36.2432 47.9279 36.6259 48.3106 37.0981 48.3106C40.8303 48.3106 44.339 46.8572 46.978 44.2182C52.4258 38.7702 52.4258 29.9059 46.978 24.458Z" fill="url(#paint4_linear)"/>
<path d="M38.377 37.6815C38.377 37.2093 37.9942 36.8266 37.5221 36.8266H35.5594V35.193H37.3143C37.7865 35.193 38.1692 34.8103 38.1692 34.3381C38.1692 33.866 37.7865 33.4832 37.3143 33.4832H35.5594V31.8496H37.5221C37.9942 31.8496 38.377 31.4669 38.377 30.9948C38.377 30.5226 37.9942 30.1399 37.5221 30.1399H34.7046C34.2324 30.1399 33.8497 30.5226 33.8497 30.9948V37.6816C33.8497 38.1537 34.2324 38.5365 34.7046 38.5365H37.5221C37.9942 38.5364 38.377 38.1536 38.377 37.6815Z" fill="url(#paint5_linear)"/>
<path d="M29.4123 36.8573C28.7447 36.8573 28.1024 36.5884 27.6941 36.1378C27.3771 35.788 26.8365 35.7614 26.4865 36.0784C26.1367 36.3955 26.11 36.9361 26.427 37.286C27.1541 38.0881 28.27 38.5671 29.4122 38.5671C30.8398 38.5671 32.0388 37.6556 32.2631 36.3998C32.4318 35.4544 32.0033 34.2196 30.294 33.5891C29.4671 33.284 28.6971 32.9519 28.4586 32.8475C28.2806 32.7035 28.2867 32.5032 28.2986 32.4198C28.3154 32.3028 28.4006 32.0169 28.8274 31.8883C29.7712 31.6039 30.6477 32.2945 30.674 32.3156C31.0353 32.6154 31.5714 32.5676 31.8741 32.2077C32.1779 31.8463 32.1312 31.307 31.7698 31.0031C31.7059 30.9494 30.1837 29.694 28.3343 30.2512C27.3984 30.5332 26.7363 31.271 26.6062 32.1769C26.4777 33.0641 26.8961 33.9512 27.6866 34.3758C27.7256 34.3932 28.6552 34.807 29.7022 35.1931C29.9954 35.3013 30.6678 35.6061 30.5798 36.0992C30.5136 36.472 30.0586 36.8573 29.4123 36.8573Z" fill="url(#paint6_linear)"/>
<path d="M48.0397 34.3383C48.0397 32.0063 46.1426 30.1091 43.8105 30.1091C41.4786 30.1091 39.5815 32.0062 39.5815 34.3383C39.5815 36.6702 41.4786 38.5673 43.8105 38.5673C46.1426 38.5673 48.0397 36.6702 48.0397 34.3383ZM41.2914 34.3383C41.2914 32.9491 42.4215 31.8188 43.8106 31.8188C45.1998 31.8188 46.3301 32.949 46.3301 34.3383C46.3301 35.7274 45.1999 36.8576 43.8106 36.8576C42.4215 36.8576 41.2914 35.7274 41.2914 34.3383Z" fill="url(#paint7_linear)"/>
<path d="M19.9293 22.4736C19.9293 17.9636 16.2601 14.2945 11.7502 14.2945C7.24022 14.2945 3.57108 17.9636 3.57108 22.4736C3.57108 26.9835 7.24022 30.6527 11.7502 30.6527C16.2601 30.6527 19.9293 26.9835 19.9293 22.4736ZM18.1613 21.6187H16.323C16.2265 19.8965 15.8398 18.2893 15.209 17.0107C16.7883 18.0141 17.9044 19.6821 18.1613 21.6187ZM10.8953 16.3353V21.6187H8.88964C9.04972 19.0224 9.92288 17.0782 10.8953 16.3353ZM10.8953 23.3285V28.6118C9.92288 27.8689 9.04972 25.9246 8.88976 23.3285H10.8953ZM12.6051 28.6119V23.3285H14.6107C14.4508 25.9248 13.5775 27.869 12.6051 28.6119ZM12.6051 21.6187V16.3353C13.5775 17.0782 14.4508 19.0224 14.6107 21.6187H12.6051ZM8.2914 17.0107C7.66057 18.2893 7.27374 19.8965 7.17741 21.6187H5.33909C5.59608 19.6821 6.71218 18.0141 8.2914 17.0107ZM5.33909 23.3285H7.17741C7.27386 25.0507 7.66057 26.6579 8.29151 27.9365C6.71218 26.933 5.59608 25.2651 5.33909 23.3285ZM15.209 27.9365C15.8398 26.6579 16.2266 25.0507 16.323 23.3285H18.1613C17.9044 25.2651 16.7883 26.933 15.209 27.9365Z" fill="url(#paint8_linear)"/>
<path d="M17.483 34.5331C17.483 34.061 17.1003 33.6782 16.6281 33.6782H5.34061C4.86846 33.6782 4.48573 34.061 4.48573 34.5331C4.48573 35.0053 4.86846 35.388 5.34061 35.388H16.6281C17.1001 35.388 17.483 35.0053 17.483 34.5331Z" fill="url(#paint9_linear)"/>
<path d="M5.33961 37.3355C4.86746 37.3355 4.48473 37.7183 4.48473 38.1904C4.48473 38.6626 4.86746 39.0453 5.33961 39.0453H8.80251C9.27465 39.0453 9.65739 38.6626 9.65739 38.1904C9.65739 37.7183 9.27465 37.3355 8.80251 37.3355H5.33961Z" fill="url(#paint10_linear)"/>
<defs>
<linearGradient id="paint0_linear" x1="60" y1="2.52783" x2="0.613314" y2="25.286" gradientUnits="userSpaceOnUse">
<stop stop-color="#4AB1FE"/>
<stop offset="1" stop-color="#07EBFE"/>
</linearGradient>
<linearGradient id="paint1_linear" x1="60" y1="2.52783" x2="0.613314" y2="25.286" gradientUnits="userSpaceOnUse">
<stop stop-color="#4AB1FE"/>
<stop offset="1" stop-color="#07EBFE"/>
</linearGradient>
<linearGradient id="paint2_linear" x1="60" y1="2.52783" x2="0.613314" y2="25.286" gradientUnits="userSpaceOnUse">
<stop stop-color="#4AB1FE"/>
<stop offset="1" stop-color="#07EBFE"/>
</linearGradient>
<linearGradient id="paint3_linear" x1="60" y1="2.52783" x2="0.613314" y2="25.286" gradientUnits="userSpaceOnUse">
<stop stop-color="#4AB1FE"/>
<stop offset="1" stop-color="#07EBFE"/>
</linearGradient>
<linearGradient id="paint4_linear" x1="60" y1="2.52783" x2="0.613314" y2="25.286" gradientUnits="userSpaceOnUse">
<stop stop-color="#4AB1FE"/>
<stop offset="1" stop-color="#07EBFE"/>
</linearGradient>
<linearGradient id="paint5_linear" x1="60" y1="2.52783" x2="0.613314" y2="25.286" gradientUnits="userSpaceOnUse">
<stop stop-color="#4AB1FE"/>
<stop offset="1" stop-color="#07EBFE"/>
</linearGradient>
<linearGradient id="paint6_linear" x1="60" y1="2.52783" x2="0.613314" y2="25.286" gradientUnits="userSpaceOnUse">
<stop stop-color="#4AB1FE"/>
<stop offset="1" stop-color="#07EBFE"/>
</linearGradient>
<linearGradient id="paint7_linear" x1="60" y1="2.52783" x2="0.613314" y2="25.286" gradientUnits="userSpaceOnUse">
<stop stop-color="#4AB1FE"/>
<stop offset="1" stop-color="#07EBFE"/>
</linearGradient>
<linearGradient id="paint8_linear" x1="60" y1="2.52783" x2="0.613314" y2="25.286" gradientUnits="userSpaceOnUse">
<stop stop-color="#4AB1FE"/>
<stop offset="1" stop-color="#07EBFE"/>
</linearGradient>
<linearGradient id="paint9_linear" x1="60" y1="2.52783" x2="0.613314" y2="25.286" gradientUnits="userSpaceOnUse">
<stop stop-color="#4AB1FE"/>
<stop offset="1" stop-color="#07EBFE"/>
</linearGradient>
<linearGradient id="paint10_linear" x1="60" y1="2.52783" x2="0.613314" y2="25.286" gradientUnits="userSpaceOnUse">
<stop stop-color="#4AB1FE"/>
<stop offset="1" stop-color="#07EBFE"/>
</linearGradient>
</defs>
</svg>
