<svg width="30" height="30" viewBox="0 0 30 30" fill="none" xmlns="http://www.w3.org/2000/svg">
<g clip-path="url(#clip0)">
<path d="M14.0625 0C14.6875 0 15.3125 0 15.9375 0C16.4483 0.066649 16.962 0.116186 17.4694 0.20276C20.2869 0.683601 22.7793 1.86203 24.9142 3.76149C27.5245 6.08389 29.1567 8.96831 29.7697 12.4156C29.8667 12.961 29.9242 13.5133 30 14.0625C30 14.6875 30 15.3125 30 15.9375C29.9834 16.013 29.9576 16.0877 29.9517 16.164C29.774 18.4884 29.1036 20.6632 27.8885 22.6499C25.5152 26.53 22.0863 28.9117 17.612 29.766C17.0591 29.8715 16.4959 29.9234 15.9375 30.0001C15.3125 30.0001 14.6875 30.0001 14.0625 30.0001C13.6966 29.9548 13.3297 29.9156 12.9648 29.8634C9.97953 29.4361 7.34193 28.2407 5.08696 26.2375C2.48226 23.9236 0.856045 21.0465 0.233701 17.6134C0.13322 17.0588 0.0768065 16.4963 0 15.9375C0 15.3125 0 14.6875 0 14.0625C0.0448494 13.6966 0.0828229 13.3296 0.135642 12.9649C0.610701 9.68519 1.99298 6.84734 4.31937 4.4858C6.56207 2.20926 9.26499 0.78627 12.4159 0.230576C12.9614 0.134392 13.5135 0.0758689 14.0625 0ZM14.994 1.50402C7.55118 1.51058 1.51128 7.54954 1.50488 14.991C1.49847 22.439 7.56071 28.5029 15.006 28.4959C22.4505 28.4889 28.4879 22.4522 28.4951 15.0082C28.5023 7.55915 22.4419 1.49745 14.994 1.50402Z" fill="url(#paint0_linear)"/>
<path d="M13.4603 19.1614C13.0623 19.1514 12.7064 19.0123 12.4166 18.7235C11.5384 17.8487 10.6604 16.9737 9.78807 16.0931C9.45671 15.7586 9.45108 15.2987 9.75588 14.9971C10.0664 14.6901 10.5052 14.7015 10.8513 15.0425C11.5048 15.6864 12.15 16.3387 12.8004 16.9858C13.2648 17.4478 13.6801 17.4311 14.1218 16.9397C15.7724 15.1034 17.4207 13.2649 19.0801 11.4366C19.2224 11.2799 19.4262 11.1421 19.627 11.0841C19.937 10.9945 20.2384 11.1649 20.3942 11.4361C20.5585 11.7224 20.5375 12.0355 20.3031 12.3053C19.8677 12.806 19.42 13.296 18.9761 13.7893C17.5465 15.3781 16.1138 16.9643 14.6881 18.5565C14.3586 18.9243 13.9721 19.1519 13.4603 19.1614Z" fill="url(#paint1_linear)"/>
</g>
<defs>
<linearGradient id="paint0_linear" x1="30" y1="4.5701e-07" x2="-0.320038" y2="10.6403" gradientUnits="userSpaceOnUse">
<stop stop-color="#4AB1FE"/>
<stop offset="1" stop-color="#07EBFE"/>
</linearGradient>
<linearGradient id="paint1_linear" x1="20.5011" y1="11.0601" x2="10.3438" y2="15.8859" gradientUnits="userSpaceOnUse">
<stop stop-color="#4AB1FE"/>
<stop offset="1" stop-color="#07EBFE"/>
</linearGradient>
<clipPath id="clip0">
<rect width="30" height="30" fill="white"/>
</clipPath>
</defs>
</svg>
