<svg width="90" height="89" viewBox="0 0 90 89" fill="none" xmlns="http://www.w3.org/2000/svg">
<path fill-rule="evenodd" clip-rule="evenodd" d="M74.4391 0.221706C71.8034 0.874736 69.9571 2.83998 69.4215 5.56234C69.0301 7.5515 69.7529 9.80281 71.2696 11.3195C72.7534 12.8035 75.0554 13.5619 76.9315 13.1851C79.8981 12.5894 81.8774 10.638 82.4458 7.7486C83.1128 4.35844 80.7331 0.92133 77.1998 0.171595C76.0648 -0.0691155 75.5773 -0.060324 74.4391 0.221706ZM54.1308 2.15284C53.8891 2.28911 53.1956 3.21959 52.5899 4.22041C51.984 5.22123 51.4218 6.14486 51.3406 6.27287C51.2592 6.40105 50.1328 6.77275 48.8375 7.09909C46.2067 7.76179 45.691 8.10589 45.691 9.19937C45.691 9.68255 45.9822 10.1459 47.2971 11.7549L48.9033 13.7201L48.7162 16.0873C48.504 18.7713 48.6117 19.3556 49.3938 19.76C50.1488 20.1505 50.4592 20.093 52.807 19.1277L54.9736 18.2368L57.1261 19.1277C58.31 19.6176 59.511 20.0185 59.7952 20.0185C60.137 20.0185 60.4938 19.8365 60.8493 19.4812L61.3866 18.9438L61.272 17.2393C61.2089 16.3018 61.1118 15.1327 61.0561 14.6413C60.9565 13.7614 60.9697 13.7305 61.9092 12.6192C63.8152 10.3651 64.1531 9.83798 64.1531 9.11919C64.1531 8.09516 63.5386 7.68284 61.1348 7.09399C60.0387 6.8255 59.0134 6.54048 58.8564 6.46048C58.6994 6.38065 58.0837 5.49183 57.4879 4.48521C56.8922 3.47877 56.2591 2.52331 56.081 2.36207C55.6333 1.95696 54.6626 1.85287 54.1308 2.15284ZM78.0176 3.36448C78.4171 3.62892 78.9621 4.17505 79.2289 4.57823C79.6523 5.21772 79.714 5.48216 79.714 6.65547C79.714 7.82878 79.6523 8.09323 79.2289 8.73272C78.4985 9.83657 77.5191 10.4077 76.2145 10.4908C73.8482 10.6415 72.079 9.0209 72.0693 6.6938C72.0626 5.07776 72.8565 3.78137 74.2633 3.11111C75.316 2.60964 77.0542 2.72692 78.0176 3.36448ZM55.8905 7.09733C56.8968 8.76314 57.1178 8.92261 59.0541 9.37889C59.7794 9.54962 60.4303 9.74075 60.5004 9.80334C60.5706 9.86611 60.1548 10.4965 59.5765 11.2043C58.9981 11.9122 58.4747 12.6913 58.4133 12.9359C58.352 13.1805 58.346 14.1224 58.4 15.0292C58.4541 15.9359 58.4431 16.6777 58.3755 16.6777C58.308 16.6777 57.7011 16.4425 57.0269 16.155C55.4241 15.4714 54.5258 15.4703 52.9282 16.1502C52.2463 16.4404 51.6219 16.6777 51.5405 16.6777C51.4591 16.6777 51.4498 16.0249 51.5196 15.2271C51.6974 13.1953 51.5347 12.663 50.2667 11.1303C49.5486 10.2619 49.2607 9.79209 49.4148 9.73881C49.5426 9.69468 50.263 9.50461 51.0155 9.31647C51.7681 9.12833 52.5686 8.85316 52.7945 8.70529C53.0203 8.55724 53.5793 7.79819 54.0364 7.01838C54.4936 6.23858 54.8943 5.6005 54.927 5.6005C54.9597 5.6005 55.3933 6.2741 55.8905 7.09733ZM86.6974 12.5514C80.5184 14.6564 75.5511 19.7544 73.3958 26.2035C72.8364 27.877 72.834 28.1879 73.3762 28.7299C74.3473 29.7012 75.2982 29.0658 76.0196 26.9637C76.9955 24.1201 78.4795 21.6744 80.4854 19.6041C82.7163 17.3016 85.1464 15.8278 88.1918 14.9303C89.5462 14.5312 90 14.1291 90 13.3285C90 12.6857 89.3239 12.1051 88.5821 12.1107C88.2498 12.1132 87.4018 12.3115 86.6974 12.5514ZM30.7456 19.4186C29.084 19.8587 28.3372 20.7183 28.7773 21.6843C29.1262 22.4499 29.7025 22.5858 30.9648 22.2004C33.5223 21.4195 35.9396 22.0122 37.5978 23.8268C38.7962 25.1379 39.239 26.3564 39.2487 28.3704C39.2543 29.5388 39.1507 30.2959 38.853 31.264C38.0026 34.0293 36.0046 37.2867 34.6841 38.0607C33.7795 38.5908 33.8518 38.6298 33.1126 37.2123C32.8749 36.7565 32.4428 36.113 32.1525 35.7825C31.8623 35.4517 31.6247 35.0616 31.6247 34.9153C31.6247 34.3697 32.375 32.1878 33.0792 30.685C33.7667 29.2184 33.7927 29.105 33.5448 28.663C32.9095 27.5294 31.7743 27.5981 31.0051 28.8166C30.4521 29.6926 29.5636 31.8729 29.2897 33.0255L29.09 33.8668L27.9882 33.9552C27.3821 34.0038 26.5679 34.2012 26.1786 34.3938L25.4707 34.744L25.473 32.876C25.476 30.5181 25.9349 28.2408 26.7884 26.3508C27.3723 25.0576 27.415 24.8635 27.2207 24.3942C26.8225 23.4329 25.7351 23.2316 25.033 23.9891C24.4417 24.6273 23.5552 26.847 23.1443 28.7189C22.8874 29.8887 22.7856 31.0885 22.7559 33.2936L22.7156 36.2827L21.9968 36.6839L21.278 37.0854L19.6393 36.0093C16.2761 33.8009 13.2847 32.7097 10.1735 32.5563C6.94286 32.397 4.66693 33.2204 2.60287 35.2954C0.660134 37.2483 -0.152197 39.3861 0.0232803 42.0851C0.313223 46.5488 3.68457 49.8871 9.00323 50.9767C9.8618 51.1527 10.5941 51.3265 10.6305 51.3629C10.6669 51.3993 8.9918 52.3728 6.90787 53.5264C4.82412 54.6801 2.84938 55.8919 2.51988 56.2193C1.7079 57.0256 1.31791 58.1024 1.4155 59.2678C1.47915 60.0277 1.77454 60.704 3.05 63.0087C4.78579 66.1452 5.66335 67.1773 6.87112 67.5031C8.37464 67.9086 8.96103 67.6958 13.8229 64.9803L18.3496 62.4521L18.4375 73.7197C18.523 84.6828 18.5353 85.0088 18.8929 85.7786C19.3086 86.6736 20.4495 87.7808 21.402 88.2133C21.9868 88.479 24.0424 88.504 45.2515 88.504H68.4609L69.1846 88.1168C70.3513 87.4926 70.9602 86.8833 71.485 85.8145L71.9775 84.8115V69.954C71.9775 61.7823 71.9183 54.8849 71.8456 54.6264C71.6707 54.0026 70.9239 53.1336 70.2423 52.7603C69.7367 52.4836 68.34 52.4518 53.1534 52.3711L36.6151 52.2831L45.7172 47.2033C50.7236 44.4092 54.9762 41.9563 55.1675 41.7526C55.7365 41.1465 56.2329 39.8566 56.2369 38.9736C56.2411 38.0774 55.8881 37.303 53.7739 33.5719C52.9832 32.1765 52.4325 31.4163 51.968 31.079C51.0992 30.448 49.8751 30.183 48.8706 30.4088C48.4495 30.5034 46.4024 31.5283 44.3213 32.6865C42.2402 33.8446 40.5194 34.7716 40.4974 34.7463C40.4752 34.721 40.6905 34.1198 40.9755 33.4105C42.3438 30.0058 42.316 26.5106 40.8992 23.8152C40.2185 22.52 38.5438 20.8044 37.326 20.1546C35.472 19.1654 32.8214 18.8689 30.7456 19.4186ZM64.4584 21.6449C63.946 22.034 63.8554 22.6781 64.0204 24.7659C64.2231 27.3344 64.0666 32.5446 63.7084 35.1516C63.083 39.7031 61.9844 42.7434 60.13 45.0545C59.5168 45.8184 59.4472 46.2986 59.8631 46.8924C60.5752 47.909 61.589 47.6787 62.6176 46.2663C64.4831 43.7048 65.6354 40.4903 66.3541 35.8431C66.6944 33.6431 66.8901 27.2656 66.7072 24.3384C66.5908 22.4766 66.5319 22.2055 66.1641 21.8376C65.7101 21.3836 64.9201 21.2943 64.4584 21.6449ZM80.3772 32.317C79.7335 32.4772 79.3819 32.889 78.1693 34.9014L77.0134 36.8195L74.9351 37.322C71.9283 38.0489 71.5379 38.3093 71.5379 39.5886C71.5379 40.091 71.8052 40.5138 73.1288 42.1058L74.7197 44.0192L74.6264 44.9862C74.575 45.5181 74.482 46.6672 74.4198 47.5398C74.3097 49.0852 74.3192 49.1411 74.7843 49.6937C75.4544 50.4902 76.1436 50.4491 78.5075 49.4708C79.5579 49.0361 80.5606 48.6801 80.7356 48.6795C80.9107 48.679 81.9233 49.0347 82.9858 49.4699C85.1971 50.3756 85.8956 50.4473 86.6002 49.8412C87.1612 49.3588 87.1864 49.0808 86.9534 45.9348L86.8087 43.9822L87.7596 42.8578C89.5762 40.7092 90 40.0662 90 39.4582C90 38.3242 89.4221 38.0169 85.4323 37.0287L84.4689 36.7901L83.3879 34.9884C81.854 32.4319 81.4296 32.0551 80.3772 32.317ZM50.2566 33.2025C50.718 33.4494 53.4794 38.463 53.4831 39.0604C53.4849 39.3309 53.3681 39.6704 53.2237 39.8146C52.7631 40.2752 39.1145 47.799 38.9832 47.6648C38.811 47.4888 35.1325 40.8887 35.1863 40.8525C36.1277 40.2165 49.3683 33.0299 49.5987 33.0299C49.7831 33.0299 50.0792 33.1076 50.2566 33.2025ZM12.4994 35.5878C13.7575 35.9117 16.0267 36.9347 17.5798 37.8782L18.6373 38.5205L17.7342 39.1287C17.2375 39.4631 16.6189 40.0692 16.3596 40.4755L15.888 41.2142L14.7451 40.9038C14.1165 40.7331 12.8214 40.4767 11.8671 40.3345C10.3355 40.1059 10.0728 40.1061 9.62777 40.3363C8.73316 40.7989 8.74564 42.1986 9.64835 42.6393C9.88888 42.7567 10.8976 42.9749 11.8902 43.124C14.5812 43.5286 15.6235 43.8676 15.6272 44.3394C15.6288 44.55 15.9849 45.3833 16.4185 46.1908C16.8521 46.9983 17.2067 47.6842 17.2067 47.7149C17.2067 47.7457 16.9101 47.9553 16.5474 48.1807C15.9276 48.5661 15.719 48.5906 13.0747 48.5869C10.6866 48.5837 10.052 48.523 8.8761 48.1856C6.90084 47.6189 5.6688 46.9669 4.59431 45.9197C0.907174 42.3259 2.78063 36.4184 7.95933 35.3097C8.92481 35.1029 11.1438 35.239 12.4994 35.5878ZM82.356 38.3752C82.8981 39.1097 83.2241 39.2628 85.6503 39.9231L86.4875 40.1509L85.4342 41.4368C84.1674 42.9834 83.9961 43.5399 84.1797 45.5137C84.2562 46.3357 84.3086 47.0241 84.2963 47.0434C84.284 47.0628 83.6039 46.8069 82.7852 46.475C80.9916 45.7476 80.4718 45.7268 79.0494 46.3259C76.9538 47.2082 77.1752 47.3548 77.2909 45.1615C77.4052 42.9974 77.415 43.0252 75.9062 41.2699C75.4378 40.725 75.0545 40.2392 75.0545 40.1907C75.0545 40.1421 75.7675 39.9262 76.6389 39.7108C77.5103 39.4956 78.4125 39.1705 78.6437 38.9885C78.8751 38.8067 79.4409 38.0155 79.9011 37.2304L80.7378 35.8032L81.281 36.7289C81.5795 37.238 82.0634 37.9789 82.356 38.3752ZM29.3293 36.942C29.9517 37.2626 30.2267 37.5759 30.7788 38.5933L31.4603 39.8487L25.5567 43.1425C22.3096 44.9539 19.6284 46.4066 19.5985 46.3705C19.5686 46.3345 19.2557 45.7831 18.9029 45.1452C18.465 44.3529 18.2617 43.7621 18.2617 43.281C18.2617 42.0541 18.764 41.5746 21.8662 39.8404C26.0511 37.5012 27.9012 36.5464 28.2493 36.5464C28.4207 36.5464 28.9067 36.7244 29.3293 36.942ZM34.9493 46.0748C35.8469 47.6891 36.536 49.0834 36.4802 49.1734C36.402 49.2999 25.4853 55.4481 24.9355 55.6752C24.7748 55.7415 21.0321 49.0704 21.1064 48.8499C21.1376 48.7578 23.7729 47.2277 26.9628 45.4495L32.7627 42.2166L33.04 42.6783C33.1924 42.9322 34.0515 44.4607 34.9493 46.0748ZM20.2076 53.0304C21.1091 54.6502 21.9905 56.221 22.1663 56.5212L22.4858 57.0668L15.6677 60.8634C11.9178 62.9514 8.65333 64.7324 8.4135 64.8212C7.48987 65.1628 7.14876 64.8259 5.63592 62.0772C4.85348 60.6554 4.16634 59.3673 4.1092 59.2147C3.80519 58.4039 4.18182 58.1388 11.0824 54.3048C14.7892 52.2453 17.9783 50.4535 18.169 50.3228C18.3596 50.1922 18.5275 50.0853 18.5421 50.0853C18.5566 50.0853 19.3059 51.4107 20.2076 53.0304ZM37.6029 61.2172C37.6029 67.0456 37.615 67.2633 37.9614 67.635C38.427 68.1348 39.4051 68.1517 39.8887 67.6682C40.2268 67.3301 40.2403 67.0822 40.2403 61.2504V55.1843H45.1636H50.0868V70.4815V85.7786H45.1636H40.2403V79.1523C40.2403 72.5911 40.2366 72.5221 39.8581 72.1191C39.368 71.5976 38.5504 71.5867 38.0098 72.0945L37.6029 72.477V79.1277V85.7786H30.1214C24.0157 85.7786 22.5516 85.7329 22.1589 85.5298C21.1342 84.9999 21.1629 85.3726 21.1629 72.6097V60.9005L26.2619 58.0447L31.361 55.1891L34.4819 55.1868L37.6029 55.1843V61.2172ZM69.2093 69.9266L69.2543 84.5809L68.6554 85.1797L68.0565 85.7786H60.4783H52.9V70.4797V55.1808L61.0321 55.2265L69.1642 55.2722L69.2093 69.9266Z" fill="#EFF4F9"/>
</svg>
