<svg width="50" height="34" viewBox="0 0 50 34" fill="none" xmlns="http://www.w3.org/2000/svg">
<g clip-path="url(#clip0_832:1685)">
<path d="M24.1221 11.4965C24.1221 8.33199 22.945 5.62851 20.5963 3.37711C18.3199 1.12392 15.6167 0 12.4869 0C8.64461 0 5.58527 1.40623 3.30884 4.22228C1.10113 6.82033 -2.09808e-05 10.0223 -2.09808e-05 13.8193C-2.09808e-05 20.7826 5.97582 27.4939 17.9293 33.9623L19.6362 31.3285C15.5824 28.0211 13.5519 25.3515 13.5519 23.311C13.5519 22.6749 14.4053 22.0441 16.1122 21.4098C18.6779 20.4985 20.4173 19.6176 21.3467 18.776C23.1928 17.2268 24.1221 14.8021 24.1221 11.4965Z" fill="#07EBFE"/>
<path d="M50 11.4965C50 8.33199 48.9314 5.62851 46.796 3.37711C44.5196 1.12392 41.7821 0 38.5817 0C34.7376 0 31.6783 1.40623 29.4001 4.22228C27.1236 6.82033 25.9845 10.0223 25.9845 13.8193C25.9845 20.7826 31.9604 27.4939 43.9139 33.9623L45.8341 31.3285C41.6356 28.0211 39.5382 25.3515 39.5382 23.311C39.5382 22.6749 40.4622 22.0441 42.3101 21.4098C44.8035 20.4985 46.5121 19.6176 47.4379 18.776C49.1448 17.2268 50 14.8021 50 11.4965Z" fill="#07EBFE"/>
</g>
<defs>
<clipPath id="clip0_832:1685">
<rect width="50" height="33.9623" fill="white" transform="matrix(-1 0 0 1 50 0)"/>
</clipPath>
</defs>
</svg>
