<svg width="110" height="101" viewBox="0 0 110 101" fill="none" xmlns="http://www.w3.org/2000/svg">
<g clip-path="url(#clip0_869:2978)">
<path d="M108.096 54.9563L73.8059 89.2441C71.2667 91.7838 67.1476 91.7838 64.606 89.2441L46.9051 71.5419C44.365 69.0022 44.365 64.8827 46.9051 62.3425C49.4458 59.8018 53.5645 59.8018 56.1041 62.3416L69.2073 75.4449L98.8957 45.7563C101.436 43.2157 105.555 43.2176 108.095 45.7563C110.635 48.2965 110.635 52.4146 108.096 54.9563Z" fill="#07EBFE" fill-opacity="0.4"/>
</g>
<path d="M11.7387 73.231C14.0737 77.027 18.6157 82.301 21.0857 84.084C21.7537 84.566 22.2407 84.772 22.7137 84.772C23.1197 84.772 23.5047 84.618 23.9257 84.287C24.4527 83.872 24.6307 83.474 24.6307 82.708C24.6307 81.798 24.3877 81.481 23.2537 80.41C22.3087 79.518 21.9477 79.243 21.7587 79.157C21.2647 78.755 18.2647 75.329 17.1207 73.751C10.2287 64.234 7.91872 51.753 10.9407 40.363C14.3607 27.471 24.3007 16.939 36.8817 12.875C39.5357 12.018 40.6457 11.449 40.6457 10.143C40.6457 9.29 39.4577 8.02 38.6327 8.02C38.2987 8.03 37.0167 8.401 36.3857 8.596C20.6347 13.462 9.00572 26.638 6.03572 42.982C5.43872 46.263 5.30572 52.492 5.75572 56.049C6.51372 62.02 8.69372 68.282 11.7387 73.231Z" fill="#475678"/>
<path d="M36.5937 56.839C34.2317 56.843 33.9047 56.865 33.2507 57.427C32.8117 57.805 32.5457 58.358 32.5237 58.944C32.5017 59.522 32.7187 60.084 33.1197 60.485C33.6727 61.038 34.1737 61.075 36.0007 61.131C40.9437 61.282 43.4287 60.012 46.2227 55.773C46.6077 55.188 46.9247 54.734 47.1437 54.434C47.3217 54.693 47.5597 55.055 47.8277 55.49C48.3817 56.384 49.3757 57.667 50.0437 58.35C52.1027 60.454 54.1067 61.163 57.9847 61.163H58.7697L58.5617 61.383C57.8047 62.184 57.4197 62.715 57.4197 63.396C57.4197 64.497 58.3967 65.461 59.5087 65.461C60.2777 65.461 60.8007 65.008 63.1317 62.693C65.6047 60.239 65.9197 59.891 65.9197 59.003C65.9197 58.115 65.6047 57.767 63.1317 55.313C60.7647 52.963 60.2807 52.545 59.5087 52.545C58.3967 52.545 57.4197 53.51 57.4197 54.61C57.4197 55.292 57.8047 55.823 58.5617 56.624L58.7687 56.843H57.5517C54.0787 56.843 53.5437 56.515 51.1897 52.936C50.3967 51.733 49.8517 50.837 49.6687 50.498C50.0717 49.68 52.4287 46.17 53.0737 45.525C54.1707 44.428 54.4237 44.285 57.3467 44.203L58.7757 44.162L58.5817 44.367C57.8107 45.181 57.4207 45.72 57.4207 46.401C57.4207 47.501 58.3967 48.466 59.5077 48.466C60.2737 48.466 60.7887 48.022 63.0747 45.757C63.5237 45.313 65.7697 43.065 65.9147 42.494C66.1757 41.451 65.5377 40.679 62.9097 38.087C60.7917 35.999 60.2647 35.55 59.5057 35.55C58.9677 35.55 58.4497 35.772 58.0467 36.176C56.8017 37.421 57.6087 38.62 58.5627 39.629L58.7697 39.848H57.9857C52.9957 39.848 50.6297 41.162 47.8587 45.474L47.1247 46.615L46.2067 45.242C43.3067 40.903 40.9107 39.698 35.8217 39.879C34.0967 39.939 33.6397 40.005 33.1187 40.527C32.7187 40.928 32.5017 41.489 32.5237 42.067C32.5457 42.653 32.8107 43.206 33.2507 43.584C33.9037 44.146 34.2307 44.168 36.5937 44.173C40.1757 44.179 40.7307 44.525 43.1937 48.289L44.6447 50.505L43.1937 52.723C40.7297 56.486 40.1747 56.832 36.5937 56.839Z" fill="#475678"/>
<path d="M23.5707 38.223C21.6997 42.061 20.8287 45.964 20.8287 50.506C20.8287 58.066 23.4567 64.641 28.6417 70.05C32.6807 74.266 37.3747 76.962 42.9927 78.291C45.0537 78.779 45.6367 78.829 49.2307 78.829C52.8247 78.829 53.4067 78.779 55.4677 78.291C64.8217 76.077 72.2247 69.675 75.7807 60.726C77.2717 56.97 77.9557 52.122 77.5657 48.075C76.3537 35.515 67.2857 25.292 54.9997 22.634C53.4967 22.309 50.4467 22.138 48.2117 22.138C47.3647 22.138 46.1837 22.162 45.3667 22.276C36.0847 23.574 27.7327 29.684 23.5707 38.223ZM25.0237 50.506C25.0237 43.86 27.4307 38.093 32.1787 33.367C36.0727 29.491 40.8267 27.15 46.3087 26.409C46.9317 26.325 47.7407 26.281 48.6487 26.281C50.5237 26.281 52.5987 26.467 54.0647 26.765C63.2167 28.631 70.3587 35.434 72.7027 44.52C73.8197 48.846 73.6627 53.768 72.2717 58.024C69.9267 65.2 64.0847 71.117 57.0267 73.464C54.0507 74.452 52.5937 74.68 49.2297 74.68C46.7357 74.68 45.8077 74.6 44.2657 74.251C39.2537 73.115 35.6137 71.116 32.0937 67.565C27.4027 62.836 25.0237 57.096 25.0237 50.506Z" fill="#475678"/>
<path d="M96.0227 87.284L95.8097 87.119C91.9017 84.071 91.0877 83.436 90.2677 83.436C89.8977 83.436 89.6177 83.588 89.2777 83.774C88.4857 84.204 88.1327 85.113 88.3787 86.088C88.4597 86.408 88.7507 86.912 91.2037 88.85L92.6187 89.967L76.5027 90.149L75.8567 90.756C75.0477 91.517 74.9727 92.75 75.6807 93.625L76.2017 94.27L92.7057 94.453L91.2767 95.565C90.0597 96.513 88.5787 97.722 88.4377 98.092C88.1217 98.918 88.2967 99.776 88.9087 100.385C89.3157 100.792 89.7777 100.999 90.2797 100.999C90.8227 100.999 91.4007 100.759 92.0497 100.264C95.2797 97.796 100.16 93.992 100.535 93.567C100.806 93.26 101.002 92.696 101.002 92.226C101.001 91.164 100.625 90.871 96.0227 87.284Z" fill="#475678"/>
<path d="M91.4037 62.452C92.5837 58.251 92.8887 55.795 92.8887 50.506C92.8887 45.043 92.5937 42.761 91.3097 38.301C86.8917 22.952 74.4287 11.244 58.7857 7.747C57.5167 7.463 55.9327 7.174 55.2557 7.104C55.1217 7.09 54.9987 7.074 54.8857 7.059C55.2587 6.735 55.8117 6.279 56.5227 5.727C57.6997 4.812 59.0907 3.685 59.3507 3.394C59.8717 2.816 59.9857 1.987 59.6487 1.23C59.3107 0.471 58.6157 0 57.8357 0C57.2157 0 56.5037 0.434 52.3367 3.683C51.2387 4.539 47.6357 7.379 47.3467 7.975C46.6597 9.39 47.4257 10.041 52.1577 13.726C52.2037 13.761 56.6917 17.253 57.2657 17.467C57.4427 17.533 57.6297 17.566 57.8247 17.566C58.5797 17.566 59.3367 17.046 59.7087 16.272C60.3487 14.94 59.4847 14.1 57.0397 12.21C56.7107 11.956 56.4067 11.719 56.1357 11.507C56.9567 11.667 57.9607 11.883 58.8737 12.114C69.7487 14.863 78.9897 22.152 84.2277 32.113C89.4597 42.065 90.2267 53.797 86.3317 64.299C83.1367 72.909 77.1427 80.002 68.9967 84.808C66.0137 86.569 61.9487 88.214 58.6427 89L58.1577 89.116C54.8187 89.92 54.8187 89.92 31.2977 90.019L1.30772 90.148L0.660722 90.756C0.0977219 91.284 -0.124278 92.038 0.0677219 92.772C0.260722 93.514 0.831722 94.071 1.59472 94.261C1.68772 94.284 1.90772 94.338 14.7727 94.338C18.6337 94.338 23.1057 94.332 27.8447 94.32L31.2207 94.311C54.9917 94.252 54.9917 94.252 59.3937 93.147L60.0227 92.99C74.9187 89.286 87.2367 77.299 91.4037 62.452Z" fill="#475678"/>
<defs>
<clipPath id="clip0_869:2978">
<rect width="65" height="65" fill="white" transform="translate(45 35)"/>
</clipPath>
</defs>
</svg>
