<svg width="139" height="101" viewBox="0 0 139 101" fill="none" xmlns="http://www.w3.org/2000/svg">
<g clip-path="url(#clip0_716:1709)">
<path d="M122.668 54.3246H103.539L120.052 25.2705C120.461 24.5549 120.458 23.6767 120.045 22.9634C119.63 22.2508 118.869 21.8126 118.045 21.8126H90.3098C89.3149 21.8126 88.4319 22.4494 88.1183 23.3926L74.2507 65.1497C74.0135 65.8539 74.1333 66.6304 74.5667 67.2329C75.0024 67.836 75.7 68.1923 76.4422 68.1923H96.0501L83.5638 97.4835C83.1166 98.5242 83.4916 99.7364 84.4486 100.343C85.39 100.945 86.6545 100.787 87.4141 99.9284L124.395 58.1713C125 57.4918 125.149 56.5185 124.776 55.6903C124.404 54.8597 123.578 54.3246 122.668 54.3246Z" fill="#07EBFE" fill-opacity="0.4"/>
</g>
<path fill-rule="evenodd" clip-rule="evenodd" d="M44.4672 0.131685C38.535 0.773393 31.4831 2.93982 26.5202 5.64518C24.5696 6.70829 24.1346 7.14265 24.1346 8.02589C24.1346 8.50851 28.8229 16.8693 29.863 18.2414C30.3177 18.8411 30.5644 18.9675 31.2796 18.9675C31.9492 18.9675 32.2509 18.8339 32.6088 18.3788C32.8635 18.055 33.072 17.5724 33.072 17.3063C33.072 17.0402 32.018 14.985 30.7297 12.739L28.3874 8.65553L30.4855 7.6751C42.8075 1.91694 57.2991 1.91716 69.622 7.67554L71.7217 8.65687L70.0184 11.6337C69.0818 13.271 68.2841 14.6467 68.2459 14.691C68.2077 14.7354 67.0398 14.3129 65.6502 13.7523C62.7112 12.5666 60.0286 11.8386 55.9741 11.127C52.5102 10.519 45.3918 10.3914 42.9031 10.8926C41.0558 11.2648 39.4017 11.9722 38.9836 12.5692C38.4823 13.2849 38.5723 13.9422 39.773 18.3339C40.3861 20.5772 40.8136 22.4817 40.7226 22.5664C40.6315 22.6511 39.7954 23.0343 38.8646 23.4179C36.9204 24.2194 34.1845 25.8677 32.4017 27.3113L31.1728 28.3065L24.0228 21.1833C18.4492 15.6305 16.7158 14.0292 16.1601 13.919C15.522 13.7928 15.3147 13.9034 14.1847 14.9721C13.4903 15.6287 12.1868 17.073 11.2879 18.1813C4.44272 26.622 0.636046 36.6324 0.0770097 47.662C-0.0630845 50.4239 -0.0628607 50.4259 0.518519 51.0073C1.21117 51.7 2.18848 51.7699 2.91799 51.1791C3.37068 50.8127 3.44307 50.4876 3.60283 48.1069C4.1069 40.6001 5.62112 34.7604 8.60957 28.7987C10.0481 25.9291 12.4212 22.297 14.3112 20.072C15.0881 19.1572 15.76 18.3631 15.8042 18.3073C15.8484 18.2514 18.7319 21.0517 22.2121 24.5302L28.5396 30.8548L27.1447 32.7258C21.3427 40.5079 19.8864 50.9249 23.3485 59.8782C23.7954 61.0335 24.1801 62.1237 24.2036 62.3004C24.2302 62.5006 22.8165 63.4484 20.4555 64.8127C18.3704 66.0177 16.4685 67.1997 16.2287 67.4394C15.5794 68.0885 15.6592 69.1963 16.4012 69.8344C16.7357 70.1222 17.2333 70.3577 17.507 70.3577C17.7805 70.3577 19.8343 69.302 22.0709 68.0117C24.3077 66.7213 26.1763 65.6656 26.2237 65.6656C26.2708 65.6656 26.5608 66.0427 26.8681 66.5035C29.5129 70.4712 34.9589 74.6707 39.8309 76.4998C40.4147 76.7187 40.8922 76.9433 40.8922 76.9985C40.8922 77.0539 40.3895 78.9517 39.7751 81.2163C39.1606 83.4806 38.6579 85.6664 38.6579 86.0738C38.6579 87.1235 39.3805 87.7006 41.2327 88.1305C42.69 88.4688 47.0007 89.1123 47.8746 89.1219C48.2305 89.1259 48.2656 89.4472 48.2656 92.7013V96.2763H47.6067C46.4625 96.2763 41.7862 95.6069 39.6787 95.1414C32.6591 93.591 25.2222 89.8373 19.925 85.1709L18.5084 83.923L21.0185 81.4057L23.5286 78.8885L25.228 80.2872C28.4326 82.9247 30.784 84.3287 31.6375 84.1144C32.3599 83.9332 33.072 83.1211 33.072 82.4782C33.072 81.6403 32.7257 81.1928 31.459 80.3938C29.5415 79.1839 27.2553 77.45 25.6383 75.9789C23.3773 73.9222 23.4553 73.8979 19.3385 77.961L15.9365 81.319L15.0599 80.363C12.8356 77.9362 10.2413 74.0833 8.5488 70.6929C7.42224 68.4364 5.81283 64.386 5.81283 63.8075C5.81283 63.5894 7.02094 63.1747 9.77881 62.4463C11.96 61.8701 14.0252 61.2894 14.3677 61.1555C15.5846 60.6803 15.6592 59.9465 14.9393 55.5402C14.2558 51.3559 14.2533 45.883 14.9337 42.7214C15.585 39.6939 16.5326 37.0272 18.0055 34.0756C19.4029 31.2755 19.5262 30.4135 18.6302 29.7088C17.2259 28.6041 16.3735 29.257 14.7411 32.6883C13.1581 36.0155 11.9814 39.6257 11.361 43.0588C10.7353 46.5218 10.6907 52.6768 11.268 55.9084C11.4838 57.1165 11.6114 58.1539 11.5518 58.2136C11.4919 58.2734 9.54778 58.8226 7.23142 59.434C4.91506 60.0455 2.76852 60.7272 2.46129 60.9493C1.4536 61.6773 1.61559 62.9482 3.29024 67.4531C4.43758 70.5403 6.50637 74.5822 8.37899 77.396C17.3066 90.8108 31.6451 98.9392 47.8516 99.7724L50.6771 99.9178L51.259 99.336L51.8406 98.7544V92.7013C51.8406 85.2529 52.047 85.6959 48.4797 85.4872C45.3455 85.304 42.6815 84.8853 42.6723 84.5745C42.6683 84.436 43.0453 82.8826 43.5102 81.1229L44.3555 77.9233L45.9195 78.1065C46.7798 78.2073 48.8912 78.2788 50.6117 78.2651C54.2979 78.2363 56.9117 77.755 60.1077 76.5165C61.2752 76.0641 62.3751 75.6746 62.5519 75.6512C62.7521 75.6246 63.6999 77.0382 65.0642 79.3993C66.2692 81.4844 67.4498 83.3852 67.688 83.6233C68.634 84.5694 70.6092 83.7069 70.6092 82.3477C70.6092 82.0743 69.5534 80.0204 68.2631 77.7838C66.9728 75.547 65.917 73.6818 65.917 73.6387C65.917 73.5953 66.46 73.1862 67.1238 72.7291C68.7895 71.5817 72.301 67.9084 73.6626 65.889C74.2842 64.9674 75.1469 63.5094 75.5799 62.6492C76.5336 60.7545 77.7591 57.3462 77.7591 56.5885C77.7591 55.8396 76.8167 54.9407 76.0315 54.9407C74.9651 54.9407 74.4996 55.4765 73.8523 57.449C70.9857 66.1871 63.9381 72.4093 54.6335 74.4169C52.6769 74.839 47.0023 74.7699 44.9275 74.2987C40.6123 73.3185 35.6346 70.4768 32.1673 67.0147C25.5297 60.3867 23.2994 50.2762 26.4996 41.3225C30.1523 31.1028 40.1511 24.3653 50.9468 24.849C57.1244 25.1259 62.8674 27.5198 67.2655 31.6511C70.5875 34.7716 72.5803 37.9135 73.8579 42.0446C74.471 44.027 74.9485 44.6626 75.8246 44.6626C76.0577 44.6626 78.1041 44.1599 80.3722 43.5455C82.6405 42.931 84.6271 42.4283 84.7871 42.4283C85.1408 42.4283 85.5429 44.8796 85.7387 48.2282C85.8578 50.2633 85.9416 50.6311 86.3875 51.077C87.09 51.7795 88.1194 51.7507 88.8625 51.0075C89.441 50.4291 89.4432 50.4123 89.3038 47.8236C89.1555 45.0664 88.6914 41.9647 88.1377 40.0293C87.8787 39.1239 87.6502 38.7802 87.1273 38.5099C86.4803 38.1752 86.2608 38.2127 81.9043 39.4007C79.4032 40.0827 77.31 40.6408 77.253 40.6408C77.1961 40.6408 76.9702 40.1633 76.7512 39.5795C75.8067 37.0636 74.0358 34.0007 72.2546 31.8028L71.5203 30.8965L74.053 28.3713L76.5856 25.8458L77.7698 27.2664C78.4212 28.0477 79.4038 29.3908 79.9533 30.251C81.291 32.3453 81.751 32.8205 82.4394 32.8205C82.9891 32.8205 85.5548 31.4804 89.447 29.1604L91.1918 28.1201L92.2134 30.3029C94.9491 36.1477 96.5241 43.2722 96.5241 49.8017C96.5241 60.5067 92.4699 71.6436 85.6737 79.6091L84.1836 81.3555L81.6567 78.8358L79.1301 76.3163L80.4294 74.7335C83.3676 71.1543 85.8258 66.7434 87.2435 62.5064C88.1556 59.7807 88.2175 59.017 87.5816 58.3344C87.0073 57.718 85.587 57.6623 85.0795 58.2364C84.8894 58.4513 84.3286 59.8462 83.8332 61.3356C82.3706 65.7349 80.5916 68.9139 77.6756 72.3403C75.172 75.2818 74.8545 75.7468 74.8545 76.4698C74.8545 77.0347 75.3844 77.6739 78.2288 80.5397L81.6031 83.9395L79.6098 85.5983C75.8655 88.7148 71.5916 91.2307 66.9953 93.0242C65.5609 93.5839 64.2325 94.0419 64.0435 94.0419C63.8339 94.0419 63.6152 93.715 63.4831 93.204C63.3638 92.7433 62.8517 90.7574 62.345 88.7912C61.6137 85.9533 61.3084 85.1125 60.8649 84.7135C59.7444 83.7051 58.0974 84.4456 58.0959 85.9587C58.0948 87.1529 60.7693 96.8751 61.2763 97.5197C61.8547 98.2552 62.7228 98.2264 65.3524 97.3841C73.3918 94.8088 80.1584 90.5977 86.0262 84.5182C93.2702 77.0128 97.6556 68.2483 99.4842 57.6219C100.126 53.8921 100.178 46.2519 99.5879 42.54C98.1318 33.3881 94.5132 25.2036 88.8183 18.1813C87.9194 17.073 86.6159 15.6287 85.9214 14.9721C84.7944 13.906 84.5824 13.7928 83.9461 13.9157C83.0431 14.0899 82.4513 14.7953 82.4515 15.6967C82.4517 16.2658 82.832 16.8194 84.4671 18.6324C87.2328 21.6986 89.441 24.8088 89.0875 25.1393C88.9398 25.2774 87.5632 26.113 86.0283 26.9965C82.8459 28.8284 83.3995 28.912 81.5575 26.3217C81.0045 25.5441 79.7975 24.1242 78.8754 23.1666C76.4907 20.6898 76.6855 20.6384 72.4125 24.8729L68.9334 28.3208L68.2631 27.7626C64.8689 24.9371 60.1998 22.7116 55.639 21.7455C53.553 21.3036 48.6416 21.178 45.9195 21.4968L44.3555 21.68L43.5102 18.4804C43.0453 16.7207 42.6683 15.1656 42.6723 15.0246C42.6967 14.1755 52.2633 13.8634 56.1976 14.5833C59.2875 15.1486 63.4188 16.5216 66.0296 17.8508C68.483 19.0998 69.3948 19.2379 70.089 18.4648C70.8384 17.6303 75.7431 8.99404 75.893 8.24531C76.017 7.62438 75.9162 7.44027 74.9697 6.55881C72.2237 4.00159 64.3822 1.29199 56.9123 0.318924C54.4894 0.00343269 46.7319 -0.113424 44.4672 0.131685ZM47.0691 30.4932C43.8081 31.2826 40.6123 33.7791 39.0518 36.7559C37.8875 38.9773 37.4723 40.9188 37.5943 43.5705C37.7045 45.9639 38.2543 47.4551 39.9482 49.9531C42.135 53.1782 42.6647 54.82 42.8906 59.0742C43.0341 61.7787 43.1608 62.6213 43.546 63.4382C44.284 65.0024 45.1987 65.963 46.7407 66.7928C48.0299 67.4864 48.3206 67.5532 50.0531 67.555C52.2879 67.5572 53.6133 67.0317 55.0858 65.5592C56.6491 63.9958 57.0283 62.8802 57.2142 59.2977C57.3034 57.5772 57.4902 55.6854 57.6291 55.0935C57.941 53.765 58.9204 51.7987 60.2038 49.9243C62.9158 45.963 63.2789 41.3017 61.2034 37.092C58.6386 31.8895 52.7185 29.1256 47.0691 30.4932ZM52.1355 34.0483C55.7554 34.9912 58.1225 37.5594 58.8178 41.2986C59.2647 43.7012 58.6502 45.8835 56.7385 48.684C55.4732 50.5379 54.5508 52.6458 54.0046 54.9333L53.5224 56.9516H50.0232H46.5239L46.2623 55.4488C45.8748 53.2236 44.9623 51.0909 43.2738 48.4642C41.4589 45.6406 41.022 44.3114 41.1671 42.054C41.5187 36.5711 46.8586 32.674 52.1355 34.0483ZM53.5416 61.2527C53.3747 62.1054 52.8375 62.8874 51.978 63.5291C51.1128 64.175 48.9933 64.175 48.1282 63.5291C47.2686 62.8874 46.7315 62.1054 46.5646 61.2527L46.4223 60.5266H50.0531H53.6839L53.5416 61.2527Z" fill="#475678"/>
<defs>
<clipPath id="clip0_716:1709">
<rect width="78.8919" height="78.8919" fill="white" transform="translate(60.1084 21.8126)"/>
</clipPath>
</defs>
</svg>
