<svg width="60" height="60" viewBox="0 0 60 60" fill="none" xmlns="http://www.w3.org/2000/svg">
<g clip-path="url(#clip0)">
<path d="M9.09869 4.28448e-05C10.0565 0.481781 10.2428 1.02242 9.76972 1.98458C9.34146 2.85531 8.90324 3.72121 8.41974 4.68893C9.31582 4.68893 10.123 4.68527 10.93 4.68981C12.1906 4.69699 12.6905 5.49989 12.1312 6.63332C11.4328 8.04879 10.7268 9.4606 10.0137 10.8686C9.68753 11.5124 9.20579 11.7969 8.67863 11.6944C7.86577 11.5363 7.49451 10.753 7.875 9.92564C8.23309 9.14692 8.63365 8.38797 9.01386 7.61936C9.09781 7.4497 9.174 7.27637 9.28696 7.03316C8.37872 7.03316 7.5452 7.04019 6.71183 7.0314C5.56858 7.01953 5.05754 6.20374 5.5614 5.17199C6.26262 3.73615 6.96691 2.30119 7.71281 0.888504C7.89317 0.546833 8.24158 0.293804 8.51278 -0.000103669C8.70794 4.28448e-05 8.90324 4.28448e-05 9.09869 4.28448e-05Z" fill="url(#paint0_linear)"/>
<path d="M41.9205 4.88875e-05C42.8783 0.481787 43.0647 1.02242 42.5917 1.98458C42.1635 2.85532 41.7252 3.72121 41.2416 4.68894C42.1375 4.68894 42.9447 4.68528 43.7518 4.68982C45.0126 4.69685 45.5125 5.49975 44.9532 6.63318C44.2548 8.04865 43.5488 9.46032 42.8357 10.8685C42.5107 11.51 42.0259 11.7963 41.5002 11.6942C40.6876 11.5363 40.3164 10.7527 40.6969 9.92535C41.0549 9.14678 41.4555 8.38769 41.8356 7.61907C41.9197 7.44897 41.9961 7.27506 42.1087 7.03302C41.2004 7.03302 40.3668 7.04005 39.5334 7.03126C38.3903 7.01939 37.8792 6.2036 38.3831 5.17185C39.0843 3.73601 39.7886 2.30105 40.5345 0.888364C40.7149 0.546693 41.0633 0.293663 41.3345 -0.000244141C41.5298 4.88875e-05 41.7252 4.88875e-05 41.9205 4.88875e-05Z" fill="url(#paint1_linear)"/>
<path d="M47.547 27.6979C47.547 30.9207 47.544 34.1435 47.5476 37.3663C47.5534 42.7747 45.9407 47.6409 42.4977 51.8186C38.8235 56.2765 34.0945 58.9857 28.3488 59.7703C21.94 60.6454 16.1647 59.0164 11.1703 54.9359C6.71512 51.2961 4.06102 46.5536 3.25314 40.8329C3.0845 39.639 3.01711 38.4217 3.01344 37.2149C2.99191 30.0467 3.0026 22.8785 3.00304 15.7102C3.00304 14.4383 3.37343 14.0672 4.64239 14.0669C8.25586 14.0661 11.8692 14.0658 15.4827 14.067C16.6768 14.0674 17.0688 14.457 17.069 15.6458C17.07 22.9509 17.0631 30.2558 17.0721 37.5608C17.077 41.6026 19.5997 44.814 23.4628 45.7372C28.3459 46.9042 33.2586 43.2046 33.456 38.1708C33.527 36.3569 33.4793 34.5384 33.4799 32.7219C33.4816 27.0577 33.4803 21.3933 33.4807 15.7291C33.4809 14.4246 33.8425 14.0669 35.1599 14.0667C38.7538 14.0663 42.3478 14.066 45.9416 14.067C47.1669 14.0673 47.5465 14.4506 47.5468 15.6857C47.5474 19.6898 47.547 23.6939 47.547 27.6979ZM5.34727 27.2076C5.34727 27.4678 5.34727 27.6779 5.34727 27.8881C5.34727 30.9355 5.32558 33.9831 5.35811 37.0302C5.371 38.2376 5.42345 39.4554 5.59707 40.6483C6.33799 45.7395 8.73496 49.9446 12.7136 53.1707C17.2164 56.822 22.4044 58.2416 28.162 57.434C32.5451 56.8192 36.3085 54.8962 39.4021 51.7604C43.2702 47.8395 45.1701 43.0649 45.1994 37.5576C45.2168 34.2955 45.2026 31.033 45.2026 27.7708C45.2026 27.5859 45.2026 27.4008 45.2026 27.1954C43.5672 27.1954 42.0247 27.1954 40.4822 27.1954C38.9456 27.1954 37.4091 27.1954 35.825 27.1954C35.825 27.4909 35.8253 27.7209 35.825 27.9511C35.8193 31.3891 35.8968 34.8297 35.7886 38.2645C35.6206 43.6082 31.1884 48.0117 25.8579 48.2754C19.7531 48.5774 14.7769 43.8514 14.7299 37.6792C14.7048 34.3976 14.7253 31.1157 14.7252 27.8339C14.7252 27.6289 14.7252 27.424 14.7252 27.2079C11.57 27.2076 8.50508 27.2076 5.34727 27.2076ZM14.683 24.8254C14.683 21.9987 14.683 19.2199 14.683 16.458C11.5495 16.458 8.4582 16.458 5.37877 16.458C5.37877 19.27 5.37877 22.035 5.37877 24.8254C8.48765 24.8254 11.565 24.8254 14.683 24.8254ZM35.8465 24.8052C38.9979 24.8052 42.089 24.8052 45.1721 24.8052C45.1721 21.9943 45.1721 19.2293 45.1721 16.4464C42.0505 16.4464 38.9594 16.4464 35.8465 16.4464C35.8465 19.2469 35.8465 22.0117 35.8465 24.8052Z" fill="url(#paint2_linear)"/>
</g>
<defs>
<linearGradient id="paint0_linear" x1="39.8616" y1="-3.37423" x2="-8.22715" y2="32.1216" gradientUnits="userSpaceOnUse">
<stop stop-color="#4AB1FE"/>
<stop offset="1" stop-color="#07EBFE"/>
</linearGradient>
<linearGradient id="paint1_linear" x1="39.8616" y1="-3.37423" x2="-8.22715" y2="32.1216" gradientUnits="userSpaceOnUse">
<stop stop-color="#4AB1FE"/>
<stop offset="1" stop-color="#07EBFE"/>
</linearGradient>
<linearGradient id="paint2_linear" x1="39.8616" y1="-3.37423" x2="-8.22715" y2="32.1216" gradientUnits="userSpaceOnUse">
<stop stop-color="#4AB1FE"/>
<stop offset="1" stop-color="#07EBFE"/>
</linearGradient>
<clipPath id="clip0">
<rect width="60" height="60" fill="white"/>
</clipPath>
</defs>
</svg>
