<svg width="60" height="60" viewBox="0 0 60 60" fill="none" xmlns="http://www.w3.org/2000/svg">
<path d="M6.01915 8.97584C6.69995 8.97584 7.25184 8.42394 7.25184 7.74314C7.25184 7.06234 6.69995 6.51045 6.01915 6.51045C5.33835 6.51045 4.78645 7.06234 4.78645 7.74314C4.78645 8.42394 5.33835 8.97584 6.01915 8.97584Z" fill="url(#paint0_linear)"/>
<path d="M10.7076 8.97584C11.3884 8.97584 11.9403 8.42394 11.9403 7.74314C11.9403 7.06234 11.3884 6.51045 10.7076 6.51045C10.0269 6.51045 9.47495 7.06234 9.47495 7.74314C9.47495 8.42394 10.0269 8.97584 10.7076 8.97584Z" fill="url(#paint1_linear)"/>
<path d="M15.3944 8.97584C16.0752 8.97584 16.6271 8.42394 16.6271 7.74314C16.6271 7.06234 16.0752 6.51045 15.3944 6.51045C14.7136 6.51045 14.1617 7.06234 14.1617 7.74314C14.1617 8.42394 14.7136 8.97584 15.3944 8.97584Z" fill="url(#paint2_linear)"/>
<path d="M59.0712 52.0256C58.721 51.6774 58.3054 51.4206 57.8476 51.2665C57.8446 50.6149 57.5875 49.9776 57.1177 49.5078L51.5974 43.9876C53.4879 41.156 54.5032 37.8266 54.5032 34.338C54.5032 29.682 52.6948 25.3094 49.4109 22.0256C46.1223 18.7369 41.7497 16.9257 37.0986 16.9257C32.4476 16.9257 28.0748 18.7369 24.7862 22.0256C21.5024 25.3093 19.6939 29.6819 19.6939 34.338C19.6939 36.545 20.1009 38.688 20.8781 40.6819H3.13453C2.34891 40.6819 1.70977 40.0427 1.70977 39.2571V12.4586H51.9202V21.284C51.9202 21.7562 52.3029 22.1389 52.775 22.1389C53.2472 22.1389 53.6299 21.7562 53.6299 21.284V5.66224C53.6299 3.93384 52.2238 2.52771 50.4954 2.52771H17.71C17.2378 2.52771 16.8551 2.91044 16.8551 3.38259C16.8551 3.85474 17.2378 4.23748 17.71 4.23748H50.4954C51.281 4.23748 51.9202 4.87662 51.9202 5.66224V10.7489H1.70977V5.66224C1.70977 4.87662 2.34891 4.23748 3.13453 4.23748H13.3357C13.8079 4.23748 14.1906 3.85474 14.1906 3.38259C14.1906 2.91044 13.8079 2.52771 13.3357 2.52771H3.13453C1.40613 2.52771 0 3.93384 0 5.66224V39.257C0 40.9854 1.40613 42.3915 3.13453 42.3915H21.6553C22.4652 43.9431 23.5145 45.3786 24.7862 46.6502C28.0748 49.939 32.4475 51.7502 37.0986 51.7502C40.4723 51.7502 43.6991 50.7964 46.4723 49.0179L52.0399 54.5854C52.5097 55.0554 53.147 55.3125 53.7986 55.3154C53.9537 55.7762 54.2129 56.1942 54.5645 56.5458C55.7984 57.8258 58.0341 57.7753 59.1953 56.4222C60.315 55.1791 60.2593 53.2066 59.0712 52.0256ZM25.9952 45.4414C23.0344 42.4806 21.4038 38.5373 21.4038 34.338C21.4038 30.1387 23.0345 26.1955 25.9952 23.2346C28.961 20.2688 32.9041 18.6355 37.0986 18.6355C41.293 18.6355 45.2362 20.2688 48.202 23.2346C51.1629 26.1955 52.7934 30.1387 52.7934 34.338C52.7934 38.5373 51.1628 42.4806 48.202 45.4414C45.2362 48.4072 41.293 50.0406 37.0986 50.0406C32.9043 50.0406 28.9609 48.4072 25.9952 45.4414ZM57.9247 55.2783C57.3843 55.9069 56.346 55.934 55.7734 55.3371C55.541 55.1047 55.3957 54.8096 55.3532 54.4842C55.2857 53.8554 54.6139 53.407 54.0066 53.5808C53.7319 53.6525 53.4484 53.5762 53.2488 53.3767L47.8827 48.0106C48.8591 47.2391 49.7764 46.3394 50.5673 45.3757L55.9086 50.717C56.1081 50.9164 56.1844 51.1997 56.1129 51.4742C55.9394 52.0808 56.3858 52.7538 57.0143 52.8211C57.339 52.8631 57.6335 53.0074 57.8658 53.2384C58.4175 53.7866 58.444 54.7018 57.9247 55.2783Z" fill="url(#paint3_linear)"/>
<path d="M46.978 24.4579C44.339 21.8188 40.8301 20.3655 37.0981 20.3655C33.3659 20.3655 29.8571 21.8188 27.218 24.4579C24.5789 27.097 23.1255 30.6058 23.1255 34.338C23.1255 38.0702 24.5789 41.5789 27.218 44.218C28.7627 45.7628 30.5829 46.8951 32.6281 47.5833C33.0756 47.734 33.5604 47.4933 33.711 47.0458C33.8616 46.5984 33.6209 46.1134 33.1735 45.9628C31.3805 45.3595 29.7836 44.3657 28.427 43.0091C26.1108 40.6929 24.8354 37.6136 24.8354 34.3381C24.8354 31.0626 26.1109 27.9831 28.427 25.667C30.7431 23.3509 33.8226 22.0755 37.0981 22.0755C40.3736 22.0755 43.4529 23.3511 45.7691 25.667C50.5504 30.4483 50.5504 38.2279 45.7691 43.0091C43.4529 45.3252 40.3736 46.6007 37.0981 46.6007C36.6259 46.6007 36.2432 46.9834 36.2432 47.4556C36.2432 47.9277 36.6259 48.3105 37.0981 48.3105C40.8303 48.3105 44.339 46.8571 46.978 44.218C52.4258 38.7701 52.4258 29.9058 46.978 24.4579Z" fill="url(#paint4_linear)"/>
<path d="M38.377 37.6814C38.377 37.2092 37.9942 36.8265 37.5221 36.8265H35.5594V35.1929H37.3143C37.7865 35.1929 38.1692 34.8101 38.1692 34.338C38.1692 33.8658 37.7865 33.4831 37.3143 33.4831H35.5594V31.8495H37.5221C37.9942 31.8495 38.377 31.4668 38.377 30.9946C38.377 30.5225 37.9942 30.1398 37.5221 30.1398H34.7046C34.2324 30.1398 33.8497 30.5225 33.8497 30.9946V37.6815C33.8497 38.1536 34.2324 38.5364 34.7046 38.5364H37.5221C37.9942 38.5362 38.377 38.1535 38.377 37.6814Z" fill="url(#paint5_linear)"/>
<path d="M29.4123 36.8572C28.7447 36.8572 28.1024 36.5883 27.6941 36.1377C27.3771 35.7879 26.8365 35.7613 26.4865 36.0783C26.1367 36.3954 26.11 36.936 26.427 37.2859C27.1541 38.088 28.27 38.567 29.4122 38.567C30.8398 38.567 32.0388 37.6555 32.2631 36.3997C32.4318 35.4542 32.0033 34.2194 30.294 33.589C29.4671 33.2839 28.6971 32.9518 28.4586 32.8474C28.2806 32.7034 28.2867 32.5031 28.2986 32.4197C28.3154 32.3027 28.4006 32.0168 28.8274 31.8882C29.7712 31.6038 30.6477 32.2944 30.674 32.3155C31.0353 32.6153 31.5714 32.5674 31.8741 32.2076C32.1779 31.8462 32.1312 31.3069 31.7698 31.003C31.7059 30.9493 30.1837 29.6939 28.3343 30.2511C27.3984 30.5331 26.7363 31.2709 26.6062 32.1767C26.4777 33.064 26.8961 33.9511 27.6866 34.3756C27.7256 34.3931 28.6552 34.8069 29.7022 35.193C29.9954 35.3012 30.6678 35.606 30.5798 36.0991C30.5136 36.4719 30.0586 36.8572 29.4123 36.8572Z" fill="url(#paint6_linear)"/>
<path d="M48.0397 34.3381C48.0397 32.0062 46.1426 30.109 43.8105 30.109C41.4786 30.109 39.5815 32.0061 39.5815 34.3381C39.5815 36.67 41.4786 38.5672 43.8105 38.5672C46.1426 38.5672 48.0397 36.67 48.0397 34.3381ZM41.2914 34.3381C41.2914 32.949 42.4215 31.8187 43.8106 31.8187C45.1998 31.8187 46.3301 32.9489 46.3301 34.3381C46.3301 35.7273 45.1999 36.8574 43.8106 36.8574C42.4215 36.8574 41.2914 35.7273 41.2914 34.3381Z" fill="url(#paint7_linear)"/>
<path d="M19.9293 22.4735C19.9293 17.9635 16.2601 14.2944 11.7502 14.2944C7.24022 14.2944 3.57108 17.9635 3.57108 22.4735C3.57108 26.9834 7.24022 30.6526 11.7502 30.6526C16.2601 30.6526 19.9293 26.9834 19.9293 22.4735ZM18.1613 21.6186H16.323C16.2265 19.8964 15.8398 18.2892 15.209 17.0105C16.7883 18.014 17.9044 19.6819 18.1613 21.6186ZM10.8953 16.3352V21.6186H8.88964C9.04972 19.0223 9.92288 17.078 10.8953 16.3352ZM10.8953 23.3283V28.6116C9.92288 27.8688 9.04972 25.9245 8.88976 23.3283H10.8953ZM12.6051 28.6117V23.3283H14.6107C14.4508 25.9246 13.5775 27.8689 12.6051 28.6117ZM12.6051 21.6186V16.3352C13.5775 17.078 14.4508 19.0223 14.6107 21.6186H12.6051ZM8.2914 17.0105C7.66057 18.2892 7.27374 19.8964 7.17741 21.6186H5.33909C5.59608 19.6819 6.71218 18.014 8.2914 17.0105ZM5.33909 23.3283H7.17741C7.27386 25.0505 7.66057 26.6578 8.29151 27.9364C6.71218 26.9329 5.59608 25.265 5.33909 23.3283ZM15.209 27.9364C15.8398 26.6578 16.2266 25.0505 16.323 23.3283H18.1613C17.9044 25.265 16.7883 26.9329 15.209 27.9364Z" fill="url(#paint8_linear)"/>
<path d="M17.483 34.533C17.483 34.0608 17.1003 33.6781 16.6281 33.6781H5.34061C4.86846 33.6781 4.48573 34.0608 4.48573 34.533C4.48573 35.0051 4.86846 35.3879 5.34061 35.3879H16.6281C17.1001 35.3879 17.483 35.0051 17.483 34.533Z" fill="url(#paint9_linear)"/>
<path d="M5.33961 37.3354C4.86746 37.3354 4.48473 37.7181 4.48473 38.1903C4.48473 38.6624 4.86746 39.0452 5.33961 39.0452H8.80251C9.27465 39.0452 9.65739 38.6624 9.65739 38.1903C9.65739 37.7181 9.27465 37.3354 8.80251 37.3354H5.33961Z" fill="url(#paint10_linear)"/>
<defs>
<linearGradient id="paint0_linear" x1="60" y1="2.52771" x2="0.613314" y2="25.2859" gradientUnits="userSpaceOnUse">
<stop stop-color="#4AB1FE"/>
<stop offset="1" stop-color="#07EBFE"/>
</linearGradient>
<linearGradient id="paint1_linear" x1="60" y1="2.52771" x2="0.613314" y2="25.2859" gradientUnits="userSpaceOnUse">
<stop stop-color="#4AB1FE"/>
<stop offset="1" stop-color="#07EBFE"/>
</linearGradient>
<linearGradient id="paint2_linear" x1="60" y1="2.52771" x2="0.613314" y2="25.2859" gradientUnits="userSpaceOnUse">
<stop stop-color="#4AB1FE"/>
<stop offset="1" stop-color="#07EBFE"/>
</linearGradient>
<linearGradient id="paint3_linear" x1="60" y1="2.52771" x2="0.613314" y2="25.2859" gradientUnits="userSpaceOnUse">
<stop stop-color="#4AB1FE"/>
<stop offset="1" stop-color="#07EBFE"/>
</linearGradient>
<linearGradient id="paint4_linear" x1="60" y1="2.52771" x2="0.613314" y2="25.2859" gradientUnits="userSpaceOnUse">
<stop stop-color="#4AB1FE"/>
<stop offset="1" stop-color="#07EBFE"/>
</linearGradient>
<linearGradient id="paint5_linear" x1="60" y1="2.52771" x2="0.613314" y2="25.2859" gradientUnits="userSpaceOnUse">
<stop stop-color="#4AB1FE"/>
<stop offset="1" stop-color="#07EBFE"/>
</linearGradient>
<linearGradient id="paint6_linear" x1="60" y1="2.52771" x2="0.613314" y2="25.2859" gradientUnits="userSpaceOnUse">
<stop stop-color="#4AB1FE"/>
<stop offset="1" stop-color="#07EBFE"/>
</linearGradient>
<linearGradient id="paint7_linear" x1="60" y1="2.52771" x2="0.613314" y2="25.2859" gradientUnits="userSpaceOnUse">
<stop stop-color="#4AB1FE"/>
<stop offset="1" stop-color="#07EBFE"/>
</linearGradient>
<linearGradient id="paint8_linear" x1="60" y1="2.52771" x2="0.613314" y2="25.2859" gradientUnits="userSpaceOnUse">
<stop stop-color="#4AB1FE"/>
<stop offset="1" stop-color="#07EBFE"/>
</linearGradient>
<linearGradient id="paint9_linear" x1="60" y1="2.52771" x2="0.613314" y2="25.2859" gradientUnits="userSpaceOnUse">
<stop stop-color="#4AB1FE"/>
<stop offset="1" stop-color="#07EBFE"/>
</linearGradient>
<linearGradient id="paint10_linear" x1="60" y1="2.52771" x2="0.613314" y2="25.2859" gradientUnits="userSpaceOnUse">
<stop stop-color="#4AB1FE"/>
<stop offset="1" stop-color="#07EBFE"/>
</linearGradient>
</defs>
</svg>
