<svg width="90" height="66" viewBox="0 0 90 66" fill="none" xmlns="http://www.w3.org/2000/svg">
<path d="M0 54.0855C0.703016 50.5513 3.84286 49.6766 6.58923 48.2439C4.7135 47.3593 3.13106 46.3315 1.95153 44.7729C1.54312 44.2331 1.27817 43.6823 1.56179 42.993C2.42431 40.8977 2.48955 38.6716 2.64466 36.457C2.79339 34.3323 2.75802 32.1611 3.20355 30.0965C4.86641 22.3932 13.3707 18.7368 19.827 22.8917C23.0648 24.9754 24.7571 28.0683 25.1223 31.8544C25.3802 34.529 25.4426 37.222 25.6858 39.8984C25.7743 40.8724 26.0742 41.8421 26.3881 42.7767C26.6515 43.5606 26.5292 44.1809 26.0322 44.8119C24.8457 46.3192 23.3212 47.372 21.5252 48.1869C22.1595 48.7604 22.6496 48.8249 23.466 48.472C25.8501 47.4411 28.3146 46.5942 30.7536 45.6921C31.5832 45.3853 32.4934 45.2431 32.7601 44.1644C32.8277 43.8907 33.1698 43.6828 33.3902 43.4485C33.8711 42.9368 34.3616 42.4337 34.8357 41.9156C35.4377 41.2574 35.4223 37.2525 34.8021 36.6732C31.365 33.4622 29.6567 29.4731 29.6233 24.8131C29.6097 22.9196 29.1978 21.1587 28.7738 19.3343C27.8227 15.2432 27.5745 11.0719 29.493 7.1515C31.619 2.80733 35.2307 0.286062 40.0497 0.125289C46.8085 -0.0999692 53.5801 0.0461086 60.346 0.0518113C61.306 0.0526887 61.8357 0.563742 61.837 1.52663C61.8436 6.43909 61.8588 11.3522 61.7709 16.2634C61.7487 17.5004 61.5516 18.8085 61.092 19.9456C60.4402 21.5581 60.4321 23.1773 60.436 24.8392C60.4422 27.4804 60.012 30.0607 58.6478 32.3387C57.727 33.8761 56.5288 35.2576 55.3664 36.6349C54.9989 37.0702 54.7311 37.4328 54.8047 37.9978C54.8121 38.0553 54.8135 38.1158 54.8045 38.1731C54.4409 40.4761 55.0228 42.4135 56.9862 43.8214C57.0794 43.8883 57.1967 43.9798 57.2187 44.0787C57.5027 45.3535 58.653 45.45 59.5915 45.8071C61.176 46.4098 62.7611 47.0191 64.3773 47.5258C64.9452 47.7037 65.6085 47.6326 66.2223 47.5898C66.6217 47.562 67.0103 47.3804 67.4036 47.2674C69.1216 46.7745 69.1367 46.7737 69.0315 45.0071C69.015 44.7292 68.8619 44.3803 68.6532 44.2052C66.0114 41.9893 64.7277 39.1592 64.8354 35.7327C64.8716 34.5814 64.566 33.5859 64.0906 32.5561C61.8601 27.725 65.4586 21.5562 70.7794 21.2976C75.2499 21.0804 79.736 21.1708 84.2153 21.1522C85.1426 21.1482 85.7301 21.602 85.7347 22.4017C85.7503 25.089 85.7338 27.7785 85.6271 30.463C85.5968 31.2245 85.3279 32.0306 84.9693 32.7118C84.4557 33.6879 84.3203 34.6768 84.357 35.7446C84.4757 39.2046 83.3014 42.0944 80.523 44.264C79.7707 44.8514 80.182 45.6838 80.204 46.3887C80.2117 46.6331 80.7826 46.9592 81.1511 47.0759C82.7111 47.5703 84.299 47.9767 85.8632 48.4588C88.4833 49.2664 89.9752 51.2696 89.9891 54.0054C90.0066 57.4854 90.0005 60.9654 89.9884 64.4454C89.9851 65.4047 89.4535 66.0002 88.6751 66C87.8969 65.9998 87.3912 65.4041 87.3587 64.4445C87.3519 64.24 87.3571 64.0352 87.3571 63.8303C87.3571 60.7304 87.3578 57.6308 87.3569 54.5309C87.3563 52.3075 86.6899 51.4188 84.555 50.8046C82.9536 50.3438 81.3554 49.8705 79.7426 49.4535C79.4741 49.3842 79.1356 49.5673 78.8348 49.6529C78.7608 49.6739 78.7072 49.7694 78.6459 49.8319C77.7454 50.7505 76.5083 51.5267 76.0406 52.6284C75.5869 53.6977 75.9162 55.1012 75.9138 56.358C75.909 58.9315 75.9156 61.5049 75.9081 64.0782C75.9072 64.3964 75.8905 64.725 75.8103 65.0305C75.6394 65.6817 75.1598 66.0206 74.5098 65.9787C73.8206 65.9342 73.3638 65.5208 73.3032 64.809C73.2536 64.228 73.2764 63.6404 73.2762 63.0559C73.2744 59.9268 73.2551 56.7975 73.29 53.6689C73.2984 52.9177 73.1485 52.3332 72.547 51.8342C71.9637 51.3503 71.4602 50.7706 70.9217 50.233C69.8674 49.1802 69.8674 49.1802 68.4238 49.7729C68.707 50.1745 69.0012 50.5524 69.253 50.9568C69.9667 52.1038 70.284 53.3748 70.2919 54.7106C70.311 57.9273 70.3299 61.1448 70.2657 64.3602C70.2559 64.8579 69.9101 65.4668 69.5243 65.7958C69.2837 66.0011 68.5128 65.9436 68.2727 65.7076C67.9289 65.3696 67.6962 64.7632 67.6879 64.2666C67.6369 61.1968 67.6648 58.1258 67.6613 55.0554C67.6587 52.5839 66.6929 51.2058 64.3679 50.3548C61.7054 49.3803 59.041 48.4114 56.2707 47.4012C55.6338 48.3514 54.9881 49.3142 54.3429 50.2776C53.8222 51.0549 53.3187 51.8443 52.7789 52.6082C51.6435 54.2146 49.8196 54.3982 48.4088 53.0397C47.7805 52.4347 47.2002 51.78 46.4012 50.9411C46.3729 51.521 46.3459 51.8193 46.3456 52.1178C46.3428 56.0656 46.345 60.0134 46.343 63.9615C46.3423 65.3532 45.881 66.0305 44.969 65.9945C44.0977 65.9603 43.7071 65.3348 43.7067 63.9584C43.7054 60.0398 43.7063 56.1211 43.7063 52.2025C43.7063 51.8879 43.7063 51.5734 43.7063 50.9755C42.9628 51.7146 42.4015 52.2764 41.8358 52.8339C40.1602 54.4857 38.3866 54.3079 37.0676 52.3496C36.0058 50.7735 34.9542 49.1905 33.8961 47.6118C33.8647 47.5648 33.8135 47.5313 33.7045 47.4282C31.4145 48.2559 29.0842 49.0929 26.7579 49.9407C22.926 51.337 22.3572 52.157 22.3572 56.2503C22.3572 58.8238 22.3581 61.3972 22.3561 63.9707C22.3559 64.2629 22.3649 64.5583 22.3258 64.8463C22.2291 65.5596 21.7671 65.9539 21.0837 65.9792C20.4364 66.0028 19.965 65.6484 19.8127 64.9911C19.7413 64.6822 19.7246 64.3554 19.724 64.0367C19.7174 61.2878 19.7391 58.5388 19.7132 55.7901C19.6974 54.1045 19.8292 52.4632 20.735 50.993C19.4981 50.0282 19.4981 50.0282 18.4307 51.047C16.0766 53.2934 13.5809 53.7771 11.2069 52.34C10.4174 51.862 9.78685 51.1284 9.03836 50.5721C8.82328 50.4122 8.39137 50.3341 8.16003 50.4397C6.91064 51.0095 5.69552 51.6539 4.46371 52.263C3.20268 52.8868 2.62488 53.8992 2.63191 55.2973C2.64707 58.3386 2.64488 61.3799 2.63147 64.4212C2.62664 65.4892 1.92077 66.2055 1.0877 65.9408C0.681266 65.8116 0.359856 65.4161 0.000219692 65.1411C0 61.4558 0 57.7707 0 54.0855ZM59.2139 2.77509C59.0353 2.71981 58.9808 2.68823 58.9263 2.68823C52.6882 2.68955 46.4482 2.60839 40.212 2.72705C36.2121 2.80316 32.6445 5.50253 31.4446 9.32621C30.332 12.8716 30.555 16.4667 31.6889 20.0136C31.9677 20.8852 32.1814 21.8161 32.2005 22.7244C32.2486 25.0085 32.271 27.274 33.0529 29.4705C34.8977 34.6538 39.9858 38.231 45.3104 38.0384C51.1138 37.8285 56.0009 34.0645 57.3078 28.4953C57.7811 26.4792 57.6398 24.3218 57.8129 22.2317C57.8626 21.6316 57.939 21.0037 58.1629 20.4533C58.8677 18.7204 59.204 16.9286 59.2113 15.0689C59.2198 12.8757 59.2135 10.6826 59.2135 8.48945C59.2139 6.59351 59.2139 4.69735 59.2139 2.77509ZM83.1164 23.8188C82.8607 23.7995 82.6909 23.7756 82.5211 23.7756C79.037 23.7734 75.5529 23.7658 72.069 23.7824C71.5173 23.7851 70.9523 23.843 70.4173 23.9735C66.7843 24.8585 64.9753 28.9493 66.7206 31.952C67.3162 32.977 67.4735 34.0528 67.4829 35.2215C67.4919 36.3477 67.587 37.5087 67.8808 38.5902C68.6389 41.3811 71.1476 43.3268 74.1811 43.6446C76.6898 43.9076 79.477 42.3547 80.8055 39.9854C81.5458 38.665 81.7697 37.2396 81.7201 35.7617C81.6735 34.3742 81.7717 33.0588 82.487 31.7893C82.8721 31.1056 83.0525 30.2375 83.0894 29.4415C83.1746 27.6055 83.1164 25.763 83.1164 23.8188ZM5.37433 34.8407C5.95278 35.3857 6.47126 35.7215 6.76037 36.1962C6.98292 36.5618 6.91789 37.1023 6.97963 37.5653C7.42868 40.9358 10.108 43.3386 13.7626 43.6477C16.701 43.8962 19.7899 41.7417 20.7684 38.817C21.0525 37.968 20.9692 37.2679 20.4408 36.5359C18.3707 33.6677 15.4189 32.5719 12.0473 32.3164C11.8137 32.2986 11.5176 32.5081 11.3229 32.6894C10.7673 33.2073 10.3139 33.8633 9.69283 34.2717C9.30485 34.527 8.61436 34.6093 8.19409 34.4387C7.86608 34.3055 7.58246 33.6694 7.56642 33.2463C7.53347 32.3653 10.4295 29.6098 11.2986 29.624C13.9428 29.6672 16.4998 30.1794 18.7496 31.5976C20.153 32.4822 21.3846 33.6387 22.6395 34.6308C22.6744 31.7533 22.1931 28.8737 20.0478 26.4625C16.8921 22.9156 10.9139 23.0042 7.83884 26.6037C5.70607 29.1005 5.33391 32.033 5.37433 34.8407ZM37.8684 38.8975C37.8684 39.6025 37.8047 40.1589 37.8908 40.6915C37.9477 41.0426 38.1351 41.4785 38.409 41.6724C40.437 43.1086 42.4931 44.5057 44.5666 45.8761C44.7784 46.0161 45.2421 46.0205 45.4521 45.8814C47.5498 44.495 49.6234 43.0719 51.6886 41.637C51.8997 41.4903 52.1205 41.21 52.1446 40.972C52.2083 40.3458 52.1662 39.7086 52.1662 38.9429C47.3912 41.2019 42.7091 41.2591 37.8684 38.8975ZM50.5176 51.2457C51.5636 49.6847 52.6299 48.0945 53.695 46.5034C54.6715 45.0446 54.6711 45.0442 53.3729 43.8754C53.3536 43.858 53.3207 43.8558 53.2003 43.8135C51.2098 45.1708 49.1709 46.5611 47.2141 47.8956C48.3205 49.0175 49.3939 50.106 50.5176 51.2457ZM39.4578 51.1738C40.602 50.058 41.695 48.9922 42.8183 47.8971C40.8235 46.5379 38.7895 45.1519 36.7321 43.7501C36.251 44.2706 35.8437 44.711 35.4315 45.1567C36.8226 47.2354 38.165 49.2412 39.4578 51.1738ZM11.1676 46.1236C11.0775 46.7945 10.7219 47.6508 10.94 48.3209C11.1613 49.0008 11.8726 49.6055 12.5058 50.0492C13.5065 50.7505 14.5652 50.5682 15.6507 50.0159C17.5319 49.0585 16.9886 47.4856 16.8322 46.1236C14.9441 46.1236 13.0695 46.1236 11.1676 46.1236ZM77.4644 46.1067C75.4935 46.1067 73.6321 46.1067 71.6579 46.1067C71.6867 46.4219 71.5549 47.0377 71.804 47.3306C72.6463 48.3202 73.6237 49.1951 74.6473 50.2111C75.4186 49.4013 76.094 48.5928 76.8747 47.9035C77.5105 47.3424 77.6696 46.7456 77.4644 46.1067ZM4.92287 40.7961C4.77611 41.3767 4.54521 42.1621 4.39341 42.9623C4.34398 43.2226 4.40857 43.6122 4.57993 43.7889C5.63313 44.8764 6.91899 45.5976 8.57503 46.1271C8.42476 45.4373 8.47024 44.7698 8.16135 44.3882C7.1288 43.1125 5.96948 41.9388 4.92287 40.7961ZM19.6209 46.0793C21.0887 45.573 22.3524 44.8874 23.3902 43.8328C23.5521 43.6683 23.7259 43.3704 23.6855 43.1774C23.5031 42.3043 23.2459 41.4467 23.0541 40.7279C22.1911 41.7623 21.3897 42.95 20.3571 43.8826C19.6466 44.5246 19.3931 45.1122 19.6209 46.0793Z" fill="#EFF4F9"/>
<path d="M84.363 60.5817C84.3634 61.8359 84.3726 63.0901 84.3605 64.344C84.3507 65.367 83.8502 65.9864 83.0567 65.9991C82.2566 66.0121 81.7337 65.3946 81.7302 64.3811C81.7212 61.7563 81.7201 59.1313 81.7313 56.5063C81.7354 55.5405 82.2335 54.9667 83.02 54.9567C83.8107 54.9463 84.3423 55.5188 84.3572 56.4694C84.3786 57.8398 84.3625 59.2109 84.363 60.5817Z" fill="#EFF4F9"/>
<path d="M8.26614 61.3909C8.26658 62.4125 8.27867 63.4344 8.26307 64.4559C8.24857 65.4021 7.72021 66.005 6.94777 65.9998C6.20982 65.9947 5.64939 65.41 5.63994 64.5276C5.61687 62.397 5.61556 60.2657 5.63994 58.1348C5.65005 57.2465 6.20148 56.6958 6.96381 56.6999C7.73009 56.7041 8.24352 57.2544 8.26109 58.1506C8.28174 59.2304 8.26571 60.3109 8.26614 61.3909Z" fill="#EFF4F9"/>
<path d="M59.2172 61.8107C59.2161 60.9333 59.1976 60.0556 59.2216 59.1789C59.2447 58.3325 59.7462 57.7933 60.4747 57.7701C61.2087 57.7466 61.8067 58.2546 61.8265 59.0903C61.8706 60.9605 61.8684 62.8335 61.8214 64.7037C61.8023 65.4659 61.1854 65.9963 60.5202 65.9978C59.8064 65.9996 59.2512 65.4389 59.2253 64.618C59.1957 63.6829 59.2183 62.7464 59.2172 61.8107Z" fill="#EFF4F9"/>
<path d="M30.8057 61.8462C30.807 62.7525 30.8288 63.6597 30.8006 64.5651C30.7743 65.4135 30.2703 65.9632 29.5592 65.9945C28.866 66.025 28.2289 65.4815 28.2081 64.6671C28.1602 62.7975 28.1567 60.9248 28.2103 59.0556C28.234 58.2259 28.8625 57.7038 29.5868 57.7762C30.3819 57.8556 30.7809 58.3498 30.7993 59.1273C30.8209 60.0332 30.8044 60.9399 30.8057 61.8462Z" fill="#EFF4F9"/>
<path d="M36.4604 15.1456C36.4604 16.1566 36.4771 17.0593 36.456 17.9613C36.432 18.9779 35.9865 19.51 35.1888 19.5339C34.3522 19.5589 33.8542 19.0103 33.8333 17.9575C33.8135 16.9657 33.7997 15.9688 33.875 14.9814C33.9719 13.7134 34.8817 12.7185 36.1319 12.5364C40.5567 11.892 44.9857 11.717 49.3906 12.6842C51.734 13.199 53.9028 14.1108 55.6694 15.799C56.2781 16.3809 56.341 17.1159 55.8728 17.6779C55.4306 18.2087 54.6417 18.3447 54.0698 17.8307C51.5444 15.5617 48.4391 15.0026 45.2239 14.7443C42.3242 14.5115 39.4453 14.7293 36.4604 15.1456Z" fill="#EFF4F9"/>
<path d="M71.8436 28.2564C74.238 28.397 76.6155 28.6282 78.8726 29.5257C79.0082 29.5797 79.1466 29.6286 79.2755 29.6955C79.9862 30.0631 80.2602 30.6825 80.0139 31.3519C79.7598 32.0426 79.1444 32.4157 78.3911 32.1205C75.8413 31.1212 73.1674 30.9709 70.485 30.8108C69.5331 30.754 69.0524 30.2592 69.0656 29.486C69.0794 28.6857 69.6447 28.2075 70.6183 28.1994C71.0268 28.1961 71.4354 28.236 71.8436 28.2564Z" fill="#EFF4F9"/>
</svg>
