<svg width="60" height="60" viewBox="0 0 60 60" fill="none" xmlns="http://www.w3.org/2000/svg">
<path d="M51.3738 26.9188C51.2713 26.9187 51.1698 26.8991 51.0746 26.8612L44.9611 24.4288C44.8134 24.3702 44.6862 24.2695 44.5952 24.1391C44.5043 24.0088 44.4536 23.8547 44.4496 23.6958C44.4455 23.537 44.4882 23.3804 44.5724 23.2456C44.6566 23.1108 44.7785 23.0038 44.923 22.9377C45.524 22.6611 45.9962 22.1646 46.2422 21.5504C46.367 21.2359 46.4287 20.8999 46.4236 20.5616C46.4185 20.2233 46.3468 19.8894 46.2125 19.5788C46.0782 19.2683 45.8841 18.9872 45.6411 18.7518C45.3981 18.5163 45.1111 18.3311 44.7965 18.2066C44.1619 17.9542 43.453 17.9638 42.8255 18.2335C42.198 18.5032 41.7031 19.0108 41.4495 19.645C41.3254 19.9473 41.2621 20.2711 41.2632 20.5979C41.2644 20.9247 41.3298 21.2481 41.456 21.5496C41.5189 21.6968 41.5367 21.8594 41.5073 22.0168C41.478 22.1742 41.4026 22.3194 41.2908 22.434C41.1791 22.5487 41.0358 22.6276 40.8792 22.661C40.7226 22.6944 40.5596 22.6806 40.4108 22.6215L34.2738 20.1825C34.1747 20.1432 34.0844 20.0848 34.0079 20.0105C33.9315 19.9362 33.8704 19.8476 33.8282 19.7497C33.786 19.6518 33.7636 19.5465 33.7621 19.4399C33.7607 19.3333 33.7803 19.2275 33.8198 19.1285L35.7106 14.3731C35.1828 14.3701 34.6602 14.2681 34.17 14.0723C33.5981 13.8426 33.0838 13.4899 32.6636 13.0391C32.2434 12.5883 31.9277 12.0504 31.7387 11.4638C31.5498 10.8772 31.4924 10.2562 31.5705 9.64492C31.6486 9.03361 31.8604 8.447 32.1908 7.92676C32.5211 7.40653 32.962 6.96542 33.4821 6.63477C34.0022 6.30412 34.5886 6.09204 35.1999 6.0136C35.8112 5.93516 36.4322 5.99228 37.0189 6.1809C37.6056 6.36952 38.1436 6.68502 38.5946 7.10498L40.4903 2.34309C40.5297 2.24408 40.5882 2.1538 40.6625 2.07743C40.7368 2.00105 40.8255 1.94007 40.9234 1.89797C41.0213 1.85588 41.1265 1.8335 41.2331 1.8321C41.3396 1.83071 41.4454 1.85033 41.5444 1.88985L56.8622 7.97823C57.4544 8.21448 57.9288 8.6759 58.1814 9.26135C58.434 9.8468 58.4442 10.5085 58.2098 11.1015L52.1287 26.4023C52.0694 26.5543 51.9657 26.685 51.831 26.7771C51.6964 26.8693 51.537 26.9186 51.3738 26.9188ZM46.9144 23.4631L50.919 25.0539L56.7008 10.5063C56.7746 10.313 56.7701 10.0985 56.6882 9.90847C56.6062 9.71844 56.4534 9.56786 56.2622 9.48877L41.6984 3.69633L39.5676 9.06796C39.5089 9.21616 39.4078 9.34375 39.2769 9.4348C39.146 9.52584 38.9912 9.57629 38.8319 9.57984C38.6725 9.58339 38.5156 9.53988 38.3808 9.45474C38.2461 9.36961 38.1394 9.24664 38.0741 9.1012C37.8644 8.6419 37.5244 8.25433 37.0964 7.98666C36.6683 7.71899 36.1709 7.58303 35.6662 7.59567C35.1615 7.60832 34.6716 7.769 34.2574 8.05776C33.8433 8.34652 33.5231 8.75063 33.3367 9.21985C33.1503 9.68907 33.1059 10.2027 33.2091 10.697C33.3122 11.1912 33.5583 11.6442 33.9168 11.9998C34.2752 12.3553 34.7303 12.5977 35.2254 12.6967C35.7205 12.7958 36.2337 12.7471 36.7014 12.5569C36.8486 12.4963 37.0104 12.4803 37.1666 12.5111C37.3229 12.5418 37.4666 12.6179 37.5798 12.7298C37.6931 12.8417 37.7709 12.9844 37.8036 13.1403C37.8363 13.2961 37.8223 13.4581 37.7635 13.6061L35.6262 18.9728L39.6414 20.5693C39.6441 19.8843 39.8142 19.2104 40.1367 18.6062C40.4593 18.0019 40.9245 17.4856 41.4921 17.1021C42.0597 16.7186 42.7123 16.4796 43.3933 16.4058C44.0742 16.332 44.7629 16.4257 45.3994 16.6787C46.036 16.9318 46.601 17.3364 47.0455 17.8576C47.49 18.3788 47.8004 19.0006 47.9498 19.6691C48.0992 20.3375 48.0831 21.0324 47.9028 21.6932C47.7224 22.354 47.3834 22.9607 46.9152 23.4607L46.9144 23.4631Z" fill="#1F2B45"/>
<path d="M48.5676 35.0845C48.4611 35.085 48.3556 35.0645 48.257 35.0242C48.1585 34.9839 48.0688 34.9245 47.9932 34.8496C47.9176 34.7746 47.8574 34.6855 47.8162 34.5873C47.775 34.4892 47.7536 34.3838 47.7531 34.2773C47.7526 34.1709 47.7731 34.0653 47.8134 33.9668C47.8537 33.8682 47.9131 33.7786 47.988 33.7029C48.063 33.6273 48.1521 33.5672 48.2503 33.526C48.3485 33.4848 48.4538 33.4634 48.5603 33.4629H48.5676C48.7826 33.4629 48.9889 33.5483 49.1409 33.7004C49.293 33.8524 49.3784 34.0587 49.3784 34.2737C49.3784 34.4887 49.293 34.695 49.1409 34.847C48.9889 34.9991 48.7826 35.0845 48.5676 35.0845Z" fill="#1F2B45"/>
<path d="M40.1586 35.0845C39.9436 35.0856 39.7369 35.0012 39.5841 34.8499C39.4313 34.6986 39.3448 34.4928 39.3438 34.2778C39.3427 34.0627 39.4271 33.8561 39.5784 33.7032C39.7297 33.5504 39.9355 33.464 40.1505 33.4629H40.1586C40.3737 33.4629 40.5799 33.5483 40.732 33.7004C40.884 33.8524 40.9694 34.0587 40.9694 34.2737C40.9694 34.4887 40.884 34.695 40.732 34.847C40.5799 34.9991 40.3737 35.0845 40.1586 35.0845Z" fill="#1F2B45"/>
<path d="M40.1505 35.0883C39.9363 35.0884 39.7308 35.0036 39.5789 34.8526C39.427 34.7016 39.341 34.4966 39.3397 34.2824C39.3388 34.136 39.3775 33.9921 39.4517 33.8659C39.526 33.7397 39.633 33.636 39.7615 33.5657C39.8899 33.4955 40.035 33.4613 40.1813 33.4669C40.3276 33.4724 40.4697 33.5175 40.5924 33.5973C40.7152 33.6771 40.814 33.7886 40.8785 33.9201C40.943 34.0515 40.9706 34.198 40.9586 34.3439C40.9465 34.4898 40.8952 34.6297 40.81 34.7488C40.7249 34.8679 40.609 34.9617 40.4749 35.0202C40.3727 35.0655 40.2622 35.0887 40.1505 35.0883Z" fill="#1F2B45"/>
<path d="M46.5154 58.1678H4.48131C3.72406 58.168 2.99766 57.8678 2.46152 57.333C1.92538 56.7982 1.6233 56.0726 1.62158 55.3154V13.274C1.62459 12.5179 1.92733 11.7939 2.46343 11.2606C2.99952 10.7274 3.7252 10.4286 4.48131 10.4297H25.4902C25.7053 10.4297 25.9115 10.5151 26.0636 10.6672C26.2156 10.8192 26.301 11.0255 26.301 11.2405V19.647C26.3017 19.8069 26.255 19.9635 26.1668 20.0969C26.0787 20.2304 25.953 20.3348 25.8057 20.397C25.6584 20.4593 25.4959 20.4765 25.3388 20.4467C25.1817 20.4168 25.0369 20.3411 24.9227 20.2291C24.2705 19.5984 23.3975 19.2477 22.4902 19.2521C21.5595 19.2521 20.667 19.6218 20.0089 20.2799C19.3508 20.938 18.981 21.8306 18.981 22.7613C18.981 23.692 19.3508 24.5846 20.0089 25.2427C20.667 25.9008 21.5595 26.2705 22.4902 26.2705C23.3969 26.276 24.2699 25.9268 24.9227 25.2975C25.0369 25.1856 25.1817 25.1099 25.3388 25.08C25.4959 25.0501 25.6584 25.0674 25.8057 25.1296C25.953 25.1919 26.0787 25.2963 26.1668 25.4297C26.255 25.5632 26.3017 25.7197 26.301 25.8797V33.4673H32.374C32.0066 32.684 31.8429 31.8206 31.898 30.9571C31.9531 30.0937 32.2253 29.2581 32.6893 28.5279C33.1534 27.7977 33.7942 27.1964 34.5526 26.7798C35.3109 26.3632 36.1621 26.1448 37.0273 26.1448C37.8925 26.1448 38.7437 26.3632 39.502 26.7798C40.2603 27.1964 40.9011 27.7977 41.3652 28.5279C41.8292 29.2581 42.1014 30.0937 42.1565 30.9571C42.2117 31.8206 42.0479 32.684 41.6805 33.4673H48.5489C48.7639 33.4673 48.9702 33.5527 49.1222 33.7047C49.2743 33.8568 49.3597 34.063 49.3597 34.2781V55.3154C49.3601 56.0706 49.0609 56.7952 48.5276 57.33C47.9943 57.8647 47.2706 58.1661 46.5154 58.1678ZM4.48131 12.0513C4.15515 12.0498 3.84168 12.1776 3.60961 12.4068C3.37753 12.636 3.24578 12.9479 3.2432 13.274V55.3154C3.24471 55.6426 3.37586 55.9559 3.60794 56.1866C3.84001 56.4173 4.15408 56.5466 4.48131 56.5462H46.5154C46.8406 56.5447 47.1519 56.4143 47.3812 56.1835C47.6104 55.9528 47.7387 55.6406 47.7381 55.3154V35.0848H40.1586C39.9999 35.0847 39.8446 35.038 39.7122 34.9504C39.5798 34.8629 39.476 34.7384 39.4136 34.5924C39.3513 34.4464 39.3332 34.2853 39.3615 34.1291C39.3899 33.9729 39.4635 33.8285 39.5732 33.7137C39.9677 33.2982 40.2544 32.7923 40.4083 32.2403C40.5622 31.6884 40.5786 31.1071 40.4561 30.5474C40.3335 29.9876 40.0758 29.4664 39.7054 29.0292C39.3349 28.5921 38.8631 28.2523 38.331 28.0395C37.799 27.8267 37.223 27.7475 36.6532 27.8087C36.0835 27.8699 35.5374 28.0697 35.0627 28.3906C34.588 28.7115 34.1991 29.1438 33.93 29.6497C33.6609 30.1556 33.5197 30.7197 33.5189 31.2927C33.5109 32.1936 33.8608 33.0609 34.4919 33.704C34.6035 33.8179 34.679 33.9621 34.7091 34.1187C34.7392 34.2753 34.7224 34.4373 34.6608 34.5844C34.5993 34.7315 34.4958 34.8572 34.3632 34.9458C34.2306 35.0344 34.0748 35.0819 33.9154 35.0824H25.4902C25.2752 35.0824 25.069 34.997 24.9169 34.8449C24.7648 34.6929 24.6794 34.4866 24.6794 34.2716V27.4056C23.8975 27.7714 23.036 27.9339 22.1745 27.8782C21.3131 27.8225 20.4797 27.5503 19.7514 27.087C19.0231 26.6236 18.4235 25.9839 18.008 25.2272C17.5926 24.4706 17.3748 23.6213 17.3748 22.7581C17.3748 21.8948 17.5926 21.0456 18.008 20.2889C18.4235 19.5322 19.0231 18.8926 19.7514 18.4292C20.4797 17.9658 21.3131 17.6937 22.1745 17.638C23.036 17.5822 23.8975 17.7448 24.6794 18.1105V12.0513H4.48131Z" fill="#1F2B45"/>
<path d="M25.4984 43.5039C25.2833 43.5039 25.0771 43.4185 24.9251 43.2664C24.773 43.1144 24.6876 42.9082 24.6876 42.6931V34.2826C24.687 34.1761 24.7074 34.0705 24.7476 33.9719C24.7878 33.8733 24.847 33.7836 24.9219 33.7079C25.0731 33.555 25.2789 33.4685 25.4939 33.4673C25.709 33.4661 25.9157 33.5504 26.0686 33.7016C26.2215 33.8528 26.308 34.0586 26.3092 34.2736V42.6891C26.3097 42.7959 26.2891 42.9017 26.2486 43.0006C26.2081 43.0994 26.1485 43.1893 26.0731 43.265C25.9978 43.3407 25.9082 43.4008 25.8096 43.4418C25.711 43.4828 25.6052 43.5039 25.4984 43.5039Z" fill="#1F2B45"/>
<path d="M25.5041 58.1348C25.289 58.1348 25.0828 58.0494 24.9307 57.8973C24.7787 57.7453 24.6932 57.539 24.6932 57.324V48.9046C24.6932 48.6895 24.7787 48.4833 24.9307 48.3312C25.0828 48.1792 25.289 48.0938 25.5041 48.0938C25.7191 48.0938 25.9253 48.1792 26.0774 48.3312C26.2294 48.4833 26.3149 48.6895 26.3149 48.9046V57.324C26.3149 57.539 26.2294 57.7453 26.0774 57.8973C25.9253 58.0494 25.7191 58.1348 25.5041 58.1348Z" fill="#1F2B45"/>
<path d="M25.4984 35.0845H17.1081C16.8931 35.0845 16.6868 34.9991 16.5348 34.847C16.3827 34.695 16.2973 34.4888 16.2973 34.2737C16.2973 34.0587 16.3827 33.8524 16.5348 33.7004C16.6868 33.5483 16.8931 33.4629 17.1081 33.4629H25.4984C25.7134 33.4629 25.9197 33.5483 26.0717 33.7004C26.2238 33.8524 26.3092 34.0587 26.3092 34.2737C26.3092 34.4888 26.2238 34.695 26.0717 34.847C25.9197 34.9991 25.7134 35.0845 25.4984 35.0845Z" fill="#1F2B45"/>
<path d="M10.8771 35.0894H2.45516C2.24012 35.0894 2.03389 35.004 1.88183 34.8519C1.72977 34.6999 1.64435 34.4936 1.64435 34.2786C1.64435 34.0635 1.72977 33.8573 1.88183 33.7053C2.03389 33.5532 2.24012 33.4678 2.45516 33.4678H10.8771C11.0921 33.4678 11.2983 33.5532 11.4504 33.7053C11.6024 33.8573 11.6879 34.0635 11.6879 34.2786C11.6879 34.4936 11.6024 34.6999 11.4504 34.8519C11.2983 35.004 11.0921 35.0894 10.8771 35.0894Z" fill="#1F2B45"/>
<path d="M13.9759 42.4127C12.9681 42.413 11.9826 42.1163 11.1425 41.5596C10.3024 41.0029 9.64501 40.211 9.25249 39.2828C8.85998 38.3545 8.74974 37.3312 8.93556 36.3407C9.12138 35.3502 9.59502 34.4364 10.2973 33.7136C10.4477 33.5619 10.6519 33.4757 10.8655 33.4738C11.0792 33.4718 11.2849 33.5543 11.4381 33.7032C11.5913 33.8521 11.6795 34.0554 11.6836 34.269C11.6877 34.4826 11.6073 34.6892 11.46 34.8438C10.98 35.3379 10.6563 35.9625 10.5293 36.6395C10.4023 37.3166 10.4775 38.016 10.7457 38.6505C11.0138 39.285 11.463 39.8264 12.0371 40.2071C12.6111 40.5878 13.2847 40.791 13.9735 40.7911C14.9048 40.7911 15.798 40.4216 16.4572 39.7637C17.1163 39.1058 17.4874 38.2132 17.4892 37.2819C17.4956 36.3735 17.143 35.4992 16.5081 34.8495C16.4285 34.7747 16.3648 34.6846 16.3209 34.5846C16.2769 34.4846 16.2537 34.3767 16.2525 34.2675C16.2513 34.1583 16.2722 34.0499 16.3139 33.949C16.3556 33.848 16.4173 33.7565 16.4952 33.68C16.5732 33.6035 16.6658 33.5435 16.7675 33.5036C16.8692 33.4638 16.9779 33.4449 17.0871 33.4481C17.1963 33.4513 17.3037 33.4766 17.4029 33.5223C17.5021 33.5681 17.591 33.6334 17.6643 33.7144C18.5985 34.6676 19.1184 35.9513 19.1108 37.286C19.1073 38.646 18.565 39.9493 17.6025 40.9102C16.6401 41.8712 15.336 42.4115 13.9759 42.4127Z" fill="#1F2B45"/>
<path d="M28.5081 50.9436C27.1756 50.944 25.8957 50.4244 24.9405 49.4955C24.8606 49.4224 24.7962 49.334 24.7511 49.2356C24.7059 49.1372 24.6809 49.0308 24.6775 48.9226C24.6741 48.8144 24.6925 48.7066 24.7314 48.6056C24.7704 48.5046 24.8292 48.4124 24.9044 48.3345C24.9795 48.2566 25.0695 48.1945 25.1691 48.1519C25.2686 48.1093 25.3757 48.0871 25.4839 48.0866C25.5922 48.086 25.6994 48.1072 25.7994 48.1488C25.8994 48.1904 25.99 48.2515 26.0659 48.3287C26.5601 48.8047 27.183 49.1252 27.8576 49.2505C28.5321 49.3758 29.2286 49.3005 29.8607 49.0338C30.4929 48.7671 31.0329 48.3209 31.4138 47.7502C31.7948 47.1796 32 46.5098 32.0039 45.8237C32.0079 45.1376 31.8104 44.4655 31.436 43.8905C31.0617 43.3155 30.5268 42.8631 29.8978 42.5891C29.2687 42.3152 28.5732 42.2319 27.8972 42.3495C27.2213 42.467 26.5947 42.7803 26.0951 43.2506C25.9842 43.369 25.8403 43.4515 25.682 43.4873C25.5238 43.5231 25.3584 43.5106 25.2073 43.4514C25.0563 43.3922 24.9264 43.289 24.8346 43.1552C24.7428 43.0214 24.6933 42.8631 24.6924 42.7009V42.6936C24.6925 42.5847 24.7145 42.477 24.7571 42.3768C24.7998 42.2767 24.8621 42.1861 24.9405 42.1106C25.5456 41.5277 26.2844 41.1022 27.0923 40.8714C27.9001 40.6406 28.7522 40.6115 29.5739 40.7868C30.3956 40.962 31.1617 41.3362 31.8051 41.8765C32.4485 42.4168 32.9495 43.1067 33.2641 43.8857C33.5787 44.6647 33.6974 45.509 33.6097 46.3446C33.522 47.1802 33.2307 47.9815 32.7612 48.6782C32.2917 49.3749 31.6584 49.9458 30.9169 50.3408C30.1753 50.7358 29.3482 50.9427 28.5081 50.9436Z" fill="#1F2B45"/>
</svg>
