<svg width="60" height="60" viewBox="0 0 60 60" fill="none" xmlns="http://www.w3.org/2000/svg">
<path fill-rule="evenodd" clip-rule="evenodd" d="M47.3714 3.78121L43.5902 7.56242V10.8709C43.5902 12.6905 43.5583 14.1794 43.5195 14.1794C43.4806 14.1794 43.0455 13.8438 42.5527 13.4336C39.2388 10.6756 34.8626 8.73931 30.2748 8.00116C28.2893 7.68171 24.2076 7.71581 22.2262 8.06842C12.4173 9.81389 4.52492 16.8805 1.88522 26.2812C1.18457 28.7764 1 30.236 1 33.2805C1 35.6343 1.03891 36.2525 1.26812 37.5355C2.17103 42.5919 4.35618 47.015 7.77329 50.7031L8.44394 51.4269L6.25411 54.8593C3.76885 58.7548 3.66889 59.0008 4.30954 59.6415C4.69766 60.0297 5.14976 60.1022 5.67873 59.8611C5.88638 59.7666 6.64082 58.6877 8.09614 56.4042C9.25967 54.5786 10.2368 53.0848 10.2676 53.0848C10.2983 53.0848 10.729 53.3928 11.2247 53.7693C12.8084 54.972 14.7906 56.1038 16.6778 56.8834C24.9991 60.3202 34.6985 59.1149 41.7376 53.7693C42.2333 53.3928 42.6641 53.0848 42.6948 53.0848C42.7256 53.0848 43.7027 54.5786 44.8662 56.4042C46.3215 58.6877 47.076 59.7666 47.2836 59.8611C47.8126 60.1022 48.2647 60.0297 48.6528 59.6415C49.2935 59.0008 49.1935 58.7548 46.7082 54.8593L44.5184 51.4269L45.1891 50.7031C48.6064 47.0146 50.7927 42.5891 51.6939 37.5355C52.0452 35.5654 52.0778 31.4873 51.7582 29.4829C51.0225 24.8694 49.1283 20.5903 46.3252 17.209C45.9167 16.7162 45.5823 16.2811 45.5823 16.2422C45.5823 16.2034 47.0712 16.1715 48.8908 16.1715H52.1993L55.9805 12.3903C59.6286 8.74212 59.7617 8.59329 59.7617 8.15994C59.7617 7.80534 59.6778 7.62687 59.3633 7.31234L58.9649 6.91391H55.9063H52.8478V3.85539V0.796858L52.4494 0.398429C52.1348 0.0839045 51.9564 0 51.6018 0C51.1684 0 51.0196 0.133122 47.3714 3.78121ZM50.8282 8.91579L51.211 9.25762H53.4637H55.7166L53.4337 11.5427L51.1508 13.8278H48.5424H45.9339V11.2216V8.61532L48.1311 6.41529L50.3283 4.21526L50.3869 6.39455L50.4455 8.57384L50.8282 8.91579ZM29.9337 10.3819C33.9298 10.9721 38.1773 12.864 41.1879 15.3947C41.5746 15.7198 41.9149 16.003 41.944 16.0242C41.9731 16.0453 41.1852 16.8757 40.1931 17.8694L38.389 19.6763L37.8549 19.2645C35.6242 17.5452 32.3777 15.9372 31.1372 15.9372C30.5228 15.9372 29.9967 16.4423 29.9967 17.0324C29.9967 17.6966 30.4297 18.0944 31.5526 18.462C32.825 18.8785 34.5119 19.7622 35.7216 20.646L36.7005 21.3611L34.8772 23.1843L33.054 25.0076L32.5208 24.6248C31.7933 24.1023 29.9849 23.27 29.0592 23.0317C27.9983 22.7585 25.9844 22.6684 24.8887 22.8452C20.7812 23.5078 17.5777 26.3482 16.3209 30.4422C16.0381 31.3632 16.0072 31.6436 16.0072 33.2805C16.0072 34.9203 16.0379 35.197 16.323 36.126C17.2784 39.2393 19.3896 41.6773 22.2039 42.9172C23.7137 43.5824 24.6428 43.767 26.4812 43.767C28.3196 43.767 29.2486 43.5824 30.7584 42.9172C35.6395 40.7668 38.2058 35.0096 36.5073 30.0201C36.1828 29.0668 35.5979 27.8877 35.114 27.2109L34.7541 26.7077L36.5686 24.8933L38.3831 23.0788L38.9801 23.8732C43.6744 30.118 43.0632 38.8219 37.5429 44.3422C33.1481 48.737 26.6211 50.1121 20.7977 47.87C17.2165 46.491 14.0824 43.5984 12.4179 40.1359C11.2758 37.7603 10.8666 35.9549 10.8637 33.2805C10.8614 31.2065 11.0949 29.8251 11.7648 27.951C13.3219 23.5943 16.9089 20.0447 21.3059 18.5093C22.5473 18.0758 22.9656 17.7035 22.9656 17.0324C22.9656 16.7353 22.8712 16.5278 22.6231 16.2797C22.1813 15.8379 21.6406 15.829 20.4825 16.2444C15.2906 18.1064 11.1031 22.3535 9.3758 27.5089C8.66706 29.6243 8.51214 30.6428 8.50675 33.2219C8.50265 35.2307 8.53992 35.7414 8.76784 36.7961C9.53693 40.3552 11.0661 43.2502 13.5257 45.8032C16.0802 48.4546 19.2359 50.1896 22.9656 50.993C24.0062 51.2173 24.5486 51.2582 26.4812 51.2582C28.4138 51.2582 28.9561 51.2173 29.9967 50.993C33.7265 50.1896 36.8822 48.4546 39.4367 45.8032C41.8963 43.2502 43.4254 40.3552 44.1945 36.7961C44.4224 35.7414 44.4597 35.2307 44.4556 33.2219C44.4502 30.6428 44.2953 29.6243 43.5866 27.5089C42.931 25.5525 41.679 23.2877 40.4635 21.8596L40.0683 21.3953L41.8571 19.6038C42.841 18.6184 43.6729 17.8152 43.706 17.8188C43.8301 17.8325 44.9668 19.3004 45.7351 20.4391C47.1203 22.4916 48.3582 25.2766 48.971 27.7187C49.4037 29.4434 49.5855 31.0333 49.6001 33.2219C49.6158 35.5687 49.4941 36.6361 48.9658 38.7827C47.9333 42.9787 45.9163 46.5453 42.8311 49.6304C39.7725 52.689 36.3758 54.6266 32.1646 55.7149C30.0952 56.2496 28.7645 56.4132 26.4812 56.4132C24.1978 56.4132 22.8672 56.2496 20.7977 55.7149C16.5865 54.6266 13.1898 52.689 10.1313 49.6304C7.06714 46.5664 5.05331 43.0203 4.0072 38.8465C3.50659 36.8492 3.34534 35.4932 3.34534 33.2805C3.34534 31.0679 3.50659 29.7119 4.0072 27.7146C5.05331 23.5408 7.06714 19.9947 10.1313 16.9307C14.1609 12.9009 18.6261 10.8415 24.8406 10.1463C25.597 10.0617 28.7543 10.2078 29.9337 10.3819ZM25.6699 15.5946C24.5906 16.6739 26.1733 18.28 27.289 17.2378C28.0667 16.5114 27.5495 15.234 26.4778 15.234C26.1345 15.234 25.9466 15.318 25.6699 15.5946ZM28.5319 25.3856C29.236 25.5637 30.6799 26.2118 31.0983 26.5377C31.3102 26.7028 31.2836 26.7505 30.5416 27.5371C29.8597 28.2599 29.7624 28.4194 29.7624 28.8126C29.7624 29.5773 30.4919 30.1358 31.244 29.947C31.4144 29.9042 31.8898 29.5467 32.3003 29.1525C33.1672 28.3201 33.1122 28.2995 33.7968 29.7134C34.4026 30.9646 34.6001 31.8562 34.6001 33.3391C34.6 35.6082 33.8475 37.4182 32.2332 39.0326C31.2072 40.0585 30.1386 40.7009 28.7678 41.1159C28.0082 41.3458 27.5713 41.4001 26.4812 41.4001C24.8939 41.4001 23.7637 41.114 22.4368 40.3766C21.3666 39.7817 19.98 38.3951 19.3852 37.3249C18.6477 35.9981 18.3617 34.8678 18.3617 33.2805C18.3617 32.1904 18.4159 31.7535 18.6458 30.9939C19.0608 29.6231 19.7032 28.5545 20.7291 27.5285C21.9999 26.2578 23.4212 25.5242 25.2466 25.197C25.9977 25.0624 27.6227 25.1556 28.5319 25.3856ZM25.8015 27.947C25.5402 28.1668 25.0207 29.2156 23.6831 32.2242C22.6851 34.4691 21.911 36.3631 21.911 36.56C21.911 36.7802 22.0367 37.0503 22.2506 37.2896C22.5275 37.5996 22.6775 37.6697 23.0642 37.6697C23.624 37.6697 24.0024 37.3682 24.3162 36.6725L24.5247 36.2102H26.4812H28.4377L28.6462 36.6725C28.96 37.3682 29.3384 37.6697 29.8982 37.6697C30.2849 37.6697 30.4349 37.5996 30.7118 37.2896C30.9256 37.0503 31.0514 36.7802 31.0514 36.56C31.0514 36.3631 30.2773 34.4691 29.2792 32.2242C27.4086 28.0167 27.1874 27.6557 26.4812 27.6557C26.2968 27.6557 25.9927 27.786 25.8015 27.947ZM26.9801 32.929L27.4018 33.8665H26.4812H25.5606L25.9822 32.929C26.214 32.4134 26.4386 31.9915 26.4812 31.9915C26.5237 31.9915 26.7484 32.4134 26.9801 32.929Z" fill="url(#paint0_linear)"/>
<defs>
<linearGradient id="paint0_linear" x1="49.6234" y1="-3.37397" x2="-0.681131" y2="45.6053" gradientUnits="userSpaceOnUse">
<stop stop-color="#4AB1FE"/>
<stop offset="1" stop-color="#07EBFE"/>
</linearGradient>
</defs>
</svg>
