<svg width="60" height="60" viewBox="0 0 60 60" fill="none" xmlns="http://www.w3.org/2000/svg">
<g clip-path="url(#clip)">
<path d="M33.929 11.2261C31.0583 8.35551 27.2417 6.77441 23.1818 6.77441C19.1221 6.77441 15.3053 8.35539 12.4345 11.2261C6.50872 17.1521 6.50872 26.7944 12.4345 32.7205C15.3053 35.5911 19.122 37.1722 23.1818 37.1722C27.2416 37.1722 31.0583 35.5912 33.929 32.7205C36.7996 29.8498 38.3806 26.033 38.3806 21.9733C38.3806 17.9136 36.7996 14.0969 33.929 11.2261ZM13.6586 12.4502C16.2022 9.90649 19.5844 8.50551 23.1817 8.50551C26.779 8.50551 30.1611 9.90649 32.7047 12.4502C34.7124 14.4577 36.0074 16.9878 36.4644 19.7335L31.7465 24.3471C31.2997 24.0949 30.7845 23.9504 30.2359 23.9504C29.168 23.9504 28.2254 24.4961 27.6716 25.3231L20.7373 23.1473C20.7376 23.1273 20.7388 23.1072 20.7388 23.0871C20.7388 21.3863 19.3552 20.0026 17.6543 20.0026C15.9536 20.0026 14.5698 21.3863 14.5698 23.0871C14.5698 23.643 14.7184 24.1647 14.9769 24.6158L11.3386 28.3872C8.5779 23.2826 9.35052 16.7582 13.6586 12.4502ZM31.5896 27.0348C31.5896 27.781 30.9823 28.3883 30.2361 28.3883C29.4898 28.3883 28.8825 27.781 28.8825 27.0348C28.8825 26.2885 29.4898 25.6812 30.2361 25.6812C30.9823 25.6812 31.5896 26.2884 31.5896 27.0348ZM19.008 23.0868C19.008 23.8331 18.4007 24.4403 17.6544 24.4403C16.9081 24.4403 16.3008 23.8331 16.3008 23.0868C16.3008 22.3406 16.9081 21.7333 17.6544 21.7333C18.4007 21.7334 19.008 22.3406 19.008 23.0868ZM32.7049 31.4966C30.1612 34.0402 26.7791 35.4412 23.1818 35.4412C19.5845 35.4412 16.2024 34.0404 13.6587 31.4966C13.1535 30.9914 12.6973 30.4554 12.2892 29.895L16.2226 25.8177C16.6508 26.0431 17.1379 26.1713 17.6544 26.1713C18.7224 26.1713 19.665 25.6256 20.2187 24.7986L27.1531 26.9744C27.1527 26.9944 27.1516 27.0145 27.1516 27.0346C27.1516 28.7354 28.5352 30.1191 30.2361 30.1191C31.9368 30.1191 33.3206 28.7354 33.3206 27.0346C33.3206 26.5106 33.1887 26.0169 32.9573 25.5842L36.6496 21.9735C36.6495 25.5709 35.2485 28.9529 32.7049 31.4966Z" fill="url(#paint0_linear)"/>
<path d="M44.8635 35.8788L43.6067 37.1355L40.4888 33.8028C44.1791 28.4085 45.0675 21.6602 43.1531 15.6139L45.6268 13.1948C46.0619 13.4298 46.5595 13.5634 47.0879 13.5634C48.7887 13.5634 50.1724 12.1797 50.1724 10.4789C50.1724 9.97526 50.0503 9.49983 49.8353 9.07936L55.1457 3.88642V6.57049H56.8767V0.964111H51.2705V2.69509H53.8882L48.6478 7.81948C48.1898 7.54983 47.6569 7.39432 47.088 7.39432C45.3873 7.39432 44.0035 8.77807 44.0035 10.4788C44.0035 11.023 44.1458 11.5344 44.3942 11.9788L42.4984 13.8327C41.4778 11.4023 39.9809 9.126 38.0049 7.14998C29.8313 -1.02351 16.5324 -1.02328 8.35888 7.14998C1.07789 14.431 0.283008 25.7791 5.97353 33.9482L4.51618 35.4589C4.08798 35.2334 3.60094 35.1052 3.08438 35.1052C1.38364 35.1051 0 36.4889 0 38.1896C0 39.8904 1.38364 41.2741 3.0845 41.2741C4.78536 41.2741 6.169 39.8904 6.169 38.1896C6.169 37.6336 6.0204 37.112 5.76177 36.6609L7.03501 35.341C7.44986 35.8414 7.89025 36.3274 8.35877 36.796C12.4456 40.8827 17.8137 42.926 23.1818 42.926C27.3026 42.926 31.423 41.7204 34.9641 39.3122L38.0894 42.6528L36.7898 43.9524L51.9262 59.036L60.0001 50.9624L44.8635 35.8788ZM47.088 9.12542C47.8343 9.12542 48.4415 9.73268 48.4415 10.4789C48.4415 11.2252 47.8343 11.8325 47.088 11.8325C46.3417 11.8325 45.7345 11.2252 45.7345 10.4789C45.7345 9.73268 46.3417 9.12542 47.088 9.12542ZM3.0845 39.543C2.33825 39.543 1.73098 38.9357 1.73098 38.1895C1.73098 37.4432 2.33825 36.836 3.0845 36.836C3.83087 36.836 4.43802 37.4432 4.43802 38.1895C4.4379 38.9359 3.83075 39.543 3.0845 39.543ZM9.58279 35.5721C2.0843 28.0736 2.0843 15.8727 9.58279 8.37401C13.332 4.6247 18.2568 2.75029 23.1817 2.75029C28.1067 2.75029 33.0316 4.62494 36.7808 8.37401C44.2793 15.8725 44.2793 28.0735 36.7808 35.5721C29.2825 43.0705 17.0811 43.0705 9.58279 35.5721ZM36.3631 38.2738C36.9297 37.815 37.478 37.3228 38.0049 36.796C38.514 36.287 38.9912 35.758 39.4367 35.2118L42.3822 38.36L39.3141 41.4281L36.3631 38.2738ZM51.9242 56.5902L39.2401 43.9502L44.8658 38.3245L57.55 50.9644L51.9242 56.5902Z" fill="url(#paint1_linear)"/>
</g>
<defs>
<linearGradient id="paint0_linear" x1="33.1373" y1="5.06506" x2="7.64288" y2="30.4048" gradientUnits="userSpaceOnUse">
<stop stop-color="#4AB1FE"/>
<stop offset="1" stop-color="#07EBFE"/>
</linearGradient>
<linearGradient id="paint1_linear" x1="49.6481" y1="-2.30144" x2="0.960298" y2="47.7099" gradientUnits="userSpaceOnUse">
<stop stop-color="#4AB1FE"/>
<stop offset="1" stop-color="#07EBFE"/>
</linearGradient>
<clipPath id="clip">
<rect width="60" height="60" fill="white"/>
</clipPath>
</defs>
</svg>
