<svg width="60" height="60" viewBox="0 0 60 60" fill="none" xmlns="http://www.w3.org/2000/svg">
<path d="M58.125 27.1875H56.0988C55.4931 21.5505 53.0767 16.2616 49.2117 12.1137L51.4816 9.84375H54.8438C55.0924 9.84375 55.3308 9.74498 55.5067 9.56916C55.6825 9.39335 55.7812 9.15489 55.7812 8.90625C55.7812 8.65761 55.6825 8.41915 55.5067 8.24334C55.3308 8.06752 55.0924 7.96875 54.8438 7.96875H53.3566L54.7629 6.5625H58.125C58.3736 6.5625 58.6121 6.46373 58.7879 6.28791C58.9637 6.1121 59.0625 5.87364 59.0625 5.625C59.0625 5.37636 58.9637 5.1379 58.7879 4.96209C58.6121 4.78627 58.3736 4.6875 58.125 4.6875H56.6379L56.9133 4.41328C57.0892 4.23737 57.188 3.99878 57.188 3.75C57.188 3.50122 57.0892 3.26263 56.9133 3.08672C56.7374 2.91081 56.4988 2.81198 56.25 2.81198C56.0012 2.81198 55.7626 2.91081 55.5867 3.08672L55.3125 3.36211V1.875C55.3125 1.62636 55.2137 1.3879 55.0379 1.21209C54.8621 1.03627 54.6236 0.9375 54.375 0.9375C54.1264 0.9375 53.8879 1.03627 53.7121 1.21209C53.5363 1.3879 53.4375 1.62636 53.4375 1.875V5.23711L52.0312 6.64336V5.15625C52.0312 4.90761 51.9325 4.66915 51.7567 4.49334C51.5808 4.31752 51.3424 4.21875 51.0938 4.21875C50.8451 4.21875 50.6067 4.31752 50.4308 4.49334C50.255 4.66915 50.1562 4.90761 50.1562 5.15625V8.51836L47.8863 10.7883C43.7384 6.92334 38.4495 4.5069 32.8125 3.90117V1.875C32.8125 1.62636 32.7137 1.3879 32.5379 1.21209C32.3621 1.03627 32.1236 0.9375 31.875 0.9375H28.125C27.8764 0.9375 27.6379 1.03627 27.4621 1.21209C27.2863 1.3879 27.1875 1.62636 27.1875 1.875V3.90117C21.2316 4.54316 15.6745 7.20285 11.4387 11.4387C7.20285 15.6745 4.54316 21.2316 3.90117 27.1875H1.875C1.62636 27.1875 1.3879 27.2863 1.21209 27.4621C1.03627 27.6379 0.9375 27.8764 0.9375 28.125V31.875C0.9375 32.1236 1.03627 32.3621 1.21209 32.5379C1.3879 32.7137 1.62636 32.8125 1.875 32.8125H3.90117C4.54316 38.7684 7.20285 44.3255 11.4387 48.5613C15.6745 52.7971 21.2316 55.4568 27.1875 56.0988V58.125C27.1875 58.3736 27.2863 58.6121 27.4621 58.7879C27.6379 58.9637 27.8764 59.0625 28.125 59.0625H31.875C32.1236 59.0625 32.3621 58.9637 32.5379 58.7879C32.7137 58.6121 32.8125 58.3736 32.8125 58.125V56.0988C38.7684 55.4568 44.3255 52.7971 48.5613 48.5613C52.7971 44.3255 55.4568 38.7684 56.0988 32.8125H58.125C58.3736 32.8125 58.6121 32.7137 58.7879 32.5379C58.9637 32.3621 59.0625 32.1236 59.0625 31.875V28.125C59.0625 27.8764 58.9637 27.6379 58.7879 27.4621C58.6121 27.2863 58.3736 27.1875 58.125 27.1875ZM29.0625 2.8125H30.9375V6.5625H29.0625V2.8125ZM2.8125 30.9375V29.0625H6.5625V30.9375H2.8125ZM30.9375 57.1875H29.0625V53.4375H30.9375V57.1875ZM47.2359 47.2359C43.3527 51.122 38.2697 53.5809 32.8125 54.2133V52.5C32.8125 52.2514 32.7137 52.0129 32.5379 51.8371C32.3621 51.6613 32.1236 51.5625 31.875 51.5625H28.125C27.8764 51.5625 27.6379 51.6613 27.4621 51.8371C27.2863 52.0129 27.1875 52.2514 27.1875 52.5V54.2133C21.7309 53.579 16.6484 51.1203 12.7641 47.2359C8.87966 43.3516 6.42103 38.2691 5.78672 32.8125H7.5C7.74864 32.8125 7.9871 32.7137 8.16291 32.5379C8.33873 32.3621 8.4375 32.1236 8.4375 31.875V28.125C8.4375 27.8764 8.33873 27.6379 8.16291 27.4621C7.9871 27.2863 7.74864 27.1875 7.5 27.1875H5.78672C6.42103 21.7309 8.87966 16.6484 12.7641 12.7641C16.6484 8.87966 21.7309 6.42103 27.1875 5.78672V7.5C27.1875 7.74864 27.2863 7.9871 27.4621 8.16291C27.6379 8.33873 27.8764 8.4375 28.125 8.4375H31.875C32.1236 8.4375 32.3621 8.33873 32.5379 8.16291C32.7137 7.9871 32.8125 7.74864 32.8125 7.5V5.78672C37.9507 6.38242 42.7658 8.59887 46.5598 12.1148L43.2363 15.4383C39.6189 12.1371 34.8973 10.3086 30 10.3125C19.1437 10.3125 10.3125 19.1437 10.3125 30C10.3125 40.8563 19.1437 49.6875 30 49.6875C40.8563 49.6875 49.6875 40.8563 49.6875 30C49.6914 25.1027 47.8629 20.3811 44.5617 16.7637L47.8852 13.4402C51.4011 17.2342 53.6176 22.0493 54.2133 27.1875H52.5C52.2514 27.1875 52.0129 27.2863 51.8371 27.4621C51.6613 27.6379 51.5625 27.8764 51.5625 28.125V31.875C51.5625 32.1236 51.6613 32.3621 51.8371 32.5379C52.0129 32.7137 52.2514 32.8125 52.5 32.8125H54.2133C53.5809 38.2697 51.122 43.3527 47.2359 47.2359ZM28.125 27.1875C27.8764 27.1875 27.6379 27.2863 27.4621 27.4621C27.2863 27.6379 27.1875 27.8764 27.1875 28.125V31.875C27.1875 32.1236 27.2863 32.3621 27.4621 32.5379C27.6379 32.7137 27.8764 32.8125 28.125 32.8125H31.875C32.1236 32.8125 32.3621 32.7137 32.5379 32.5379C32.7137 32.3621 32.8125 32.1236 32.8125 31.875C32.8125 31.6264 32.7137 31.3879 32.5379 31.2121C32.3621 31.0363 32.1236 30.9375 31.875 30.9375H30.3879L34.582 26.7434C35.401 27.8946 35.7574 29.3116 35.5808 30.7133C35.4042 32.1151 34.7074 33.3993 33.6284 34.3115C32.5495 35.2236 31.1673 35.6971 29.7557 35.6381C28.3441 35.5791 27.0062 34.9919 26.0071 33.9929C25.0081 32.9938 24.4209 31.6559 24.3619 30.2443C24.3029 28.8327 24.7764 27.4505 25.6885 26.3716C26.6007 25.2926 27.8849 24.5958 29.2867 24.4192C30.6884 24.2426 32.1054 24.599 33.2566 25.418L29.0625 29.6121V28.125C29.0625 27.8764 28.9637 27.6379 28.7879 27.4621C28.6121 27.2863 28.3736 27.1875 28.125 27.1875ZM34.5949 24.0785C33.0856 22.9066 31.1863 22.354 29.2839 22.5332C27.3814 22.7124 25.6187 23.6098 24.3547 25.0429C23.0907 26.476 22.4204 28.3369 22.4802 30.2469C22.54 32.1568 23.3254 33.9722 24.6766 35.3234C26.0278 36.6746 27.8432 37.46 29.7531 37.5198C31.6631 37.5797 33.524 36.9093 34.9571 35.6453C36.3902 34.3813 37.2877 32.6186 37.4668 30.7161C37.646 28.8137 37.0934 26.9144 35.9215 25.4051L43.234 18.0914C46.1838 21.356 47.8156 25.6001 47.8125 30C47.8125 39.8215 39.8215 47.8125 30 47.8125C20.1785 47.8125 12.1875 39.8215 12.1875 30C12.1875 20.1785 20.1785 12.1875 30 12.1875C34.3999 12.1844 38.644 13.8162 41.9086 16.766L34.5949 24.0785ZM57.1875 30.9375H53.4375V29.0625H57.1875V30.9375Z" fill="url(#paint0_linear)"/>
<defs>
<linearGradient id="paint0_linear" x1="49.034" y1="-2.33103" x2="0.284989" y2="46.134" gradientUnits="userSpaceOnUse">
<stop stop-color="#4AB1FE"/>
<stop offset="1" stop-color="#07EBFE"/>
</linearGradient>
</defs>
</svg>
