<svg width="90" height="90" viewBox="0 0 90 90" fill="none" xmlns="http://www.w3.org/2000/svg">
<path fill-rule="evenodd" clip-rule="evenodd" d="M24.7716 0.513809L24.2578 1.02762V4.73256V8.4375H21.0802H17.9026L17.3888 8.95131L16.875 9.46512V23.3654V37.2656H8.95131H1.02762L0.513809 37.7794L0 38.2932V63.6328V88.9724L0.513809 89.4862L1.02762 90H45H88.9724L89.4862 89.4862L90 88.9724V63.6328V38.2932L89.4862 37.7794L88.9724 37.2656H81.0487H73.125V23.3654V9.46512L72.6112 8.95131L72.0974 8.4375H68.9198H65.7422V4.73256V1.02762L65.2284 0.513809L64.7146 0H45H25.2854L24.7716 0.513809ZM62.2266 5.97656V8.4375H57.2354H52.2443L51.6983 8.94744C50.9389 9.65672 50.9256 10.6987 51.6662 11.4393L52.18 11.9531H60.8947H69.6094V49.2188V86.4844H66.4453H63.2812V74.3419V62.1995L62.7674 61.6857L62.2536 61.1719H45H27.7464L27.2326 61.6857L26.7188 62.1995V74.3419V86.4844H23.5547H20.3906V49.2188V11.9531H29.1053H37.82L38.3338 11.4393C39.1962 10.5768 38.9584 9.20144 37.8485 8.63385C37.5931 8.50324 35.8414 8.4375 32.619 8.4375H27.7734V5.97656V3.51562H45H62.2266V5.97656ZM44.209 8.64158C42.5653 9.54545 43.1402 11.9531 45 11.9531C46.8777 11.9531 47.4398 9.49359 45.7587 8.63385C45.277 8.38758 44.6653 8.39057 44.209 8.64158ZM39.921 17.3849L39.375 17.8949V20.0217V22.1484H37.2843C35.2195 22.1484 35.1867 22.1548 34.6475 22.6584L34.1016 23.1683V27.7696V32.3708L34.6154 32.8846C35.1265 33.3958 35.1401 33.3984 37.2521 33.3984H39.375V35.5213C39.375 37.6334 39.3776 37.6469 39.8888 38.1581L40.4026 38.6719H45H49.5974L50.1112 38.1581C50.6224 37.6469 50.625 37.6334 50.625 35.5213V33.3984H52.7479C54.8599 33.3984 54.8735 33.3958 55.3846 32.8846L55.8984 32.3708L55.8946 27.8309C55.8895 22.0365 55.955 22.1484 52.5702 22.1484H50.625L50.6211 20.083C50.615 16.8314 50.6934 16.875 44.8543 16.875H40.467L39.921 17.3849ZM47.1094 22.5135C47.1094 24.6255 47.112 24.6391 47.6232 25.1503C48.1344 25.6614 48.1479 25.6641 50.2599 25.6641H52.3828V27.7734V29.8828H50.2921C48.2273 29.8828 48.1945 29.8891 47.6553 30.3928L47.1094 30.9027V33.0295V35.1562H45H42.8906L42.8868 33.0908C42.8811 30.1257 42.6294 29.8828 39.5624 29.8828H37.6172V27.7734V25.6641H39.7401C41.8521 25.6641 41.8656 25.6614 42.3768 25.1503C42.888 24.6391 42.8906 24.6255 42.8906 22.5135V20.3906H45H47.1094V22.5135ZM16.875 63.6328V86.4844H10.1953H3.51562V63.6328V40.7812H10.1953H16.875V63.6328ZM86.4844 63.6328V86.4844H79.8047H73.125V63.6328V40.7812H79.8047H86.4844V63.6328ZM27.2647 44.1037C26.5054 44.813 26.492 45.855 27.2326 46.5956L27.7464 47.1094H31.0036C34.5125 47.1094 34.9211 47.0276 35.3909 46.2322C35.8487 45.4574 35.7602 44.8657 35.0859 44.1914L34.4883 43.5938H31.1495H27.8107L27.2647 44.1037ZM41.1193 44.1076C40.7164 44.5106 40.6055 44.7789 40.6055 45.3516C40.6055 45.9243 40.7164 46.1925 41.1193 46.5956L41.6331 47.1094H45H48.3669L48.8807 46.5956C49.2836 46.1925 49.3945 45.9243 49.3945 45.3516C49.3945 44.7789 49.2836 44.5106 48.8807 44.1076L48.3669 43.5938H45H41.6331L41.1193 44.1076ZM54.9141 44.1914C54.2398 44.8657 54.1513 45.4574 54.6091 46.2322C55.0789 47.0276 55.4875 47.1094 58.9964 47.1094H62.2536L62.7674 46.5956C63.6298 45.733 63.392 44.3577 62.2821 43.7901C62.0409 43.6667 60.7104 43.5938 58.705 43.5938H55.5117L54.9141 44.1914ZM27.2326 53.2482C26.8297 53.6512 26.7188 53.9195 26.7188 54.4922C26.7188 55.0649 26.8297 55.3331 27.2326 55.7362L27.7464 56.25H31.1173H34.4883L35.0859 55.6523C35.5166 55.2217 35.6836 54.8975 35.6836 54.4922C35.6836 54.0868 35.5166 53.7627 35.0859 53.332L34.4883 52.7344H31.1173H27.7464L27.2326 53.2482ZM41.1193 53.2482C40.7164 53.6512 40.6055 53.9195 40.6055 54.4922C40.6055 55.0649 40.7164 55.3331 41.1193 55.7362L41.6331 56.25H45H48.3669L48.8807 55.7362C49.2836 55.3331 49.3945 55.0649 49.3945 54.4922C49.3945 53.9195 49.2836 53.6512 48.8807 53.2482L48.3669 52.7344H45H41.6331L41.1193 53.2482ZM54.9141 53.332C54.4834 53.7627 54.3164 54.0868 54.3164 54.4922C54.3164 54.8975 54.4834 55.2217 54.9141 55.6523L55.5117 56.25H58.8827H62.2536L62.7674 55.7362C63.1703 55.3331 63.2812 55.0649 63.2812 54.4922C63.2812 53.9195 63.1703 53.6512 62.7674 53.2482L62.2536 52.7344H58.8827H55.5117L54.9141 53.332ZM43.2422 75.5859V86.4844H36.7383H30.2344V75.5859V64.6875H36.7383H43.2422V75.5859ZM59.7656 75.5859V86.4844H53.2617H46.7578V75.5859V64.6875H53.2617H59.7656V75.5859Z" fill="#EFF4F9"/>
</svg>
