<svg width="80" height="80" viewBox="0 0 80 80" fill="none" xmlns="http://www.w3.org/2000/svg">
<g clip-path="url(#clip0_716:2690)">
<path d="M79.6567 60.4643L64.0446 44.8523C62.6404 43.4481 60.7736 42.6748 58.7876 42.6748C56.8018 42.6748 54.935 43.4481 53.5307 44.8523L51.2725 47.1104L43.4854 39.3234C42.8242 38.6621 42.0201 38.2284 41.1717 38.0221V6.18213C41.1717 5.53494 40.647 5.01025 39.9998 5.01025C39.3526 5.01025 38.8279 5.53494 38.8279 6.18213V7.51525H29.9796C28.6428 7.51525 27.5553 8.60275 27.5553 9.93963V12.5253H19.9595C19.5373 12.5253 19.1478 12.7524 18.9398 13.1198C18.7317 13.4873 18.7375 13.9381 18.9546 14.3001L22.3504 19.9598L18.9546 25.6195C18.7375 25.9815 18.7317 26.4324 18.9398 26.7998C19.1478 27.1671 19.5373 27.3943 19.9595 27.3943H31.2323C31.8795 27.3943 32.4042 26.8696 32.4042 26.2224C32.4042 25.5753 31.8795 25.0506 31.2323 25.0506H22.0293L24.722 20.5628C24.9446 20.1917 24.9446 19.7279 24.722 19.3568L22.0293 14.869H27.5554V21.2123C27.5554 21.8595 28.0801 22.3842 28.7273 22.3842H38.8281V38.0221C37.9796 38.2284 37.1756 38.6621 36.5143 39.3234L24.3434 51.4943L23.964 51.1149C21.0654 48.2163 16.3489 48.216 13.4501 51.1149L0.343242 64.222C-0.114414 64.6796 -0.114414 65.4217 0.343242 65.8792C0.571992 66.1079 0.871992 66.2224 1.17184 66.2224C1.47168 66.2224 1.77168 66.1081 2.00043 65.8792L15.1073 52.7721C17.0923 50.7874 20.322 50.7873 22.3067 52.7721L22.6861 53.1515L2.84824 72.9895C2.39059 73.4471 2.39059 74.1892 2.84824 74.6467C3.3059 75.1043 4.04793 75.1043 4.50543 74.6467L21.2121 57.9399L22.9961 59.7238C23.7128 60.4407 24.6545 60.799 25.5961 60.799C26.5376 60.799 27.4792 60.4407 28.1961 59.7238L32.4279 55.492C32.4339 55.4862 32.4515 55.4684 32.485 55.4684C32.5184 55.4684 32.5362 55.4862 32.542 55.492L34.2689 57.2188C35.7026 58.6524 38.0353 58.6523 39.4689 57.2188L44.1425 52.5451C44.6209 52.0667 45.3995 52.0667 45.8779 52.5451C46.3356 53.0027 47.0776 53.0027 47.5351 52.5451C47.9928 52.0874 47.9928 51.3454 47.5351 50.8879C46.1429 49.4956 43.8773 49.4956 42.4851 50.8879L37.8115 55.5615C37.2918 56.0813 36.4459 56.0815 35.9261 55.5615L34.1992 53.8346C33.7412 53.3767 33.1325 53.1246 32.4848 53.1246C31.8371 53.1246 31.2284 53.3768 30.7706 53.8346L26.5387 58.0665C26.019 58.5863 25.1732 58.5863 24.6534 58.0665L22.8695 56.2826L38.1717 40.9804C38.6601 40.4921 39.3093 40.2231 40.0001 40.2231C40.6909 40.2231 41.3401 40.492 41.8286 40.9804L56.5045 55.6563L55.3468 56.814C54.827 57.3337 53.9814 57.3337 53.4615 56.814L51.0293 54.3818C50.5717 53.9242 49.8296 53.9242 49.3721 54.3818C48.9145 54.8395 48.9145 55.5815 49.3721 56.039L51.8043 58.4712C52.5211 59.1881 53.4628 59.5463 54.4043 59.5463C55.3459 59.5463 56.2875 59.1881 57.0043 58.4712L58.162 57.3135L75.495 74.6465C75.7237 74.8752 76.0237 74.9898 76.3236 74.9898C76.6234 74.9898 76.9234 74.8754 77.1521 74.6465C77.6098 74.1888 77.6098 73.4468 77.1521 72.9893L52.93 48.7677L55.1882 46.5096C56.1498 45.5482 57.4281 45.0187 58.7879 45.0187C60.1478 45.0187 61.4261 45.5482 62.3876 46.5096L77.9996 62.1217C78.2284 62.3504 78.5284 62.4649 78.8282 62.4649C79.1281 62.4649 79.4281 62.3506 79.6568 62.1217C80.1145 61.664 80.1145 60.922 79.6567 60.4643ZM29.8992 20.0404V9.93963C29.8992 9.8951 29.9353 9.859 29.9798 9.859H38.8281V20.0406H29.8992V20.0404Z" fill="#07EBFE"/>
</g>
<defs>
<clipPath id="clip0_716:2690">
<rect width="80" height="80" fill="white"/>
</clipPath>
</defs>
</svg>
