<svg width="60" height="60" viewBox="0 0 60 60" fill="none" xmlns="http://www.w3.org/2000/svg">
<path fill-rule="evenodd" clip-rule="evenodd" d="M27.0244 0.167639C26.4504 0.372274 25.7009 1.08428 25.4174 1.69455C25.2247 2.10945 25.1992 2.48356 25.197 4.94691L25.1944 7.73047H14.3619C7.00835 7.73047 3.4235 7.77043 3.19954 7.85482C2.70887 8.03988 2.12116 8.66047 1.99026 9.13174C1.91713 9.39509 1.87459 15.4934 1.87424 25.7947L1.87353 42.0424L1.47087 42.7111C0.567798 44.211 -0.00280222 46.4577 1.03502e-05 48.5029C0.00704178 53.682 3.65002 58.3197 8.77066 59.6685C10.1506 60.032 12.4177 60.0885 13.827 59.7944C16.0106 59.3387 18.0096 58.3032 19.6252 56.7908L20.3258 56.135H32.7508H45.1758L45.4685 56.6917C45.9047 57.5212 47.1469 58.7023 48.1172 59.2102C51.8881 61.1836 56.397 59.3162 57.8057 55.1974L58.0664 54.4356L58.1006 41.4261C58.1244 32.3767 58.0962 28.2614 58.008 27.9066C57.9383 27.626 57.6495 26.9009 57.3665 26.2951L56.8519 25.1936H57.1745C58.1484 25.1936 59.2196 24.4869 59.6965 23.5299L60 22.9207L59.9988 12.6007L59.9977 2.28056L59.7218 1.68799C59.3992 0.994969 58.6673 0.323752 58.0244 0.131189C57.6897 0.0308635 53.6172 -0.00347676 42.525 0.000273717C30.0161 0.004493 27.4029 0.0327387 27.0244 0.167639ZM57.7366 2.24235L58.0078 2.49727V12.5615V22.6258L57.7201 22.9134C57.475 23.1586 57.3223 23.2012 56.6864 23.2012H55.9404L53.6677 18.2701C52.4178 15.5581 51.3598 13.3173 51.3165 13.2905C51.2734 13.2638 50.2097 15.4697 48.9528 18.1923L46.6675 23.1426L42.8136 23.1734L38.9597 23.2042L38.0155 26.0448C37.1286 28.7133 37.0542 28.8855 36.7874 28.8855C36.521 28.8855 36.4443 28.7105 35.5548 26.0726L34.6061 23.2598L31.1339 23.2012C27.7143 23.1435 27.6575 23.1385 27.3948 22.8756L27.1281 22.6087L27.0941 12.9134C27.0753 7.58103 27.0915 3.04378 27.1298 2.83071C27.1683 2.61764 27.3022 2.3408 27.4276 2.2154C27.6509 1.99213 27.9543 1.98756 42.5604 1.98756H57.4653L57.7366 2.24235ZM36.7963 4.70852V5.55426L36.1786 4.9441L35.5609 4.33406L33.5418 6.3558C32.4313 7.4677 31.5227 8.4277 31.5227 8.48912C31.5227 8.55041 31.7447 8.82678 32.0159 9.10314L32.509 9.6057H31.7229H30.9368V12.5358V15.4658H31.7819H32.6272L32.0749 16.0265C31.7713 16.335 31.5227 16.6388 31.5227 16.7017C31.5227 16.8496 35.4151 20.7399 35.563 20.7399C35.6246 20.7399 35.9272 20.4913 36.2357 20.1877L36.7963 19.6353V20.4827V21.33L39.6968 21.2986L42.5972 21.2673L42.6558 20.528L42.7144 19.7886L43.1777 20.2643C43.4324 20.5259 43.6955 20.7399 43.7624 20.7399C43.8292 20.7399 44.7936 19.8312 45.9054 18.7206L47.9269 16.7014L47.3169 16.0836L46.7069 15.4658H47.5525H48.3981V12.5358V9.6057H47.6116H46.8249L47.3758 9.04641L47.9266 8.48701L45.8464 6.40913L43.7664 4.33125L43.2111 4.88655L42.6558 5.44198V4.65238V3.86279H39.7261H36.7963V4.70852ZM40.7094 6.13921C40.8136 6.55411 41.3571 7.15243 41.7969 7.3362C42.3008 7.54669 42.983 7.5379 43.4098 7.31534C43.7528 7.13637 43.7554 7.13766 44.4284 7.80372C45.0909 8.45935 45.1002 8.47751 44.9342 8.79841C44.7161 9.22011 44.7175 10.1111 44.9368 10.5352C45.1499 10.9471 45.7446 11.4576 46.122 11.5523C46.394 11.6205 46.4059 11.6646 46.4059 12.5978C46.4059 13.5646 46.4034 13.5725 46.0836 13.6457C45.0582 13.8801 44.4344 15.356 44.9459 16.3371C45.1249 16.6801 45.1236 16.6827 44.4576 17.3558C43.7906 18.03 43.7895 18.0306 43.4442 17.8519C43.0538 17.65 42.2742 17.6186 41.8355 17.787C41.4193 17.9468 40.928 18.4719 40.76 18.9364L40.6165 19.3335H39.6439C39.0153 19.3335 38.6713 19.2879 38.6713 19.2047C38.6713 18.8714 38.2394 18.2287 37.8358 17.9616C37.3078 17.6123 36.4513 17.5621 35.898 17.8482L35.545 18.0307L34.8887 17.3636C34.2599 16.7246 34.2392 16.6841 34.3968 16.4034C34.6212 16.0039 34.611 15.0611 34.3771 14.568C34.172 14.1359 33.4798 13.5906 33.1362 13.5906C32.9546 13.5906 32.929 13.4694 32.929 12.607C32.929 11.6641 32.9407 11.6206 33.213 11.5523C33.5903 11.4576 34.1851 10.9471 34.3981 10.5352C34.6174 10.1111 34.6188 9.22011 34.4007 8.79841C34.2347 8.47751 34.244 8.45935 34.9065 7.80372C35.5795 7.13766 35.5821 7.13637 35.9251 7.31534C36.3609 7.54259 37.178 7.54705 37.6085 7.32448C38.0203 7.1114 38.5308 6.5166 38.6255 6.13921C38.6937 5.8673 38.738 5.85523 39.6675 5.85523C40.5969 5.85523 40.6412 5.8673 40.7094 6.13921ZM38.5094 7.8608C37.7639 8.0359 36.7181 8.6607 36.1451 9.27332C34.3606 11.1813 34.4123 14.1501 36.2621 16C39.4355 19.1739 44.8693 16.6368 44.4938 12.1567C44.2496 9.24402 41.3829 7.18618 38.5094 7.8608ZM25.1944 12.5944V15.4658H14.5301H3.86577V12.5944V9.72291H14.5301H25.1944V12.5944ZM40.5912 9.85054C41.2328 10.0287 42.1267 10.8997 42.3546 11.5688C42.9707 13.3768 41.8452 15.2063 39.9818 15.4263C38.3983 15.6133 36.9771 14.4201 36.8283 12.7791C36.777 12.2133 36.8169 11.9844 37.0588 11.456C37.6879 10.0818 39.1047 9.43775 40.5912 9.85054ZM6.79553 12.5944V13.6001L7.76235 13.566L8.72918 13.532V12.5944V11.6567L7.76235 11.6228L6.79553 11.5886V12.5944ZM10.6628 12.599V13.6001L11.6296 13.566L12.5965 13.532L12.6304 12.5651L12.6645 11.5981H11.6636H10.6628V12.599ZM14.5301 12.599V13.6001L15.4969 13.566L16.4637 13.532L16.4977 12.5651L16.5318 11.5981H15.5309H14.5301V12.599ZM25.1944 20.2163C25.1944 22.2912 25.2344 23.0698 25.3556 23.36C25.5854 23.9101 26.2067 24.5792 26.7654 24.8782C27.2166 25.1197 27.4215 25.1372 30.1971 25.1716L33.1487 25.2081L33.8596 27.3398C34.6495 29.708 34.8235 30.0575 35.4527 30.5373C35.7952 30.7987 36.0405 30.8784 36.6149 30.915C37.4793 30.97 38.1386 30.6941 38.5916 30.0879C38.7487 29.8778 39.2122 28.6907 39.6216 27.4497L40.366 25.1936H43.036H45.7059L45.538 25.5745C45.4456 25.784 45.1819 26.3773 44.9519 26.893L44.5337 27.8307L44.5323 40.9866L44.5309 54.1426H33.1278H21.7247L22.1051 53.3515C22.3142 52.9164 22.6308 52.0857 22.8086 51.5055C23.109 50.5245 23.1317 50.3071 23.1306 48.3997C23.1293 46.057 22.9725 45.2684 22.1661 43.5471C21.5342 42.1987 20.8556 41.2297 19.8126 40.1866C18.3572 38.7311 16.5348 37.6676 14.5634 37.1233C13.2905 36.7718 10.077 36.7452 8.84637 37.0758C7.19246 37.5202 5.17479 38.5581 4.18805 39.472L3.86577 39.7705V28.6144V17.4583H14.5301H25.1944V20.2163ZM52.099 19.6045L52.8117 21.1501L51.3508 21.1831C50.5472 21.2011 49.865 21.1911 49.8347 21.1608C49.7537 21.0798 51.235 17.9126 51.3169 17.9918C51.3552 18.0286 51.7071 18.7544 52.099 19.6045ZM6.96546 19.497C6.50115 19.701 6.01434 20.2863 5.85438 20.8331C5.76801 21.128 5.73883 23.2238 5.76332 27.3618L5.79941 33.4564L6.06895 33.89C6.21732 34.1284 6.51357 34.4317 6.72733 34.5639C7.10855 34.7995 7.26043 34.8042 14.4694 34.8042C21.7419 34.8042 21.8274 34.8015 22.2642 34.556C22.5071 34.4194 22.8175 34.1091 22.954 33.8661C23.1983 33.4314 23.2022 33.3251 23.2022 27.0763C23.2022 20.0378 23.2344 20.3415 22.4204 19.7205L21.9901 19.3921L14.6564 19.366C8.73867 19.345 7.25387 19.3703 6.96546 19.497ZM21.21 26.5414C21.21 29.41 21.1923 31.7569 21.1707 31.7569C21.1491 31.7569 20.3712 30.5339 19.4421 29.0392C17.6715 26.1908 17.2535 25.658 16.5627 25.3693C16.0048 25.1363 14.8528 25.1432 14.3778 25.3825C13.659 25.7446 13.2205 26.3227 11.1664 29.6153L9.09926 32.929H8.41616H7.73306V27.1274V21.3259H14.4715H21.21V26.5414ZM9.6081 24.1974V25.1936H10.6042H11.6003V24.1974V23.2012H10.6042H9.6081V24.1974ZM54.6385 25.1057L55.5195 27.0102L51.3549 27.0411C49.0643 27.0579 47.1647 27.0463 47.1335 27.0152C47.1024 26.9841 47.4664 26.1132 47.9424 25.0799L48.8077 23.2012H51.2827H53.7576L54.6385 25.1057ZM17.7153 29.9989C18.6663 31.5137 19.4461 32.7927 19.4482 32.8411C19.4503 32.8895 17.6591 32.929 15.4676 32.929C13.2762 32.929 11.4832 32.9063 11.4832 32.8788C11.4832 32.7662 14.9169 27.355 15.0407 27.2727C15.1144 27.2235 15.3572 27.1972 15.5804 27.2141C15.9748 27.2438 16.034 27.3211 17.7153 29.9989ZM50.2732 37.7342V46.4072H48.3981H46.5231V37.7342V29.0613H48.3981H50.2732V37.7342ZM56.1327 37.7342V46.4072H54.1991H52.2654V37.7342V29.0613H54.1991H56.1327V37.7342ZM27.0695 33.8666V34.8042H29.0031H30.9368V33.8666V32.929H29.0031H27.0695V33.8666ZM32.929 33.8666V34.8042H36.7963H40.6636V33.8666V32.929H36.7963H32.929V33.8666ZM27.0941 37.7635L27.1281 38.7305H33.8665H40.605L40.639 37.7635L40.6731 36.7966H33.8665H27.06L27.0941 37.7635ZM13.8961 39.0253C17.438 39.928 20.0868 42.5955 20.9885 46.167C21.3228 47.4915 21.2614 49.8907 20.8607 51.1539C20.0335 53.7625 18.2498 55.8602 15.8778 57.0143C14.2688 57.7972 13.5865 57.9457 11.6003 57.9457C9.65065 57.9457 8.94188 57.7971 7.43094 57.0713C4.95939 55.8842 2.99973 53.5282 2.26507 50.8609C1.97045 49.7912 1.9701 47.0106 2.26436 45.9384C2.78364 44.0468 4.06171 42.0842 5.56914 40.8639C6.44947 40.1511 8.11287 39.3232 9.25653 39.0285C10.5009 38.7078 12.6447 38.7063 13.8961 39.0253ZM27.0941 41.6312L27.1281 42.5981L33.8958 42.6284L40.6636 42.6586V41.6615V40.6643H33.8618H27.06L27.0941 41.6312ZM9.40173 42.696C8.81004 42.9106 8.2528 43.4152 7.97611 43.9866C7.73106 44.4928 7.72509 44.6174 7.7579 48.5425L7.79165 52.5779L8.11135 53.0608C8.5739 53.7596 9.35322 54.1818 10.1791 54.181C10.5865 54.1807 10.9953 54.0991 11.2484 53.9677C12.1706 53.489 16.4961 50.5115 16.8425 50.1169C17.3034 49.592 17.5052 48.8835 17.4228 48.0795C17.3005 46.8849 17.0988 46.6792 14.0613 44.6522C12.5467 43.6415 11.1281 42.7526 10.909 42.677C10.4179 42.5075 9.90342 42.514 9.40173 42.696ZM12.8505 46.2021C14.5725 47.3503 15.3767 47.9546 15.424 48.136C15.5784 48.7258 15.4006 48.8954 12.9197 50.5249C9.9912 52.4484 10.2505 52.3058 9.96214 52.1514C9.73233 52.0285 9.7253 51.917 9.7253 48.419C9.7253 44.7349 9.74885 44.532 10.1762 44.532C10.2696 44.532 11.4731 45.2836 12.8505 46.2021ZM27.0695 45.5282V46.5244H33.8665H40.6636V45.5282V44.532H33.8665H27.0695V45.5282ZM27.0695 49.3959V50.3921H28.0656H29.0617V49.3959V48.3997H28.0656H27.0695V49.3959ZM32.929 49.3959V50.3921H33.8665H34.8041V49.3959V48.3997H33.8665H32.929V49.3959ZM38.6959 49.3666L38.7299 50.3335L39.6968 50.3675L40.6636 50.4016V49.4006V48.3997H39.6628H38.6618L38.6959 49.3666ZM56.1327 49.3373V50.2749H51.3279H46.5231V49.3373V48.3997H51.3279H56.1327V49.3373ZM56.1327 52.9062C56.1327 54.4195 55.5925 55.7254 54.5641 56.698C53.6545 57.5583 52.8186 57.9158 51.5623 57.982C49.979 58.0653 48.6348 57.5042 47.6437 56.3461C46.8855 55.4602 46.6023 54.7031 46.5458 53.4101L46.4958 52.2673H51.3143H56.1327V52.9062Z" fill="url(#paint0_linear)"/>
<defs>
<linearGradient id="paint0_linear" x1="49.648" y1="-3.37397" x2="-0.67356" y2="46.6544" gradientUnits="userSpaceOnUse">
<stop stop-color="#4AB1FE"/>
<stop offset="1" stop-color="#07EBFE"/>
</linearGradient>
</defs>
</svg>
