<svg width="66" height="66" viewBox="0 0 66 66" fill="none" xmlns="http://www.w3.org/2000/svg">
<path d="M31.4001 1.85885C31.9501 0.42921 33.9727 0.42921 34.5227 1.85885C35.0166 3.14291 36.7631 3.31492 37.498 2.1519C38.3163 0.85701 40.3001 1.25162 40.5606 2.76107C40.7944 4.11682 42.4738 4.62625 43.4216 3.62896C44.4767 2.51859 46.3455 3.29264 46.3064 4.8239C46.2713 6.19922 47.8191 7.02651 48.9432 6.23326C50.1947 5.35008 51.8764 6.47382 51.5395 7.96806C51.2367 9.31014 52.5933 10.4234 53.8506 9.86476C55.2503 9.24267 56.6806 10.673 56.0585 12.0727C55.4998 13.3299 56.6132 14.6865 57.9552 14.3838C59.4494 14.0468 60.5732 15.7286 59.69 16.9801C58.8968 18.1042 59.724 19.6519 61.0993 19.6168C62.6306 19.5778 63.4046 21.4465 62.2943 22.5017C61.297 23.4494 61.8064 25.1288 63.1622 25.3627C64.6716 25.6231 65.0662 27.607 63.7714 28.4252C62.6083 29.1602 62.7804 30.9067 64.0644 31.4006C65.4941 31.9506 65.4941 33.9732 64.0644 34.5232C62.7804 35.0171 62.6083 36.7636 63.7714 37.4985C65.0662 38.3168 64.6716 40.3006 63.1622 40.5611C61.8064 40.7949 61.297 42.4743 62.2943 43.4221C63.4046 44.4772 62.6306 46.346 61.0993 46.3069C59.724 46.2718 58.8968 47.8196 59.69 48.9437C60.5732 50.1952 59.4494 51.8769 57.9552 51.5399C56.6132 51.2372 55.4998 52.5938 56.0585 53.851C56.6806 55.2508 55.2503 56.681 53.8506 56.059C52.5933 55.5003 51.2367 56.6137 51.5395 57.9557C51.8764 59.4499 50.1947 60.5737 48.9432 59.6905C47.8191 58.8973 46.2713 59.7245 46.3064 61.0998C46.3455 62.6311 44.4767 63.4051 43.4216 62.2948C42.4738 61.2975 40.7944 61.8069 40.5606 63.1627C40.3001 64.6721 38.3163 65.0667 37.498 63.7719C36.7631 62.6088 35.0166 62.7808 34.5227 64.0649C33.9727 65.4945 31.9501 65.4945 31.4001 64.0649C30.9062 62.7808 29.1597 62.6088 28.4247 63.7719C27.6065 65.0667 25.6226 64.6721 25.3622 63.1627C25.1283 61.8069 23.4489 61.2975 22.5012 62.2948C21.446 63.4051 19.5773 62.6311 19.6164 61.0998C19.6514 59.7245 18.1037 58.8973 16.9796 59.6905C15.7281 60.5737 14.0463 59.4499 14.3834 57.9557C14.686 56.6137 13.3294 55.5003 12.0722 56.059C10.6725 56.681 9.24218 55.2508 9.86427 53.851C10.4229 52.5938 9.30965 51.2372 7.96758 51.5399C6.47333 51.8769 5.3496 50.1952 6.23277 48.9437C7.02601 47.8196 6.19873 46.2718 4.82341 46.3069C3.29214 46.346 2.5181 44.4772 3.62847 43.4221C4.62576 42.4743 4.11633 40.7949 2.76059 40.5611C1.25113 40.3006 0.856522 38.3168 2.15141 37.4985C3.31443 36.7636 3.14242 35.0171 1.85836 34.5232C0.428722 33.9732 0.428722 31.9506 1.85836 31.4006C3.14242 30.9067 3.31443 29.1602 2.15141 28.4252C0.856522 27.607 1.25113 25.6231 2.76059 25.3627C4.11633 25.1288 4.62576 23.4494 3.62847 22.5017C2.5181 21.4465 3.29215 19.5778 4.82341 19.6168C6.19874 19.6519 7.02602 18.1042 6.23277 16.9801C5.3496 15.7286 6.47333 14.0468 7.96758 14.3838C9.30965 14.6865 10.4229 13.3299 9.86427 12.0727C9.24218 10.673 10.6725 9.24267 12.0722 9.86476C13.3294 10.4234 14.686 9.31014 14.3834 7.96806C14.0463 6.47382 15.7281 5.35008 16.9796 6.23326C18.1037 7.02651 19.6514 6.19923 19.6164 4.8239C19.5773 3.29264 21.446 2.51859 22.5012 3.62896C23.4489 4.62625 25.1283 4.11682 25.3622 2.76107C25.6226 1.25162 27.6065 0.85701 28.4247 2.1519C29.1597 3.31492 30.9062 3.14291 31.4001 1.85885Z" fill="#1F2B45"/>
<path d="M55.1063 33.0699C55.1063 45.3602 45.1431 55.3233 32.8529 55.3233C20.5627 55.3233 10.5996 45.3602 10.5996 33.0699C10.5996 20.7798 20.5627 10.8167 32.8529 10.8167C35.2372 10.8167 37.5339 11.1916 39.6873 11.8859C39.5114 12.4369 38.922 12.7376 38.3632 12.5877C36.6061 12.1162 34.7589 11.8647 32.8529 11.8647C21.1416 11.8647 11.6476 21.3587 11.6476 33.07C11.6476 44.7814 21.1416 54.2753 32.8529 54.2753C44.5643 54.2753 54.0582 44.7814 54.0582 33.07C54.0582 31.3179 53.8457 29.6156 53.4451 27.9871C53.307 27.4254 53.62 26.8424 54.1746 26.6781C54.7807 28.7026 55.1063 30.8482 55.1063 33.0699Z" fill="white"/>
<path d="M46.7704 29.4328L33.0803 24.2562C32.8993 24.1877 32.6995 24.1877 32.5185 24.2562L18.8283 29.4328C18.5141 29.5516 18.5143 29.9962 18.8286 30.1147L24.6432 32.3067V39.2166C24.6432 39.5165 24.8269 39.7858 25.1062 39.8952L32.5335 42.8048C32.7045 42.8717 32.8943 42.8717 33.0653 42.8048L40.4911 39.8952C40.7703 39.7858 40.954 39.5165 40.954 39.2166V32.3067L46.77 30.1146C47.0843 29.9962 47.0846 29.5516 46.7704 29.4328Z" fill="white"/>
<mask id="mask0" style="mask-type:alpha" maskUnits="userSpaceOnUse" x="17" y="24" width="31" height="19">
<path d="M47.6735 29.7741L32.7997 24.1499L17.9258 29.7741L24.6435 32.3066V39.7137L32.7997 42.9089L40.9543 39.7137V32.3066L47.6735 29.7741Z" fill="white"/>
</mask>
<g mask="url(#mask0)">
<path d="M32.7993 42.9222L41.5189 39.4982V32.094L33.1023 35.2847C32.9213 35.3533 32.7216 35.3535 32.5406 35.2852L24.1035 32.1051L24.1053 39.5016L32.7993 42.9222Z" fill="url(#paint0_diamond)"/>
<path d="M33.25 28.7957C33.4311 28.7267 33.6311 28.7263 33.8125 28.7946L42.0471 31.8941L40.9507 32.3101L32.4727 29.0917L33.25 28.7957Z" fill="#1F2B45"/>
<path d="M42.0708 31.8887V41.8295C42.0708 42.1287 41.8879 42.3976 41.6096 42.5074L40.9512 42.7673V32.3102L42.0708 31.8887Z" fill="white"/>
</g>
<path d="M53.6266 17.9237C53.6266 14.9361 51.2047 12.5142 48.2171 12.5142C45.2295 12.5142 42.8076 14.9361 42.8076 17.9237C42.8076 20.9113 45.2295 23.3332 48.2171 23.3332C51.2047 23.3332 53.6266 20.9113 53.6266 17.9237Z" fill="white"/>
<path d="M49.0143 15.5434H48.4668C47.5282 15.5434 47.059 16.0126 47.059 16.7166C47.059 17.4987 47.3718 17.8897 48.0757 18.3589L48.6232 18.75L47.059 21.1745H45.8076L47.2936 18.9846C46.4333 18.3589 45.964 17.8115 45.964 16.7947C45.964 15.5434 46.8244 14.6831 48.4668 14.6831H50.1092V21.1745H49.0143V15.5434Z" fill="#1F2B45"/>
<path d="M31.4001 1.85885C31.9501 0.42921 33.9727 0.42921 34.5227 1.85885C35.0166 3.14291 36.7631 3.31492 37.498 2.1519C38.3163 0.85701 40.3001 1.25162 40.5606 2.76107C40.7944 4.11682 42.4738 4.62625 43.4216 3.62896C44.4767 2.51859 46.3455 3.29264 46.3064 4.8239C46.2713 6.19922 47.8191 7.02651 48.9432 6.23326C50.1947 5.35008 51.8764 6.47382 51.5395 7.96806C51.2367 9.31014 52.5933 10.4234 53.8506 9.86476C55.2503 9.24267 56.6806 10.673 56.0585 12.0727C55.4998 13.3299 56.6132 14.6865 57.9552 14.3838C59.4494 14.0468 60.5732 15.7286 59.69 16.9801C58.8968 18.1042 59.724 19.6519 61.0993 19.6168C62.6306 19.5778 63.4046 21.4465 62.2943 22.5017C61.297 23.4494 61.8064 25.1288 63.1622 25.3627C64.6716 25.6231 65.0662 27.607 63.7714 28.4252C62.6083 29.1602 62.7804 30.9067 64.0644 31.4006C65.4941 31.9506 65.4941 33.9732 64.0644 34.5232C62.7804 35.0171 62.6083 36.7636 63.7714 37.4985C65.0662 38.3168 64.6716 40.3006 63.1622 40.5611C61.8064 40.7949 61.297 42.4743 62.2943 43.4221C63.4046 44.4772 62.6306 46.346 61.0993 46.3069C59.724 46.2718 58.8968 47.8196 59.69 48.9437C60.5732 50.1952 59.4494 51.8769 57.9552 51.5399C56.6132 51.2372 55.4998 52.5938 56.0585 53.851C56.6806 55.2508 55.2503 56.681 53.8506 56.059C52.5933 55.5003 51.2367 56.6137 51.5395 57.9557C51.8764 59.4499 50.1947 60.5737 48.9432 59.6905C47.8191 58.8973 46.2713 59.7245 46.3064 61.0998C46.3455 62.6311 44.4767 63.4051 43.4216 62.2948C42.4738 61.2975 40.7944 61.8069 40.5606 63.1627C40.3001 64.6721 38.3163 65.0667 37.498 63.7719C36.7631 62.6088 35.0166 62.7808 34.5227 64.0649C33.9727 65.4945 31.9501 65.4945 31.4001 64.0649C30.9062 62.7808 29.1597 62.6088 28.4247 63.7719C27.6065 65.0667 25.6226 64.6721 25.3622 63.1627C25.1283 61.8069 23.4489 61.2975 22.5012 62.2948C21.446 63.4051 19.5773 62.6311 19.6164 61.0998C19.6514 59.7245 18.1037 58.8973 16.9796 59.6905C15.7281 60.5737 14.0463 59.4499 14.3834 57.9557C14.686 56.6137 13.3294 55.5003 12.0722 56.059C10.6725 56.681 9.24218 55.2508 9.86427 53.851C10.4229 52.5938 9.30965 51.2372 7.96758 51.5399C6.47333 51.8769 5.3496 50.1952 6.23277 48.9437C7.02601 47.8196 6.19873 46.2718 4.82341 46.3069C3.29214 46.346 2.5181 44.4772 3.62847 43.4221C4.62576 42.4743 4.11633 40.7949 2.76059 40.5611C1.25113 40.3006 0.856522 38.3168 2.15141 37.4985C3.31443 36.7636 3.14242 35.0171 1.85836 34.5232C0.428722 33.9732 0.428722 31.9506 1.85836 31.4006C3.14242 30.9067 3.31443 29.1602 2.15141 28.4252C0.856522 27.607 1.25113 25.6231 2.76059 25.3627C4.11633 25.1288 4.62576 23.4494 3.62847 22.5017C2.5181 21.4465 3.29215 19.5778 4.82341 19.6168C6.19874 19.6519 7.02602 18.1042 6.23277 16.9801C5.3496 15.7286 6.47333 14.0468 7.96758 14.3838C9.30965 14.6865 10.4229 13.3299 9.86427 12.0727C9.24218 10.673 10.6725 9.24267 12.0722 9.86476C13.3294 10.4234 14.686 9.31014 14.3834 7.96806C14.0463 6.47382 15.7281 5.35008 16.9796 6.23326C18.1037 7.02651 19.6514 6.19923 19.6164 4.8239C19.5773 3.29264 21.446 2.51859 22.5012 3.62896C23.4489 4.62625 25.1283 4.11682 25.3622 2.76107C25.6226 1.25162 27.6065 0.85701 28.4247 2.1519C29.1597 3.31492 30.9062 3.14291 31.4001 1.85885Z" fill="#FC3F1D"/>
<path d="M55.1063 33.0699C55.1063 45.3602 45.1431 55.3233 32.8529 55.3233C20.5627 55.3233 10.5996 45.3602 10.5996 33.0699C10.5996 20.7798 20.5627 10.8167 32.8529 10.8167C35.2372 10.8167 37.5339 11.1916 39.6873 11.8859C39.5114 12.4369 38.922 12.7376 38.3632 12.5877C36.6061 12.1162 34.7589 11.8647 32.8529 11.8647C21.1416 11.8647 11.6476 21.3587 11.6476 33.07C11.6476 44.7814 21.1416 54.2753 32.8529 54.2753C44.5643 54.2753 54.0582 44.7814 54.0582 33.07C54.0582 31.3179 53.8457 29.6156 53.4451 27.9871C53.307 27.4254 53.62 26.8424 54.1746 26.6781C54.7807 28.7026 55.1063 30.8482 55.1063 33.0699Z" fill="white"/>
<path d="M46.7704 29.4328L33.0803 24.2562C32.8993 24.1877 32.6995 24.1877 32.5185 24.2562L18.8283 29.4328C18.5141 29.5516 18.5143 29.9962 18.8286 30.1147L24.6432 32.3067V39.2166C24.6432 39.5165 24.8269 39.7858 25.1062 39.8952L32.5335 42.8048C32.7045 42.8717 32.8943 42.8717 33.0653 42.8048L40.4911 39.8952C40.7703 39.7858 40.954 39.5165 40.954 39.2166V32.3067L46.77 30.1146C47.0843 29.9962 47.0846 29.5516 46.7704 29.4328Z" fill="white"/>
<mask id="mask1" style="mask-type:alpha" maskUnits="userSpaceOnUse" x="17" y="24" width="31" height="19">
<path d="M47.6735 29.7741L32.7997 24.1499L17.9258 29.7741L24.6435 32.3066V39.7137L32.7997 42.9089L40.9543 39.7137V32.3066L47.6735 29.7741Z" fill="white"/>
</mask>
<g mask="url(#mask1)">
<path d="M32.7993 42.9222L41.5189 39.4982V32.094L33.1023 35.2847C32.9213 35.3533 32.7216 35.3535 32.5406 35.2852L24.1035 32.1051L24.1053 39.5016L32.7993 42.9222Z" fill="url(#paint1_diamond)"/>
<path d="M33.25 28.7957C33.4311 28.7267 33.6311 28.7263 33.8125 28.7946L42.0471 31.8941L40.9507 32.3101L32.4727 29.0917L33.25 28.7957Z" fill="#FC3F1D"/>
<path d="M42.0708 31.8887V41.8295C42.0708 42.1287 41.8879 42.3976 41.6096 42.5074L40.9512 42.7673V32.3102L42.0708 31.8887Z" fill="white"/>
</g>
<path d="M53.6266 17.9237C53.6266 14.9361 51.2047 12.5142 48.2171 12.5142C45.2295 12.5142 42.8076 14.9361 42.8076 17.9237C42.8076 20.9113 45.2295 23.3332 48.2171 23.3332C51.2047 23.3332 53.6266 20.9113 53.6266 17.9237Z" fill="white"/>
<path d="M49.0143 15.5434H48.4668C47.5282 15.5434 47.059 16.0126 47.059 16.7166C47.059 17.4987 47.3718 17.8897 48.0757 18.3589L48.6232 18.75L47.059 21.1745H45.8076L47.2936 18.9846C46.4333 18.3589 45.964 17.8115 45.964 16.7947C45.964 15.5434 46.8244 14.6831 48.4668 14.6831H50.1092V21.1745H49.0143V15.5434Z" fill="#FC3F1D"/>
<defs>
<radialGradient id="paint0_diamond" cx="0" cy="0" r="1" gradientUnits="userSpaceOnUse" gradientTransform="translate(32.9446 32.0358) rotate(90) scale(10.938 52.0852)">
<stop stop-color="#1F2B45"/>
<stop offset="0.151042" stop-color="#1F2B45"/>
<stop offset="1" stop-color="white" stop-opacity="0"/>
</radialGradient>
<radialGradient id="paint1_diamond" cx="0" cy="0" r="1" gradientUnits="userSpaceOnUse" gradientTransform="translate(32.9446 32.0358) rotate(90) scale(10.938 52.0852)">
<stop stop-color="#FC3F1D"/>
<stop offset="0.151042" stop-color="#FC3F1D"/>
<stop offset="1" stop-color="white" stop-opacity="0"/>
</radialGradient>
</defs>
</svg>
