<svg width="74" height="61" viewBox="0 0 74 61" fill="none" xmlns="http://www.w3.org/2000/svg">
<g clip-path="url(#clip0_1233:688)">
<path d="M65.3049 35.3105H55.1212L63.9123 19.8428C64.1298 19.4618 64.1286 18.9943 63.9087 18.6146C63.6876 18.2352 63.2826 18.002 62.8439 18.002H48.0784C47.5487 18.002 47.0786 18.341 46.9117 18.8431L39.5289 41.0735C39.4026 41.4484 39.4664 41.8618 39.6971 42.1825C39.9291 42.5036 40.3005 42.6933 40.6956 42.6933H51.1343L44.4869 58.2872C44.2489 58.8412 44.4485 59.4866 44.958 59.8096C45.4591 60.13 46.1324 60.0457 46.5368 59.5888L66.2242 37.3584C66.5462 36.9966 66.6257 36.4785 66.4274 36.0376C66.229 35.5954 65.7894 35.3105 65.3049 35.3105Z" fill="#07EBFE" fill-opacity="0.4"/>
</g>
<path fill-rule="evenodd" clip-rule="evenodd" d="M25.7246 0.137541C25.0826 0.366436 24.3864 0.931934 24.0572 1.49181C23.7393 2.03257 23.7314 2.09153 23.6939 4.16002L23.6557 6.27539L22.8148 6.488C21.2304 6.88883 18.2808 8.12413 17.0038 8.92157C16.7849 9.05823 16.6492 8.95626 15.3769 7.69963C13.8781 6.21925 13.4605 5.96621 12.4976 5.95473C11.3578 5.94102 10.977 6.14178 9.44062 7.56648C6.31625 10.4637 5.9527 10.9459 5.9527 12.1929C5.9527 13.2494 6.28074 13.8248 7.69162 15.2433L8.92891 16.4872L8.38779 17.4408C7.6486 18.7435 7.01876 20.2056 6.5012 21.8202L6.0665 23.1761L4.17545 23.2182C1.988 23.2668 1.51509 23.4173 0.723979 24.316C0.0470218 25.0851 -0.00126522 25.3788 2.39976e-05 28.7217C0.00107881 31.6065 0.00951732 31.7146 0.278612 32.2828C0.431326 32.6051 0.734058 33.0376 0.951467 33.2437C1.65667 33.9128 2.07555 34.0188 4.23897 34.0752L6.19354 34.126L6.33571 34.7281C6.69177 36.2351 7.7344 38.7905 8.62665 40.3426L8.94802 40.9014L7.58227 42.2842C6.06076 43.8248 5.83057 44.2225 5.82999 45.3128C5.8294 46.4383 6.09896 46.8514 8.33447 49.1507C10.556 51.4358 10.9461 51.7031 12.0591 51.7031C13.1901 51.7031 13.6844 51.4038 15.4392 49.6558L16.9913 48.1101L16.322 47.4336C15.9539 47.0616 15.6007 46.7572 15.5373 46.7572C15.4738 46.7572 14.7557 47.4165 13.9413 48.2222C12.7245 49.4262 12.3996 49.6872 12.1177 49.6872C11.8307 49.6872 11.4763 49.3864 9.94294 47.8413C8.93524 46.826 8.05248 45.8802 7.9811 45.7394C7.69994 45.1847 7.81433 45.0027 9.55079 43.2411C11.5232 41.2403 11.5388 41.2009 10.8285 40.0229C9.61454 38.0097 8.7026 35.836 8.26333 33.9094C7.96317 32.5923 7.83402 32.2858 7.5048 32.1097C7.37447 32.0399 6.30946 31.9883 4.95836 31.986C2.45798 31.982 2.34078 31.9561 2.11305 31.3572C1.94499 30.9153 1.95213 26.2266 2.12137 25.8551C2.33949 25.3766 2.68418 25.3093 4.91921 25.3093C6.07224 25.3093 7.1478 25.2591 7.30919 25.1977C7.6922 25.052 7.79839 24.8357 8.14929 23.485C8.66591 21.4967 9.5863 19.3748 10.7275 17.5409C11.5555 16.2106 11.5552 16.2095 9.60939 14.2337C8.24422 12.8475 7.96856 12.5092 7.96856 12.2204C7.96856 11.9288 8.24797 11.5959 9.71499 10.1393C10.6755 9.18563 11.6117 8.30626 11.7953 8.18519C12.438 7.76139 12.5912 7.84718 14.4397 9.66568C16.4394 11.6329 16.4768 11.6478 17.6446 10.9407C19.7837 9.64552 22.2738 8.65212 24.5076 8.20289C25.6425 7.9747 25.6464 7.96415 25.6885 5.05181C25.7241 2.5853 25.7284 2.54803 26.0013 2.32722C26.2564 2.12094 26.4966 2.10336 29.0693 2.10336H31.8607L32.1035 2.41219C32.3307 2.70086 32.3465 2.8715 32.3465 5.03341C32.3465 7.91715 32.2778 7.7887 34.0684 8.25305C36.2371 8.81562 38.2375 9.67131 40.1149 10.8396C41.4373 11.6626 41.433 11.664 43.418 9.72147C44.7641 8.40413 45.1591 8.08065 45.4219 8.08065C45.6867 8.08065 46.0927 8.42089 47.5542 9.86797C49.3676 11.6634 49.6924 12.0701 49.6924 12.5456C49.6924 12.7193 49.1409 13.3622 47.9929 14.5267C45.9882 16.5604 46.0004 16.5256 46.8145 17.9153C48.0534 20.0303 48.9236 22.1798 49.3532 24.1861C49.7018 25.8149 49.6277 25.7781 52.5638 25.7781C54.9202 25.7781 54.9579 25.782 55.2822 26.0608L55.611 26.3434L55.647 28.8977C55.6667 30.3026 55.653 31.5715 55.6163 31.7176C55.5796 31.8638 55.4348 32.0902 55.2945 32.2209C55.0569 32.4423 54.8874 32.4586 52.8289 32.4586C49.8633 32.4586 50.0116 32.3757 49.5048 34.3151C48.992 36.278 48.0657 38.4074 46.9334 40.227C46.1054 41.5573 46.1057 41.5584 48.0515 43.5341C49.441 44.945 49.6924 45.2553 49.6924 45.5592C49.6924 45.867 49.4338 46.1725 47.8673 47.7146C46.8636 48.7029 45.9274 49.5755 45.787 49.6538C45.1845 49.9897 44.9247 49.8648 43.7216 48.6617C43.0932 48.0332 42.3858 47.3366 42.1495 47.1138L41.7199 46.7086L41.0171 47.4041L40.3141 48.0997L41.8681 49.661C42.7227 50.5197 43.5866 51.3252 43.7877 51.4511C44.6903 52.0159 46.2083 51.9234 47.0913 51.25C47.3095 51.0836 48.3349 50.1232 49.3699 49.116C51.4581 47.0838 51.7082 46.7062 51.7082 45.5852C51.7082 44.5173 51.3843 43.9472 49.9693 42.5246L48.732 41.2807L49.2731 40.327C50.0138 39.0216 50.6424 37.5617 51.1635 35.9358L51.6019 34.5682H53.2629C55.4322 34.5682 55.9817 34.4156 56.7855 33.5903C57.1452 33.221 57.43 32.7985 57.518 32.5036C57.6157 32.1766 57.6617 31.0624 57.6609 29.0462C57.6598 26.1772 57.65 26.0501 57.3865 25.4843C57.2361 25.1615 56.9183 24.7262 56.68 24.5171C55.9217 23.8513 55.574 23.7654 53.3628 23.6981L51.349 23.6369L51.2082 23.0373C50.8721 21.6056 49.8798 19.1611 48.9768 17.5408L48.5991 16.863L49.9631 15.4819C51.4363 13.9904 51.6896 13.5718 51.7011 12.6097C51.7144 11.4958 51.5055 11.0839 50.21 9.67201C48.4669 7.77182 47.0833 6.46409 46.6046 6.26402C45.9971 6.01016 44.8246 6.0424 44.1839 6.33048C43.8559 6.47803 43.1908 7.03064 42.4254 7.79163L41.1942 9.01545L39.3781 8.10397C37.7238 7.27371 36.1517 6.65712 34.837 6.32298L34.3389 6.1964L34.3378 4.23772C34.3367 2.42825 34.3156 2.23404 34.0607 1.6866C33.738 0.993582 33.0061 0.322368 32.3631 0.129806C31.7748 -0.0464652 26.2226 -0.0399019 25.7246 0.137541ZM27.0199 13.2415C21.3341 13.8901 16.6023 17.0779 14.2393 21.8518C13.0039 24.3475 12.6078 26.0799 12.6042 29.0011C12.6022 30.6608 12.6471 31.1975 12.8732 32.2147C13.6373 35.6513 14.9596 37.9235 17.9233 40.892C19.3514 42.3225 19.8587 42.9163 20.2606 43.6279C20.8228 44.6238 21.4076 46.1972 21.5154 47.004C21.5814 47.4985 21.561 47.5429 21.0027 48.1188C20.1977 48.949 20 49.5832 20.0627 51.1335C20.1148 52.4208 20.2334 52.7638 20.8817 53.5023C21.0841 53.7328 21.5025 54.0496 21.8114 54.2061C22.356 54.4821 22.3692 54.5011 22.251 54.8402C22.0549 55.4027 22.1715 57.6366 22.4235 58.1456C22.7502 58.8052 23.5298 59.5053 24.2289 59.7669C24.8089 59.984 25.1435 60.001 28.8305 60.001C32.535 60.001 32.8498 59.9848 33.4403 59.7638C34.2188 59.4726 34.8647 58.8641 35.2313 58.0766C35.4655 57.5738 35.5088 57.2953 35.5098 56.2874C35.5105 55.6309 35.4596 54.9587 35.3968 54.7936C35.2904 54.5136 35.3207 54.4741 35.8469 54.2075C36.1572 54.0502 36.5768 53.7328 36.7792 53.5023C37.4276 52.7638 37.5462 52.4208 37.5982 51.1335C37.6621 49.5544 37.4611 48.9264 36.6234 48.0887L36.0136 47.479L36.2752 46.4441C36.8461 44.1858 37.577 43.0238 39.8363 40.7825C42.7328 37.9091 44.146 35.4088 44.8497 31.9123C45.1332 30.5038 45.1334 27.4169 44.8503 25.9912C44.2026 22.7313 42.6138 19.8245 40.2641 17.6002C37.3312 14.8241 33.683 13.3459 29.3729 13.1875C28.5911 13.1588 27.5322 13.183 27.0199 13.2415ZM31.9949 15.5096C34.8925 16.1708 37.2235 17.4059 39.0912 19.2695C41.1801 21.3537 42.4315 23.8949 42.9551 27.1158C43.0946 27.974 43.0253 30.5087 42.8354 31.4992C42.2582 34.5067 40.9811 36.777 38.5044 39.1977C37.6471 40.0357 36.6731 41.0833 36.34 41.5258C35.3425 42.851 34.5054 44.7311 34.1671 46.4056L34.0369 47.0502L33.0746 47.0842L32.1121 47.1183V41.7343V36.3504L33.5478 36.3039C35.2345 36.2492 35.8862 36.0254 36.6596 35.2353C38.3543 33.5041 37.8477 30.7062 35.643 29.62C35.1829 29.3932 34.9144 29.3527 33.8701 29.3527C32.8048 29.3527 32.562 29.3908 32.0625 29.6367C30.7246 30.2953 30.116 31.3235 30.0284 33.0739L29.9712 34.2166H28.8148H27.6584V33.1827C27.6584 32.5492 27.5869 31.9389 27.4738 31.607C27.2314 30.8955 26.487 30.064 25.739 29.6695C25.197 29.3836 25.0191 29.3527 23.908 29.3527C22.8426 29.3527 22.5999 29.3908 22.1004 29.6367C19.9264 30.7067 19.4139 33.4751 21.0716 35.1936C21.3102 35.4409 21.7691 35.7804 22.0914 35.948C22.6108 36.2182 22.8472 36.2585 24.1717 36.3034L25.666 36.3539V41.7359V47.1179L24.645 47.0841L23.624 47.0502L23.4938 46.4056C23.156 44.7337 22.3199 42.8546 21.3225 41.5258C20.9905 41.0833 20.0165 40.0357 19.1584 39.1977C16.6804 36.7782 15.4038 34.5102 14.8253 31.4992C14.5864 30.2558 14.5819 27.7984 14.8161 26.476C15.8491 20.6434 20.4189 16.3097 26.545 15.353C27.541 15.1975 31.0717 15.299 31.9949 15.5096ZM24.5007 31.4037C24.7299 31.4674 25.0727 31.6814 25.2625 31.8795C25.5791 32.2098 25.6108 32.3208 25.6488 33.228L25.69 34.2166L24.4182 34.2158C23.3583 34.2152 23.0889 34.1772 22.8024 33.9885C22.3696 33.7032 22.1595 33.3288 22.1541 32.8336C22.1421 31.7166 23.2333 31.0516 24.5007 31.4037ZM34.9249 31.5796C35.5759 31.9162 35.8241 32.8525 35.4364 33.5087C35.0925 34.091 34.723 34.2166 33.354 34.2166H32.1121V33.3317C32.1121 32.1073 32.452 31.5415 33.2927 31.3662C33.7315 31.2747 34.5397 31.3803 34.9249 31.5796ZM30.0025 41.7175V47.1088H28.8305H27.6584V41.7175V36.3262H28.8305H30.0025V41.7175ZM35.1868 49.5607C35.5598 49.8942 35.5696 49.9274 35.5696 50.8596C35.5696 51.7918 35.5598 51.8249 35.1868 52.1581L34.804 52.5001H28.8305H22.8569L22.4741 52.1581C22.1011 51.8248 22.0914 51.7917 22.0914 50.8592C22.0914 49.9268 22.1011 49.8937 22.4741 49.5604L22.8569 49.2184H28.8305H34.804L35.1868 49.5607ZM33.12 55.0082C33.4933 55.3815 33.5185 55.456 33.5185 56.1861C33.5185 57.0208 33.3186 57.5675 32.939 57.7706C32.6326 57.9347 25.0283 57.9347 24.722 57.7706C24.3008 57.5454 24.114 56.9865 24.1641 56.1018C24.2061 55.3569 24.2433 55.256 24.5883 54.9476L24.9666 54.6097H28.8441H32.7216L33.12 55.0082Z" fill="#475678"/>
<defs>
<clipPath id="clip0_1233:688">
<rect width="42" height="42" fill="white" transform="translate(32 18.002)"/>
</clipPath>
</defs>
</svg>
