<svg width="60" height="60" viewBox="0 0 60 60" fill="none" xmlns="http://www.w3.org/2000/svg">
<path d="M2.65323 27.5666C2.91097 27.5661 3.15975 27.4718 3.35307 27.3014C3.54657 27.1307 3.67125 26.8954 3.70376 26.6394L3.70376 26.6394C3.8024 25.8615 3.93797 25.0862 4.11632 24.2705C4.14816 24.1343 4.15274 23.9931 4.12979 23.8551C4.10672 23.7163 4.05629 23.5836 3.98144 23.4645C3.90659 23.3454 3.80881 23.2424 3.69379 23.1615C3.57877 23.0806 3.4488 23.0233 3.31145 22.9931C3.1741 22.9628 3.03211 22.9602 2.89373 22.9853C2.75536 23.0105 2.62336 23.0629 2.50543 23.1395C2.38749 23.2161 2.28597 23.3154 2.20676 23.4317C2.12792 23.5473 2.07275 23.6775 2.04445 23.8146C1.85178 24.6924 1.70544 25.5295 1.59829 26.372L1.59828 26.3721C1.58074 26.5104 1.59062 26.6508 1.62735 26.7852C1.66409 26.9197 1.72696 27.0456 1.81237 27.1557C1.89779 27.2659 2.00407 27.3581 2.12514 27.4271C2.24622 27.4962 2.37971 27.5407 2.518 27.5581L2.54926 27.3101M2.65323 27.5666C2.6074 27.5668 2.56161 27.5639 2.51618 27.5579L2.54926 27.3101M2.65323 27.5666C2.65298 27.5666 2.65274 27.5666 2.65249 27.5666L2.65224 27.3166M2.65323 27.5666C2.65348 27.5666 2.65372 27.5666 2.65397 27.5666L2.65224 27.3166M2.54926 27.3101C2.58339 27.3146 2.6178 27.3168 2.65224 27.3166M2.54926 27.3101C2.44357 27.2968 2.34153 27.2627 2.24899 27.21C2.15645 27.1572 2.07521 27.0867 2.00993 27.0025C1.94465 26.9183 1.89659 26.8221 1.86851 26.7193C1.84043 26.6166 1.83288 26.5093 1.84629 26.4036L2.65224 27.3166" fill="#3FBAFE" stroke="#3FBAFE" stroke-width="0.5"/>
<path d="M58.3775 30.0003C58.3775 29.7852 58.2921 29.579 58.14 29.4269C57.9879 29.2749 57.7817 29.1895 57.5667 29.1895C57.3516 29.1895 57.1454 29.2749 56.9933 29.4269C56.8413 29.579 56.7559 29.7852 56.7559 30.0003H58.3775ZM58.3775 30.0003C58.3689 37.524 55.3763 44.7372 50.0562 50.0573C44.7361 55.3774 37.5229 58.3701 29.9991 58.3786M58.3775 30.0003L29.9991 58.3786M29.9995 58.6286C37.5894 58.62 44.866 55.601 50.2329 50.2341C55.5999 44.8672 58.6188 37.5905 58.6275 30.0005V30.0003C58.6275 29.7189 58.5157 29.4491 58.3168 29.2502C58.1178 29.0512 57.848 28.9395 57.5667 28.9395C57.2853 28.9395 57.0155 29.0512 56.8166 29.2502C56.6176 29.4491 56.5059 29.7189 56.5059 30.0003V30.0004C56.5094 36.1696 54.3609 42.1469 50.4307 46.9021C46.5005 51.6574 41.0347 54.8929 34.9751 56.051C28.9156 57.2091 22.6419 56.2174 17.235 53.2466C11.8282 50.2759 7.62686 45.5123 5.35505 39.7766L5.35498 39.7764C5.25116 39.5149 5.04772 39.3053 4.7894 39.1938C4.53108 39.0823 4.23904 39.078 3.97754 39.1818C3.71603 39.2856 3.50648 39.4891 3.39497 39.7474C3.28358 40.0055 3.27916 40.2972 3.38264 40.5585C5.48218 45.9015 9.14691 50.4857 13.8966 53.7102C18.6461 56.9346 24.2589 58.6489 29.9995 58.6286ZM29.9995 58.6286C29.9995 58.6286 29.9994 58.6286 29.9994 58.6286L29.9991 58.3786M29.9995 58.6286C29.9997 58.6286 29.9998 58.6286 30 58.6286L29.9991 58.3786" fill="#3FBAFE" stroke="#3FBAFE" stroke-width="0.5"/>
<path d="M2.82991 35.7391L2.82915 35.7391C2.57964 35.7388 2.33822 35.6506 2.14731 35.49C1.95641 35.3293 1.82823 35.1066 1.78532 34.8608L2.82991 35.7391ZM2.82991 35.7391C2.89121 35.739 2.95239 35.7337 3.01282 35.7233L3.01353 35.7232C3.29064 35.6748 3.53718 35.5183 3.69891 35.2881C3.86065 35.058 3.92434 34.773 3.87597 34.4959L3.87585 34.4952M2.82991 35.7391L3.87585 34.4952M3.87585 34.4952C3.74859 33.778 3.65304 33.0056 3.5879 32.2019C3.57799 32.0625 3.54044 31.9266 3.47743 31.802C3.4142 31.6769 3.3266 31.5657 3.21979 31.4749C3.11297 31.3841 2.9891 31.3157 2.85544 31.2734C2.72224 31.2314 2.582 31.2163 2.44291 31.229L3.87585 34.4952Z" fill="#3FBAFE" stroke="#3FBAFE" stroke-width="0.5"/>
<path d="M5.22196 18.9713L5.2216 18.9713C5.04146 18.9716 4.86422 18.926 4.70659 18.8388C4.54895 18.7516 4.41612 18.6257 4.3206 18.473C4.22508 18.3203 4.17003 18.1458 4.16063 17.9659C4.15122 17.786 4.18779 17.6067 4.26687 17.4448M5.22196 18.9713L50.0007 12.2194C50.1513 12.3626 50.352 12.4411 50.5598 12.4381C50.7676 12.4351 50.9659 12.3507 51.1123 12.2032L51.2895 12.3796C51.2896 12.3795 51.2897 12.3794 51.2898 12.3793C51.4838 12.1842 51.5956 11.922 51.6021 11.6469C51.6086 11.3721 51.5095 11.1053 51.3253 10.9013C48.1946 7.40463 44.2523 4.73127 39.8454 3.11662C35.4385 1.50198 30.7022 0.995562 26.0536 1.64197C21.4049 2.28838 16.9865 4.06779 13.1873 6.82352C9.38813 9.57922 6.32476 13.2267 4.26687 17.4448M5.22196 18.9713C5.42068 18.9707 5.61525 18.9143 5.78348 18.8086C5.95172 18.7028 6.08686 18.5519 6.1735 18.373L5.94852 18.264M5.22196 18.9713L49.8305 12.4026C49.805 12.3791 49.7622 12.3342 49.7511 12.3224L49.7462 12.3173L49.7463 12.3172C46.8478 9.07917 43.1977 6.60341 39.1173 5.10798C35.0368 3.61254 30.6513 3.14331 26.3469 3.7416C22.0424 4.3399 17.9511 5.98735 14.4332 8.53891C10.9153 11.0905 8.0787 14.4678 6.1732 18.3736L5.94852 18.264M4.26687 17.4448L4.49149 17.5546M4.26687 17.4448C4.26684 17.4449 4.26682 17.4449 4.2668 17.4449L4.49149 17.5546M4.49149 17.5546C4.43104 17.6783 4.4031 17.8153 4.41028 17.9528C4.41747 18.0903 4.45955 18.2237 4.53256 18.3405C4.60557 18.4572 4.7071 18.5534 4.82758 18.62L51.1391 11.0681C48.0357 7.60192 44.1278 4.95191 39.7594 3.35136C35.391 1.75082 30.6961 1.24882 26.088 1.88959C21.4799 2.53035 17.1001 4.29422 13.3341 7.02589C9.56806 9.75755 6.53141 13.3732 4.49149 17.5546ZM5.94852 18.264C7.87199 14.3214 10.7353 10.9122 14.2864 8.33654C17.8375 5.76092 21.9674 4.09792 26.3125 3.49398C30.6575 2.89005 35.0844 3.36371 39.2033 4.87324C43.3222 6.38278 47.0068 8.88189 49.9326 12.1505L5.22122 18.7213C5.37311 18.7209 5.52182 18.6778 5.65041 18.5969C5.779 18.5161 5.88229 18.4007 5.94852 18.264Z" fill="#3FBAFE" stroke="#3FBAFE" stroke-width="0.5"/>
<path d="M42.4329 12.7161H50.541C50.8223 12.7161 51.0922 12.6043 51.2911 12.4054C51.49 12.2064 51.6018 11.9366 51.6018 11.6552V3.54714C51.6018 3.26579 51.49 2.99597 51.2911 2.79703C51.0922 2.59809 50.8223 2.48633 50.541 2.48633C50.2596 2.48633 49.9898 2.59809 49.7909 2.79703C49.5919 2.99597 49.4802 3.2658 49.4802 3.54714V10.5944H42.4329C42.1515 10.5944 41.8817 10.7062 41.6828 10.9051C41.4838 11.1041 41.3721 11.3739 41.3721 11.6552C41.3721 11.9366 41.4838 12.2064 41.6828 12.4054C41.8817 12.6043 42.1515 12.7161 42.4329 12.7161Z" fill="#3FBAFE" stroke="#3FBAFE" stroke-width="0.5"/>
<path d="M30 46.8717H30.0003C34.4733 46.8667 38.7617 45.0875 41.9246 41.9246C45.0875 38.7617 46.8667 34.4733 46.8717 30.0003V30C46.8717 26.6632 45.8822 23.4012 44.0283 20.6267C42.1744 17.8522 39.5394 15.6897 36.4565 14.4127C33.3736 13.1357 29.9813 12.8016 26.7086 13.4526C23.4358 14.1036 20.4295 15.7105 18.07 18.07C15.7105 20.4295 14.1036 23.4358 13.4526 26.7086C12.8016 29.9813 13.1357 33.3736 14.4127 36.4565C15.6897 39.5394 17.8522 42.1744 20.6267 44.0283C23.4012 45.8822 26.6632 46.8717 30 46.8717ZM21.8054 17.7359C24.231 16.1152 27.0826 15.2501 29.9999 15.25C33.9104 15.2547 37.6595 16.8102 40.4247 19.5754C43.1899 22.3406 44.7454 26.0897 44.75 30.0003C44.75 32.9175 43.8849 35.7692 42.2642 38.1947C40.6435 40.6203 38.3398 42.5109 35.6446 43.6273C32.9494 44.7437 29.9837 45.0358 27.1225 44.4666C24.2612 43.8975 21.633 42.4927 19.5702 40.4299C17.5074 38.367 16.1026 35.7389 15.5335 32.8776C14.9643 30.0164 15.2564 27.0507 16.3728 24.3555C17.4892 21.6603 19.3798 19.3566 21.8054 17.7359Z" fill="#3FBAFE" stroke="#3FBAFE" stroke-width="0.5"/>
<path d="M25 34.3946V35.7568H27.1038V39H28.6923V35.7568H34.2093V34.3946H28.6923V32.5784H31.5474C35.5617 32.5784 37 30.1784 37 27.8C37 25.9838 36.2057 23 31.5474 23H27.1038V31.173H25V32.5784H27.1038V34.3946H25ZM28.6923 24.4486H31.5689C34.4025 24.4486 35.4114 26.1135 35.4114 27.8216C35.4114 29.4865 34.4025 31.173 31.5689 31.173H28.6923V24.4486Z" fill="#3FBAFE"/>
</svg>
