<svg width="60" height="60" viewBox="0 0 60 60" fill="none" xmlns="http://www.w3.org/2000/svg">
<path d="M30.001 27.1797C28.446 27.1797 27.1808 28.4448 27.1808 29.9999C27.1808 31.555 28.446 32.8201 30.001 32.8201C31.5561 32.8201 32.8213 31.555 32.8213 29.9999C32.8213 28.4448 31.5561 27.1797 30.001 27.1797ZM30.001 31.0623C29.4152 31.0623 28.9386 30.5857 28.9386 29.9999C28.9386 29.4141 29.4152 28.9375 30.001 28.9375C30.5869 28.9375 31.0635 29.4141 31.0635 29.9999C31.0635 30.5857 30.5869 31.0623 30.001 31.0623Z" fill="url(#paint0_linear)"/>
<path d="M57.1796 27.1796H52.0562C51.5447 23.1559 49.9525 19.4652 47.5821 16.4064L51.2132 12.7753C52.3129 11.6757 52.3129 9.88641 51.2132 8.78684C50.6804 8.2541 49.9723 7.96078 49.2189 7.96078C48.4655 7.96078 47.7573 8.2541 47.2246 8.78684L43.5935 12.4179C40.5347 10.0475 36.844 8.45543 32.8202 7.94379V2.82035C32.8204 1.26516 31.5551 0 30 0C28.4448 0 27.1796 1.26516 27.1796 2.82035V7.94402C25.8093 8.11758 24.4602 8.41699 23.1464 8.84227C22.6846 8.99168 22.4313 9.48727 22.5809 9.9491C22.7303 10.4109 23.226 10.6644 23.6877 10.5146C25.7194 9.85699 27.8432 9.52348 29.9999 9.52348C30.6145 9.52348 31.2226 9.55231 31.8237 9.60563C31.8479 9.60891 31.8724 9.6109 31.8973 9.61219C42.3019 10.5728 50.4765 19.3489 50.4765 30C50.4765 30.6148 50.4477 31.2227 50.3944 31.8238C50.3911 31.848 50.3891 31.8725 50.3878 31.8974C49.4849 41.6774 41.6761 49.4858 31.8959 50.388C31.8718 50.3892 31.8482 50.3912 31.8247 50.3944C31.2233 50.4477 30.615 50.4766 30 50.4766C19.3485 50.4766 10.572 42.3012 9.61207 31.896C9.61078 31.872 9.60891 31.8483 9.60574 31.8248C9.55242 31.2234 9.52348 30.6151 9.52348 30.0001C9.52348 25.1518 11.2173 20.5843 14.1831 16.9846C14.1928 16.9757 14.2029 16.9676 14.2123 16.9581C14.2602 16.9103 14.3006 16.8579 14.3352 16.8029C15.0968 15.9001 15.939 15.06 16.8562 14.2939C16.8906 14.2685 16.924 14.2412 16.9552 14.21C18.0489 13.3083 19.2462 12.5105 20.5369 11.8365C20.9672 11.6119 21.1338 11.0809 20.9092 10.6506C20.6845 10.2203 20.1536 10.0536 19.7232 10.2783C18.5394 10.8963 17.428 11.6104 16.3956 12.4072L12.7753 8.78695C12.2426 8.25422 11.5344 7.9609 10.781 7.9609C10.0276 7.9609 9.31945 8.25422 8.78684 8.78695C8.2541 9.31969 7.96078 10.0279 7.96078 10.7812C7.96078 11.5346 8.25422 12.2428 8.78684 12.7755L12.4036 16.3924C10.0038 19.4925 8.44688 23.2043 7.94379 27.1799H2.82035C1.26516 27.1796 0 28.4449 0 30C0 31.5552 1.26516 32.8204 2.82035 32.8204H7.94379C8.45543 36.8441 10.0475 40.5347 12.4179 43.5936L8.78684 47.2247C8.2541 47.7574 7.96078 48.4656 7.96078 49.219C7.96078 49.9724 8.25422 50.6805 8.78684 51.2133C9.31957 51.746 10.0277 52.0393 10.7811 52.0393C11.5345 52.0393 12.2427 51.746 12.7754 51.2133L16.4065 47.5822C19.4653 49.9526 23.156 51.5448 27.1798 52.0563V57.1798C27.1796 58.7348 28.4448 60 30 60C31.5551 60 32.8204 58.7348 32.8204 57.1796V52.0562C36.8441 51.5446 40.5347 49.9525 43.5936 47.5821L47.2247 51.2132C47.7574 51.7459 48.4656 52.0392 49.219 52.0392C49.9724 52.0392 50.6805 51.7459 51.2133 51.2132C52.313 50.1136 52.313 48.3243 51.2133 47.2247L47.5822 43.5936C49.9526 40.5348 51.5448 36.8441 52.0563 32.8204H57.1798C58.7348 32.8204 60 31.5552 60 30C60 28.4449 58.7348 27.1796 57.1796 27.1796ZM31.0625 7.79168C30.7104 7.77504 30.3563 7.76578 30 7.76578C29.6449 7.76578 29.2908 7.77516 28.9375 7.7918V2.82035C28.9375 2.23441 29.4141 1.75781 30 1.75781C30.5858 1.75781 31.0625 2.23441 31.0625 2.82035V7.79168ZM44.9455 13.5518L48.4677 10.0297C48.6683 9.82898 48.9352 9.71848 49.219 9.71848C49.5028 9.71848 49.7695 9.82898 49.9703 10.0297C50.1709 10.2304 50.2815 10.4972 50.2815 10.781C50.2815 11.0648 50.171 11.3317 49.9703 11.5323L46.4482 15.0544C45.9712 14.5302 45.4698 14.0286 44.9455 13.5518ZM10.0297 11.5323C9.82898 11.3317 9.71848 11.0648 9.71848 10.781C9.71848 10.4972 9.82898 10.2305 10.0297 10.0297C10.2304 9.82898 10.4972 9.71848 10.781 9.71848C11.0648 9.71848 11.3316 9.82898 11.5323 10.0297L15.0421 13.5395C14.5153 14.0171 14.0141 14.5186 13.5384 15.0411L10.0297 11.5323ZM2.82035 31.0625C2.23441 31.0625 1.75781 30.5859 1.75781 30C1.75781 29.4142 2.23441 28.9375 2.82035 28.9375H7.79133C7.77469 29.2901 7.76566 29.6443 7.76566 30C7.76566 30.3563 7.77492 30.7103 7.79156 31.0625H2.82035ZM11.5323 49.9703C11.3317 50.171 11.0648 50.2815 10.781 50.2815C10.4972 50.2815 10.2305 50.171 10.0297 49.9703C9.82898 49.7696 9.71848 49.5028 9.71848 49.219C9.71848 48.9353 9.82898 48.6684 10.0297 48.4677L13.5518 44.9456C14.0286 45.4699 14.5301 45.9715 15.0545 46.4483L11.5323 49.9703ZM31.0625 57.1796C31.0625 57.7655 30.5859 58.2422 30 58.2422C29.4141 58.2422 28.9375 57.7656 28.9375 57.1796V52.2083C29.2896 52.225 29.6437 52.2342 30 52.2342C30.3563 52.2342 30.7103 52.225 31.0625 52.2083V57.1796ZM49.9703 48.4676C50.3845 48.8818 50.3845 49.5559 49.9702 49.9702C49.7695 50.1709 49.5027 50.2814 49.2189 50.2814C48.935 50.2814 48.6683 50.1709 48.4676 49.9702L44.9455 46.4481C45.4698 45.9712 45.9714 45.4697 46.4482 44.9454L49.9703 48.4676ZM57.1796 31.0625H52.2083C52.225 30.7104 52.2342 30.3563 52.2342 30C52.2342 29.6437 52.225 29.2897 52.2083 28.9375H57.1796C57.7656 28.9375 58.2422 29.4141 58.2422 30C58.2422 30.5859 57.7656 31.0625 57.1796 31.0625Z" fill="url(#paint1_linear)"/>
<path d="M48.2423 27.9979C48.2406 27.9715 48.2375 27.9456 48.2334 27.9199C47.8395 24.4443 46.4719 21.2598 44.4091 18.6475C44.3722 18.5849 44.3279 18.5256 44.2743 18.4718C44.2665 18.4641 44.2581 18.4574 44.2501 18.45C43.4459 17.4596 42.5407 16.5545 41.5504 15.7502C41.543 15.7424 41.5364 15.7339 41.5287 15.7263C41.475 15.6727 41.4157 15.6284 41.3532 15.5916C38.7404 13.5285 35.5553 12.1607 32.079 11.7669C32.0542 11.763 32.029 11.76 32.0036 11.7582C31.3454 11.6865 30.6772 11.6484 30.0004 11.6484C29.3237 11.6484 28.6559 11.6864 27.9981 11.7581C27.9717 11.7599 27.9458 11.7629 27.9202 11.767C24.4445 12.161 21.2599 13.5287 18.6476 15.5914C18.5846 15.6281 18.5254 15.6724 18.4717 15.7261C18.4639 15.7338 18.4573 15.7423 18.4499 15.7502C17.4595 16.5545 16.5544 17.4596 15.7501 18.45C15.7423 18.4574 15.7338 18.4639 15.7262 18.4717C15.6725 18.5254 15.6284 18.5846 15.5914 18.647C13.5278 21.2605 12.1597 24.4468 11.7664 27.9243C11.7628 27.9476 11.7601 27.9711 11.7584 27.995C11.6864 28.6538 11.6484 29.3224 11.6484 30C11.6484 30.6778 11.6865 31.3468 11.7585 32.0059C11.7601 32.029 11.7629 32.0517 11.7663 32.0742C12.1594 35.5519 13.5272 38.7384 15.5909 41.3522C15.6279 41.415 15.6723 41.4745 15.7262 41.5284C15.7342 41.5364 15.7427 41.5432 15.7509 41.5507C16.5548 42.5405 17.4594 43.4452 18.4493 44.2491C18.4569 44.2573 18.4638 44.2659 18.4718 44.274C18.5257 44.3279 18.5855 44.3725 18.6483 44.4095C21.2616 46.4727 24.4475 47.8404 27.9245 48.2337C27.9478 48.2373 27.9714 48.2401 27.9953 48.2418C28.654 48.3137 29.3227 48.3518 30.0002 48.3518C30.678 48.3518 31.3471 48.3137 32.0061 48.2418C32.0292 48.2401 32.052 48.2373 32.0745 48.2339C35.5522 47.8409 38.7387 46.473 41.3524 44.4094C41.4151 44.3723 41.4748 44.3279 41.5287 44.2741C41.5366 44.2662 41.5434 44.2576 41.5511 44.2494C42.5408 43.4455 43.4455 42.5409 44.2494 41.5511C44.2576 41.5434 44.2663 41.5365 44.2744 41.5286C44.3284 41.4745 44.3728 41.4149 44.4098 41.352C46.4725 38.7394 47.8399 35.5546 48.2336 32.0788C48.2374 32.0539 48.2405 32.0288 48.2422 32.0033C48.3139 31.3452 48.352 30.677 48.352 30.0001C48.352 29.3235 48.3141 28.6556 48.2423 27.9979ZM43.5529 20.4357C44.9503 22.4101 45.9271 24.702 46.353 27.1798H36.8088L43.5529 20.4357ZM42.4549 19.0478L35.4284 26.0743C35.01 25.4975 34.5025 24.99 33.9257 24.5716L40.9523 17.5451C41.4845 18.0136 41.9864 18.5156 42.4549 19.0478ZM32.8204 13.6468C35.2982 14.0729 37.59 15.0497 39.5644 16.4471L32.8204 23.1912V13.6468ZM28.9375 13.4411C29.2889 13.4188 29.6429 13.406 30 13.406C30.357 13.406 30.7111 13.4187 31.0625 13.4411V23.382C30.7162 23.3265 30.3616 23.2969 30 23.2969C29.6384 23.2969 29.2837 23.3266 28.9375 23.382V13.4411ZM27.1796 13.6468V23.1911L20.4356 16.447C22.4101 15.0497 24.7018 14.0729 27.1796 13.6468ZM19.0478 17.5451L26.0743 24.5716C25.4975 24.9899 24.99 25.4975 24.5716 26.0743L17.5451 19.0477C18.0136 18.5155 18.5155 18.0136 19.0478 17.5451ZM16.4471 20.4356L23.1911 27.1796H13.6468C14.0729 24.7018 15.0497 22.41 16.4471 20.4356ZM13.406 30C13.406 29.643 13.4187 29.2889 13.4411 28.9375H23.382C23.3265 29.2838 23.2969 29.6384 23.2969 30C23.2969 30.3616 23.3265 30.7162 23.382 31.0625H13.4411C13.4187 30.7111 13.406 30.357 13.406 30ZM16.4471 39.5644C15.0497 37.59 14.0729 35.2982 13.6468 32.8204H23.1911L16.4471 39.5644ZM17.5451 40.9523L24.5716 33.9257C24.99 34.5025 25.4974 35.01 26.0743 35.4284L19.0478 42.4549C18.5156 41.9864 18.0136 41.4845 17.5451 40.9523ZM27.1796 46.3532C24.7018 45.9271 22.41 44.9503 20.4356 43.553L27.1796 36.8089V46.3532ZM31.0625 46.5589C30.7111 46.5812 30.357 46.594 30 46.594C29.643 46.594 29.2889 46.5813 28.9375 46.5589V36.618C29.2837 36.6735 29.6384 36.7031 30 36.7031C30.3616 36.7031 30.7162 36.6734 31.0625 36.618V46.5589ZM30 34.9453C27.2732 34.9453 25.0547 32.7268 25.0547 30C25.0547 27.2732 27.2732 25.0547 30 25.0547C32.7268 25.0547 34.9453 27.2732 34.9453 30C34.9453 32.7268 32.7268 34.9453 30 34.9453ZM32.8204 46.3532V36.8089L39.5644 43.5529C37.59 44.9503 35.2982 45.9271 32.8204 46.3532ZM40.9522 42.4549L33.9255 35.4284C34.5023 35.0101 35.0099 34.5025 35.4282 33.9257L42.4548 40.9522C41.9864 41.4844 41.4845 41.9864 40.9522 42.4549ZM43.5529 39.5644L36.8088 32.8204H46.353C45.9271 35.2982 44.9503 37.5899 43.5529 39.5644ZM46.5589 31.0625H36.618C36.6735 30.7162 36.7031 30.3616 36.7031 30C36.7031 29.6384 36.6735 29.2838 36.618 28.9375H46.5589C46.5812 29.2889 46.594 29.643 46.594 30C46.594 30.357 46.5813 30.7111 46.5589 31.0625Z" fill="url(#paint2_linear)"/>
<defs>
<linearGradient id="paint0_linear" x1="32.8213" y1="27.1797" x2="27.1206" y2="29.1802" gradientUnits="userSpaceOnUse">
<stop stop-color="#4AB1FE"/>
<stop offset="1" stop-color="#07EBFE"/>
</linearGradient>
<linearGradient id="paint1_linear" x1="60" y1="9.14018e-07" x2="-0.640042" y2="21.2806" gradientUnits="userSpaceOnUse">
<stop stop-color="#4AB1FE"/>
<stop offset="1" stop-color="#07EBFE"/>
</linearGradient>
<linearGradient id="paint2_linear" x1="48.352" y1="11.6484" x2="11.257" y2="24.6664" gradientUnits="userSpaceOnUse">
<stop stop-color="#4AB1FE"/>
<stop offset="1" stop-color="#07EBFE"/>
</linearGradient>
</defs>
</svg>
