<svg width="70" height="70" viewBox="0 0 70 70" fill="none" xmlns="http://www.w3.org/2000/svg">
<path d="M67.8125 31.7188H65.4486C64.742 25.1422 61.9228 18.9719 57.4137 14.1326L60.0619 11.4844H63.9844C64.2745 11.4844 64.5527 11.3691 64.7578 11.164C64.9629 10.9589 65.0781 10.6807 65.0781 10.3906C65.0781 10.1005 64.9629 9.82234 64.7578 9.61723C64.5527 9.41211 64.2745 9.29688 63.9844 9.29688H62.2494L63.89 7.65625H67.8125C68.1026 7.65625 68.3808 7.54102 68.5859 7.3359C68.791 7.13078 68.9062 6.85258 68.9062 6.5625C68.9062 6.27242 68.791 5.99422 68.5859 5.7891C68.3808 5.58398 68.1026 5.46875 67.8125 5.46875H66.0775L66.3988 5.14883C66.6041 4.9436 66.7194 4.66524 66.7194 4.375C66.7194 4.08476 66.6041 3.8064 66.3988 3.60117C66.1936 3.39594 65.9152 3.28064 65.625 3.28064C65.3348 3.28064 65.0564 3.39594 64.8512 3.60117L64.5312 3.92246V2.1875C64.5312 1.89742 64.416 1.61922 64.2109 1.4141C64.0058 1.20898 63.7276 1.09375 63.4375 1.09375C63.1474 1.09375 62.8692 1.20898 62.6641 1.4141C62.459 1.61922 62.3438 1.89742 62.3438 2.1875V6.10996L60.7031 7.75059V6.01562C60.7031 5.72554 60.5879 5.44735 60.3828 5.24223C60.1777 5.03711 59.8995 4.92188 59.6094 4.92188C59.3193 4.92188 59.0411 5.03711 58.836 5.24223C58.6309 5.44735 58.5156 5.72554 58.5156 6.01562V9.93809L55.8674 12.5863C51.0281 8.07723 44.8578 5.25805 38.2812 4.55137V2.1875C38.2812 1.89742 38.166 1.61922 37.9609 1.4141C37.7558 1.20898 37.4776 1.09375 37.1875 1.09375H32.8125C32.5224 1.09375 32.2442 1.20898 32.0391 1.4141C31.834 1.61922 31.7188 1.89742 31.7188 2.1875V4.55137C24.7703 5.30035 18.2869 8.40333 13.3451 13.3451C8.40333 18.2869 5.30035 24.7703 4.55137 31.7188H2.1875C1.89742 31.7188 1.61922 31.834 1.4141 32.0391C1.20898 32.2442 1.09375 32.5224 1.09375 32.8125V37.1875C1.09375 37.4776 1.20898 37.7558 1.4141 37.9609C1.61922 38.166 1.89742 38.2812 2.1875 38.2812H4.55137C5.30035 45.2298 8.40333 51.7131 13.3451 56.6549C18.2869 61.5967 24.7703 64.6996 31.7188 65.4486V67.8125C31.7188 68.1026 31.834 68.3808 32.0391 68.5859C32.2442 68.791 32.5224 68.9062 32.8125 68.9062H37.1875C37.4776 68.9062 37.7558 68.791 37.9609 68.5859C38.166 68.3808 38.2812 68.1026 38.2812 67.8125V65.4486C45.2298 64.6996 51.7131 61.5967 56.6549 56.6549C61.5967 51.7131 64.6996 45.2298 65.4486 38.2812H67.8125C68.1026 38.2812 68.3808 38.166 68.5859 37.9609C68.791 37.7558 68.9062 37.4776 68.9062 37.1875V32.8125C68.9062 32.5224 68.791 32.2442 68.5859 32.0391C68.3808 31.834 68.1026 31.7188 67.8125 31.7188ZM33.9062 3.28125H36.0938V7.65625H33.9062V3.28125ZM3.28125 36.0938V33.9062H7.65625V36.0938H3.28125ZM36.0938 66.7188H33.9062V62.3438H36.0938V66.7188ZM55.1086 55.1086C50.5782 59.6423 44.6479 62.511 38.2812 63.2488V61.25C38.2812 60.9599 38.166 60.6817 37.9609 60.4766C37.7558 60.2715 37.4776 60.1562 37.1875 60.1562H32.8125C32.5224 60.1562 32.2442 60.2715 32.0391 60.4766C31.834 60.6817 31.7188 60.9599 31.7188 61.25V63.2488C25.3527 62.5088 19.4232 59.6404 14.8914 55.1086C10.3596 50.5768 7.49121 44.6473 6.75117 38.2812H8.75C9.04008 38.2812 9.31828 38.166 9.5234 37.9609C9.72852 37.7558 9.84375 37.4776 9.84375 37.1875V32.8125C9.84375 32.5224 9.72852 32.2442 9.5234 32.0391C9.31828 31.834 9.04008 31.7188 8.75 31.7188H6.75117C7.49121 25.3527 10.3596 19.4232 14.8914 14.8914C19.4232 10.3596 25.3527 7.49121 31.7188 6.75117V8.75C31.7188 9.04008 31.834 9.31828 32.0391 9.5234C32.2442 9.72852 32.5224 9.84375 32.8125 9.84375H37.1875C37.4776 9.84375 37.7558 9.72852 37.9609 9.5234C38.166 9.31828 38.2812 9.04008 38.2812 8.75V6.75117C44.2759 7.44615 49.8934 10.032 54.3197 14.134L50.4424 18.0113C46.2221 14.1599 40.7135 12.0267 35 12.0312C22.3344 12.0312 12.0312 22.3344 12.0312 35C12.0312 47.6656 22.3344 57.9688 35 57.9688C47.6656 57.9688 57.9688 47.6656 57.9688 35C57.9733 29.2865 55.8401 23.778 51.9887 19.5576L55.866 15.6803C59.968 20.1066 62.5538 25.7241 63.2488 31.7188H61.25C60.9599 31.7188 60.6817 31.834 60.4766 32.0391C60.2715 32.2442 60.1562 32.5224 60.1562 32.8125V37.1875C60.1562 37.4776 60.2715 37.7558 60.4766 37.9609C60.6817 38.166 60.9599 38.2812 61.25 38.2812H63.2488C62.511 44.6479 59.6423 50.5782 55.1086 55.1086ZM32.8125 31.7188C32.5224 31.7188 32.2442 31.834 32.0391 32.0391C31.834 32.2442 31.7188 32.5224 31.7188 32.8125V37.1875C31.7188 37.4776 31.834 37.7558 32.0391 37.9609C32.2442 38.166 32.5224 38.2812 32.8125 38.2812H37.1875C37.4776 38.2812 37.7558 38.166 37.9609 37.9609C38.166 37.7558 38.2812 37.4776 38.2812 37.1875C38.2812 36.8974 38.166 36.6192 37.9609 36.4141C37.7558 36.209 37.4776 36.0938 37.1875 36.0938H35.4525L40.3457 31.2006C41.3011 32.5438 41.717 34.1969 41.5109 35.8322C41.3049 37.4676 40.4919 38.9659 39.2332 40.0301C37.9744 41.0942 36.3618 41.6467 34.7149 41.5778C33.0681 41.509 31.5072 40.8239 30.3416 39.6584C29.1761 38.4928 28.491 36.9319 28.4222 35.2851C28.3533 33.6382 28.9058 32.0256 29.9699 30.7668C31.0341 29.5081 32.5324 28.6951 34.1678 28.4891C35.8031 28.283 37.4562 28.6989 38.7994 29.6543L33.9062 34.5475V32.8125C33.9062 32.5224 33.791 32.2442 33.5859 32.0391C33.3808 31.834 33.1026 31.7188 32.8125 31.7188ZM40.3607 28.0916C38.5998 26.7244 36.3841 26.0797 34.1645 26.2887C31.945 26.4977 29.8885 27.5448 28.4138 29.2167C26.9391 30.8887 26.1571 33.0598 26.2268 35.288C26.2966 37.5163 27.213 39.6342 28.7894 41.2106C30.3658 42.787 32.4837 43.7034 34.712 43.7732C36.9402 43.8429 39.1113 43.0609 40.7833 41.5862C42.4552 40.1115 43.5023 38.055 43.7113 35.8355C43.9203 33.6159 43.2756 31.4002 41.9084 29.6393L50.4396 21.1066C53.8811 24.9153 55.7848 29.8668 55.7812 35C55.7812 46.4584 46.4584 55.7812 35 55.7812C23.5416 55.7812 14.2188 46.4584 14.2188 35C14.2188 23.5416 23.5416 14.2188 35 14.2188C40.1332 14.2152 45.0847 16.1189 48.8934 19.5604L40.3607 28.0916ZM66.7188 36.0938H62.3438V33.9062H66.7188V36.0938Z" fill="url(#paint0_linear)"/>
<defs>
<linearGradient id="paint0_linear" x1="57.2063" y1="-2.71954" x2="0.332487" y2="53.823" gradientUnits="userSpaceOnUse">
<stop stop-color="#4AB1FE"/>
<stop offset="1" stop-color="#07EBFE"/>
</linearGradient>
</defs>
</svg>
