<svg width="60" height="60" viewBox="0 0 60 60" fill="none" xmlns="http://www.w3.org/2000/svg">
<path fill-rule="evenodd" clip-rule="evenodd" d="M31.2864 2.14631C29.7064 3.37857 28.4676 4.43046 28.3775 4.61634C28.0865 5.21583 28.3217 5.47472 31.1791 7.69956C32.6533 8.84732 33.9964 9.83732 34.164 9.89967C34.5515 10.0438 35.033 9.79396 35.2542 9.33382C35.5175 8.78602 35.2686 8.44579 33.7398 7.26392C32.9717 6.67006 32.3432 6.17243 32.3432 6.15824C32.3432 6.08546 33.9625 6.39101 35.0971 6.6778C48.9548 10.1804 56.7472 24.9906 51.7791 38.3835C49.8442 43.5996 46.1828 47.9321 41.2496 50.843C39.4305 51.9165 36.9701 52.9124 34.9538 53.3917C32.4946 53.9763 33.3305 53.9479 16.444 54.0205L0.603458 54.0886L0.301108 54.3727C-0.248864 54.8895 -0.00967929 55.7817 0.728266 55.9658C0.87487 56.0024 7.92959 56.0144 16.4053 55.9927C33.3793 55.9491 32.4967 55.9854 35.6404 55.2034C44.4764 53.0055 51.7808 45.8973 54.2534 37.0905C54.9568 34.5849 55.133 33.1658 55.133 30.0036C55.133 26.771 54.9556 25.3976 54.1972 22.7635C51.5901 13.7067 44.136 6.70417 34.9055 4.64048C34.1555 4.47288 33.2179 4.30177 32.8218 4.2604C32.4257 4.21903 32.0775 4.14624 32.0482 4.09878C32.0189 4.05143 32.6401 3.51136 33.4288 2.89887C34.2175 2.28637 34.9639 1.67294 35.0874 1.53569C35.5893 0.978165 35.152 0 34.4007 0C34.1088 0 33.5019 0.418176 31.2864 2.14631ZM21.6203 5.14433C12.2644 8.03464 5.38106 15.8337 3.61665 25.543C3.26086 27.5005 3.18269 31.1708 3.45152 33.2922C3.89767 36.8133 5.20293 40.5634 6.99828 43.4818C8.37678 45.7228 11.0765 48.8607 12.5264 49.9073C13.128 50.3415 13.4437 50.372 13.8699 50.0366C14.1116 49.8465 14.1787 49.6917 14.1787 49.3249C14.1787 48.9017 14.1074 48.7887 13.4463 48.1643C13.0435 47.7837 12.678 47.4711 12.6341 47.4696C12.4907 47.4643 10.426 45.0872 9.73009 44.1264C5.53141 38.3288 4.13416 30.7801 5.97509 23.8409C8.06728 15.9547 14.04 9.62624 21.7375 7.13957C23.3517 6.61814 23.7883 6.32994 23.7883 5.78589C23.7883 5.43769 23.2017 4.80222 22.8891 4.81195C22.7713 4.81558 22.2004 4.96513 21.6203 5.14433ZM26.9613 13.3632C21.464 14.1314 16.5774 17.7069 14.1118 22.7654C13.0038 25.0386 12.4967 27.3109 12.4967 30.0036C12.4967 34.4465 14.0541 38.3429 17.1008 41.5226C19.4956 44.022 22.2341 45.5946 25.5642 46.3827C26.7753 46.6694 27.1028 46.6974 29.2376 46.6974C31.3725 46.6974 31.7 46.6694 32.9111 46.3827C38.4018 45.0833 42.8017 41.2781 44.8885 36.0245C45.7683 33.8093 46.1701 30.9622 45.9397 28.5736C45.2208 21.119 39.9275 15.1508 32.6362 13.5737C31.4257 13.3119 28.1883 13.1919 26.9613 13.3632ZM32.1983 15.465C37.762 16.5989 42.187 20.8137 43.6122 26.3367C44.2922 28.9718 44.1951 32.0159 43.3484 34.6073C41.9135 38.9983 38.3309 42.6259 34.01 44.0628C32.1993 44.6649 31.2832 44.8078 29.2376 44.8077C27.7139 44.8077 27.1435 44.758 26.1932 44.5427C23.134 43.8497 20.8934 42.6191 18.7429 40.4509C15.8556 37.5395 14.4141 34.0606 14.4141 30.0036C14.4141 25.952 15.9018 22.388 18.7956 19.5074C21.1841 17.1297 24.0827 15.7024 27.4451 15.2483C28.6622 15.0839 30.8086 15.1817 32.1983 15.465ZM34.7403 21.6184C34.2679 22.0908 34.351 22.5266 35.0555 23.2716L35.6585 23.9091H34.4912C31.6127 23.9091 30.2674 24.6571 28.6669 27.147L27.9794 28.2167L27.1744 27.0126C25.5055 24.5167 24.1678 23.8256 21.2035 23.9278C20.1913 23.9627 20.0112 24.0009 19.7835 24.2289C19.3991 24.6136 19.428 25.2646 19.8456 25.6238C20.1483 25.8841 20.2618 25.9017 21.6562 25.9041C23.9166 25.908 24.3327 26.1655 25.8669 28.5093L26.845 30.0036L25.8669 31.4979C24.3327 33.8417 23.9166 34.0992 21.6562 34.1031C20.2618 34.1056 20.1483 34.1231 19.8456 34.3835C19.428 34.7427 19.3991 35.3936 19.7833 35.7784C20.0149 36.0102 20.1864 36.0438 21.3093 36.0787C24.1906 36.1677 25.5702 35.4442 27.1828 32.9982C27.5888 32.3826 27.9535 31.8812 27.9933 31.8841C28.0332 31.8872 28.3294 32.3152 28.6517 32.8353C28.974 33.3556 29.5541 34.1047 29.9409 34.5002C31.1114 35.6967 32.2542 36.0981 34.4912 36.0981H35.6585L35.0555 36.7357C34.596 37.2216 34.4526 37.4599 34.4526 37.7373C34.4526 38.2287 34.9069 38.6765 35.4056 38.6765C35.7335 38.6765 35.9918 38.4695 37.3679 37.1035C38.8272 35.6551 38.9527 35.4965 38.9527 35.1019C38.9527 34.7073 38.8272 34.5487 37.3679 33.1003C35.9918 31.7343 35.7335 31.5272 35.4056 31.5272C34.9069 31.5272 34.4526 31.9751 34.4526 32.4665C34.4526 32.7439 34.596 32.9822 35.0555 33.4681L35.6585 34.1057H34.2315C32.0442 34.1057 31.6284 33.8523 30.1636 31.6269C29.6221 30.8042 29.179 30.0765 29.179 30.01C29.179 29.794 30.8912 27.2443 31.3325 26.8028C32.0802 26.0552 32.3441 25.9712 34.1002 25.9217L35.6816 25.8772L35.067 26.527C34.5973 27.0238 34.4526 27.2625 34.4526 27.5407C34.4526 28.0315 34.9071 28.48 35.4044 28.48C35.7302 28.48 35.9899 28.273 37.3343 26.9416C38.1887 26.0954 38.9194 25.2775 38.958 25.1239C39.0688 24.6819 38.7885 24.2982 37.2352 22.7664C35.983 21.5315 35.7268 21.3307 35.4036 21.3307C35.161 21.3307 34.926 21.4326 34.7403 21.6184ZM53.4096 50.2285C53.0544 50.4213 52.9038 50.8258 53.0179 51.2807C53.0679 51.4795 53.5964 51.9764 54.6076 52.775L56.1224 53.9714L50.922 54.03L45.7215 54.0886L45.4192 54.3727C45.0514 54.7184 45.0174 55.2875 45.3408 55.6871L45.5648 55.9638L50.8741 56.0224L56.1834 56.081L54.6496 57.2759C53.8059 57.9331 53.0826 58.5571 53.0422 58.6626C52.8952 59.0456 52.9747 59.438 53.2563 59.7195C53.6599 60.1233 54.1289 60.092 54.7467 59.62C57.1409 57.7912 59.6266 55.8326 59.7949 55.6423C59.9077 55.5148 60 55.2421 60 55.0361C60 54.5689 59.8598 54.4357 57.1288 52.307C53.9851 49.8565 54.0392 49.8869 53.4096 50.2285Z" fill="#1F2B45"/>
</svg>
