<svg width="40" height="40" viewBox="0 0 40 40" fill="none" xmlns="http://www.w3.org/2000/svg">
<g clip-path="url(#clip0)">
<path d="M18.7501 0C19.5834 0 20.4167 0 21.2501 0C21.9311 0.0888653 22.6161 0.154915 23.2925 0.270346C27.0492 0.911468 30.3724 2.48271 33.2189 5.01531C36.6993 8.11185 38.8756 11.9577 39.693 16.5542C39.8223 17.2813 39.8989 18.0178 40 18.7501C40 19.5834 40 20.4167 40 21.2501C39.9779 21.3507 39.9434 21.4503 39.9356 21.552C39.6987 24.6512 38.8049 27.5509 37.1847 30.1999C34.0203 35.3734 29.4484 38.549 23.4826 39.688C22.7454 39.8287 21.9945 39.8978 21.2499 40.0001C20.4166 40.0001 19.5833 40.0001 18.7499 40.0001C18.2621 39.9398 17.773 39.8875 17.2864 39.8179C13.306 39.2481 9.78924 37.6543 6.78262 34.9833C3.30968 31.8982 1.14139 28.0621 0.311601 23.4845C0.177626 22.745 0.102409 21.995 0 21.2501C0 20.4167 0 19.5834 0 18.7501C0.0597991 18.2622 0.11043 17.7728 0.180856 17.2865C0.814268 12.9136 2.65731 9.12979 5.75916 5.98106C8.74943 2.94568 12.3533 1.04836 16.5546 0.307434C17.2818 0.179189 18.018 0.101158 18.7501 0ZM19.992 2.00536C10.0682 2.01411 2.01504 10.066 2.0065 19.988C1.99796 29.9186 10.0809 38.0039 20.008 37.9945C29.9341 37.9852 37.9838 29.9362 37.9935 20.0109C38.0031 10.0789 29.9226 1.9966 19.992 2.00536Z" fill="white"/>
<path d="M17.947 25.5484C17.4164 25.5351 16.9419 25.3495 16.5555 24.9645C15.3846 23.7981 14.2138 22.6315 13.0508 21.4574C12.6089 21.0114 12.6014 20.3981 13.0078 19.996C13.4219 19.5866 14.0069 19.6018 14.4683 20.0565C15.3397 20.915 16.2 21.7848 17.0672 22.6475C17.6864 23.2636 18.2402 23.2413 18.8291 22.5861C21.0299 20.1377 23.2276 17.6864 25.4401 15.2487C25.6298 15.0397 25.9016 14.8559 26.1694 14.7786C26.5827 14.6592 26.9846 14.8863 27.1922 15.2479C27.4113 15.6297 27.3834 16.0472 27.0707 16.4068C26.4903 17.0745 25.8933 17.7278 25.3015 18.3856C23.3953 20.504 21.485 22.6189 19.5841 24.7418C19.1448 25.2322 18.6295 25.5357 17.947 25.5484Z" fill="white"/>
</g>
<defs>
<clipPath id="clip0">
<rect width="40" height="40" fill="white"/>
</clipPath>
</defs>
</svg>
