<svg width="80" height="80" viewBox="0 0 80 80" fill="none" xmlns="http://www.w3.org/2000/svg">
<g clip-path="url(#clip0_716:2656)">
<mask id="path-1-inside-1_716:2656" fill="white">
<path fill-rule="evenodd" clip-rule="evenodd" d="M74.0176 56.2335L70.101 54.6622V53.6619C70.8699 53.2346 71.5602 52.6786 72.1411 52.0223C74.6185 52.3148 76.9888 51.3258 78.5233 49.3363C80.1101 47.2789 80.4403 44.6275 79.4066 42.2437L77.6479 38.1885C77.5157 37.8838 77.4247 37.5624 77.3773 37.2336C76.9984 34.5995 75.6819 32.1891 73.6706 30.4464C71.6592 28.7036 69.0859 27.744 66.4247 27.744C63.7634 27.744 61.1901 28.7036 59.1788 30.4464C57.1676 32.1891 55.851 34.5994 55.472 37.2336C55.4246 37.5625 55.3337 37.884 55.2014 38.1885L53.4429 42.2437C52.4092 44.6274 52.7393 47.2788 54.3262 49.3363C55.6836 51.0963 57.6949 52.0771 59.8556 52.0769C60.1343 52.0769 60.4158 52.0604 60.6987 52.0272C61.2259 52.625 61.8441 53.1398 62.5326 53.5496V54.6621L58.6162 56.2335C58.3609 56.3359 58.1117 56.4518 57.8687 56.58C57.111 55.1862 56.0291 53.9674 54.6829 53.0415L49.5817 49.5333C49.6112 48.889 49.3535 48.2401 48.8287 47.7948L46.7559 46.036C46.5594 45.8691 46.3386 45.7431 46.1053 45.6574V43.2894C48.2963 41.7002 49.8499 39.2857 50.3053 36.505H50.4301C52.6603 36.505 54.4747 34.6906 54.4747 32.4606C54.4747 31.5085 54.1431 30.6326 53.5905 29.9409L54.4266 23.9973C55.0292 19.7125 52.0378 15.709 47.7579 15.0724L47.5915 15.0477C46.223 12.8141 44.1034 11.2026 41.5602 10.4815L41.2541 10.3946C37.8823 9.43861 34.2757 10.0093 31.359 11.9606C30.822 12.3198 30.6779 13.0462 31.0371 13.583C31.3962 14.1198 32.1225 14.2641 32.6596 13.9047C35.0054 12.3355 37.9052 11.8765 40.6159 12.6452L40.9221 12.7321C43.0501 13.3355 44.797 14.7418 45.8409 16.6918C46.5591 18.0335 46.8762 19.509 46.7846 20.985L45.9917 20.3035C45.267 19.6806 44.2014 19.664 43.4581 20.2645L42.418 21.1046H36.4809C32.6283 21.1046 29.4939 24.239 29.4939 28.0916V28.4165C29.1837 28.4176 28.8821 28.4547 28.592 28.5222C27.2696 24.7995 27.6425 20.6052 29.63 17.1744C29.9538 16.6153 29.7632 15.8997 29.2043 15.5758C28.6453 15.2522 27.9298 15.4426 27.6059 16.0016C25.2023 20.1509 24.8125 25.2524 26.5405 29.7171C25.8732 30.4386 25.4644 31.4026 25.4644 32.4606C25.4644 34.6906 27.2788 36.505 29.509 36.505H29.6338C30.0892 39.2857 31.6428 41.7002 33.8338 43.2894V45.6574C33.6005 45.7429 33.3797 45.8691 33.1833 46.0358L31.1104 47.7948C30.5856 48.2401 30.3279 48.8892 30.3574 49.5333L25.2562 53.0415C24.2196 53.7544 23.3394 54.6408 22.6432 55.6472C22.192 55.398 21.7218 55.185 21.2349 55.0125L17.7714 53.7857V52.8639C19.5356 51.7739 20.8038 49.957 21.1571 47.8341H21.6805C23.7327 47.8341 25.4022 46.1646 25.4022 44.1125C25.4022 43.1912 25.065 42.3477 24.5084 41.6971L24.7173 39.225C25.0075 35.6652 23.4542 32.2884 20.562 30.1928C17.6697 28.0969 13.9772 27.6723 10.6846 29.0565L8.35323 30.0367C4.74331 30.8336 2.3305 34.2928 2.84594 37.9671L3.36746 41.6851C2.80477 42.3373 2.46338 43.1855 2.46338 44.1125C2.46338 46.1646 4.13289 47.8341 6.18512 47.8341H6.70851C7.03883 49.8193 8.16967 51.5362 9.75761 52.6421V53.7857L6.29414 55.0123C5.80911 55.1842 5.33126 55.3994 4.874 55.6524C4.30865 55.9649 4.10373 56.6765 4.41626 57.2419C4.62961 57.6279 5.02902 57.8458 5.4409 57.8458C5.63226 57.8458 5.82642 57.7986 6.00577 57.6995C6.3509 57.5086 6.71069 57.3464 7.07485 57.2174L10.0677 56.1574C10.6737 57.6018 12.1023 58.619 13.7643 58.619C15.4263 58.619 16.8549 57.6018 17.4609 56.1574L20.4537 57.2176C20.8302 57.3507 21.1936 57.5165 21.5418 57.7112C21.0772 58.8889 20.8282 60.1581 20.8282 61.4605V68.3996C20.8282 69.0458 21.3519 69.5693 21.9978 69.5693C22.6438 69.5693 23.1675 69.0458 23.1675 68.3996V61.4605C23.1675 58.866 24.4439 56.4393 26.5816 54.9691L31.453 51.6189L33.4497 54.2885C33.8789 54.8625 34.5519 55.1858 35.246 55.1858C35.4622 55.1858 35.6805 55.1544 35.894 55.0894L38.7996 54.2051V68.8893C38.7996 69.5355 39.3233 70.059 39.9693 70.059C40.6153 70.059 41.139 69.5355 41.139 68.8893V54.2051L44.0449 55.0895C44.2584 55.1544 44.4765 55.1858 44.6926 55.1858C45.3866 55.1858 46.0597 54.8623 46.4889 54.2885L48.4855 51.6189L53.3569 54.9691C55.4948 56.4393 56.771 58.866 56.771 61.4605V68.3996C56.771 69.0458 57.2947 69.5693 57.9406 69.5693C58.5866 69.5693 59.1103 69.0458 59.1103 68.3996V61.4605C59.1103 60.5393 58.9854 59.6346 58.7483 58.7668C58.9854 58.6285 59.232 58.5072 59.4869 58.4049L62.8832 57.0421C63.4849 58.3372 64.7973 59.2378 66.3167 59.2378C67.8362 59.2378 69.1486 58.3373 69.7503 57.0423L73.1467 58.4049C75.2944 59.2664 76.6819 61.3183 76.6819 63.6322V65.6121C76.6819 66.2582 77.2056 66.7817 77.8516 66.7817C78.4976 66.7817 79.0213 66.2582 79.0213 65.6121V63.6322C79.0211 60.3571 77.057 57.4531 74.0176 56.2335ZM27.8033 32.4604C27.8033 31.5253 28.5602 30.7642 29.4934 30.756V34.1646C28.5603 34.1564 27.8033 33.3955 27.8033 32.4604ZM21.6802 45.4946H21.2578V42.7298H21.6802C22.4425 42.7298 23.0626 43.3501 23.0626 44.1122C23.0626 44.8744 22.4425 45.4946 21.6802 45.4946ZM4.80241 44.1124C4.80241 43.3501 5.42249 42.73 6.18481 42.73H6.60714V45.4948H6.18481C5.42265 45.4946 4.80241 44.8745 4.80241 44.1124ZM8.02775 36.7851C7.25186 37.8565 6.78275 39.0903 6.64847 40.3905H6.18481C5.97021 40.3905 5.7603 40.4098 5.55553 40.4448L5.16236 37.6418C4.81271 35.1496 6.47083 32.8049 8.93713 32.3038C9.01261 32.2886 9.08653 32.2658 9.15765 32.2358L11.5912 31.2126C14.1242 30.1476 16.9645 30.4746 19.1892 32.0866C21.4139 33.6989 22.6089 36.2962 22.3859 39.031L22.267 40.437C22.0758 40.4066 21.8799 40.3903 21.6802 40.3903H21.2475C21.1468 39.3986 20.307 38.6219 19.289 38.6219H16.4007C14.3423 38.6219 12.3053 37.9368 10.6653 36.6931L10.3343 36.4421C9.98687 36.1786 9.5399 36.0641 9.10899 36.1284C8.67762 36.1926 8.28351 36.432 8.02775 36.7851ZM8.94664 41.169C8.94664 40.3231 9.15048 39.5056 9.54083 38.7695C11.5329 40.1854 13.9547 40.9616 16.4009 40.9616H18.9185V46.6281C18.9185 49.3775 16.6818 51.6142 13.9326 51.6142C11.1834 51.6142 8.94664 49.3775 8.94664 46.6281V41.169ZM13.7641 56.2796C12.8446 56.2796 12.0966 55.5315 12.0966 54.6122V53.7204C12.6835 53.8725 13.2988 53.9535 13.9326 53.9535C14.4463 53.9535 14.9475 53.8999 15.4318 53.7987V54.6122C15.4318 55.5315 14.6837 56.2796 13.7641 56.2796ZM50.4448 34.1646V30.756C51.378 30.7641 52.1349 31.5253 52.1349 32.4604C52.1349 33.3955 51.378 34.1564 50.4448 34.1646ZM52.1096 23.671L51.4246 28.54C51.1108 28.4603 50.7826 28.4174 50.4446 28.4162V28.3215C50.4446 26.4357 49.8613 24.6217 48.805 23.106C49.2656 21.3322 49.2493 19.5059 48.7726 17.7701C51.0319 18.7344 52.4667 21.1325 52.1096 23.671ZM31.8329 34.8065V28.0913C31.8329 25.5285 33.9179 23.4436 36.4806 23.4436H42.8311C43.0986 23.4436 43.3579 23.3519 43.566 23.184L44.694 22.2727L45.7419 23.1734C47.2439 24.4644 48.1053 26.341 48.1053 28.3215V34.8063C48.1053 39.2927 44.4554 42.9426 39.969 42.9426C35.4826 42.9426 31.8329 39.2927 31.8329 34.8065ZM39.9692 45.2821C41.308 45.2821 42.5875 45.0269 43.7656 44.5672V46.0659L39.9692 47.9274L36.1727 46.0659V44.5672C37.3507 45.0268 38.6303 45.2821 39.9692 45.2821ZM35.2805 52.8305L32.7609 49.4617L34.6007 47.9004L38.7993 49.959V51.7596L35.2805 52.8305ZM44.6577 52.8305L41.1388 51.7597V49.9592L45.3375 47.9006L47.1773 49.4618L44.6577 52.8305ZM56.1783 47.9076C55.1194 46.5345 54.899 44.7654 55.589 43.1746L57.3475 39.1194C57.5624 38.6241 57.7104 38.1018 57.7873 37.5669C58.4013 33.3007 62.1145 30.0835 66.4247 30.0835C70.7348 30.0835 74.448 33.3007 75.0618 37.5669C75.1387 38.1017 75.2867 38.624 75.5016 39.1194L77.2602 43.1746C77.95 44.7652 77.7298 46.5345 76.6708 47.9076C75.8867 48.9241 74.7755 49.55 73.5559 49.7001C73.8078 49.0458 73.972 48.3482 74.0324 47.6211C74.0857 46.9773 73.6069 46.4121 72.9633 46.3588C72.3201 46.3065 71.7545 46.7842 71.701 47.4279C71.4756 50.1488 69.158 52.2803 66.4247 52.2803C63.5041 52.2803 61.1282 49.9045 61.1282 46.9839V41.3727C61.1282 40.1285 61.4944 38.9049 62.1689 37.8662C63.6825 39.0215 65.5482 39.6823 67.454 39.7327L71.7211 39.8453V42.5396C71.7211 43.1857 72.2448 43.7092 72.8908 43.7092C73.5367 43.7092 74.0604 43.1857 74.0604 42.5396V39.5285C74.0604 38.4284 73.1989 37.544 72.0993 37.5151L67.5156 37.3944C66.0313 37.3551 64.5799 36.8175 63.4284 35.881L63.1262 35.6351C62.7697 35.3451 62.3219 35.2123 61.8648 35.2614C61.408 35.3102 60.9983 35.5348 60.7115 35.8933C59.4715 37.4426 58.7884 39.3886 58.7884 41.3732V46.9843C58.7884 47.9399 58.9664 48.8542 59.2884 49.698C58.071 49.5467 56.9614 48.9229 56.1783 47.9076ZM66.3166 56.8983C65.5198 56.8983 64.8715 56.2502 64.8715 55.4532V54.4606C65.3732 54.5646 65.8925 54.6198 66.4245 54.6198C66.8796 54.6198 67.3261 54.5771 67.7615 54.4985V55.4534C67.7617 56.2502 67.1134 56.8983 66.3166 56.8983ZM27.4785 61.4867C27.4785 60.8406 28.0022 60.317 28.6482 60.317C29.2942 60.317 29.8179 60.8406 29.8179 61.4867V67.6467C29.8179 68.2928 29.2942 68.8163 28.6482 68.8163C28.0022 68.8163 27.4785 68.2928 27.4785 67.6467V61.4867ZM50.1196 61.4867C50.1196 60.8406 50.6433 60.317 51.2893 60.317C51.9353 60.317 52.459 60.8406 52.459 61.4867V67.6467C52.459 68.2928 51.9353 68.8163 51.2893 68.8163C50.6433 68.8163 50.1196 68.2928 50.1196 67.6467V61.4867ZM0.944472 59.8026C1.22613 59.2212 1.92559 58.9776 2.507 59.2597C3.08856 59.541 3.3317 60.2406 3.05019 60.8221C2.57843 61.7963 2.33935 62.8378 2.33935 63.9179V67.6466C2.33935 68.2927 1.81564 68.8162 1.16967 68.8162C0.523701 68.8162 0 68.2927 0 67.6466V63.9179C0 62.4817 0.317839 61.0972 0.944472 59.8026Z"/>
</mask>
<path fill-rule="evenodd" clip-rule="evenodd" d="M74.0176 56.2335L70.101 54.6622V53.6619C70.8699 53.2346 71.5602 52.6786 72.1411 52.0223C74.6185 52.3148 76.9888 51.3258 78.5233 49.3363C80.1101 47.2789 80.4403 44.6275 79.4066 42.2437L77.6479 38.1885C77.5157 37.8838 77.4247 37.5624 77.3773 37.2336C76.9984 34.5995 75.6819 32.1891 73.6706 30.4464C71.6592 28.7036 69.0859 27.744 66.4247 27.744C63.7634 27.744 61.1901 28.7036 59.1788 30.4464C57.1676 32.1891 55.851 34.5994 55.472 37.2336C55.4246 37.5625 55.3337 37.884 55.2014 38.1885L53.4429 42.2437C52.4092 44.6274 52.7393 47.2788 54.3262 49.3363C55.6836 51.0963 57.6949 52.0771 59.8556 52.0769C60.1343 52.0769 60.4158 52.0604 60.6987 52.0272C61.2259 52.625 61.8441 53.1398 62.5326 53.5496V54.6621L58.6162 56.2335C58.3609 56.3359 58.1117 56.4518 57.8687 56.58C57.111 55.1862 56.0291 53.9674 54.6829 53.0415L49.5817 49.5333C49.6112 48.889 49.3535 48.2401 48.8287 47.7948L46.7559 46.036C46.5594 45.8691 46.3386 45.7431 46.1053 45.6574V43.2894C48.2963 41.7002 49.8499 39.2857 50.3053 36.505H50.4301C52.6603 36.505 54.4747 34.6906 54.4747 32.4606C54.4747 31.5085 54.1431 30.6326 53.5905 29.9409L54.4266 23.9973C55.0292 19.7125 52.0378 15.709 47.7579 15.0724L47.5915 15.0477C46.223 12.8141 44.1034 11.2026 41.5602 10.4815L41.2541 10.3946C37.8823 9.43861 34.2757 10.0093 31.359 11.9606C30.822 12.3198 30.6779 13.0462 31.0371 13.583C31.3962 14.1198 32.1225 14.2641 32.6596 13.9047C35.0054 12.3355 37.9052 11.8765 40.6159 12.6452L40.9221 12.7321C43.0501 13.3355 44.797 14.7418 45.8409 16.6918C46.5591 18.0335 46.8762 19.509 46.7846 20.985L45.9917 20.3035C45.267 19.6806 44.2014 19.664 43.4581 20.2645L42.418 21.1046H36.4809C32.6283 21.1046 29.4939 24.239 29.4939 28.0916V28.4165C29.1837 28.4176 28.8821 28.4547 28.592 28.5222C27.2696 24.7995 27.6425 20.6052 29.63 17.1744C29.9538 16.6153 29.7632 15.8997 29.2043 15.5758C28.6453 15.2522 27.9298 15.4426 27.6059 16.0016C25.2023 20.1509 24.8125 25.2524 26.5405 29.7171C25.8732 30.4386 25.4644 31.4026 25.4644 32.4606C25.4644 34.6906 27.2788 36.505 29.509 36.505H29.6338C30.0892 39.2857 31.6428 41.7002 33.8338 43.2894V45.6574C33.6005 45.7429 33.3797 45.8691 33.1833 46.0358L31.1104 47.7948C30.5856 48.2401 30.3279 48.8892 30.3574 49.5333L25.2562 53.0415C24.2196 53.7544 23.3394 54.6408 22.6432 55.6472C22.192 55.398 21.7218 55.185 21.2349 55.0125L17.7714 53.7857V52.8639C19.5356 51.7739 20.8038 49.957 21.1571 47.8341H21.6805C23.7327 47.8341 25.4022 46.1646 25.4022 44.1125C25.4022 43.1912 25.065 42.3477 24.5084 41.6971L24.7173 39.225C25.0075 35.6652 23.4542 32.2884 20.562 30.1928C17.6697 28.0969 13.9772 27.6723 10.6846 29.0565L8.35323 30.0367C4.74331 30.8336 2.3305 34.2928 2.84594 37.9671L3.36746 41.6851C2.80477 42.3373 2.46338 43.1855 2.46338 44.1125C2.46338 46.1646 4.13289 47.8341 6.18512 47.8341H6.70851C7.03883 49.8193 8.16967 51.5362 9.75761 52.6421V53.7857L6.29414 55.0123C5.80911 55.1842 5.33126 55.3994 4.874 55.6524C4.30865 55.9649 4.10373 56.6765 4.41626 57.2419C4.62961 57.6279 5.02902 57.8458 5.4409 57.8458C5.63226 57.8458 5.82642 57.7986 6.00577 57.6995C6.3509 57.5086 6.71069 57.3464 7.07485 57.2174L10.0677 56.1574C10.6737 57.6018 12.1023 58.619 13.7643 58.619C15.4263 58.619 16.8549 57.6018 17.4609 56.1574L20.4537 57.2176C20.8302 57.3507 21.1936 57.5165 21.5418 57.7112C21.0772 58.8889 20.8282 60.1581 20.8282 61.4605V68.3996C20.8282 69.0458 21.3519 69.5693 21.9978 69.5693C22.6438 69.5693 23.1675 69.0458 23.1675 68.3996V61.4605C23.1675 58.866 24.4439 56.4393 26.5816 54.9691L31.453 51.6189L33.4497 54.2885C33.8789 54.8625 34.5519 55.1858 35.246 55.1858C35.4622 55.1858 35.6805 55.1544 35.894 55.0894L38.7996 54.2051V68.8893C38.7996 69.5355 39.3233 70.059 39.9693 70.059C40.6153 70.059 41.139 69.5355 41.139 68.8893V54.2051L44.0449 55.0895C44.2584 55.1544 44.4765 55.1858 44.6926 55.1858C45.3866 55.1858 46.0597 54.8623 46.4889 54.2885L48.4855 51.6189L53.3569 54.9691C55.4948 56.4393 56.771 58.866 56.771 61.4605V68.3996C56.771 69.0458 57.2947 69.5693 57.9406 69.5693C58.5866 69.5693 59.1103 69.0458 59.1103 68.3996V61.4605C59.1103 60.5393 58.9854 59.6346 58.7483 58.7668C58.9854 58.6285 59.232 58.5072 59.4869 58.4049L62.8832 57.0421C63.4849 58.3372 64.7973 59.2378 66.3167 59.2378C67.8362 59.2378 69.1486 58.3373 69.7503 57.0423L73.1467 58.4049C75.2944 59.2664 76.6819 61.3183 76.6819 63.6322V65.6121C76.6819 66.2582 77.2056 66.7817 77.8516 66.7817C78.4976 66.7817 79.0213 66.2582 79.0213 65.6121V63.6322C79.0211 60.3571 77.057 57.4531 74.0176 56.2335ZM27.8033 32.4604C27.8033 31.5253 28.5602 30.7642 29.4934 30.756V34.1646C28.5603 34.1564 27.8033 33.3955 27.8033 32.4604ZM21.6802 45.4946H21.2578V42.7298H21.6802C22.4425 42.7298 23.0626 43.3501 23.0626 44.1122C23.0626 44.8744 22.4425 45.4946 21.6802 45.4946ZM4.80241 44.1124C4.80241 43.3501 5.42249 42.73 6.18481 42.73H6.60714V45.4948H6.18481C5.42265 45.4946 4.80241 44.8745 4.80241 44.1124ZM8.02775 36.7851C7.25186 37.8565 6.78275 39.0903 6.64847 40.3905H6.18481C5.97021 40.3905 5.7603 40.4098 5.55553 40.4448L5.16236 37.6418C4.81271 35.1496 6.47083 32.8049 8.93713 32.3038C9.01261 32.2886 9.08653 32.2658 9.15765 32.2358L11.5912 31.2126C14.1242 30.1476 16.9645 30.4746 19.1892 32.0866C21.4139 33.6989 22.6089 36.2962 22.3859 39.031L22.267 40.437C22.0758 40.4066 21.8799 40.3903 21.6802 40.3903H21.2475C21.1468 39.3986 20.307 38.6219 19.289 38.6219H16.4007C14.3423 38.6219 12.3053 37.9368 10.6653 36.6931L10.3343 36.4421C9.98687 36.1786 9.5399 36.0641 9.10899 36.1284C8.67762 36.1926 8.28351 36.432 8.02775 36.7851ZM8.94664 41.169C8.94664 40.3231 9.15048 39.5056 9.54083 38.7695C11.5329 40.1854 13.9547 40.9616 16.4009 40.9616H18.9185V46.6281C18.9185 49.3775 16.6818 51.6142 13.9326 51.6142C11.1834 51.6142 8.94664 49.3775 8.94664 46.6281V41.169ZM13.7641 56.2796C12.8446 56.2796 12.0966 55.5315 12.0966 54.6122V53.7204C12.6835 53.8725 13.2988 53.9535 13.9326 53.9535C14.4463 53.9535 14.9475 53.8999 15.4318 53.7987V54.6122C15.4318 55.5315 14.6837 56.2796 13.7641 56.2796ZM50.4448 34.1646V30.756C51.378 30.7641 52.1349 31.5253 52.1349 32.4604C52.1349 33.3955 51.378 34.1564 50.4448 34.1646ZM52.1096 23.671L51.4246 28.54C51.1108 28.4603 50.7826 28.4174 50.4446 28.4162V28.3215C50.4446 26.4357 49.8613 24.6217 48.805 23.106C49.2656 21.3322 49.2493 19.5059 48.7726 17.7701C51.0319 18.7344 52.4667 21.1325 52.1096 23.671ZM31.8329 34.8065V28.0913C31.8329 25.5285 33.9179 23.4436 36.4806 23.4436H42.8311C43.0986 23.4436 43.3579 23.3519 43.566 23.184L44.694 22.2727L45.7419 23.1734C47.2439 24.4644 48.1053 26.341 48.1053 28.3215V34.8063C48.1053 39.2927 44.4554 42.9426 39.969 42.9426C35.4826 42.9426 31.8329 39.2927 31.8329 34.8065ZM39.9692 45.2821C41.308 45.2821 42.5875 45.0269 43.7656 44.5672V46.0659L39.9692 47.9274L36.1727 46.0659V44.5672C37.3507 45.0268 38.6303 45.2821 39.9692 45.2821ZM35.2805 52.8305L32.7609 49.4617L34.6007 47.9004L38.7993 49.959V51.7596L35.2805 52.8305ZM44.6577 52.8305L41.1388 51.7597V49.9592L45.3375 47.9006L47.1773 49.4618L44.6577 52.8305ZM56.1783 47.9076C55.1194 46.5345 54.899 44.7654 55.589 43.1746L57.3475 39.1194C57.5624 38.6241 57.7104 38.1018 57.7873 37.5669C58.4013 33.3007 62.1145 30.0835 66.4247 30.0835C70.7348 30.0835 74.448 33.3007 75.0618 37.5669C75.1387 38.1017 75.2867 38.624 75.5016 39.1194L77.2602 43.1746C77.95 44.7652 77.7298 46.5345 76.6708 47.9076C75.8867 48.9241 74.7755 49.55 73.5559 49.7001C73.8078 49.0458 73.972 48.3482 74.0324 47.6211C74.0857 46.9773 73.6069 46.4121 72.9633 46.3588C72.3201 46.3065 71.7545 46.7842 71.701 47.4279C71.4756 50.1488 69.158 52.2803 66.4247 52.2803C63.5041 52.2803 61.1282 49.9045 61.1282 46.9839V41.3727C61.1282 40.1285 61.4944 38.9049 62.1689 37.8662C63.6825 39.0215 65.5482 39.6823 67.454 39.7327L71.7211 39.8453V42.5396C71.7211 43.1857 72.2448 43.7092 72.8908 43.7092C73.5367 43.7092 74.0604 43.1857 74.0604 42.5396V39.5285C74.0604 38.4284 73.1989 37.544 72.0993 37.5151L67.5156 37.3944C66.0313 37.3551 64.5799 36.8175 63.4284 35.881L63.1262 35.6351C62.7697 35.3451 62.3219 35.2123 61.8648 35.2614C61.408 35.3102 60.9983 35.5348 60.7115 35.8933C59.4715 37.4426 58.7884 39.3886 58.7884 41.3732V46.9843C58.7884 47.9399 58.9664 48.8542 59.2884 49.698C58.071 49.5467 56.9614 48.9229 56.1783 47.9076ZM66.3166 56.8983C65.5198 56.8983 64.8715 56.2502 64.8715 55.4532V54.4606C65.3732 54.5646 65.8925 54.6198 66.4245 54.6198C66.8796 54.6198 67.3261 54.5771 67.7615 54.4985V55.4534C67.7617 56.2502 67.1134 56.8983 66.3166 56.8983ZM27.4785 61.4867C27.4785 60.8406 28.0022 60.317 28.6482 60.317C29.2942 60.317 29.8179 60.8406 29.8179 61.4867V67.6467C29.8179 68.2928 29.2942 68.8163 28.6482 68.8163C28.0022 68.8163 27.4785 68.2928 27.4785 67.6467V61.4867ZM50.1196 61.4867C50.1196 60.8406 50.6433 60.317 51.2893 60.317C51.9353 60.317 52.459 60.8406 52.459 61.4867V67.6467C52.459 68.2928 51.9353 68.8163 51.2893 68.8163C50.6433 68.8163 50.1196 68.2928 50.1196 67.6467V61.4867ZM0.944472 59.8026C1.22613 59.2212 1.92559 58.9776 2.507 59.2597C3.08856 59.541 3.3317 60.2406 3.05019 60.8221C2.57843 61.7963 2.33935 62.8378 2.33935 63.9179V67.6466C2.33935 68.2927 1.81564 68.8162 1.16967 68.8162C0.523701 68.8162 0 68.2927 0 67.6466V63.9179C0 62.4817 0.317839 61.0972 0.944472 59.8026Z" fill="#07EBFE"/>
<path d="M70.101 54.6622H69.801V54.8651L69.9893 54.9406L70.101 54.6622ZM74.0176 56.2335L74.1293 55.9551L74.1293 55.955L74.0176 56.2335ZM70.101 53.6619L69.9553 53.3997L69.801 53.4854V53.6619H70.101ZM72.1411 52.0223L72.1763 51.7244L72.0204 51.706L71.9165 51.8235L72.1411 52.0223ZM78.5233 49.3363L78.2857 49.1531L78.2857 49.1531L78.5233 49.3363ZM79.4066 42.2437L79.6819 42.1244L79.6819 42.1244L79.4066 42.2437ZM77.6479 38.1885L77.9231 38.0692L77.9231 38.0691L77.6479 38.1885ZM77.3773 37.2336L77.0804 37.2763L77.0804 37.2764L77.3773 37.2336ZM73.6706 30.4464L73.4741 30.6731L73.4741 30.6731L73.6706 30.4464ZM59.1788 30.4464L59.3752 30.6731H59.3752L59.1788 30.4464ZM55.472 37.2336L55.7689 37.2764L55.769 37.2763L55.472 37.2336ZM55.2014 38.1885L54.9262 38.0691L54.9262 38.0692L55.2014 38.1885ZM53.4429 42.2437L53.1676 42.1244L53.4429 42.2437ZM54.3262 49.3363L54.0886 49.5195L54.0886 49.5195L54.3262 49.3363ZM59.8556 52.0769V51.7769H59.8556L59.8556 52.0769ZM60.6987 52.0272L60.9237 51.8288L60.8198 51.7109L60.6637 51.7292L60.6987 52.0272ZM62.5326 53.5496H62.8326V53.3791L62.6861 53.2918L62.5326 53.5496ZM62.5326 54.6621L62.6443 54.9405L62.8326 54.8649V54.6621H62.5326ZM58.6162 56.2335L58.5045 55.9551L58.5045 55.9551L58.6162 56.2335ZM57.8687 56.58L57.6052 56.7233L57.7467 56.9836L58.0087 56.8453L57.8687 56.58ZM54.6829 53.0415L54.8529 52.7943L54.8529 52.7943L54.6829 53.0415ZM49.5817 49.5333L49.282 49.5196L49.2744 49.686L49.4117 49.7805L49.5817 49.5333ZM48.8287 47.7948L48.6346 48.0236L48.6346 48.0236L48.8287 47.7948ZM46.7559 46.036L46.5617 46.2646L46.5618 46.2647L46.7559 46.036ZM46.1053 45.6574H45.8053V45.8669L46.0019 45.9391L46.1053 45.6574ZM46.1053 43.2894L45.9291 43.0466L45.8053 43.1364V43.2894H46.1053ZM50.3053 36.505V36.205H50.0505L50.0093 36.4565L50.3053 36.505ZM53.5905 29.9409L53.2935 29.8992L53.2755 30.0272L53.3562 30.1282L53.5905 29.9409ZM54.4266 23.9973L54.7237 24.0391L54.7237 24.0391L54.4266 23.9973ZM47.7579 15.0724L47.8021 14.7756L47.8019 14.7756L47.7579 15.0724ZM47.5915 15.0477L47.3357 15.2045L47.4089 15.324L47.5476 15.3445L47.5915 15.0477ZM41.5602 10.4815L41.4783 10.7701L41.4784 10.7701L41.5602 10.4815ZM41.2541 10.3946L41.336 10.106L41.3359 10.106L41.2541 10.3946ZM31.359 11.9606L31.5258 12.2099L31.5258 12.2099L31.359 11.9606ZM31.0371 13.583L30.7877 13.7498L31.0371 13.583ZM32.6596 13.9047L32.4928 13.6554V13.6554L32.6596 13.9047ZM40.6159 12.6452L40.6978 12.3566L40.6978 12.3566L40.6159 12.6452ZM40.9221 12.7321L40.8402 13.0207L40.8402 13.0207L40.9221 12.7321ZM45.8409 16.6918L46.1054 16.5503L46.1054 16.5502L45.8409 16.6918ZM46.7846 20.985L46.5891 21.2125L47.0467 21.6059L47.084 21.0036L46.7846 20.985ZM45.9917 20.3035L46.1873 20.076L46.1873 20.076L45.9917 20.3035ZM43.4581 20.2645L43.6466 20.4979L43.6466 20.4978L43.4581 20.2645ZM42.418 21.1046V21.4046H42.524L42.6065 21.338L42.418 21.1046ZM29.4939 28.4165L29.4949 28.7165L29.7939 28.7154V28.4165H29.4939ZM28.592 28.5222L28.3093 28.6226L28.399 28.8752L28.66 28.8144L28.592 28.5222ZM29.63 17.1744L29.8896 17.3247L29.8897 17.3247L29.63 17.1744ZM29.2043 15.5758L29.3547 15.3162L29.3546 15.3162L29.2043 15.5758ZM27.6059 16.0016L27.3463 15.8511L27.3463 15.8512L27.6059 16.0016ZM26.5405 29.7171L26.7608 29.9209L26.8879 29.7834L26.8203 29.6089L26.5405 29.7171ZM29.6338 36.505L29.9298 36.4565L29.8886 36.205H29.6338V36.505ZM33.8338 43.2894H34.1338V43.1364L34.01 43.0466L33.8338 43.2894ZM33.8338 45.6574L33.937 45.9391L34.1338 45.8671V45.6574H33.8338ZM33.1833 46.0358L33.3775 46.2645L33.3775 46.2645L33.1833 46.0358ZM31.1104 47.7948L31.3045 48.0236L31.3045 48.0236L31.1104 47.7948ZM30.3574 49.5333L30.5274 49.7805L30.6647 49.686L30.6571 49.5196L30.3574 49.5333ZM25.2562 53.0415L25.4262 53.2887L25.4262 53.2887L25.2562 53.0415ZM22.6432 55.6472L22.4981 55.9098L22.7356 56.041L22.8899 55.8179L22.6432 55.6472ZM21.2349 55.0125L21.3351 54.7297L21.3351 54.7297L21.2349 55.0125ZM17.7714 53.7857H17.4714V53.9977L17.6713 54.0685L17.7714 53.7857ZM17.7714 52.8639L17.6137 52.6087L17.4714 52.6966V52.8639H17.7714ZM21.1571 47.8341V47.5341H20.9029L20.8612 47.7849L21.1571 47.8341ZM24.5084 41.6971L24.2095 41.6718L24.1989 41.7968L24.2805 41.8921L24.5084 41.6971ZM24.7173 39.225L25.0162 39.2503L25.0163 39.2494L24.7173 39.225ZM20.562 30.1928L20.3859 30.4357L20.3859 30.4357L20.562 30.1928ZM10.6846 29.0565L10.5683 28.78H10.5683L10.6846 29.0565ZM8.35323 30.0367L8.4179 30.3297L8.44444 30.3238L8.4695 30.3133L8.35323 30.0367ZM2.84594 37.9671L3.14303 37.9254L3.14303 37.9254L2.84594 37.9671ZM3.36746 41.6851L3.5946 41.8811L3.68344 41.7781L3.66455 41.6434L3.36746 41.6851ZM6.70851 47.8341L7.00444 47.7849L6.96272 47.5341H6.70851V47.8341ZM9.75761 52.6421H10.0576V52.4855L9.92906 52.3959L9.75761 52.6421ZM9.75761 53.7857L9.85777 54.0685L10.0576 53.9977V53.7857H9.75761ZM6.29414 55.0123L6.19398 54.7295L6.19394 54.7296L6.29414 55.0123ZM4.874 55.6524L5.01914 55.9149L5.01922 55.9149L4.874 55.6524ZM4.41626 57.2419L4.67883 57.0968L4.67882 57.0967L4.41626 57.2419ZM6.00577 57.6995L6.15096 57.962L6.15097 57.962L6.00577 57.6995ZM7.07485 57.2174L7.17501 57.5002H7.17501L7.07485 57.2174ZM10.0677 56.1574L10.3443 56.0413L10.2346 55.78L9.96749 55.8746L10.0677 56.1574ZM17.4609 56.1574L17.5611 55.8746L17.2939 55.7799L17.1843 56.0413L17.4609 56.1574ZM20.4537 57.2176L20.3536 57.5003L20.3537 57.5004L20.4537 57.2176ZM21.5418 57.7112L21.8209 57.8212L21.9172 57.5772L21.6882 57.4493L21.5418 57.7112ZM26.5816 54.9691L26.4116 54.722H26.4116L26.5816 54.9691ZM31.453 51.6189L31.6933 51.4392L31.5206 51.2083L31.283 51.3717L31.453 51.6189ZM33.4497 54.2885L33.69 54.1089L33.69 54.1089L33.4497 54.2885ZM35.894 55.0894L35.8067 54.8024L35.8066 54.8024L35.894 55.0894ZM38.7996 54.2051H39.0996V53.8002L38.7123 53.9181L38.7996 54.2051ZM41.139 54.2051L41.2263 53.9181L40.839 53.8002V54.2051H41.139ZM44.0449 55.0895L43.9576 55.3765L43.9577 55.3766L44.0449 55.0895ZM46.4889 54.2885L46.7291 54.4682L46.7292 54.4682L46.4889 54.2885ZM48.4855 51.6189L48.6555 51.3717L48.4179 51.2083L48.2452 51.4392L48.4855 51.6189ZM53.3569 54.9691L53.1869 55.2163L53.1869 55.2163L53.3569 54.9691ZM58.7483 58.7668L58.5971 58.5077L58.3983 58.6238L58.4589 58.8459L58.7483 58.7668ZM59.4869 58.4049L59.5987 58.6833L59.5987 58.6833L59.4869 58.4049ZM62.8832 57.0421L63.1553 56.9157L63.0354 56.6578L62.7715 56.7637L62.8832 57.0421ZM69.7503 57.0423L69.862 56.7638L69.598 56.6579L69.4782 56.9159L69.7503 57.0423ZM73.1467 58.4049L73.035 58.6833L73.035 58.6833L73.1467 58.4049ZM79.0213 63.6322H79.3213V63.6322L79.0213 63.6322ZM29.4934 30.756H29.7934V30.4533L29.4908 30.456L29.4934 30.756ZM29.4934 34.1646L29.4908 34.4645L29.7934 34.4672V34.1646H29.4934ZM21.2578 45.4946H20.9578V45.7946H21.2578V45.4946ZM21.2578 42.7298V42.4298H20.9578V42.7298H21.2578ZM6.60714 42.73H6.90714V42.43H6.60714V42.73ZM6.60714 45.4948V45.7948H6.90714V45.4948H6.60714ZM6.18481 45.4948L6.18475 45.7948H6.18481V45.4948ZM6.64847 40.3905V40.6905H6.91908L6.94688 40.4213L6.64847 40.3905ZM8.02775 36.7851L7.78479 36.6091L7.78477 36.6091L8.02775 36.7851ZM5.55553 40.4448L5.25843 40.4864L5.30136 40.7925L5.60598 40.7405L5.55553 40.4448ZM5.16236 37.6418L5.45945 37.6001L5.45945 37.6001L5.16236 37.6418ZM8.93713 32.3038L8.87759 32.0098L8.8774 32.0098L8.93713 32.3038ZM9.15765 32.2358L9.04137 31.9593L9.04123 31.9594L9.15765 32.2358ZM11.5912 31.2126L11.4749 30.9361L11.4749 30.9361L11.5912 31.2126ZM19.1892 32.0866L19.3653 31.8437L19.3653 31.8437L19.1892 32.0866ZM22.3859 39.031L22.6848 39.0563L22.6849 39.0554L22.3859 39.031ZM22.267 40.437L22.2199 40.7332L22.5388 40.784L22.566 40.4622L22.267 40.437ZM21.2475 40.3903L20.9491 40.4207L20.9765 40.6903H21.2475V40.3903ZM10.6653 36.6931L10.8466 36.454L10.8465 36.454L10.6653 36.6931ZM10.3343 36.4421L10.153 36.6812L10.1531 36.6812L10.3343 36.4421ZM9.10899 36.1284L9.15319 36.4251L9.15324 36.4251L9.10899 36.1284ZM9.54083 38.7695L9.71464 38.525L9.43597 38.3269L9.27579 38.6289L9.54083 38.7695ZM18.9185 40.9616H19.2185V40.6616H18.9185V40.9616ZM12.0966 53.7204L12.1719 53.43L11.7966 53.3328V53.7204H12.0966ZM15.4318 53.7987H15.7318V53.4295L15.3704 53.505L15.4318 53.7987ZM50.4448 30.756L50.4474 30.456L50.1448 30.4534V30.756H50.4448ZM50.4448 34.1646H50.1448V34.4672L50.4474 34.4645L50.4448 34.1646ZM51.4246 28.54L51.3508 28.8308L51.6751 28.9131L51.7217 28.5818L51.4246 28.54ZM52.1096 23.671L51.8125 23.6292V23.6292L52.1096 23.671ZM50.4446 28.4162H50.1446V28.7151L50.4435 28.7162L50.4446 28.4162ZM48.805 23.106L48.5147 23.0306L48.48 23.1643L48.5589 23.2775L48.805 23.106ZM48.7726 17.7701L48.8904 17.4942L48.3187 17.2502L48.4833 17.8496L48.7726 17.7701ZM43.566 23.184L43.7544 23.4174L43.7545 23.4173L43.566 23.184ZM44.694 22.2727L44.8896 22.0452L44.7 21.8823L44.5055 22.0394L44.694 22.2727ZM45.7419 23.1734L45.9374 22.9459L45.9374 22.9459L45.7419 23.1734ZM43.7656 44.5672H44.0656V44.128L43.6565 44.2877L43.7656 44.5672ZM43.7656 46.0659L43.8977 46.3353L44.0656 46.2529V46.0659H43.7656ZM39.9692 47.9274L39.8371 48.1968L39.9692 48.2615L40.1012 48.1968L39.9692 47.9274ZM36.1727 46.0659H35.8727V46.2529L36.0406 46.3353L36.1727 46.0659ZM36.1727 44.5672L36.2818 44.2877L35.8727 44.1281V44.5672H36.1727ZM32.7609 49.4617L32.5668 49.233L32.3517 49.4155L32.5206 49.6414L32.7609 49.4617ZM35.2805 52.8305L35.0403 53.0102L35.1664 53.1788L35.3678 53.1175L35.2805 52.8305ZM34.6007 47.9004L34.7328 47.6311L34.5564 47.5446L34.4066 47.6717L34.6007 47.9004ZM38.7993 49.959H39.0993V49.772L38.9314 49.6897L38.7993 49.959ZM38.7993 51.7596L38.8867 52.0466L39.0993 51.9818V51.7596H38.7993ZM41.1388 51.7597H40.8388V51.982L41.0515 52.0467L41.1388 51.7597ZM44.6577 52.8305L44.5703 53.1175L44.7718 53.1788L44.8979 53.0102L44.6577 52.8305ZM41.1388 49.9592L41.0068 49.6898L40.8388 49.7722V49.9592H41.1388ZM45.3375 47.9006L45.5316 47.6718L45.3818 47.5447L45.2054 47.6312L45.3375 47.9006ZM47.1773 49.4618L47.4175 49.6415L47.5865 49.4156L47.3714 49.2331L47.1773 49.4618ZM55.589 43.1746L55.8642 43.294L55.8642 43.294L55.589 43.1746ZM56.1783 47.9076L55.9408 48.0908L55.9408 48.0908L56.1783 47.9076ZM57.3475 39.1194L57.0723 39L57.0723 39.0001L57.3475 39.1194ZM57.7873 37.5669L57.4904 37.5242L57.4904 37.5242L57.7873 37.5669ZM75.0618 37.5669L75.3588 37.5242V37.5242L75.0618 37.5669ZM75.5016 39.1194L75.7769 39.0001L75.7769 39.0001L75.5016 39.1194ZM77.2602 43.1746L76.985 43.294V43.294L77.2602 43.1746ZM76.6708 47.9076L76.9084 48.0908L76.9084 48.0908L76.6708 47.9076ZM73.5559 49.7001L73.276 49.5924L73.0964 50.059L73.5926 49.9979L73.5559 49.7001ZM74.0324 47.6211L74.3313 47.6459V47.6459L74.0324 47.6211ZM72.9633 46.3588L72.9881 46.0598L72.9876 46.0598L72.9633 46.3588ZM71.701 47.4279L71.402 47.403V47.4031L71.701 47.4279ZM62.1689 37.8662L62.351 37.6277L62.0936 37.4313L61.9173 37.7028L62.1689 37.8662ZM67.454 39.7327L67.4461 40.0326L67.4461 40.0326L67.454 39.7327ZM71.7211 39.8453H72.0211V39.5531L71.729 39.5454L71.7211 39.8453ZM72.0993 37.5151L72.0914 37.815H72.0914L72.0993 37.5151ZM67.5156 37.3944L67.5076 37.6943L67.5077 37.6943L67.5156 37.3944ZM63.4284 35.881L63.2391 36.1137L63.2391 36.1138L63.4284 35.881ZM63.1262 35.6351L63.3155 35.4024L63.3155 35.4023L63.1262 35.6351ZM61.8648 35.2614L61.8967 35.5597L61.8969 35.5597L61.8648 35.2614ZM60.7115 35.8933L60.9457 36.0808L60.9458 36.0807L60.7115 35.8933ZM59.2884 49.698L59.2514 49.9957L59.7467 50.0572L59.5687 49.591L59.2884 49.698ZM64.8715 54.4606L64.9324 54.1668L64.5715 54.092V54.4606H64.8715ZM67.7615 54.4985H68.0615V54.1395L67.7082 54.2032L67.7615 54.4985ZM67.7615 55.4534H67.4615V55.4534L67.7615 55.4534ZM2.507 59.2597L2.37603 59.5296L2.37635 59.5297L2.507 59.2597ZM0.944472 59.8026L0.674484 59.6718L0.674442 59.6719L0.944472 59.8026ZM3.05019 60.8221L3.3202 60.9528L3.32021 60.9528L3.05019 60.8221ZM69.9893 54.9406L73.9059 56.5119L74.1293 55.955L70.2127 54.3838L69.9893 54.9406ZM69.801 53.6619V54.6622H70.401V53.6619H69.801ZM71.9165 51.8235C71.3579 52.4545 70.6943 52.989 69.9553 53.3997L70.2468 53.9241C71.0455 53.4802 71.7624 52.9027 72.3657 52.2212L71.9165 51.8235ZM78.2857 49.1531C76.8159 51.0589 74.5492 52.0045 72.1763 51.7244L72.1059 52.3203C74.6878 52.625 77.1618 51.5928 78.7608 49.5195L78.2857 49.1531ZM79.1314 42.3631C80.1216 44.6467 79.8059 47.1822 78.2857 49.1531L78.7608 49.5195C80.4144 47.3757 80.759 44.6084 79.6819 42.1244L79.1314 42.3631ZM77.3727 38.3079L79.1314 42.3631L79.6819 42.1244L77.9231 38.0692L77.3727 38.3079ZM77.0804 37.2764C77.1316 37.6315 77.2298 37.9787 77.3727 38.308L77.9231 38.0691C77.8015 37.789 77.7179 37.4933 77.6743 37.1908L77.0804 37.2764ZM73.4741 30.6731C75.4309 32.3685 76.7117 34.7137 77.0804 37.2763L77.6743 37.1909C77.285 34.4854 75.9329 32.0096 73.867 30.2197L73.4741 30.6731ZM66.4247 28.044C69.0137 28.044 71.5173 28.9776 73.4741 30.6731L73.867 30.2197C71.8011 28.4296 69.1581 27.444 66.4247 27.444V28.044ZM59.3752 30.6731C61.3321 28.9776 63.8356 28.044 66.4247 28.044V27.444C63.6913 27.444 61.0482 28.4296 58.9823 30.2197L59.3752 30.6731ZM55.769 37.2763C56.1376 34.7135 57.4185 32.3685 59.3752 30.6731L58.9823 30.2197C56.9166 32.0096 55.5643 34.4852 55.1751 37.1909L55.769 37.2763ZM55.4766 38.308C55.6195 37.9788 55.7177 37.6316 55.7689 37.2764L55.1751 37.1908C55.1314 37.4935 55.0478 37.7891 54.9262 38.0691L55.4766 38.308ZM53.7181 42.3631L55.4767 38.3079L54.9262 38.0692L53.1676 42.1244L53.7181 42.3631ZM54.5638 49.1531C53.0436 47.182 52.7279 44.6465 53.7181 42.3631L53.1676 42.1244C52.0905 44.6082 52.4351 47.3755 54.0886 49.5195L54.5638 49.1531ZM59.8556 51.7769C57.7885 51.7771 55.8648 50.84 54.5637 49.1531L54.0886 49.5195C55.5025 51.3526 57.6012 52.3771 59.8557 52.3769L59.8556 51.7769ZM60.6637 51.7292C60.3923 51.7611 60.1225 51.7769 59.8556 51.7769V52.3769C60.1462 52.3769 60.4394 52.3597 60.7337 52.3251L60.6637 51.7292ZM62.6861 53.2918C62.0246 52.8981 61.4304 52.4034 60.9237 51.8288L60.4737 52.2256C61.0213 52.8465 61.6636 53.3815 62.3792 53.8074L62.6861 53.2918ZM62.8326 54.6621V53.5496H62.2326V54.6621H62.8326ZM58.728 56.5119L62.6443 54.9405L62.4209 54.3836L58.5045 55.9551L58.728 56.5119ZM58.0087 56.8453C58.2428 56.7218 58.4826 56.6104 58.728 56.5119L58.5045 55.9551C58.2393 56.0615 57.9806 56.1818 57.7288 56.3147L58.0087 56.8453ZM54.5129 53.2887C55.8195 54.1874 56.8696 55.3703 57.6052 56.7233L58.1323 56.4367C57.3523 55.0021 56.2387 53.7475 54.8529 52.7943L54.5129 53.2887ZM49.4117 49.7805L54.5129 53.2887L54.8529 52.7943L49.7517 49.2861L49.4117 49.7805ZM48.6346 48.0236C49.0851 48.4058 49.3074 48.9635 49.282 49.5196L49.8814 49.547C49.9149 48.8146 49.6219 48.0744 49.0228 47.5661L48.6346 48.0236ZM46.5618 46.2647L48.6346 48.0236L49.0228 47.5661L46.95 45.8072L46.5618 46.2647ZM46.0019 45.9391C46.2033 46.013 46.3931 46.1214 46.5617 46.2646L46.9501 45.8073C46.7257 45.6167 46.4739 45.4732 46.2086 45.3758L46.0019 45.9391ZM45.8053 43.2894V45.6574H46.4053V43.2894H45.8053ZM50.0093 36.4565C49.5671 39.1565 48.0583 41.5022 45.9291 43.0466L46.2814 43.5323C48.5343 41.8982 50.1328 39.4148 50.6014 36.5535L50.0093 36.4565ZM50.4301 36.205H50.3053V36.805H50.4301V36.205ZM54.1747 32.4606C54.1747 34.5249 52.4946 36.205 50.4301 36.205V36.805C52.8259 36.805 54.7747 34.8563 54.7747 32.4606H54.1747ZM53.3562 30.1282C53.8681 30.769 54.1747 31.5794 54.1747 32.4606H54.7747C54.7747 31.4376 54.4182 30.4963 53.8249 29.7537L53.3562 30.1282ZM54.1296 23.9555L53.2935 29.8992L53.8876 29.9827L54.7237 24.0391L54.1296 23.9555ZM47.7138 15.3691C51.8307 15.9815 54.7092 19.8339 54.1296 23.9555L54.7237 24.0391C55.3493 19.5912 52.2449 15.4365 47.8021 14.7756L47.7138 15.3691ZM47.5476 15.3445L47.714 15.3691L47.8019 14.7756L47.6355 14.751L47.5476 15.3445ZM41.4784 10.7701C43.9491 11.4707 46.0066 13.0352 47.3357 15.2045L47.8473 14.891C46.4394 12.5931 44.2577 10.9346 41.6421 10.1929L41.4784 10.7701ZM41.1722 10.6832L41.4783 10.7701L41.6421 10.1929L41.336 10.106L41.1722 10.6832ZM31.5258 12.2099C34.3695 10.3075 37.8852 9.75126 41.1723 10.6832L41.3359 10.106C37.8794 9.12596 34.1819 9.71106 31.1922 11.7112L31.5258 12.2099ZM31.2864 13.4162C31.0194 13.0171 31.1265 12.477 31.5258 12.2099L31.1922 11.7112C30.5175 12.1625 30.3364 13.0753 30.7877 13.7498L31.2864 13.4162ZM32.4928 13.6554C32.0935 13.9226 31.5535 13.8153 31.2864 13.4162L30.7877 13.7498C31.239 14.4243 32.1516 14.6056 32.8265 14.1541L32.4928 13.6554ZM40.6978 12.3566C37.9023 11.5639 34.9116 12.0373 32.4928 13.6554L32.8265 14.1541C35.0992 12.6337 37.9082 12.1892 40.5341 12.9339L40.6978 12.3566ZM41.004 12.4435L40.6978 12.3566L40.534 12.9338L40.8402 13.0207L41.004 12.4435ZM46.1054 16.5502C45.023 14.5284 43.2102 13.0691 41.0039 12.4435L40.8402 13.0207C42.8899 13.6019 44.5709 14.9551 45.5764 16.8334L46.1054 16.5502ZM47.084 21.0036C47.179 19.4718 46.8498 17.9409 46.1054 16.5503L45.5764 16.8334C46.2684 18.1261 46.5733 19.5462 46.4852 20.9664L47.084 21.0036ZM45.7962 20.531L46.5891 21.2125L46.9802 20.7575L46.1873 20.076L45.7962 20.531ZM43.6466 20.4978C44.2771 19.9885 45.1812 20.0024 45.7962 20.531L46.1873 20.076C45.3528 19.3587 44.1256 19.3396 43.2695 20.0311L43.6466 20.4978ZM42.6065 21.338L43.6466 20.4979L43.2696 20.0311L42.2295 20.8712L42.6065 21.338ZM36.4809 21.4046H42.418V20.8046H36.4809V21.4046ZM29.7939 28.0916C29.7939 24.4047 32.794 21.4046 36.4809 21.4046V20.8046C32.4626 20.8046 29.1939 24.0733 29.1939 28.0916H29.7939ZM29.7939 28.4165V28.0916H29.1939V28.4165H29.7939ZM28.66 28.8144C28.9289 28.7518 29.2081 28.7175 29.4949 28.7165L29.4928 28.1165C29.1593 28.1176 28.8352 28.1576 28.524 28.23L28.66 28.8144ZM29.3705 17.024C27.3385 20.5315 26.9577 24.8176 28.3093 28.6226L28.8747 28.4218C27.5816 24.7815 27.9465 20.679 29.8896 17.3247L29.3705 17.024ZM29.0539 15.8354C29.4695 16.0762 29.6112 16.6082 29.3704 17.024L29.8897 17.3247C30.2964 16.6223 30.057 15.7232 29.3547 15.3162L29.0539 15.8354ZM27.8654 16.152C28.1063 15.7364 28.6383 15.5948 29.054 15.8354L29.3546 15.3162C28.6524 14.9096 27.7533 15.1488 27.3463 15.8511L27.8654 16.152ZM26.8203 29.6089C25.125 25.2287 25.5076 20.2223 27.8655 16.1519L27.3463 15.8512C24.8969 20.0795 24.5001 25.2762 26.2608 29.8254L26.8203 29.6089ZM25.7644 32.4606C25.7644 31.4814 26.1424 30.5893 26.7608 29.9209L26.3203 29.5134C25.604 30.2879 25.1644 31.3238 25.1644 32.4606H25.7644ZM29.509 36.205C27.4445 36.205 25.7644 34.5249 25.7644 32.4606H25.1644C25.1644 34.8563 27.1132 36.805 29.509 36.805V36.205ZM29.6338 36.205H29.509V36.805H29.6338V36.205ZM34.01 43.0466C31.8808 41.5022 30.372 39.1565 29.9298 36.4565L29.3377 36.5535C29.8063 39.4148 31.4048 41.8982 33.6577 43.5323L34.01 43.0466ZM34.1338 45.6574V43.2894H33.5338V45.6574H34.1338ZM33.3775 46.2645C33.5461 46.1214 33.7359 46.0128 33.937 45.9391L33.7307 45.3758C33.4652 45.473 33.2133 45.6168 32.9892 45.8071L33.3775 46.2645ZM31.3045 48.0236L33.3775 46.2645L32.9892 45.8071L30.9163 47.5661L31.3045 48.0236ZM30.6571 49.5196C30.6317 48.9636 30.854 48.4058 31.3045 48.0236L30.9163 47.5661C30.3172 48.0744 30.0242 48.8147 30.0577 49.547L30.6571 49.5196ZM25.4262 53.2887L30.5274 49.7805L30.1874 49.2861L25.0862 52.7943L25.4262 53.2887ZM22.8899 55.8179C23.5657 54.8411 24.42 53.9807 25.4262 53.2887L25.0863 52.7943C24.0192 53.5281 23.1131 54.4406 22.3965 55.4766L22.8899 55.8179ZM21.1347 55.2953C21.6056 55.4621 22.0609 55.6683 22.4981 55.9098L22.7882 55.3846C22.3232 55.1277 21.838 54.9079 21.3351 54.7297L21.1347 55.2953ZM17.6713 54.0685L21.1347 55.2953L21.3351 54.7297L17.8716 53.5029L17.6713 54.0685ZM17.4714 52.8639V53.7857H18.0714V52.8639H17.4714ZM20.8612 47.7849C20.5225 49.8199 19.3065 51.5628 17.6137 52.6087L17.9291 53.1191C19.7647 51.985 21.0851 50.0942 21.453 47.8834L20.8612 47.7849ZM21.6805 47.5341H21.1571V48.1341H21.6805V47.5341ZM25.1022 44.1125C25.1022 45.9989 23.567 47.5341 21.6805 47.5341V48.1341C23.8984 48.1341 25.7022 46.3303 25.7022 44.1125H25.1022ZM24.2805 41.8921C24.7926 42.4908 25.1022 43.2658 25.1022 44.1125H25.7022C25.7022 43.1165 25.3374 42.2047 24.7364 41.5021L24.2805 41.8921ZM24.4183 39.1998L24.2095 41.6718L24.8074 41.7223L25.0162 39.2503L24.4183 39.1998ZM20.3859 30.4357C23.1933 32.4698 24.7 35.7452 24.4183 39.2007L25.0163 39.2494C25.315 35.5851 23.7151 32.107 20.738 29.9499L20.3859 30.4357ZM10.8009 29.3331C13.9968 27.9894 17.5786 28.4013 20.3859 30.4357L20.738 29.9499C17.7609 27.7925 13.9575 27.3551 10.5683 28.78L10.8009 29.3331ZM8.4695 30.3133L10.8009 29.3331L10.5683 28.78L8.23696 29.7602L8.4695 30.3133ZM3.14303 37.9254C2.6494 34.4065 4.96063 31.0929 8.4179 30.3297L8.28856 29.7438C4.52598 30.5744 2.01161 34.179 2.54885 38.0088L3.14303 37.9254ZM3.66455 41.6434L3.14303 37.9254L2.54885 38.0088L3.07037 41.7268L3.66455 41.6434ZM2.76338 44.1125C2.76338 43.2606 3.07683 42.4812 3.5946 41.8811L3.14031 41.4891C2.53271 42.1934 2.16338 43.1105 2.16338 44.1125H2.76338ZM6.18512 47.5341C4.29857 47.5341 2.76338 45.9989 2.76338 44.1125H2.16338C2.16338 46.3303 3.96721 48.1341 6.18512 48.1341V47.5341ZM6.70851 47.5341H6.18512V48.1341H6.70851V47.5341ZM9.92906 52.3959C8.40527 51.3347 7.32106 49.6877 7.00444 47.7849L6.41258 47.8834C6.75659 49.9509 7.93406 51.7377 9.58617 52.8883L9.92906 52.3959ZM10.0576 53.7857V52.6421H9.45761V53.7857H10.0576ZM6.39429 55.2951L9.85777 54.0685L9.65746 53.5029L6.19398 54.7295L6.39429 55.2951ZM5.01922 55.9149C5.46221 55.6698 5.92502 55.4614 6.39433 55.2951L6.19394 54.7296C5.69321 54.907 5.20031 55.129 4.72878 55.3899L5.01922 55.9149ZM4.67882 57.0967C4.44644 56.6764 4.5988 56.1473 5.01914 55.9149L4.72885 55.3898C4.0185 55.7825 3.76102 56.6767 4.15371 57.387L4.67882 57.0967ZM5.4409 57.5458C5.13373 57.5458 4.83723 57.3833 4.67883 57.0968L4.1537 57.387C4.422 57.8724 4.92431 58.1458 5.4409 58.1458V57.5458ZM5.86059 57.4369C5.72679 57.5109 5.58276 57.5458 5.4409 57.5458V58.1458C5.68175 58.1458 5.92605 58.0864 6.15096 57.962L5.86059 57.4369ZM6.9747 56.9346C6.5947 57.0692 6.21986 57.2382 5.86057 57.4369L6.15097 57.962C6.48195 57.7789 6.82669 57.6236 7.17501 57.5002L6.9747 56.9346ZM9.96749 55.8746L6.97469 56.9346L7.17501 57.5002L10.1678 56.4402L9.96749 55.8746ZM13.7643 58.319C12.2277 58.319 10.9054 57.3786 10.3443 56.0413L9.79102 56.2734C10.442 57.8251 11.9769 58.919 13.7643 58.919V58.319ZM17.1843 56.0413C16.6232 57.3786 15.3009 58.319 13.7643 58.319V58.919C15.5517 58.919 17.0865 57.8251 17.7376 56.2734L17.1843 56.0413ZM20.5539 56.9348L17.5611 55.8746L17.3607 56.4401L20.3536 57.5003L20.5539 56.9348ZM21.6882 57.4493C21.3257 57.2467 20.9468 57.0738 20.5538 56.9347L20.3537 57.5004C20.7136 57.6277 21.0615 57.7864 21.3955 57.973L21.6882 57.4493ZM21.1282 61.4605C21.1282 60.1965 21.3699 58.9646 21.8209 57.8212L21.2628 57.6011C20.7846 58.8133 20.5282 60.1198 20.5282 61.4605H21.1282ZM21.1282 68.3996V61.4605H20.5282V68.3996H21.1282ZM21.9978 69.2693C21.5175 69.2693 21.1282 68.88 21.1282 68.3996H20.5282C20.5282 69.2115 21.1862 69.8693 21.9978 69.8693V69.2693ZM22.8675 68.3996C22.8675 68.88 22.4782 69.2693 21.9978 69.2693V69.8693C22.8095 69.8693 23.4675 69.2115 23.4675 68.3996H22.8675ZM22.8675 61.4605V68.3996H23.4675V61.4605H22.8675ZM26.4116 54.722C24.1925 56.2481 22.8675 58.7672 22.8675 61.4605H23.4675C23.4675 58.9648 24.6952 56.6306 26.7516 55.2163L26.4116 54.722ZM31.283 51.3717L26.4116 54.722L26.7516 55.2163L31.623 51.8661L31.283 51.3717ZM33.69 54.1089L31.6933 51.4392L31.2128 51.7986L33.2095 54.4682L33.69 54.1089ZM35.246 54.8858C34.6441 54.8858 34.0611 54.6052 33.69 54.1089L33.2095 54.4682C33.6967 55.1197 34.4597 55.4858 35.246 55.4858V54.8858ZM35.8066 54.8024C35.622 54.8586 35.4332 54.8858 35.246 54.8858V55.4858C35.4912 55.4858 35.739 55.4502 35.9814 55.3764L35.8066 54.8024ZM38.7123 53.9181L35.8067 54.8024L35.9814 55.3764L38.887 54.4921L38.7123 53.9181ZM39.0996 68.8893V54.2051H38.4996V68.8893H39.0996ZM39.9693 69.759C39.489 69.759 39.0996 69.3697 39.0996 68.8893H38.4996C38.4996 69.7012 39.1577 70.359 39.9693 70.359V69.759ZM40.839 68.8893C40.839 69.3697 40.4496 69.759 39.9693 69.759V70.359C40.7809 70.359 41.439 69.7012 41.439 68.8893H40.839ZM40.839 54.2051V68.8893H41.439V54.2051H40.839ZM44.1323 54.8025L41.2263 53.9181L41.0516 54.4921L43.9576 55.3765L44.1323 54.8025ZM44.6926 54.8858C44.5055 54.8858 44.3169 54.8586 44.1322 54.8025L43.9577 55.3766C44.1999 55.4502 44.4474 55.4858 44.6926 55.4858V54.8858ZM46.2487 54.1088C45.8775 54.605 45.2944 54.8858 44.6926 54.8858V55.4858C45.4789 55.4858 46.2419 55.1196 46.7291 54.4682L46.2487 54.1088ZM48.2452 51.4392L46.2487 54.1089L46.7292 54.4682L48.7257 51.7986L48.2452 51.4392ZM53.5269 54.722L48.6555 51.3717L48.3155 51.8661L53.1869 55.2163L53.5269 54.722ZM57.071 61.4605C57.071 58.7673 55.7462 56.2481 53.5269 54.7219L53.1869 55.2163C55.2434 56.6306 56.471 58.9648 56.471 61.4605H57.071ZM57.071 68.3996V61.4605H56.471V68.3996H57.071ZM57.9406 69.2693C57.4603 69.2693 57.071 68.88 57.071 68.3996H56.471C56.471 69.2115 57.129 69.8693 57.9406 69.8693V69.2693ZM58.8103 68.3996C58.8103 68.88 58.421 69.2693 57.9406 69.2693V69.8693C58.7523 69.8693 59.4103 69.2115 59.4103 68.3996H58.8103ZM58.8103 61.4605V68.3996H59.4103V61.4605H58.8103ZM58.4589 58.8459C58.6891 59.6883 58.8103 60.5664 58.8103 61.4605H59.4103C59.4103 60.5121 59.2817 59.5808 59.0377 58.6878L58.4589 58.8459ZM59.3752 58.1264C59.1062 58.2344 58.8465 58.3622 58.5971 58.5077L58.8995 59.0259C59.1243 58.8948 59.3577 58.7799 59.5987 58.6833L59.3752 58.1264ZM62.7715 56.7637L59.3752 58.1264L59.5987 58.6833L62.9949 57.3205L62.7715 56.7637ZM66.3167 58.9378C64.9188 58.9378 63.7098 58.1093 63.1553 56.9157L62.6111 57.1685C63.26 58.565 64.6758 59.5378 66.3167 59.5378V58.9378ZM69.4782 56.9159C68.9237 58.1094 67.7147 58.9378 66.3167 58.9378V59.5378C67.9577 59.5378 69.3735 58.5652 70.0224 57.1687L69.4782 56.9159ZM73.2584 58.1264L69.862 56.7638L69.6386 57.3207L73.035 58.6833L73.2584 58.1264ZM76.9819 63.6322C76.9819 61.1957 75.5198 59.0336 73.2584 58.1264L73.035 58.6833C75.0689 59.4992 76.3819 61.4408 76.3819 63.6322H76.9819ZM76.9819 65.6121V63.6322H76.3819V65.6121H76.9819ZM77.8516 66.4817C77.3713 66.4817 76.9819 66.0925 76.9819 65.6121H76.3819C76.3819 66.4239 77.04 67.0817 77.8516 67.0817V66.4817ZM78.7213 65.6121C78.7213 66.0925 78.3319 66.4817 77.8516 66.4817V67.0817C78.6632 67.0817 79.3213 66.4239 79.3213 65.6121H78.7213ZM78.7213 63.6322V65.6121H79.3213V63.6322H78.7213ZM73.9058 56.5119C76.8316 57.6858 78.7211 60.4797 78.7213 63.6322L79.3213 63.6322C79.3211 60.2345 77.2824 57.2203 74.1293 55.9551L73.9058 56.5119ZM29.4908 30.456C28.3932 30.4657 27.5033 31.3603 27.5033 32.4604H28.1033C28.1033 31.6903 28.7271 31.0628 29.4961 31.056L29.4908 30.456ZM29.7934 34.1646V30.756H29.1934V34.1646H29.7934ZM27.5033 32.4604C27.5033 33.5606 28.3935 34.455 29.4908 34.4645L29.496 33.8646C28.7272 33.8579 28.1033 33.2305 28.1033 32.4604H27.5033ZM21.2578 45.7946H21.6802V45.1946H21.2578V45.7946ZM20.9578 42.7298V45.4946H21.5578V42.7298H20.9578ZM21.6802 42.4298H21.2578V43.0298H21.6802V42.4298ZM23.3626 44.1122C23.3626 43.1844 22.6082 42.4298 21.6802 42.4298V43.0298C22.2768 43.0298 22.7626 43.5157 22.7626 44.1122H23.3626ZM21.6802 45.7946C22.6082 45.7946 23.3626 45.0401 23.3626 44.1122H22.7626C22.7626 44.7087 22.2768 45.1946 21.6802 45.1946V45.7946ZM6.18481 42.43C5.25681 42.43 4.50241 43.1844 4.50241 44.1124H5.10241C5.10241 43.5158 5.58818 43.03 6.18481 43.03V42.43ZM6.60714 42.43H6.18481V43.03H6.60714V42.43ZM6.90714 45.4948V42.73H6.30714V45.4948H6.90714ZM6.18481 45.7948H6.60714V45.1948H6.18481V45.7948ZM4.50241 44.1124C4.50241 45.0403 5.25701 45.7946 6.18475 45.7948L6.18487 45.1948C5.58829 45.1947 5.10241 44.7088 5.10241 44.1124H4.50241ZM6.94688 40.4213C7.07575 39.1735 7.52574 37.9898 8.27073 36.9611L7.78477 36.6091C6.97799 37.7232 6.48975 39.007 6.35006 40.3597L6.94688 40.4213ZM6.18481 40.6905H6.64847V40.0905H6.18481V40.6905ZM5.60598 40.7405C5.79529 40.7082 5.9883 40.6905 6.18481 40.6905V40.0905C5.95212 40.0905 5.7253 40.1115 5.50507 40.149L5.60598 40.7405ZM4.86527 37.6834L5.25843 40.4864L5.85262 40.4031L5.45945 37.6001L4.86527 37.6834ZM8.8774 32.0098C6.25572 32.5425 4.49358 35.0342 4.86527 37.6834L5.45945 37.6001C5.13183 35.265 6.68594 33.0674 8.99686 32.5978L8.8774 32.0098ZM9.04123 31.9594C8.9885 31.9816 8.93363 31.9985 8.87759 32.0098L8.99666 32.5979C9.09159 32.5787 9.18457 32.55 9.27407 32.5123L9.04123 31.9594ZM11.4749 30.9361L9.04137 31.9593L9.27393 32.5124L11.7075 31.4892L11.4749 30.9361ZM19.3653 31.8437C17.0557 30.1702 14.1046 29.8304 11.4749 30.9361L11.7075 31.4892C14.1439 30.4648 16.8733 30.779 19.0132 32.3295L19.3653 31.8437ZM22.6849 39.0554C22.9164 36.216 21.6748 33.5174 19.3653 31.8437L19.0132 32.3295C21.1531 33.8803 22.3014 36.3763 22.0869 39.0066L22.6849 39.0554ZM22.566 40.4622L22.6848 39.0563L22.0869 39.0058L21.9681 40.4117L22.566 40.4622ZM21.6802 40.6903C21.8637 40.6903 22.0438 40.7052 22.2199 40.7332L22.3142 40.1407C22.1079 40.1079 21.8962 40.0903 21.6802 40.0903V40.6903ZM21.2475 40.6903H21.6802V40.0903H21.2475V40.6903ZM19.289 38.9219C20.1513 38.9219 20.8637 39.5803 20.9491 40.4207L21.546 40.36C21.4299 39.2169 20.4627 38.3219 19.289 38.3219V38.9219ZM16.4007 38.9219H19.289V38.3219H16.4007V38.9219ZM10.484 36.9321C12.1762 38.2154 14.2768 38.9219 16.4007 38.9219V38.3219C14.4077 38.3219 12.4344 37.6582 10.8466 36.454L10.484 36.9321ZM10.1531 36.6812L10.484 36.9321L10.8465 36.454L10.5156 36.2031L10.1531 36.6812ZM9.15324 36.4251C9.50416 36.3728 9.86983 36.4663 10.153 36.6812L10.5156 36.2031C10.1039 35.8908 9.57564 35.7555 9.06475 35.8316L9.15324 36.4251ZM8.2707 36.9611C8.47914 36.6733 8.80159 36.4775 9.15319 36.4251L9.06479 35.8316C8.55364 35.9078 8.08789 36.1907 7.78479 36.6091L8.2707 36.9611ZM9.27579 38.6289C8.86236 39.4086 8.64664 40.2744 8.64664 41.169H9.24664C9.24664 40.3719 9.4386 39.6026 9.80587 38.91L9.27579 38.6289ZM16.4009 40.6616C14.0172 40.6616 11.6561 39.9049 9.71464 38.525L9.36703 39.014C11.4096 40.4659 13.8922 41.2616 16.4009 41.2616V40.6616ZM18.9185 40.6616H16.4009V41.2616H18.9185V40.6616ZM19.2185 46.6281V40.9616H18.6185V46.6281H19.2185ZM13.9326 51.9142C16.8475 51.9142 19.2185 49.5432 19.2185 46.6281H18.6185C18.6185 49.2118 16.5161 51.3142 13.9326 51.3142V51.9142ZM8.64664 46.6281C8.64664 49.5432 11.0177 51.9142 13.9326 51.9142V51.3142C11.3491 51.3142 9.24664 49.2118 9.24664 46.6281H8.64664ZM8.64664 41.169V46.6281H9.24664V41.169H8.64664ZM11.7966 54.6122C11.7966 55.6972 12.6789 56.5796 13.7641 56.5796V55.9796C13.0103 55.9796 12.3966 55.3658 12.3966 54.6122H11.7966ZM11.7966 53.7204V54.6122H12.3966V53.7204H11.7966ZM13.9326 53.6535C13.3244 53.6535 12.7345 53.5757 12.1719 53.43L12.0214 54.0108C12.6325 54.1692 13.2731 54.2535 13.9326 54.2535V53.6535ZM15.3704 53.505C14.906 53.6021 14.4253 53.6535 13.9326 53.6535V54.2535C14.4672 54.2535 14.989 54.1977 15.4932 54.0923L15.3704 53.505ZM15.7318 54.6122V53.7987H15.1318V54.6122H15.7318ZM13.7641 56.5796C14.8493 56.5796 15.7318 55.6972 15.7318 54.6122H15.1318C15.1318 55.3658 14.518 55.9796 13.7641 55.9796V56.5796ZM50.1448 30.756V34.1646H50.7448V30.756H50.1448ZM52.4349 32.4604C52.4349 31.3603 51.545 30.4655 50.4474 30.456L50.4422 31.056C51.211 31.0626 51.8349 31.6903 51.8349 32.4604H52.4349ZM50.4474 34.4645C51.5449 34.455 52.4349 33.5606 52.4349 32.4604H51.8349C51.8349 33.2305 51.2111 33.8579 50.4422 33.8646L50.4474 34.4645ZM51.7217 28.5818L52.4067 23.7128L51.8125 23.6292L51.1276 28.4982L51.7217 28.5818ZM50.4435 28.7162C50.7567 28.7173 51.0606 28.7571 51.3508 28.8308L51.4985 28.2492C51.1611 28.1635 50.8084 28.1175 50.4457 28.1162L50.4435 28.7162ZM50.1446 28.3215V28.4162H50.7446V28.3215H50.1446ZM48.5589 23.2775C49.5806 24.7436 50.1446 26.4978 50.1446 28.3215H50.7446C50.7446 26.3735 50.142 24.4999 49.0512 22.9345L48.5589 23.2775ZM48.4833 17.8496C48.9461 19.5346 48.962 21.3075 48.5147 23.0306L49.0954 23.1814C49.5691 21.3568 49.5526 19.4772 49.0619 17.6907L48.4833 17.8496ZM52.4067 23.7128C52.7832 21.0361 51.2707 18.5101 48.8904 17.4942L48.6548 18.046C50.7932 18.9587 52.1502 21.229 51.8125 23.6292L52.4067 23.7128ZM31.5329 28.0913V34.8065H32.1329V28.0913H31.5329ZM36.4806 23.1436C33.7522 23.1436 31.5329 25.3628 31.5329 28.0913H32.1329C32.1329 25.6942 34.0836 23.7436 36.4806 23.7436V23.1436ZM42.8311 23.1436H36.4806V23.7436H42.8311V23.1436ZM43.3775 22.9506C43.2228 23.0755 43.03 23.1436 42.8311 23.1436V23.7436C43.1672 23.7436 43.4931 23.6284 43.7544 23.4174L43.3775 22.9506ZM44.5055 22.0394L43.3775 22.9506L43.7545 23.4173L44.8825 22.5061L44.5055 22.0394ZM45.9374 22.9459L44.8896 22.0452L44.4985 22.5002L45.5463 23.4009L45.9374 22.9459ZM48.4053 28.3215C48.4053 26.2536 47.5058 24.2939 45.9374 22.9459L45.5463 23.4009C46.982 24.6349 47.8053 26.4284 47.8053 28.3215H48.4053ZM48.4053 34.8063V28.3215H47.8053V34.8063H48.4053ZM39.969 43.2426C44.6211 43.2426 48.4053 39.4584 48.4053 34.8063H47.8053C47.8053 39.127 44.2897 42.6426 39.969 42.6426V43.2426ZM31.5329 34.8065C31.5329 39.4584 35.3169 43.2426 39.969 43.2426V42.6426C35.6483 42.6426 32.1329 39.127 32.1329 34.8065H31.5329ZM43.6565 44.2877C42.5121 44.7343 41.2696 44.9821 39.9692 44.9821V45.5821C41.3465 45.5821 42.6629 45.3195 43.8747 44.8466L43.6565 44.2877ZM44.0656 46.0659V44.5672H43.4656V46.0659H44.0656ZM40.1012 48.1968L43.8977 46.3353L43.6335 45.7965L39.8371 47.658L40.1012 48.1968ZM36.0406 46.3353L39.8371 48.1968L40.1012 47.658L36.3048 45.7965L36.0406 46.3353ZM35.8727 44.5672V46.0659H36.4727V44.5672H35.8727ZM39.9692 44.9821C38.6687 44.9821 37.426 44.7341 36.2818 44.2877L36.0637 44.8466C37.2753 45.3194 38.5918 45.5821 39.9692 45.5821V44.9821ZM32.5206 49.6414L35.0403 53.0102L35.5207 52.6508L33.0011 49.282L32.5206 49.6414ZM34.4066 47.6717L32.5668 49.233L32.955 49.6904L34.7948 48.1292L34.4066 47.6717ZM38.9314 49.6897L34.7328 47.6311L34.4686 48.1698L38.6673 50.2284L38.9314 49.6897ZM39.0993 51.7596V49.959H38.4993V51.7596H39.0993ZM35.3678 53.1175L38.8867 52.0466L38.712 51.4725L35.1931 52.5435L35.3678 53.1175ZM41.0515 52.0467L44.5703 53.1175L44.745 52.5435L41.2262 51.4727L41.0515 52.0467ZM40.8388 49.9592V51.7597H41.4388V49.9592H40.8388ZM45.2054 47.6312L41.0068 49.6898L41.2709 50.2286L45.4696 48.1699L45.2054 47.6312ZM47.3714 49.2331L45.5316 47.6718L45.1434 48.1293L46.9832 49.6906L47.3714 49.2331ZM44.8979 53.0102L47.4175 49.6415L46.9371 49.2822L44.4174 52.6508L44.8979 53.0102ZM55.3137 43.0552C54.5803 44.7462 54.8151 46.6313 55.9408 48.0908L56.4159 47.7244C55.4236 46.4378 55.2177 44.7845 55.8642 43.294L55.3137 43.0552ZM57.0723 39.0001L55.3137 43.0553L55.8642 43.294L57.6228 39.2388L57.0723 39.0001ZM57.4904 37.5242C57.4173 38.0327 57.2766 38.5292 57.0723 39L57.6227 39.2389C57.8483 38.719 58.0036 38.1709 58.0843 37.6096L57.4904 37.5242ZM66.4247 29.7835C61.9653 29.7835 58.1256 33.1103 57.4904 37.5242L58.0843 37.6096C58.677 33.4911 62.2637 30.3835 66.4247 30.3835V29.7835ZM75.3588 37.5242C74.7237 33.1103 70.884 29.7835 66.4247 29.7835V30.3835C70.5856 30.3835 74.1723 33.4911 74.7649 37.6096L75.3588 37.5242ZM75.7769 39.0001C75.5726 38.5291 75.4319 38.0326 75.3588 37.5242L74.7649 37.6096C74.8456 38.1708 75.0009 38.7189 75.2264 39.2388L75.7769 39.0001ZM77.5354 43.0553L75.7769 39.0001L75.2264 39.2388L76.985 43.294L77.5354 43.0553ZM76.9084 48.0908C78.034 46.6313 78.2687 44.7461 77.5354 43.0553L76.985 43.294C77.6313 44.7844 77.4255 46.4378 76.4333 47.7244L76.9084 48.0908ZM73.5926 49.9979C74.8924 49.8378 76.0757 49.1703 76.9084 48.0908L76.4333 47.7244C75.6977 48.678 74.6586 49.2621 73.5193 49.4024L73.5926 49.9979ZM73.7334 47.5963C73.6755 48.2943 73.5178 48.964 73.276 49.5924L73.8359 49.8079C74.0978 49.1275 74.2686 48.4021 74.3313 47.6459L73.7334 47.5963ZM72.9385 46.6578C73.417 46.6974 73.7731 47.1177 73.7334 47.5963L74.3313 47.6459C74.3984 46.837 73.7968 46.1268 72.9881 46.0598L72.9385 46.6578ZM72 47.4527C72.0397 46.9746 72.4601 46.6189 72.939 46.6578L72.9876 46.0598C72.1801 45.9942 71.4693 46.5938 71.402 47.403L72 47.4527ZM66.4247 52.5803C69.3138 52.5803 71.7617 50.3294 72 47.4526L71.402 47.4031C71.1896 49.9682 69.0022 51.9803 66.4247 51.9803V52.5803ZM60.8282 46.9839C60.8282 50.0701 63.3384 52.5803 66.4247 52.5803V51.9803C63.6698 51.9803 61.4282 49.7388 61.4282 46.9839H60.8282ZM60.8282 41.3727V46.9839H61.4282V41.3727H60.8282ZM61.9173 37.7028C61.2115 38.7897 60.8282 40.07 60.8282 41.3727H61.4282C61.4282 40.1869 61.7774 39.02 62.4205 38.0296L61.9173 37.7028ZM67.4619 39.4328C65.6194 39.3841 63.8146 38.7449 62.351 37.6277L61.9869 38.1046C63.5504 39.2981 65.477 39.9805 67.4461 40.0326L67.4619 39.4328ZM71.729 39.5454L67.4619 39.4328L67.4461 40.0326L71.7132 40.1452L71.729 39.5454ZM72.0211 42.5396V39.8453H71.4211V42.5396H72.0211ZM72.8908 43.4092C72.4105 43.4092 72.0211 43.02 72.0211 42.5396H71.4211C71.4211 43.3514 72.0791 44.0092 72.8908 44.0092V43.4092ZM73.7604 42.5396C73.7604 43.02 73.3711 43.4092 72.8908 43.4092V44.0092C73.7024 44.0092 74.3605 43.3514 74.3605 42.5396H73.7604ZM73.7604 39.5285V42.5396H74.3605V39.5285H73.7604ZM72.0914 37.815C73.0285 37.8396 73.7604 38.591 73.7604 39.5285H74.3605C74.3605 38.2658 73.3694 37.2483 72.1072 37.2152L72.0914 37.815ZM67.5077 37.6943L72.0914 37.815L72.1072 37.2152L67.5235 37.0945L67.5077 37.6943ZM63.2391 36.1138C64.4419 37.0921 65.9572 37.6533 67.5076 37.6943L67.5235 37.0945C66.1055 37.057 64.7178 36.543 63.6177 35.6483L63.2391 36.1138ZM62.9368 35.8678L63.2391 36.1137L63.6178 35.6483L63.3155 35.4024L62.9368 35.8678ZM61.8969 35.5597C62.2743 35.5191 62.6424 35.6283 62.9369 35.8678L63.3155 35.4023C62.897 35.062 62.3696 34.9054 61.8328 34.9631L61.8969 35.5597ZM60.9458 36.0807C61.1826 35.7847 61.5195 35.6 61.8967 35.5597L61.8329 34.9631C61.2966 35.0204 60.814 35.2849 60.4772 35.7059L60.9458 36.0807ZM59.0884 41.3732C59.0884 39.4568 59.7483 37.5769 60.9457 36.0808L60.4773 35.7059C59.1947 37.3083 58.4884 39.3205 58.4884 41.3732H59.0884ZM59.0884 46.9843V41.3732H58.4884V46.9843H59.0884ZM59.5687 49.591C59.2593 48.7805 59.0884 47.9023 59.0884 46.9843H58.4884C58.4884 47.9774 58.6734 48.928 59.0081 49.8049L59.5687 49.591ZM55.9408 48.0908C56.7725 49.1692 57.9542 49.8345 59.2514 49.9957L59.3254 49.4003C58.1879 49.2589 57.1503 48.6766 56.4159 47.7244L55.9408 48.0908ZM64.5715 55.4532C64.5715 56.4159 65.3541 57.1983 66.3166 57.1983V56.5983C65.6855 56.5983 65.1715 56.0845 65.1715 55.4532H64.5715ZM64.5715 54.4606V55.4532H65.1715V54.4606H64.5715ZM66.4245 54.3198C65.9134 54.3198 65.4144 54.2668 64.9324 54.1668L64.8106 54.7543C65.332 54.8624 65.8717 54.9198 66.4245 54.9198V54.3198ZM67.7082 54.2032C67.2894 54.2788 66.8608 54.3198 66.4245 54.3198V54.9198C66.8984 54.9198 67.3628 54.8753 67.8148 54.7937L67.7082 54.2032ZM68.0615 55.4534V54.4985H67.4615V55.4534H68.0615ZM66.3166 57.1983C67.279 57.1983 68.0617 56.4159 68.0615 55.4533L67.4615 55.4534C67.4616 56.0844 66.9477 56.5983 66.3166 56.5983V57.1983ZM28.6482 60.017C27.8366 60.017 27.1785 60.6749 27.1785 61.4867H27.7785C27.7785 61.0063 28.1679 60.617 28.6482 60.617V60.017ZM30.1179 61.4867C30.1179 60.6749 29.4598 60.017 28.6482 60.017V60.617C29.1285 60.617 29.5179 61.0063 29.5179 61.4867H30.1179ZM30.1179 67.6467V61.4867H29.5179V67.6467H30.1179ZM28.6482 69.1163C29.4598 69.1163 30.1179 68.4585 30.1179 67.6467H29.5179C29.5179 68.1271 29.1285 68.5163 28.6482 68.5163V69.1163ZM27.1785 67.6467C27.1785 68.4585 27.8366 69.1163 28.6482 69.1163V68.5163C28.1679 68.5163 27.7785 68.1271 27.7785 67.6467H27.1785ZM27.1785 61.4867V67.6467H27.7785V61.4867H27.1785ZM51.2893 60.017C50.4777 60.017 49.8196 60.6748 49.8196 61.4867H50.4196C50.4196 61.0063 50.809 60.617 51.2893 60.617V60.017ZM52.759 61.4867C52.759 60.6748 52.1009 60.017 51.2893 60.017V60.617C51.7696 60.617 52.159 61.0063 52.159 61.4867H52.759ZM52.759 67.6467V61.4867H52.159V67.6467H52.759ZM51.2893 69.1163C52.1009 69.1163 52.759 68.4585 52.759 67.6467H52.159C52.159 68.1271 51.7696 68.5163 51.2893 68.5163V69.1163ZM49.8196 67.6467C49.8196 68.4585 50.4777 69.1163 51.2893 69.1163V68.5163C50.809 68.5163 50.4196 68.1271 50.4196 67.6467H49.8196ZM49.8196 61.4867V67.6467H50.4196V61.4867H49.8196ZM2.63797 58.9898C1.90709 58.6351 1.02824 58.9415 0.674484 59.6718L1.21446 59.9334C1.42401 59.5008 1.9441 59.32 2.37603 59.5296L2.63797 58.9898ZM3.32021 60.9528C3.67391 60.2223 3.36844 59.3432 2.63765 58.9896L2.37635 59.5297C2.80868 59.7389 2.98948 60.259 2.78018 60.6913L3.32021 60.9528ZM2.63935 63.9179C2.63935 62.8832 2.86814 61.8864 3.3202 60.9528L2.78018 60.6913C2.28872 61.7062 2.03935 62.7924 2.03935 63.9179H2.63935ZM2.63935 67.6466V63.9179H2.03935V67.6466H2.63935ZM1.16967 69.1162C1.9813 69.1162 2.63935 68.4584 2.63935 67.6466H2.03935C2.03935 68.127 1.64998 68.5162 1.16967 68.5162V69.1162ZM-0.3 67.6466C-0.3 68.4584 0.358042 69.1162 1.16967 69.1162V68.5162C0.689361 68.5162 0.3 68.127 0.3 67.6466H-0.3ZM-0.3 63.9179V67.6466H0.3V63.9179H-0.3ZM0.674442 59.6719C0.0281221 61.0071 -0.3 62.4364 -0.3 63.9179H0.3C0.3 62.5271 0.607556 61.1872 1.2145 59.9333L0.674442 59.6719Z" fill="white" mask="url(#path-1-inside-1_716:2656)"/>
</g>
<defs>
<clipPath id="clip0_716:2656">
<rect width="80" height="80" fill="white"/>
</clipPath>
</defs>
</svg>
