<svg width="60" height="60" viewBox="0 0 60 60" fill="none" xmlns="http://www.w3.org/2000/svg">
<path d="M57.9492 50.625H57.832V18.6914C57.832 17.5607 56.912 16.6406 55.7812 16.6406H49.2773V10.5382C49.2783 10.5216 49.2798 10.5052 49.2798 10.4883C49.2798 10.4714 49.2783 10.455 49.2773 10.4384V4.62891C49.2773 3.49816 48.3573 2.57812 47.2266 2.57812H26.2675C25.7821 2.57812 25.3886 2.97152 25.3886 3.45703C25.3886 3.94254 25.7821 4.33594 26.2675 4.33594H47.2266C47.388 4.33594 47.5195 4.4673 47.5195 4.62891V9.60938H12.4805V4.62891C12.4805 4.4673 12.612 4.33594 12.7734 4.33594H22.1659C22.6513 4.33594 23.0448 3.94254 23.0448 3.45703C23.0448 2.97152 22.6513 2.57812 22.1659 2.57812H12.7734C11.6427 2.57812 10.7227 3.49816 10.7227 4.62891V10.4384C10.7217 10.455 10.7202 10.4714 10.7202 10.4883C10.7202 10.5052 10.7217 10.5216 10.7227 10.5382V16.6406H4.21875C3.08801 16.6406 2.16797 17.5607 2.16797 18.6914V50.625H2.05078C0.920039 50.625 0 51.545 0 52.6758V53.0273C0 55.4505 1.97133 57.4219 4.39453 57.4219H55.6055C58.0287 57.4219 60 55.4505 60 53.0273V52.6758C60 51.545 59.08 50.625 57.9492 50.625ZM55.7812 18.3984C55.9427 18.3984 56.0742 18.5298 56.0742 18.6914V20.1562H49.2773V18.3984H55.7812ZM4.21875 18.3984H10.7227V20.1562H3.92578V18.6914C3.92578 18.5298 4.05727 18.3984 4.21875 18.3984ZM58.2422 53.0273C58.2422 54.4812 57.0594 55.6641 55.6055 55.6641H4.39453C2.94059 55.6641 1.75781 54.4812 1.75781 53.0273V52.6758C1.75781 52.5142 1.8893 52.3828 2.05078 52.3828H44.3555C44.8409 52.3828 45.2344 51.9894 45.2344 51.5039C45.2344 51.0184 44.8409 50.625 44.3555 50.625H3.92578V21.9141H10.7227V26.9531C10.7227 27.4386 11.1162 27.832 11.6016 27.832C12.087 27.832 12.4805 27.4386 12.4805 26.9531V11.3672H47.5195V46.8164C47.5195 46.978 47.388 47.1094 47.2266 47.1094H12.7734C12.612 47.1094 12.4805 46.978 12.4805 46.8164V31.0547C12.4805 30.5692 12.087 30.1758 11.6016 30.1758C11.1162 30.1758 10.7227 30.5692 10.7227 31.0547V46.8164C10.7227 47.9471 11.6427 48.8672 12.7734 48.8672H47.2266C48.3573 48.8672 49.2773 47.9471 49.2773 46.8164V21.9141H56.0742V50.625H48.457C47.9716 50.625 47.5781 51.0184 47.5781 51.5039C47.5781 51.9894 47.9716 52.3828 48.457 52.3828H57.9492C58.1107 52.3828 58.2422 52.5142 58.2422 52.6758V53.0273Z" fill="url(#paint0_linear)"/>
<path d="M44.8849 7.85156C45.3703 7.85156 45.7638 7.45816 45.7638 6.97266C45.7638 6.48715 45.3703 6.09375 44.8849 6.09375H37.8486C37.3632 6.09375 36.9697 6.48715 36.9697 6.97266C36.9697 7.45816 37.3632 7.85156 37.8486 7.85156H44.8849Z" fill="url(#paint1_linear)"/>
<path d="M15.1361 6.09375C14.6507 6.09375 14.2578 6.48715 14.2578 6.97266C14.2578 7.45816 14.6519 7.85156 15.1373 7.85156C15.6227 7.85156 16.0162 7.45816 16.0162 6.97266C16.0162 6.48715 15.6227 6.09375 15.1373 6.09375H15.1361Z" fill="url(#paint2_linear)"/>
<path d="M18.6518 6.09375C18.1664 6.09375 17.7734 6.48715 17.7734 6.97266C17.7734 7.45816 18.1675 7.85156 18.6529 7.85156C19.1383 7.85156 19.5318 7.45816 19.5318 6.97266C19.5318 6.48715 19.1383 6.09375 18.6529 6.09375H18.6518Z" fill="url(#paint3_linear)"/>
<path d="M22.1686 6.09375H22.1674C21.682 6.09375 21.2891 6.48715 21.2891 6.97266C21.2891 7.45816 21.6832 7.85156 22.1686 7.85156C22.6539 7.85156 23.0475 7.45816 23.0475 6.97266C23.0475 6.48715 22.6539 6.09375 22.1686 6.09375Z" fill="url(#paint4_linear)"/>
<path d="M15.4502 37.4631H45.2158C45.7012 37.4631 46.0947 37.0697 46.0947 36.5842V31.2422C46.0947 30.7567 45.7012 30.3633 45.2158 30.3633C44.7304 30.3633 44.3369 30.7567 44.3369 31.2422V35.7053H16.3291V17.5413H44.3369V27.1407C44.3369 27.6262 44.7304 28.0196 45.2158 28.0196C45.7012 28.0196 46.0947 27.6262 46.0947 27.1407V16.6624C46.0947 16.1768 45.7012 15.7834 45.2158 15.7834H15.4502C14.9648 15.7834 14.5713 16.1768 14.5713 16.6624V36.5842C14.5713 37.0697 14.9648 37.4631 15.4502 37.4631Z" fill="url(#paint5_linear)"/>
<path d="M19.4788 42.0001H40.5218C40.8649 42.0001 41.1431 41.6164 41.1431 41.1429C41.1431 40.6694 40.8649 40.2858 40.5218 40.2858H19.4788C19.1356 40.2858 18.8574 40.6694 18.8574 41.1429C18.8574 41.6164 19.1356 42.0001 19.4788 42.0001Z" fill="url(#paint6_linear)"/>
<path d="M22.1935 22.2288C21.7421 22.2288 21.3307 22.5121 21.1697 22.9343L18.5451 29.8261C18.3723 30.2797 18.6 30.7876 19.0536 30.9603C19.5074 31.1334 20.015 30.9052 20.1877 30.4517L20.639 29.2668H23.7283L24.1745 30.4493C24.3074 30.8013 24.6418 31.0182 24.9971 31.0182C25.1001 31.0182 25.2051 30.9999 25.3071 30.9613C25.7612 30.79 25.9906 30.2829 25.8191 29.8287L23.2185 22.9377C23.0584 22.5136 22.6465 22.2288 22.1935 22.2288ZM21.3084 27.509L22.1905 25.1926L23.0648 27.509H21.3084Z" fill="url(#paint7_linear)"/>
<path d="M28.4414 22.2288C27.956 22.2288 27.5625 22.6222 27.5625 23.1077V30.1389C27.5625 30.6244 27.956 31.0178 28.4414 31.0178C28.4452 31.0177 30.4385 31.0181 30.5016 31.0177C32.6152 30.9808 34.1493 29.1343 34.1493 26.6272C34.1493 23.9963 32.6537 22.2288 30.4279 22.2288H28.4414ZM32.3915 26.6272C32.3915 27.8768 31.7925 29.2321 30.4778 29.26H29.3203V23.9866H30.4279C31.8756 23.9866 32.3915 25.3506 32.3915 26.6272Z" fill="url(#paint8_linear)"/>
<path d="M38.5186 29.26C37.8197 29.26 37.1472 28.9784 36.7197 28.5065C36.3938 28.1468 35.838 28.1194 35.4782 28.4454C35.1184 28.7714 35.0911 29.3271 35.4172 29.6869C36.1724 30.5202 37.3319 31.0178 38.5186 31.0178C40.0005 31.0178 41.2448 30.0723 41.4774 28.7695C41.6525 27.7891 41.2074 26.5083 39.4334 25.8541C38.9732 25.664 38.0253 25.4331 37.5968 25.1356C37.414 25.0041 37.326 24.7985 37.3617 24.5859C37.4027 24.3399 37.596 24.1531 37.9061 24.0597C38.8958 23.7616 39.8132 24.4847 39.841 24.5069C40.2125 24.8152 40.7638 24.7661 41.0749 24.396C41.3872 24.0244 41.3391 23.47 40.9675 23.1577C40.9012 23.1018 39.3202 21.7978 37.3989 22.3765C36.4424 22.6647 35.7803 23.3825 35.6276 24.2964C35.4816 25.1712 35.8429 26.0397 36.5704 26.5628C37.1788 26.9942 37.8972 27.1669 38.8249 27.5032C39.1332 27.617 39.8402 27.9379 39.7468 28.4605C39.6768 28.8535 39.1982 29.26 38.5186 29.26Z" fill="url(#paint9_linear)"/>
<defs>
<linearGradient id="paint0_linear" x1="60" y1="2.57813" x2="0.641346" y2="25.3675" gradientUnits="userSpaceOnUse">
<stop stop-color="#4AB1FE"/>
<stop offset="1" stop-color="#07EBFE"/>
</linearGradient>
<linearGradient id="paint1_linear" x1="45.7638" y1="6.09375" x2="43.3186" y2="10.3868" gradientUnits="userSpaceOnUse">
<stop stop-color="#4AB1FE"/>
<stop offset="1" stop-color="#07EBFE"/>
</linearGradient>
<linearGradient id="paint2_linear" x1="16.0162" y1="6.09375" x2="14.2392" y2="6.71758" gradientUnits="userSpaceOnUse">
<stop stop-color="#4AB1FE"/>
<stop offset="1" stop-color="#07EBFE"/>
</linearGradient>
<linearGradient id="paint3_linear" x1="19.5318" y1="6.09375" x2="17.7548" y2="6.71758" gradientUnits="userSpaceOnUse">
<stop stop-color="#4AB1FE"/>
<stop offset="1" stop-color="#07EBFE"/>
</linearGradient>
<linearGradient id="paint4_linear" x1="23.0475" y1="6.09375" x2="21.2704" y2="6.71758" gradientUnits="userSpaceOnUse">
<stop stop-color="#4AB1FE"/>
<stop offset="1" stop-color="#07EBFE"/>
</linearGradient>
<linearGradient id="paint5_linear" x1="46.0947" y1="15.7834" x2="17.7038" y2="30.2706" gradientUnits="userSpaceOnUse">
<stop stop-color="#4AB1FE"/>
<stop offset="1" stop-color="#07EBFE"/>
</linearGradient>
<linearGradient id="paint6_linear" x1="41.1431" y1="40.2858" x2="39.9834" y2="45.5766" gradientUnits="userSpaceOnUse">
<stop stop-color="#4AB1FE"/>
<stop offset="1" stop-color="#07EBFE"/>
</linearGradient>
<linearGradient id="paint7_linear" x1="25.876" y1="22.2288" x2="18.1603" y2="24.5049" gradientUnits="userSpaceOnUse">
<stop stop-color="#4AB1FE"/>
<stop offset="1" stop-color="#07EBFE"/>
</linearGradient>
<linearGradient id="paint8_linear" x1="34.1493" y1="22.2288" x2="27.1561" y2="24.0679" gradientUnits="userSpaceOnUse">
<stop stop-color="#4AB1FE"/>
<stop offset="1" stop-color="#07EBFE"/>
</linearGradient>
<linearGradient id="paint9_linear" x1="41.5127" y1="22.2288" x2="34.7651" y2="23.9324" gradientUnits="userSpaceOnUse">
<stop stop-color="#4AB1FE"/>
<stop offset="1" stop-color="#07EBFE"/>
</linearGradient>
</defs>
</svg>
