<svg width="80" height="80" viewBox="0 0 80 80" fill="none" xmlns="http://www.w3.org/2000/svg">
<path d="M35.0425 63.876C34.9229 63.8759 34.8042 63.8562 34.6911 63.8176C30.3513 62.4362 26.4058 60.0346 23.1853 56.8142C19.9649 53.5938 17.5633 49.6483 16.1819 45.3084C16.1263 45.1469 16.1098 44.9745 16.1337 44.8054C16.1575 44.6363 16.2211 44.4752 16.3192 44.3354L32.3949 21.3971C42.6652 8.06841 59.2209 0.93436 76.7192 2.28247C76.9766 2.30209 77.2185 2.41315 77.4011 2.59557C77.5837 2.77798 77.695 3.01972 77.7149 3.27706C79.0598 20.7733 71.929 37.3311 58.6392 47.5733L58.6003 47.6025L35.6619 63.676C35.4811 63.8052 35.2647 63.875 35.0425 63.876ZM18.409 45.1225C19.706 48.9472 21.8661 52.422 24.7218 55.2777C27.5776 58.1335 31.0524 60.2935 34.8771 61.5906L57.3387 45.8479C69.8003 36.2349 76.5927 20.7895 75.623 4.3776C59.1906 3.40463 43.7484 10.2057 34.1365 22.6803L18.409 45.1225Z" fill="#07EBFE"/>
<path d="M74.0862 25.1802C74.0177 25.1805 73.9493 25.1743 73.8819 25.1619C69.1648 24.2631 64.8287 21.9617 61.4408 18.5586C58.0377 15.1707 55.7363 10.8346 54.8375 6.11753C54.7838 5.83583 54.8441 5.54431 55.0053 5.3071C55.1665 5.06989 55.4153 4.90643 55.697 4.85267C55.9787 4.79891 56.2702 4.85926 56.5074 5.02044C56.7446 5.18162 56.9081 5.43043 56.9619 5.71213C57.7795 10.0034 59.8734 13.948 62.9694 17.03C66.0514 20.126 69.996 22.2199 74.2873 23.0375C74.5511 23.0883 74.7866 23.2355 74.9479 23.4504C75.1091 23.6654 75.1845 23.9326 75.1594 24.2002C75.1343 24.4677 75.0105 24.7163 74.8121 24.8975C74.6137 25.0787 74.3549 25.1795 74.0862 25.1802Z" fill="#07EBFE"/>
<path d="M49.3891 39.0769C47.4304 39.0758 45.5328 38.3957 44.0194 37.1523C42.5061 35.909 41.4706 34.1794 41.0895 32.2582C40.7085 30.337 41.0053 28.3431 41.9295 26.6163C42.8537 24.8894 44.348 23.5364 46.1579 22.7878C47.9678 22.0392 49.9813 21.9413 51.8553 22.5108C53.7293 23.0803 55.3479 24.282 56.4352 25.911C57.5225 27.5401 58.0114 29.4958 57.8185 31.4449C57.6256 33.394 56.7628 35.2159 55.3772 36.6002C54.5913 37.387 53.6578 38.0108 52.6302 38.4359C51.6026 38.8609 50.5011 39.0788 49.3891 39.0769ZM49.3891 24.3039C47.9296 24.3037 46.5152 24.8095 45.3869 25.7353C44.2586 26.661 43.4862 27.9493 43.2013 29.3807C42.9164 30.812 43.1366 32.2979 43.8245 33.5851C44.5124 34.8723 45.6253 35.8812 46.9736 36.4398C48.3219 36.9984 49.8222 37.0722 51.2189 36.6486C52.6155 36.225 53.822 35.3303 54.6329 34.1168C55.4438 32.9034 55.8088 31.4463 55.6658 29.9938C55.5228 28.5414 54.8805 27.1835 53.8485 26.1515C53.2641 25.5642 52.5691 25.0985 51.8037 24.7814C51.0383 24.4643 50.2176 24.302 49.3891 24.3039Z" fill="#07EBFE"/>
<path d="M43.5507 77.7967H43.4858C43.312 77.7862 43.1432 77.7338 42.9939 77.644C42.8447 77.5542 42.7193 77.4297 42.6285 77.281L34.1215 63.361C33.972 63.1163 33.9258 62.8222 33.9931 62.5435C34.0604 62.2647 34.2357 62.0241 34.4804 61.8745C34.7251 61.725 35.0192 61.6788 35.298 61.7461C35.5768 61.8135 35.8174 61.9888 35.9669 62.2335L43.6631 74.827L49.4891 67.4486C50.7734 65.8132 51.72 63.9389 52.2738 61.9345C52.8276 59.9302 52.9776 57.8357 52.715 55.7729L52.0037 50.3027C51.9828 50.1607 51.9903 50.016 52.0259 49.8769C52.0615 49.7379 52.1244 49.6074 52.211 49.4929C52.2975 49.3784 52.406 49.2824 52.5301 49.2103C52.6542 49.1382 52.7914 49.0915 52.9337 49.073C53.076 49.0545 53.2206 49.0645 53.359 49.1024C53.4974 49.1404 53.6269 49.2055 53.7399 49.294C53.8528 49.3825 53.9471 49.4926 54.017 49.6179C54.087 49.7432 54.1314 49.8811 54.1475 50.0237L54.8588 55.4951C55.1582 57.8445 54.9874 60.23 54.3563 62.5129C53.7253 64.7957 52.6467 66.9302 51.1831 68.7924L44.395 77.3902C44.2938 77.517 44.1653 77.6193 44.0192 77.6897C43.873 77.7601 43.7129 77.7966 43.5507 77.7967Z" fill="#07EBFE"/>
<path d="M17.2018 46.0359C17.0031 46.0361 16.8082 45.9815 16.6385 45.8781L2.72068 37.3711C2.57213 37.2803 2.44768 37.1551 2.35792 37.0059C2.26816 36.8568 2.21575 36.6881 2.20514 36.5144C2.19452 36.3406 2.22602 36.1669 2.29696 36.0079C2.36789 35.849 2.47617 35.7095 2.61257 35.6013L11.2104 28.8132C13.0728 27.3501 15.2073 26.2717 17.4901 25.6406C19.7729 25.0096 22.1583 24.8386 24.5077 25.1376L29.9791 25.8489C30.1217 25.865 30.2596 25.9094 30.3849 25.9793C30.5102 26.0493 30.6203 26.1435 30.7088 26.2565C30.7973 26.3695 30.8624 26.499 30.9004 26.6374C30.9383 26.7758 30.9483 26.9203 30.9298 27.0626C30.9113 27.205 30.8646 27.3422 30.7925 27.4662C30.7204 27.5903 30.6244 27.6988 30.5099 27.7854C30.3954 27.872 30.2649 27.9349 30.1259 27.9705C29.9868 28.0061 29.8421 28.0136 29.7001 27.9927L24.2299 27.2813C22.1671 27.0191 20.0727 27.1692 18.0684 27.723C16.0641 28.2768 14.1897 29.2232 12.5542 30.5073L5.17257 36.3365L17.7661 44.0327C17.9671 44.1557 18.1224 44.3409 18.2084 44.5603C18.2944 44.7797 18.3063 45.0212 18.2424 45.248C18.1785 45.4748 18.0423 45.6745 17.8544 45.8167C17.6666 45.959 17.4374 46.036 17.2018 46.0359Z" fill="#07EBFE"/>
<path d="M16.4578 77.8789C16.244 77.8789 16.035 77.8154 15.8573 77.6966C15.6796 77.5778 15.541 77.409 15.4592 77.2115C15.3774 77.014 15.356 76.7967 15.3977 76.587C15.4394 76.3773 15.5423 76.1847 15.6935 76.0335L25.3486 66.3784C25.4483 66.2751 25.5676 66.1928 25.6995 66.1361C25.8314 66.0795 25.9733 66.0496 26.1168 66.0484C26.2604 66.0471 26.4027 66.0745 26.5356 66.1288C26.6685 66.1832 26.7892 66.2635 26.8907 66.365C26.9922 66.4665 27.0724 66.5872 27.1268 66.7201C27.1812 66.8529 27.2085 66.9953 27.2073 67.1388C27.206 67.2824 27.1762 67.4242 27.1195 67.5561C27.0629 67.688 26.9805 67.8073 26.8773 67.907L17.2221 77.5622C17.0194 77.7649 16.7445 77.8789 16.4578 77.8789Z" fill="#07EBFE"/>
<path d="M3.20194 64.6226C2.98816 64.6225 2.77919 64.5591 2.60145 64.4403C2.42371 64.3215 2.28518 64.1527 2.20337 63.9552C2.12157 63.7577 2.10016 63.5403 2.14185 63.3306C2.18355 63.121 2.28647 62.9284 2.43762 62.7772L12.0928 53.122C12.1925 53.0188 12.3118 52.9364 12.4437 52.8798C12.5756 52.8231 12.7174 52.7933 12.861 52.792C13.0045 52.7908 13.1469 52.8181 13.2797 52.8725C13.4126 52.9269 13.5333 53.0071 13.6348 53.1086C13.7363 53.2101 13.8166 53.3308 13.8709 53.4637C13.9253 53.5966 13.9527 53.7389 13.9514 53.8825C13.9502 54.026 13.9203 54.1679 13.8637 54.2998C13.807 54.4317 13.7247 54.551 13.6214 54.6507L3.96627 64.3058C3.76357 64.5086 3.48864 64.6225 3.20194 64.6226Z" fill="#07EBFE"/>
<path d="M3.85624 77.2238C3.64246 77.2238 3.43349 77.1603 3.25575 77.0416C3.07801 76.9228 2.93948 76.7539 2.85767 76.5564C2.77586 76.3589 2.75446 76.1416 2.79615 75.9319C2.83785 75.7222 2.94077 75.5296 3.09192 75.3784L13.4833 64.9871C13.6872 64.7901 13.9602 64.6812 14.2437 64.6836C14.5272 64.6861 14.7983 64.7998 14.9987 65.0002C15.1992 65.2007 15.3129 65.4718 15.3153 65.7553C15.3178 66.0387 15.2088 66.3118 15.0119 66.5157L4.62057 76.9071C4.41787 77.1098 4.14294 77.2238 3.85624 77.2238Z" fill="#07EBFE"/>
</svg>
