<svg width="60" height="60" viewBox="0 0 60 60" fill="none" xmlns="http://www.w3.org/2000/svg">
<path fill-rule="evenodd" clip-rule="evenodd" d="M38.1476 0.433888C36.6348 1.16536 36.1475 2.00162 36.5003 3.26047L36.6817 3.90754L36.1356 4.46435C35.8352 4.77053 35.5512 5.02115 35.5044 5.02115C35.4577 5.02115 34.6417 4.41582 33.6911 3.67603C31.4938 1.96587 31.174 1.80563 29.9496 1.80105C29.1319 1.79801 28.9152 1.84407 28.3085 2.14956C27.6277 2.49255 3.66107 21.1789 2.37443 22.37C1.96263 22.7512 1.62972 23.2092 1.37804 23.7405L1 24.5387V41.3693V58.1999L1.35343 58.7716C1.61108 59.1882 1.87741 59.4324 2.3354 59.6717L2.96383 60L30.1345 59.9699L57.3052 59.9399L57.8085 59.5862C58.1231 59.365 58.4347 58.9969 58.6403 58.6034L58.9688 57.9744L58.9384 41.2566L58.9079 24.5387L58.5448 23.7767C58.3451 23.3577 57.9736 22.8038 57.7194 22.5459C57.465 22.288 55.1387 20.4241 52.5497 18.4039C49.9609 16.3836 47.7948 14.6693 47.7365 14.5941C47.6781 14.519 46.2488 11.4255 44.5604 7.71961C42.872 4.01374 41.374 0.85671 41.2317 0.704086C40.4463 -0.137805 39.501 -0.220682 38.1476 0.433888ZM39.8803 1.94407C39.9763 2.05683 42.3384 7.15753 45.1293 13.2788C48.9631 21.6875 50.1755 24.4528 50.0888 24.5903C50.0257 24.6903 49.6742 24.9002 49.3076 25.0566C48.734 25.3013 48.6194 25.3177 48.4859 25.1743C48.2518 24.9227 38.2181 2.8509 38.2181 2.58738C38.2181 2.4228 38.4071 2.27241 38.8922 2.05109C39.6976 1.68348 39.6617 1.68735 39.8803 1.94407ZM30.8331 3.79688C31.2045 3.98561 34.1307 6.26664 34.1281 6.36546C34.1271 6.4059 31.7042 8.7711 28.7441 11.6215L23.3621 16.8039L20.0349 18.3112C16.5518 19.8894 16.0399 20.161 15.5409 20.6958C15.2252 21.0341 14.8909 21.953 14.8909 22.4825C14.8909 22.7448 14.7857 22.8326 14.1279 23.1192C13.1653 23.5385 12.8334 23.8004 12.5431 24.3693C12.118 25.2026 12.215 25.7294 13.1875 27.8655C14.1347 29.9463 14.2611 30.137 14.9155 30.4708C15.5753 30.8076 16.2927 30.7558 17.357 30.2947C18.2486 29.9083 18.2818 29.9029 18.4733 30.1146C18.828 30.5066 19.6156 30.7267 20.4246 30.6598C20.8303 30.6263 21.2678 30.5667 21.3967 30.5275C21.6059 30.4638 21.8141 30.8489 23.3309 34.1051C25.1669 38.0467 25.437 38.4613 26.4776 38.9357C27.3585 39.3373 28.321 39.2739 29.5437 38.7335C31.182 38.0095 31.6537 37.5193 31.6537 36.5409C31.6537 35.7697 31.1974 35.1118 30.2349 34.4949C29.3234 33.9105 29.1353 33.596 29.2617 32.8668C29.5465 31.2232 28.9615 30.0058 27.5376 29.2794C27.1086 29.0605 26.7303 28.5522 26.7303 28.1944C26.7303 28.1033 27.0601 27.8808 27.463 27.6999C28.1761 27.3798 28.4304 27.3499 37.0459 26.5733C41.9136 26.1346 46.0808 25.7762 46.3065 25.777C46.6394 25.7783 46.7609 25.8489 46.9512 26.1513C47.29 26.6898 47.9996 27.0548 48.7128 27.0571C49.1502 27.0585 49.5282 26.9508 50.1781 26.6397C51.2034 26.1489 51.4121 25.9791 51.7111 25.3932C52.1556 24.5223 52.0532 24.1026 50.6506 21.0496C49.9468 19.5173 49.433 18.3006 49.5091 18.3456C49.9058 18.5807 56.3876 23.7044 56.3876 23.783C56.3876 23.894 31.4584 43.3857 30.8795 43.7273C30.405 44.0072 29.4985 44.0461 29.0428 43.806C28.61 43.578 3.52028 23.8893 3.52028 23.7777C3.52028 23.6899 27.8383 4.57043 28.706 3.97612C29.3963 3.50324 30.1331 3.44111 30.8331 3.79688ZM41.7179 14.8174C43.9974 19.8173 45.8437 23.9251 45.8207 23.9459C45.7568 24.0037 28.5664 25.5346 28.5186 25.4868C28.4955 25.4637 27.6858 23.7146 26.7194 21.5998L24.9623 17.7548L25.2309 17.4921C27.2922 15.476 37.4715 5.7259 37.5148 5.72625C37.547 5.72636 39.4384 9.81743 41.7179 14.8174ZM25.1404 22.4646C26.0291 24.4184 26.7372 26.0342 26.714 26.0551C26.5083 26.2401 20.3586 28.9336 20.1485 28.9308C19.9968 28.9288 19.7775 28.8548 19.661 28.7664C19.3582 28.5369 16.7684 22.8585 16.7674 22.4218C16.7669 22.2246 16.8324 21.9739 16.9129 21.8647C17.0882 21.6274 23.3598 18.7235 23.457 18.8348C23.4942 18.8772 24.2517 20.5107 25.1404 22.4646ZM16.4622 26.4161L17.3191 28.2898L16.6293 28.6388C16.119 28.8969 15.8909 28.9573 15.7535 28.8705C15.503 28.7126 14.033 25.4496 14.1156 25.2346C14.1797 25.0675 15.329 24.4803 15.5118 24.5213C15.5632 24.5329 15.991 25.3856 16.4622 26.4161ZM12.5757 33.2639C17.7819 37.3411 22.0414 40.7198 22.0414 40.7722C22.0414 40.8246 21.4348 41.3759 20.6934 41.9973C19.5195 42.9811 19.3453 43.1731 19.3453 43.4822C19.3453 44.2051 19.8653 44.6335 20.4657 44.4053C20.6308 44.3426 21.3924 43.7636 22.1583 43.1188C22.9242 42.4738 23.5745 41.9462 23.6033 41.9462C23.6321 41.9462 24.5717 42.6634 25.6913 43.54C28.3392 45.6132 28.6069 45.7538 29.8953 45.7486C31.3757 45.7424 31.2538 45.814 35.5806 42.41L36.284 41.8565L37.7441 43.0737C39.229 44.3115 39.5593 44.4685 39.9867 44.1404C40.2892 43.9081 40.4562 43.4958 40.3765 43.178C40.3301 42.9934 39.8189 42.4748 39.0238 41.8059C38.3208 41.2146 37.7859 40.6941 37.8353 40.6493C37.8847 40.6045 42.0659 37.3357 47.127 33.3852C52.1881 29.4348 56.5269 26.048 56.7686 25.859L57.2082 25.5154V41.3504V57.1855L50.1521 51.2069C44.111 46.0884 43.0432 45.2285 42.7288 45.2285C42.2147 45.2285 41.8234 45.6648 41.8729 46.1826C41.9076 46.5451 42.454 47.0368 48.7578 52.3789L55.6051 58.1815L42.7502 58.2113C35.68 58.2277 24.114 58.2277 17.048 58.2113L4.20064 58.1815L10.9562 52.5018C15.5287 48.6573 17.7349 46.7296 17.7834 46.5363C17.8895 46.1134 17.6847 45.6606 17.3049 45.4786C17.0211 45.3426 16.9194 45.3426 16.6427 45.4784C16.463 45.5665 13.582 47.9395 10.2404 50.7516C6.89898 53.5637 3.83538 56.1397 3.43237 56.4763L2.69973 57.0882V41.2935C2.69973 26.262 2.70969 25.5073 2.90486 25.6748C3.01763 25.7715 7.36952 29.1867 12.5757 33.2639ZM25.1444 29.1397C25.2745 29.6604 25.9259 30.4228 26.5204 30.7501C27.4604 31.2676 27.5658 31.4858 27.4781 32.7335C27.4119 33.6762 27.4333 33.8723 27.6613 34.4021C27.9579 35.0918 28.3061 35.4546 29.1334 35.9361C29.4557 36.1238 29.7341 36.3539 29.7522 36.4474C29.801 36.701 28.3622 37.3745 27.7718 37.3745C26.8284 37.3745 26.7887 37.3093 23.7259 30.7231L23.2222 29.6396L24.0677 29.2387C24.5329 29.0181 24.9473 28.8331 24.9886 28.8275C25.0299 28.8219 25.1001 28.9624 25.1444 29.1397Z" fill="url(#paint0_linear)"/>
<defs>
<linearGradient id="paint0_linear" x1="48.9673" y1="-3.37397" x2="-1.31434" y2="44.9225" gradientUnits="userSpaceOnUse">
<stop stop-color="#4AB1FE"/>
<stop offset="1" stop-color="#07EBFE"/>
</linearGradient>
</defs>
</svg>
