<svg width="60" height="60" viewBox="0 0 60 60" fill="none" xmlns="http://www.w3.org/2000/svg">
<g clip-path="url(#clip0_714:6590)">
<path d="M58.75 60H1.25C0.56 60 0 59.44 0 58.75C0 58.06 0.56 57.5 1.25 57.5H58.75C59.44 57.5 60 58.06 60 58.75C60 59.44 59.44 60 58.75 60Z" fill="#3FBAFE"/>
<path d="M16.2495 60H3.74951C3.05951 60 2.49951 59.44 2.49951 58.75V45C2.49951 43.6225 3.62201 42.5 4.99951 42.5H14.9995C16.377 42.5 17.4995 43.6225 17.4995 45V58.75C17.4995 59.44 16.9395 60 16.2495 60ZM4.99951 57.5H14.9995V45H4.99951V57.5Z" fill="#3FBAFE"/>
<path d="M36.25 60H23.75C23.06 60 22.5 59.44 22.5 58.75V30C22.5 28.6225 23.6225 27.5 25 27.5H35C36.3775 27.5 37.5 28.6225 37.5 30V58.75C37.5 59.44 36.94 60 36.25 60ZM25 57.5H35V30H25V57.5Z" fill="#3FBAFE"/>
<path d="M56.2505 60H43.7505C43.0605 60 42.5005 59.44 42.5005 58.75V15C42.5005 13.6225 43.623 12.5 45.0005 12.5H55.0005C56.378 12.5 57.5005 13.6225 57.5005 15V58.75C57.5005 59.44 56.9405 60 56.2505 60ZM45.0005 57.5H55.0005V15H45.0005V57.5Z" fill="#3FBAFE"/>
<path d="M6.2494 27.5001C5.9294 27.5001 5.6094 27.3776 5.3644 27.1351C4.8769 26.6476 4.8769 25.8551 5.3644 25.3676L27.8644 2.86758C28.3519 2.38008 29.1444 2.38008 29.6319 2.86758C30.1194 3.35508 30.1194 4.14758 29.6319 4.63508L7.1319 27.1351C6.8894 27.3776 6.5694 27.5001 6.2494 27.5001Z" fill="#3FBAFE"/>
<path d="M28.7495 15C28.0595 15 27.4995 14.44 27.4995 13.75V5H18.7495C18.0595 5 17.4995 4.44 17.4995 3.75C17.4995 3.06 18.0595 2.5 18.7495 2.5H28.7495C29.4395 2.5 29.9995 3.06 29.9995 3.75V13.75C29.9995 14.44 29.4395 15 28.7495 15Z" fill="#3FBAFE"/>
</g>
<defs>
<clipPath id="clip0_714:6590">
<rect width="60" height="60" fill="white"/>
</clipPath>
</defs>
</svg>
