<svg width="60" height="64" viewBox="0 0 60 64" fill="none" xmlns="http://www.w3.org/2000/svg">
<g clip-path="url(#clip0_1233:687)">
<path d="M59.0334 40.1335L41.6245 57.5412C40.3354 58.8306 38.2442 58.8306 36.9538 57.5412L27.9672 48.5539C26.6776 47.2645 26.6776 45.1731 27.9672 43.8834C29.2571 42.5936 31.3482 42.5936 32.6375 43.883L39.2899 50.5354L54.3625 35.4628C55.6523 34.1729 57.7435 34.1739 59.0329 35.4628C60.3223 36.7524 60.3223 38.8431 59.0334 40.1335Z" fill="#07EBFE" fill-opacity="0.4"/>
</g>
<path fill-rule="evenodd" clip-rule="evenodd" d="M20.1174 0.191034C19.3741 0.4543 18.7658 0.906636 18.3111 1.53433C17.9455 2.03894 17.6169 2.9735 17.6169 3.50859C17.6169 4.10018 17.3814 4.19899 15.9719 4.19899C14.9697 4.19899 14.5565 4.25092 14.0497 4.44057C13.2279 4.74803 12.4144 5.53044 12.0427 6.37076L11.7591 7.01217L6.92252 7.01475C1.52838 7.01756 1.56542 7.01264 0.773154 7.84768C-0.057436 8.72305 0.00925989 6.49442 0.00433683 33.5271L0 57.878L0.287413 58.4366C0.613624 59.0706 1.35583 59.6919 2.00087 59.8711C2.65517 60.0529 42.1099 60.0397 42.7177 59.8576C43.3608 59.665 44.0928 58.9937 44.4155 58.3006L44.6914 57.708L44.6888 46.1036C44.6868 37.165 44.6536 34.4566 44.5435 34.3132C44.2604 33.9446 43.8824 33.8223 43.5065 33.978C43.3165 34.0568 43.1103 34.2159 43.0483 34.3317C42.9783 34.4626 42.9355 38.906 42.9355 46.0463V57.5502L42.5929 57.8928L42.2503 58.2354H22.4259C1.27577 58.2354 2.078 58.2562 1.8656 57.7027C1.82563 57.5984 1.79281 46.6754 1.79281 33.4294V9.34581L2.08058 9.05817C2.33517 8.80346 2.46997 8.7704 3.25274 8.7704H4.13713L4.13783 31.0121C4.13818 45.95 4.17815 53.3969 4.2595 53.6897C4.40567 54.2161 4.85461 54.7729 5.35254 55.0455C5.68402 55.227 6.33352 55.2497 12.071 55.2804L18.4224 55.3145L18.5543 55.7141C18.722 56.2226 19.3506 56.7769 19.9695 56.9623C20.7063 57.1831 21.3411 56.9593 22.4367 56.0927L23.3585 55.3636L31.125 55.305L38.8916 55.2464L39.3624 54.9765C39.6215 54.828 39.9643 54.5154 40.1243 54.2819L40.4154 53.8572L40.4474 46.7674L40.4794 39.6776L40.2219 39.4034C39.9081 39.0694 39.4271 39.0489 39.0511 39.3533L38.7744 39.5773L38.7424 46.4422C38.7113 53.0832 38.7029 53.311 38.4844 53.4279C38.3352 53.5078 36.1187 53.5386 31.955 53.5185L25.6515 53.4882L26.5382 52.7636C27.2875 52.1513 29.2417 49.773 39.1363 37.4309C45.5776 29.3965 50.9491 22.6281 51.0732 22.39C51.2227 22.1032 51.3167 21.6299 51.3517 20.9876C51.4013 20.0815 51.3804 19.9686 51.0329 19.2628C50.3913 17.9593 49.3069 17.2834 47.8586 17.284C46.9225 17.2845 46.3419 17.4668 45.6882 17.9654C45.4867 18.1189 40.051 24.8192 33.6087 32.8548L21.8953 47.4651L20.3715 50.4767L18.8477 53.4882L12.5567 53.5185C6.95312 53.5455 6.2456 53.5286 6.08056 53.3636C5.91306 53.1961 5.89536 51.0551 5.89536 30.9745V8.7704H8.81169H11.728L11.7788 9.47194C11.8191 10.0305 11.9013 10.2633 12.1821 10.6148C12.9053 11.52 12.2603 11.466 22.3482 11.4661L31.3579 11.4664L31.8249 11.2039C32.4053 10.8776 32.8406 10.1575 32.934 9.36844L33.0049 8.7704H35.8603H38.7158V15.5779V22.3855L39.0703 22.7401C39.3546 23.0243 39.4883 23.0796 39.7443 23.019C39.92 22.9775 40.1561 22.8344 40.2689 22.7011C40.4591 22.4762 40.474 21.9622 40.474 15.6145V8.7704L41.3824 8.77415C42.9696 8.7806 42.9355 8.67897 42.9355 13.3981V17.2206L43.2233 17.5082C43.5899 17.875 44.0393 17.875 44.406 17.5082L44.6938 17.2206L44.6886 13.2592C44.6831 8.99557 44.6593 8.79806 44.0555 8.00651C43.8829 7.78005 43.4828 7.46368 43.1666 7.30345L42.5916 7.01217H37.739H32.8863L32.6484 6.44004C32.3121 5.6309 31.6274 4.92268 30.8037 4.53247C30.1605 4.22771 29.9875 4.19922 28.7817 4.19911C27.2659 4.19899 26.9942 4.06607 26.9942 3.32433C26.9942 2.21254 26.0818 0.891046 24.9205 0.320792C24.4139 0.0721771 24.1728 0.0406461 22.54 0.0102872C21.0188 -0.0179618 20.6246 0.0114594 20.1174 0.191034ZM24.378 2.04128C24.9051 2.43231 25.1957 2.95908 25.2799 3.67586C25.3685 4.4299 25.4856 4.70255 25.9242 5.17645C26.4705 5.76663 26.8192 5.87189 28.4844 5.94984C30.2583 6.03271 30.5023 6.13821 30.9502 7.01451C31.16 7.42523 31.214 7.72636 31.214 8.48779C31.214 9.15194 31.1652 9.48554 31.0545 9.57732C30.9385 9.67355 28.5349 9.70145 22.2341 9.67953L13.573 9.64952L13.5398 8.47115C13.5099 7.40636 13.5326 7.25469 13.7743 6.89952C14.3061 6.11805 14.5488 6.02263 16.1891 5.95043C17.4109 5.89674 17.7643 5.83895 18.1736 5.62586C18.8376 5.28007 19.2609 4.61909 19.3654 3.76459C19.4643 2.95686 19.7219 2.42505 20.1646 2.11501C20.6759 1.75704 20.7503 1.74578 22.444 1.77157C23.8651 1.79326 24.0851 1.82397 24.378 2.04128ZM16.2432 16.1584C15.9643 16.2695 15.5233 16.8384 14.0419 18.9981C13.5261 19.7499 13.0618 20.3673 13.0102 20.37C12.9585 20.3725 12.4716 19.9792 11.9282 19.4956C10.8583 18.5437 10.5904 18.452 10.0723 18.8595C9.84752 19.0363 9.76348 19.2102 9.76348 19.4985C9.76348 19.8528 9.89383 20.0122 11.0029 21.0137C11.6846 21.6292 12.3735 22.1658 12.5339 22.206C13.0693 22.3405 13.7663 22.1698 14.1135 21.8193C14.7869 21.1396 17.3825 17.2837 17.3825 16.9631C17.3825 16.3729 16.7775 15.9456 16.2432 16.1584ZM21.2875 16.6247C20.7648 16.8353 20.612 17.6263 21.0162 18.0304C21.2451 18.2594 21.4069 18.2649 27.8551 18.2649C35.1485 18.2649 34.7158 18.3097 34.9091 17.5352C34.9736 17.2767 34.9212 17.1483 34.6342 16.8612L34.2796 16.5066L27.9116 16.514C24.4092 16.5181 21.4284 16.5679 21.2875 16.6247ZM48.8718 19.3315C49.5425 19.7437 49.8345 20.9036 49.4529 21.6407C49.2851 21.965 46.8167 25.0953 46.6557 25.1879C46.5022 25.2762 43.7612 23.0307 43.8618 22.899C44.1309 22.5464 46.7137 19.3196 46.7282 19.3181C46.7374 19.3171 46.956 19.2386 47.2139 19.1435C47.762 18.9417 48.3449 19.0077 48.8718 19.3315ZM21.0162 20.7264C20.7003 21.0423 20.7065 21.6769 21.0284 21.9683C21.2639 22.1814 21.5724 22.1931 27.7745 22.2238L34.2739 22.256L34.6313 21.8984C34.921 21.6088 34.9736 21.4805 34.9091 21.2216C34.7158 20.4472 35.1485 20.492 27.8551 20.492C21.4069 20.492 21.2451 20.4975 21.0162 20.7264ZM44.2555 25.6458C44.9998 26.2394 45.4637 26.6872 45.4092 26.7594C45.2732 26.9397 26.8577 49.9579 26.7705 50.0565C26.6897 50.1481 24.0095 48.0557 23.9594 47.8618C23.9427 47.7974 28.1396 42.4902 33.2857 36.0682C41.1909 26.2031 42.6711 24.4119 42.8266 24.5224C42.9279 24.5943 43.5709 25.0998 44.2555 25.6458ZM15.9385 29.1952C15.7949 29.3404 15.0823 30.3175 14.3548 31.3668L13.0322 33.2746L12.645 32.9492C12.4321 32.7702 11.9678 32.3733 11.6134 32.067C10.8876 31.4399 10.4 31.3426 9.99791 31.7447C9.60887 32.1337 9.69139 32.6502 10.2236 33.1564C12.1119 34.9526 12.7334 35.3038 13.5481 35.0349C14.0659 34.864 14.1413 34.7748 15.8988 32.2529C17.5263 29.9174 17.6399 29.6199 17.0736 29.1745C16.6723 28.8587 16.2643 28.8662 15.9385 29.1952ZM21.0162 29.4004C20.5086 29.9079 20.8473 30.7224 21.625 30.8647C21.8381 30.9038 24.7996 30.9199 28.2058 30.9006L34.3992 30.8656L34.682 30.5367C35.0285 30.1338 35.0382 29.8768 34.7219 29.4748L34.479 29.1659H27.8647C21.4069 29.1659 21.2451 29.1714 21.0162 29.4004ZM21.0383 33.2731C20.6664 33.6195 20.6916 34.2355 21.0906 34.5493C21.3862 34.7819 21.5389 34.7923 24.6602 34.7923C26.834 34.7923 28.0177 34.7481 28.2115 34.6598C28.8062 34.3889 28.8591 33.4593 28.2969 33.1584C28.1485 33.0789 26.8415 33.034 24.6796 33.034C21.4352 33.034 21.2841 33.044 21.0383 33.2731ZM16.1228 41.6683C16.0424 41.7007 15.3122 42.6748 14.5002 43.8329C13.2051 45.6801 13.0007 45.9198 12.8359 45.7866C12.7326 45.7031 12.2759 45.3055 11.8211 44.9031C10.9039 44.0915 10.4379 43.9639 9.99791 44.404C9.56855 44.8333 9.68588 45.3152 10.3789 45.9688C12.372 47.8487 12.9796 48.1093 13.9481 47.4991C14.09 47.4097 14.9207 46.3117 15.7942 45.0591C17.5321 42.5672 17.6448 42.283 17.0736 41.8338C16.778 41.6011 16.4363 41.5417 16.1228 41.6683ZM24.1882 50.3877C24.8289 50.9066 25.3505 51.3682 25.3473 51.4134C25.3352 51.5813 20.6691 55.2464 20.4673 55.2464C20.3519 55.2464 20.2386 55.148 20.2154 55.0276C20.1691 54.7869 22.7588 49.4442 22.9218 49.4442C22.9776 49.4442 23.5473 49.8688 24.1882 50.3877Z" fill="#475678"/>
<defs>
<clipPath id="clip0_1233:687">
<rect width="33" height="33" fill="white" transform="translate(27 30.0018)"/>
</clipPath>
</defs>
</svg>
