<svg width="90" height="90" viewBox="0 0 90 90" fill="none" xmlns="http://www.w3.org/2000/svg">
<path fill-rule="evenodd" clip-rule="evenodd" d="M30.0173 0.254449C20.4392 1.5602 11.842 6.7477 6.331 14.5465C-0.813089 24.6566 -2.00333 37.9228 3.23102 49.0974C5.51781 53.9795 9.61291 59.0033 13.8458 62.1199C14.7402 62.7784 15.4718 63.38 15.4718 63.4572C15.4718 63.5342 14.3899 65.9577 13.0674 68.8432C10.8216 73.7434 10.6581 74.1722 10.588 75.3503C10.4897 76.998 10.859 78.1158 11.8754 79.2463C12.9435 80.4344 14.1118 80.9344 15.8234 80.9359C16.9076 80.9367 17.2991 80.8546 18.0277 80.4735C19.6831 79.6079 20.1022 78.9548 22.7583 73.1034L25.2008 67.7227L26.4449 68.0455C30.274 69.0392 36.0524 69.2704 39.8986 68.5835C41.0064 68.3857 41.9639 68.2554 42.0263 68.2939C42.0889 68.3326 42.1882 68.8215 42.2471 69.3806C42.4156 70.9798 43.1418 73.5873 43.9202 75.3883C47.7727 84.3021 56.3867 90 66.0101 90C78.1083 90 88.2256 81.0681 89.8441 68.9587C90.293 65.5996 89.7451 60.8049 88.5521 57.6506C85.4955 49.5698 78.1115 43.5238 69.7895 42.2882C68.0652 42.0322 68.1842 42.3269 68.6444 39.4541C69.0513 36.9147 69.0642 32.0667 68.6707 29.5449C68.2835 27.0627 67.6345 24.5694 66.7971 22.3469C66.0624 20.3974 65.6416 19.7754 64.9372 19.5985C64.1452 19.3996 63.1096 20.2031 63.1096 21.0164C63.1096 21.1866 63.4222 22.1254 63.8041 23.1026C65.3677 27.1025 66.0139 30.9549 65.8682 35.4105C65.7903 37.7929 65.4592 40.5674 65.1202 41.6755C65.0538 41.8928 64.708 41.9936 63.7057 42.0874C62.9762 42.1558 61.5406 42.4013 60.5157 42.633C59.4907 42.8645 58.6299 43.0319 58.6028 43.0047C58.5756 42.9776 58.7403 42.3654 58.9686 41.6442C59.747 39.1862 59.9991 37.0167 59.8936 33.6821C59.7656 29.6305 59.1622 27.0132 57.5675 23.5947C56.6492 21.6258 56.1554 21.0818 55.2872 21.0818C54.5374 21.0818 53.793 21.7219 53.793 22.3665C53.793 22.5984 54.1866 23.6226 54.6677 24.6425C57.5785 30.8144 57.6875 37.5643 54.9744 43.64C54.4578 44.7967 54.3771 44.8797 52.5801 46.1014C50.1885 47.7271 47.7325 50.1802 46.1463 52.5275C45.0628 54.1309 44.8004 54.4062 43.949 54.8322C39.4345 57.0912 33.3864 57.5344 28.0974 55.9941C20.0974 53.6643 13.8368 46.6436 12.4074 38.3993C12.0591 36.3906 12.0526 32.6587 12.394 30.7005C13.5345 24.1596 17.4494 18.4861 23.1406 15.1264C26.6502 13.0544 30.3508 12.0743 34.6312 12.0829C38.3134 12.0903 41.1672 12.7752 44.7522 14.5117C46.1964 15.2113 46.3995 15.2654 46.9108 15.0872C47.4864 14.8864 47.9921 14.1696 47.9921 13.5544C47.9921 12.9373 47.3332 12.3681 45.6775 11.5546C43.778 10.6212 41.3532 9.81298 39.1086 9.36519C36.9313 8.93076 31.9981 8.92724 29.8387 9.35868C24.623 10.4007 20.2602 12.7373 16.5163 16.4938C12.7813 20.2416 10.6191 24.2199 9.45347 29.4886C8.9066 31.9612 8.91117 36.9274 9.46296 39.4872C11.6759 49.7553 19.2672 57.3354 29.5346 59.529C30.6954 59.7771 31.8135 59.8483 34.5445 59.8483C38.1931 59.8483 39.5969 59.6649 41.9878 58.8761C42.5301 58.6971 42.9996 58.5763 43.0309 58.6078C43.0624 58.6391 42.9256 59.3006 42.7271 60.0779C42.5289 60.8552 42.2731 62.2877 42.1588 63.2613C42.0029 64.5903 41.8825 65.0523 41.6756 65.1156C39.5885 65.7527 33.8176 66.0952 31.0053 65.7487C21.4833 64.5753 13.4354 59.6665 8.25391 51.8715C4.98905 46.9601 3.29483 41.6892 3.04733 35.6742C2.69611 27.1406 5.80558 18.9554 11.7353 12.8041C17.9079 6.40083 25.5825 3.10295 34.3687 3.07781C38.5487 3.06585 41.8792 3.65728 45.6621 5.08294C47.8435 5.90521 48.3728 5.94881 48.9668 5.35457C49.5606 4.76085 49.5397 3.96654 48.9139 3.34065C48.1619 2.58853 44.4572 1.268 41.2854 0.621544C38.0495 -0.0381019 33.298 -0.192816 30.0173 0.254449ZM58.7834 0.226495C57.9962 0.583217 51.8458 6.41349 51.3759 7.24841C50.9982 7.91966 50.9804 8.12958 50.9804 11.924V15.8966L42.0305 24.8466C36.0063 30.8708 33.0523 33.9445 32.9941 34.2487C32.8916 34.7856 33.2699 35.5912 33.7438 35.8447C34.737 36.3764 34.5712 36.5179 44.0329 27.0684L53.002 18.1109L57.045 18.058C60.9466 18.007 61.1127 17.9903 61.7912 17.5851C62.4592 17.1862 66.9479 12.5704 68.1629 11.0331C69.5363 9.29539 69.1716 7.25404 67.3188 6.3087C66.7781 6.03268 66.2843 5.962 64.8993 5.962H63.1594L63.0694 4.06341C62.9676 1.91517 62.7457 1.316 61.7787 0.578294C61.0259 0.00391712 59.635 -0.159412 58.7834 0.226495ZM60.19 8.29643C60.4538 8.85199 60.935 8.9508 63.3765 8.9508C64.7446 8.9508 65.7504 9.01954 65.717 9.11096C65.6849 9.19887 64.4749 10.5438 63.0286 12.0998L60.3985 14.9284H58.285H56.1715L58.2695 12.8246C60.1851 10.9039 60.3674 10.6651 60.3674 10.0769C60.3674 9.27711 59.6725 8.59918 58.8526 8.59918C58.3905 8.59918 57.9746 8.92777 56.1378 10.7439L53.9688 12.8886V10.7787V8.66897L56.9132 5.91857L59.8576 3.16818L59.9495 5.57592C60.0001 6.90031 60.1084 8.12448 60.19 8.29643ZM32.2743 18.1118C24.4462 19.2537 18.6553 25.4687 18.0102 33.4208C17.6612 37.7226 19.3489 42.4215 22.4044 45.6548C24.6478 48.0286 26.9615 49.4638 30.0114 50.3733C32.1995 51.0257 35.4482 51.1444 37.7983 50.6579C44.3851 49.2943 49.482 44.1121 50.724 37.5158C51.3341 34.2756 50.6686 29.1484 49.4819 27.9473C48.8722 27.3302 47.9102 27.3544 47.354 28.0011C46.8331 28.6067 46.8349 28.8103 47.3775 30.6829C48.5078 34.5841 47.9167 38.541 45.703 41.8872C41.2565 48.6095 32.0948 49.9264 25.8152 44.7457C20.7396 40.5586 19.5773 32.8767 23.1665 27.2403C24.5169 25.1199 26.9815 23.0389 29.271 22.0864C31.9768 20.9607 35.8042 20.7629 38.4118 21.6143C39.0886 21.8353 39.8796 22.0032 40.1696 21.9874C40.8273 21.9515 41.488 21.2402 41.488 20.5683C41.488 19.7207 40.8979 19.1989 39.4064 18.7277C37.0407 17.9801 34.6131 17.7706 32.2743 18.1118ZM29.5784 28.9314C29.2525 29.0921 28.7113 29.656 28.3189 30.2439C26.2875 33.2861 26.5656 36.9246 29.0359 39.6278C31.6462 42.4842 36.2897 42.7923 39.2714 40.3068C40.3751 39.3868 40.5072 38.32 39.605 37.6102C39.0075 37.1401 38.2866 37.1631 37.6782 37.6719C35.7537 39.2813 33.1398 39.3063 31.4968 37.731C29.8161 36.1197 29.6116 33.5871 31.0142 31.7495C31.3393 31.3235 31.6606 30.8003 31.7284 30.5867C31.9035 30.0352 31.5048 29.1971 30.9249 28.8972C30.3169 28.5826 30.2842 28.5835 29.5784 28.9314ZM68.3877 45.1749C73.2587 45.7723 77.8476 48.0631 81.1606 51.5516C86.8146 57.5045 88.4508 65.9746 85.4503 73.7564C83.8494 77.9082 80.3787 81.8995 76.38 84.1875C71.2086 87.1466 64.7228 87.7348 59.1061 85.7541C48.2686 81.9324 42.4958 70.1809 46.1326 59.3451C48.2375 53.0739 53.2444 48.1218 59.5695 46.0552C60.4046 45.7823 61.6814 45.4713 62.4065 45.364C63.1316 45.2568 63.9226 45.1401 64.1643 45.1045C65.0914 44.9685 66.9583 44.9996 68.3877 45.1749ZM65.5706 49.5079C65.4256 49.563 65.129 49.7701 64.9114 49.968L64.5159 50.3279V58.5128V66.6979L69.3974 71.5802C74.0651 76.2485 74.308 76.4625 74.9426 76.4625C75.847 76.4625 76.4693 75.8419 76.4693 74.94C76.4693 74.3125 76.2508 74.0613 71.9868 69.785L67.5042 65.2897V57.8759V50.4621L67.1087 50.0192C66.6976 49.5591 66.0252 49.3355 65.5706 49.5079ZM20.083 65.8259C21.0015 66.261 21.8426 66.617 21.9523 66.617C22.062 66.617 22.1517 66.7088 22.1517 66.821C22.1517 66.9332 21.1091 69.3165 19.8346 72.1173C17.8778 76.418 17.4338 77.2609 16.9781 77.5386C16.3323 77.9326 15.289 77.9653 14.6078 77.613C14.0631 77.3312 13.5382 76.3934 13.5382 75.7018C13.5382 75.2371 18.0868 65.0347 18.2941 65.0347C18.3594 65.0347 19.1645 65.3908 20.083 65.8259Z" fill="#EFF4F9"/>
</svg>
