<svg width="60" height="60" viewBox="0 0 60 60" fill="none" xmlns="http://www.w3.org/2000/svg">
<path d="M49.8154 45.8433C49.6648 45.8433 49.5172 45.8013 49.3891 45.7222C49.261 45.643 49.1575 45.5297 49.0901 45.3951C49.0228 45.2604 48.9943 45.1096 49.0078 44.9596C49.0213 44.8097 49.0764 44.6664 49.1667 44.546C51.8297 40.9894 53.4636 36.7691 53.8897 32.3465C53.8971 32.2384 53.9262 32.1329 53.9751 32.0362C54.024 31.9395 54.0917 31.8536 54.1744 31.7835C54.2571 31.7135 54.3529 31.6607 54.4564 31.6283C54.5598 31.596 54.6686 31.5847 54.7765 31.5951C54.8843 31.6055 54.989 31.6374 55.0843 31.6889C55.1796 31.7405 55.2636 31.8106 55.3314 31.8952C55.3991 31.9797 55.4492 32.077 55.4788 32.1813C55.5083 32.2855 55.5166 32.3947 55.5032 32.5022C55.049 37.2209 53.3063 41.7239 50.4656 45.5189C50.3899 45.6199 50.2918 45.7017 50.1789 45.758C50.066 45.8143 49.9415 45.8435 49.8154 45.8433Z" fill="#1F2B45"/>
<path d="M36.1208 55.1029C35.9233 55.1027 35.7327 55.0304 35.5847 54.8996C35.4367 54.7688 35.3416 54.5885 35.3171 54.3926C35.2926 54.1966 35.3405 53.9985 35.4517 53.8353C35.563 53.6721 35.73 53.5552 35.9213 53.5064C36.6534 53.3206 37.3745 53.094 38.0813 52.8277C38.1809 52.7901 38.287 52.7724 38.3934 52.7758C38.4998 52.7791 38.6046 52.8034 38.7016 52.8472C38.7987 52.891 38.8861 52.9536 38.959 53.0312C39.0319 53.1088 39.0888 53.2 39.1264 53.2996C39.1641 53.3992 39.1817 53.5053 39.1784 53.6117C39.175 53.7181 39.1508 53.8229 39.107 53.9199C39.0631 54.017 39.0006 54.1044 38.923 54.1773C38.8454 54.2502 38.7542 54.3071 38.6546 54.3448C37.8911 54.631 37.1123 54.8746 36.3219 55.0745C36.2563 55.0923 36.1887 55.1018 36.1208 55.1029Z" fill="#1F2B45"/>
<path d="M29.6757 55.9457C22.7968 55.938 16.2018 53.2019 11.3377 48.3378C6.47353 43.4737 3.73746 36.8787 3.72974 29.9998C3.72974 29.1444 3.7719 28.2857 3.85541 27.4465C3.87692 27.2326 3.98254 27.0359 4.14904 26.8998C4.31554 26.7637 4.52928 26.6994 4.74325 26.7209C4.95722 26.7424 5.15387 26.848 5.28997 27.0145C5.42606 27.181 5.49043 27.3947 5.46893 27.6087C5.38784 28.3952 5.35136 29.1995 5.35136 30.0014C5.35865 36.4504 7.92373 42.6331 12.4838 47.1932C17.044 51.7533 23.2267 54.3184 29.6757 54.3257C29.8808 54.3257 30.0892 54.3257 30.2878 54.3119C30.3943 54.3027 30.5015 54.3149 30.6032 54.3478C30.7049 54.3806 30.799 54.4335 30.88 54.5032C30.9609 54.5729 31.0272 54.6581 31.0747 54.7538C31.1223 54.8494 31.1503 54.9537 31.157 55.0603C31.1729 55.2747 31.103 55.4866 30.9626 55.6494C30.8223 55.8123 30.623 55.9127 30.4087 55.9287C30.1703 55.9457 29.923 55.9457 29.6757 55.9457Z" fill="#1F2B45"/>
<path d="M43.4595 51.8193C43.2841 51.8194 43.1135 51.7627 42.9732 51.6576C42.8328 51.5525 42.7303 51.4048 42.681 51.2366C42.6316 51.0683 42.6382 50.8887 42.6996 50.7245C42.761 50.5602 42.874 50.4204 43.0216 50.3258C43.6963 49.8914 44.346 49.4193 44.9676 48.9117C45.0502 48.8446 45.1452 48.7943 45.2473 48.7638C45.3493 48.7334 45.4564 48.7233 45.5623 48.7343C45.6682 48.7452 45.771 48.7768 45.8647 48.8275C45.9584 48.8781 46.0412 48.9467 46.1084 49.0293C46.1756 49.1119 46.2258 49.207 46.2563 49.309C46.2867 49.4111 46.2968 49.5181 46.2859 49.6241C46.2749 49.73 46.2433 49.8327 46.1926 49.9264C46.142 50.0201 46.0734 50.1029 45.9908 50.1701C45.3218 50.7157 44.6229 51.2235 43.8973 51.6912C43.7666 51.7749 43.6147 51.8194 43.4595 51.8193Z" fill="#1F2B45"/>
<path d="M54.4865 26.7729C54.294 26.7726 54.1078 26.7039 53.9613 26.579C53.8149 26.454 53.7176 26.281 53.687 26.091C52.7817 20.3816 49.8631 15.1847 45.459 11.4402C41.055 7.69573 35.4563 5.6509 29.6757 5.67557C24.7189 5.69177 19.884 7.21402 15.8121 10.0405C11.7401 12.8671 8.62331 16.8644 6.87486 21.5026C6.83926 21.6045 6.78367 21.6983 6.71135 21.7784C6.63903 21.8586 6.55143 21.9235 6.45369 21.9693C6.35595 22.0152 6.25005 22.041 6.14218 22.0454C6.03432 22.0498 5.92667 22.0325 5.82554 21.9947C5.72442 21.957 5.63187 21.8993 5.5533 21.8253C5.47474 21.7513 5.41175 21.6623 5.36804 21.5636C5.32432 21.4649 5.30076 21.3584 5.29873 21.2505C5.2967 21.1426 5.31624 21.0353 5.35621 20.935C7.22098 15.9878 10.5453 11.7242 14.8885 8.70937C19.2318 5.69458 24.3887 4.07103 29.6757 4.05395C35.8424 4.02735 41.815 6.20871 46.513 10.2034C51.211 14.1981 54.3241 19.7424 55.2892 25.8331C55.3233 26.0454 55.2718 26.2625 55.1459 26.4367C55.02 26.611 54.8301 26.7281 54.6178 26.7623C54.5744 26.7696 54.5305 26.7731 54.4865 26.7729Z" fill="#1F2B45"/>
<path d="M17.2565 43.5972C17.0445 43.5984 16.8406 43.5159 16.6889 43.3678C14.5768 41.3208 12.9796 38.8026 12.028 36.0195C11.0764 33.2364 10.7974 30.2675 11.2141 27.3559C11.6307 24.4443 12.731 21.6727 14.4249 19.2681C16.1187 16.8636 18.3581 14.8944 20.9595 13.5218C21.1489 13.4257 21.3685 13.4078 21.571 13.4719C21.7735 13.536 21.9428 13.677 22.0424 13.8646C22.142 14.0522 22.1641 14.2714 22.1038 14.475C22.0435 14.6787 21.9057 14.8506 21.72 14.9537C19.3444 16.2065 17.2993 18.0042 15.7522 20.1996C14.2051 22.395 13.2001 24.9256 12.8194 27.5842C12.4387 30.2428 12.6931 32.9538 13.5619 35.4952C14.4306 38.0365 15.889 40.3359 17.8176 42.2051C17.9334 42.3177 18.0129 42.4623 18.046 42.6204C18.0791 42.7785 18.0642 42.9429 18.0032 43.0925C17.9422 43.2421 17.8379 43.3701 17.7037 43.46C17.5695 43.5499 17.4115 43.5977 17.25 43.5972H17.2565Z" fill="#1F2B45"/>
<path d="M29.6757 48.6489C27.1489 48.6515 24.6481 48.1383 22.3265 47.1408C22.1288 47.0561 21.9728 46.8964 21.8928 46.6968C21.8128 46.4971 21.8154 46.2739 21.9 46.0762C21.9846 45.8784 22.1443 45.7224 22.344 45.6424C22.5436 45.5624 22.7669 45.5651 22.9646 45.6497C25.2867 46.6452 27.8012 47.1115 30.3258 47.0148C32.8504 46.918 35.3218 46.2607 37.5609 45.0904C39.7999 43.9202 41.7505 42.2663 43.2712 40.2487C44.7919 38.2312 45.8445 35.9005 46.3528 33.4257C46.861 30.9509 46.8122 28.394 46.2098 25.9404C45.6074 23.4868 44.4666 21.1981 42.87 19.24C41.2734 17.282 39.2611 15.7038 36.979 14.6199C34.6969 13.5359 32.2021 12.9735 29.6757 12.9732C28.9828 12.9736 28.2907 13.0175 27.6033 13.1045C27.3926 13.1258 27.182 13.0639 27.0164 12.9319C26.8509 12.8 26.7435 12.6085 26.7172 12.3984C26.691 12.1883 26.7479 11.9763 26.8759 11.8076C27.0039 11.639 27.1928 11.5271 27.4022 11.4959C28.1563 11.4009 28.9156 11.3527 29.6757 11.3516C34.6216 11.3516 39.365 13.3163 42.8623 16.8136C46.3596 20.3109 48.3243 25.0543 48.3243 30.0002C48.3243 34.9461 46.3596 39.6895 42.8623 43.1868C39.365 46.6841 34.6216 48.6489 29.6757 48.6489Z" fill="#1F2B45"/>
<path d="M29.6757 41.3511C27.4306 41.3511 25.2359 40.6854 23.3692 39.4381C21.5025 38.1908 20.0476 36.418 19.1884 34.3438C18.3293 32.2696 18.1045 29.9872 18.5425 27.7853C18.9805 25.5833 20.0616 23.5607 21.6491 21.9732C23.2366 20.3857 25.2592 19.3045 27.4612 18.8666C29.6631 18.4286 31.9455 18.6534 34.0197 19.5125C36.0939 20.3717 37.8667 21.8266 39.114 23.6933C40.3613 25.56 41.027 27.7547 41.027 29.9998C41.0238 33.0094 39.8269 35.8948 37.6988 38.0229C35.5707 40.1509 32.6853 41.3479 29.6757 41.3511ZM29.6757 20.2701C27.7513 20.2701 25.8702 20.8407 24.2701 21.9098C22.6701 22.9789 21.423 24.4985 20.6866 26.2764C19.9502 28.0543 19.7575 30.0106 20.1329 31.898C20.5083 33.7854 21.435 35.519 22.7957 36.8798C24.1565 38.2405 25.8901 39.1671 27.7775 39.5426C29.6649 39.918 31.6212 39.7253 33.3991 38.9889C35.177 38.2525 36.6966 37.0054 37.7657 35.4053C38.8348 33.8053 39.4054 31.9242 39.4054 29.9998C39.4026 27.4202 38.3766 24.947 36.5526 23.1229C34.7285 21.2988 32.2553 20.2729 29.6757 20.2701Z" fill="#1F2B45"/>
<path d="M5.18919 28.3781C4.38737 28.3781 3.60356 28.1404 2.93688 27.6949C2.27019 27.2494 1.75057 26.6163 1.44373 25.8755C1.13689 25.1347 1.0566 24.3196 1.21303 23.5332C1.36946 22.7468 1.75557 22.0244 2.32254 21.4574C2.88951 20.8905 3.61187 20.5043 4.39828 20.3479C5.18469 20.1915 5.99983 20.2718 6.74061 20.5786C7.48139 20.8855 8.11455 21.4051 8.56001 22.0718C9.00548 22.7384 9.24324 23.5223 9.24324 24.3241C9.24195 25.3989 8.81442 26.4293 8.05442 27.1893C7.29441 27.9493 6.264 28.3768 5.18919 28.3781ZM5.18919 21.8916C4.7081 21.8916 4.23781 22.0343 3.8378 22.3016C3.43779 22.5689 3.12602 22.9488 2.94191 23.3932C2.75781 23.8377 2.70964 24.3268 2.80349 24.7986C2.89735 25.2705 3.12902 25.7039 3.4692 26.0441C3.80938 26.3842 4.2428 26.6159 4.71464 26.7098C5.18649 26.8036 5.67557 26.7555 6.12004 26.5713C6.56451 26.3872 6.9444 26.0755 7.21168 25.6755C7.47896 25.2755 7.62162 24.8052 7.62162 24.3241C7.62162 23.679 7.36535 23.0603 6.90918 22.6041C6.45301 22.1479 5.83431 21.8916 5.18919 21.8916Z" fill="#1F2B45"/>
<path d="M24.3389 17.0271C23.5371 17.0271 22.7533 16.7893 22.0866 16.3438C21.4199 15.8984 20.9003 15.2652 20.5935 14.5244C20.2866 13.7836 20.2064 12.9685 20.3628 12.1821C20.5192 11.3957 20.9053 10.6733 21.4723 10.1064C22.0393 9.53938 22.7616 9.15327 23.548 8.99684C24.3344 8.84042 25.1496 8.9207 25.8904 9.22754C26.6311 9.53439 27.2643 10.054 27.7098 10.7207C28.1552 11.3874 28.393 12.1712 28.393 12.973C28.3917 14.0478 27.9642 15.0782 27.2042 15.8382C26.4442 16.5982 25.4137 17.0258 24.3389 17.0271ZM24.3389 10.5406C23.8578 10.5406 23.3876 10.6832 22.9876 10.9505C22.5875 11.2178 22.2758 11.5977 22.0917 12.0421C21.9076 12.4866 21.8594 12.9757 21.9532 13.4475C22.0471 13.9194 22.2788 14.3528 22.6189 14.693C22.9591 15.0332 23.3925 15.2648 23.8644 15.3587C24.3362 15.4526 24.8253 15.4044 25.2698 15.2203C25.7143 15.0362 26.0942 14.7244 26.3614 14.3244C26.6287 13.9244 26.7714 13.4541 26.7714 12.973C26.7714 12.3279 26.5151 11.7092 26.0589 11.253C25.6028 10.7968 24.9841 10.5406 24.3389 10.5406Z" fill="#1F2B45"/>
<path d="M19.946 48.6486C19.1441 48.6486 18.3603 48.4109 17.6937 47.9654C17.027 47.5199 16.5073 46.8868 16.2005 46.146C15.8937 45.4052 15.8134 44.5901 15.9698 43.8037C16.1262 43.0173 16.5123 42.2949 17.0793 41.7279C17.6463 41.161 18.3686 40.7749 19.1551 40.6184C19.9415 40.462 20.7566 40.5423 21.4974 40.8491C22.2382 41.156 22.8713 41.6756 23.3168 42.3423C23.7623 43.009 24 43.7928 24 44.5946C23.9987 45.6694 23.5712 46.6998 22.8112 47.4598C22.0512 48.2198 21.0208 48.6473 19.946 48.6486ZM19.946 42.1621C19.4649 42.1621 18.9946 42.3048 18.5946 42.5721C18.1946 42.8394 17.8828 43.2193 17.6987 43.6637C17.5146 44.1082 17.4664 44.5973 17.5603 45.0691C17.6541 45.541 17.8858 45.9744 18.226 46.3146C18.5662 46.6547 18.9996 46.8864 19.4714 46.9803C19.9433 47.0741 20.4323 47.026 20.8768 46.8419C21.3213 46.6577 21.7012 46.346 21.9685 45.946C22.2357 45.546 22.3784 45.0757 22.3784 44.5946C22.3784 43.9495 22.1221 43.3308 21.666 42.8746C21.2098 42.4184 20.5911 42.1621 19.946 42.1621Z" fill="#1F2B45"/>
<path d="M54.8109 33.2434C54.009 33.2434 53.2252 33.0056 52.5586 32.5601C51.8919 32.1147 51.3722 31.4815 51.0654 30.7407C50.7586 29.9999 50.6783 29.1848 50.8347 28.3984C50.9911 27.612 51.3772 26.8896 51.9442 26.3227C52.5112 25.7557 53.2335 25.3696 54.02 25.2132C54.8064 25.0567 55.6215 25.137 56.3623 25.4439C57.1031 25.7507 57.7362 26.2703 58.1817 26.937C58.6272 27.6037 58.8649 28.3875 58.8649 29.1893C58.8636 30.2641 58.4361 31.2945 57.6761 32.0545C56.9161 32.8145 55.8857 33.2421 54.8109 33.2434ZM54.8109 26.7569C54.3298 26.7569 53.8595 26.8995 53.4595 27.1668C53.0595 27.4341 52.7477 27.814 52.5636 28.2585C52.3795 28.7029 52.3313 29.192 52.4252 29.6639C52.519 30.1357 52.7507 30.5691 53.0909 30.9093C53.4311 31.2495 53.8645 31.4811 54.3363 31.575C54.8082 31.6689 55.2972 31.6207 55.7417 31.4366C56.1862 31.2525 56.5661 30.9407 56.8334 30.5407C57.1006 30.1407 57.2433 29.6704 57.2433 29.1893C57.2433 28.5442 56.987 27.9255 56.5309 27.4693C56.0747 27.0132 55.456 26.7569 54.8109 26.7569Z" fill="#1F2B45"/>
</svg>
