<svg width="80" height="80" viewBox="0 0 80 80" fill="none" xmlns="http://www.w3.org/2000/svg">
<g clip-path="url(#clip0_716:2679)">
<mask id="path-1-inside-1_716:2679" fill="white">
<path d="M1.71876 80C1.14577 80 0.572988 80 0 80C0 79.1147 0 78.2292 0 77.3438C0.0443805 77.2255 0.111472 77.1105 0.129808 76.9884C0.851982 72.163 3.39855 68.649 7.72576 66.4158C8.12372 66.2104 8.53669 66.0345 9.01258 65.8122C7.74201 64.6804 6.85565 63.4081 6.52061 61.8338C6.40309 61.2816 6.12577 61.0937 5.63841 60.9439C3.11622 60.1684 1.2912 57.8643 1.27016 55.268C1.22724 50.0375 1.21223 44.8056 1.27953 39.5756C1.32329 36.1747 3.6267 32.9956 6.82981 31.8846C8.10101 31.4437 9.48098 31.3168 10.8322 31.0428C9.64808 29.7887 8.92632 28.2035 8.81027 26.3868C8.73567 25.22 8.70025 24.0422 8.76943 22.8766C8.973 19.4464 10.6703 17.0163 13.8176 15.6176C14.1907 15.4517 14.5847 15.3328 15 15.1806C15 14.8692 15 14.5854 15 14.3016C15 10.1377 15.0156 5.97346 14.9858 1.80981C14.9802 1.04784 15.1419 0.439638 15.7813 0C37.1876 0 58.5938 0 80 0C80 14.7396 80 29.4791 80 44.2187C79.5566 44.851 78.9505 45.0171 78.1881 45.016C61.6267 44.9977 45.065 45.0008 28.5034 44.9998C28.1781 44.9998 27.8531 44.9998 27.5545 44.9998C27.5545 53.6163 27.5545 62.1103 27.5545 70.7593C29.2759 68.4398 31.396 66.8717 34.0536 65.8301C33.7463 65.5459 33.5131 65.3459 33.2977 65.1286C32.2172 64.0384 31.5273 62.7372 31.397 61.2058C31.287 59.9123 31.2416 58.6073 31.2654 57.3092C31.3339 53.5679 34.1516 50.5232 37.9364 50.0377C41.5175 49.5783 45.129 51.9469 45.9239 55.5622C46.296 57.2551 46.211 59.0751 46.1449 60.8303C46.0735 62.7293 45.1967 64.3203 43.7523 65.5786C43.6798 65.6418 43.634 65.7355 43.5423 65.8607C47.004 67.2386 49.5391 69.5835 51.2522 72.997C52.9527 69.5635 55.5105 67.2197 59.0618 65.8201C56.6181 63.9053 56.1489 61.3587 56.2439 58.6013C56.26 58.1331 56.2437 57.6637 56.2597 57.1953C56.3858 53.5167 59.2351 50.4784 62.9716 50.0327C66.5006 49.6118 70.07 51.9432 70.9059 55.4432C71.2616 56.933 71.2235 58.5373 71.2131 60.0888C71.1989 62.2342 70.4376 64.1059 68.7778 65.5488C68.6882 65.6265 68.6332 65.7441 68.5475 65.8632C68.8067 65.972 69.0263 66.0535 69.237 66.1541C74.306 68.575 77.0542 72.583 77.4957 78.1873C77.5566 78.9603 77.3474 79.5541 76.7183 80C76.4058 80 76.0933 80 75.7809 80C75.1759 79.5791 74.9379 79.007 74.9798 78.2687C75.0029 77.8595 74.9114 77.4418 74.8531 77.0307C74.0449 71.332 68.8697 67.1769 63.007 67.517C57.3522 67.8449 52.6764 72.6197 52.5209 78.269C52.5007 79.0022 52.3215 79.5779 51.7183 80C51.4058 80 51.0933 80 50.7809 80C50.1759 79.5791 49.9348 79.007 49.9806 78.2687C50.0044 77.8856 49.9179 77.4934 49.8652 77.1078C49.082 71.3898 43.9751 67.2313 38.085 67.5128C32.4168 67.7835 27.676 72.5914 27.5211 78.2694C27.5011 79.0026 27.323 79.5787 26.7185 80.0002C26.406 80.0002 26.0935 80.0002 25.7811 80.0002C25.1761 79.5793 24.935 79.0072 24.9808 78.269C25.0048 77.8858 24.9181 77.4936 24.8654 77.108C24.0816 71.3852 18.9676 67.2222 13.0873 67.5176C7.42572 67.802 2.7243 72.5328 2.5274 78.1919C2.50115 78.9461 2.35217 79.5589 1.71876 80ZM77.4609 2.55574C57.4486 2.55574 37.4947 2.55574 17.5282 2.55574C17.5282 6.71959 17.5282 10.8276 17.5282 14.9602C17.7489 15.0038 17.9481 15.0448 18.1479 15.0821C21.895 15.7843 24.4645 18.3817 24.9129 22.1594C25.0921 23.6692 24.9679 25.2254 24.8746 26.7542C24.7833 28.2492 24.1376 29.5564 23.1954 30.7161C23.0775 30.8614 22.9839 31.0264 22.8364 31.2456C27.1069 31.2456 31.2724 31.2543 35.4376 31.226C35.713 31.2241 36.0599 31.0022 36.2489 30.7778C37.557 29.2249 38.8184 27.6328 40.1215 26.0758C41.4414 24.4983 42.7372 22.8724 44.9956 22.578C44.9956 22.2122 44.9956 21.9279 44.9956 21.6435C44.9956 16.7223 44.9956 11.8009 44.996 6.87961C44.996 6.64521 44.9829 6.40913 45.0065 6.17702C45.0769 5.48485 45.5836 5.00875 46.237 5.00188C46.8913 4.995 47.4113 5.4661 47.4874 6.1541C47.513 6.3858 47.4993 6.62229 47.4993 6.85648C47.4997 11.934 47.5057 17.0115 47.4895 22.089C47.488 22.5534 47.5993 22.8181 48.0252 23.0704C49.3074 23.8296 49.9189 25.0081 50.0035 26.4944C50.0717 27.6903 49.4576 28.5884 48.7776 29.4493C46.2602 32.6357 43.7023 35.7903 41.2091 38.9953C40.6349 39.7335 39.9996 40.0235 39.0899 40.0156C35.523 39.9848 31.9555 40.001 28.3883 39.9998C28.1114 39.9998 27.8343 39.9998 27.5564 39.9998C27.5564 40.8834 27.5564 41.6729 27.5564 42.4628C44.2157 42.4628 60.8186 42.4628 77.4605 42.4628C77.4609 29.1566 77.4609 15.8872 77.4609 2.55574ZM24.9958 70.8468C24.9958 70.3211 24.9958 70.0398 24.9958 69.7587C24.9973 59.5797 24.9979 49.401 25.0008 39.222C25.0012 37.8862 25.3844 37.5018 26.7142 37.5009C30.6711 37.4984 34.6283 37.5068 38.585 37.4868C38.8838 37.4853 39.2947 37.3868 39.4633 37.179C42.0698 33.9653 44.6481 30.7286 47.2242 27.4903C47.6335 26.9759 47.6845 26.3862 47.3774 25.8053C47.0846 25.2517 46.5921 25.0138 45.9647 24.9979C44.7471 24.9669 43.8999 25.6361 43.1733 26.4864C41.7702 28.1285 40.2644 29.7062 39.0518 31.4816C37.8322 33.2673 36.3706 33.8384 34.2297 33.8053C26.1874 33.6807 18.1423 33.7432 10.0981 33.7553C6.84419 33.7603 4.32887 35.9385 3.81277 39.1447C3.76755 39.4258 3.7538 39.7148 3.75359 40C3.74984 44.9723 3.74463 49.9446 3.75359 54.9169C3.75672 56.6175 4.79706 58.0698 6.24995 58.3956C6.24995 58.1037 6.24995 57.8233 6.24995 57.5428C6.2487 53.3515 6.24641 49.1603 6.2462 44.969C6.2462 43.329 6.23453 41.6885 6.25891 40.049C6.27058 39.2618 6.81981 38.7392 7.52886 38.7567C8.20665 38.7736 8.69525 39.2812 8.74505 40.0304C8.7588 40.2377 8.74964 40.4467 8.74964 40.6551C8.74984 44.0913 8.74984 47.5278 8.74984 50.9641C8.74984 51.2324 8.74984 51.5008 8.74984 51.8804C9.05217 51.6621 9.21699 51.5408 9.3843 51.4229C13.7286 48.3606 19.7766 50.5274 20.9682 55.6972C21.3395 57.3084 21.2279 59.0582 21.1576 60.737C21.077 62.6591 20.23 64.2876 18.7615 65.5669C18.678 65.6397 18.634 65.7576 18.5565 65.8782C21.1393 66.8869 23.2175 68.4815 24.9958 70.8468ZM11.1954 24.377C11.2181 24.3785 11.2408 24.3797 11.2637 24.3812C11.2637 24.9012 11.2414 25.4226 11.2675 25.9414C11.4068 28.7125 13.6271 30.9974 16.395 31.2331C19.2011 31.4719 21.86 29.5733 22.3272 26.8079C22.5584 25.4398 22.5482 24.0055 22.4574 22.6137C22.2788 19.8725 19.9517 17.6655 17.2367 17.5111C14.4222 17.3513 11.9252 19.2334 11.395 21.9761C11.2437 22.7599 11.2574 23.5759 11.1954 24.377ZM43.7469 58.7367C43.7469 58.2948 43.7565 57.8527 43.7453 57.4111C43.6807 54.8385 41.7142 52.7303 39.1836 52.5153C36.6652 52.3013 34.3201 53.9695 33.9036 56.4781C33.6809 57.8197 33.6811 59.2328 33.8126 60.5911C34.0703 63.254 36.4012 65.1361 39.0549 64.9908C41.6392 64.8494 43.6861 62.7012 43.7459 60.0625C43.7561 59.6206 43.7476 59.1786 43.7469 58.7367ZM58.7057 58.7126C58.7215 58.7136 58.7373 58.7144 58.7532 58.7155C58.7532 59.1832 58.7423 59.6514 58.7551 60.119C58.8228 62.6399 60.7697 64.7343 63.2687 64.9815C65.7663 65.2284 68.14 63.5561 68.5904 61.0664C68.8051 59.8798 68.7528 58.6355 68.7373 57.4184C68.7044 54.8512 66.7146 52.7345 64.1916 52.5155C61.6462 52.2947 59.361 53.9984 58.8674 56.5433C58.7301 57.2503 58.7551 57.9887 58.7057 58.7126ZM8.75922 58.7092C8.75714 58.7092 8.75505 58.7092 8.75318 58.7092C8.75318 59.177 8.74276 59.645 8.75484 60.1123C8.82089 62.6412 10.7547 64.7287 13.2577 64.9804C15.7809 65.2342 18.1704 63.5329 18.5969 60.9943C18.8138 59.7031 18.7994 58.3492 18.7109 57.0359C18.5331 54.4024 16.2316 52.4299 13.5769 52.5084C10.9793 52.5855 8.86069 54.6925 8.76172 57.3059C8.74401 57.7731 8.75922 58.2415 8.75922 58.7092Z"/>
</mask>
<path d="M1.71876 80C1.14577 80 0.572988 80 0 80C0 79.1147 0 78.2292 0 77.3438C0.0443805 77.2255 0.111472 77.1105 0.129808 76.9884C0.851982 72.163 3.39855 68.649 7.72576 66.4158C8.12372 66.2104 8.53669 66.0345 9.01258 65.8122C7.74201 64.6804 6.85565 63.4081 6.52061 61.8338C6.40309 61.2816 6.12577 61.0937 5.63841 60.9439C3.11622 60.1684 1.2912 57.8643 1.27016 55.268C1.22724 50.0375 1.21223 44.8056 1.27953 39.5756C1.32329 36.1747 3.6267 32.9956 6.82981 31.8846C8.10101 31.4437 9.48098 31.3168 10.8322 31.0428C9.64808 29.7887 8.92632 28.2035 8.81027 26.3868C8.73567 25.22 8.70025 24.0422 8.76943 22.8766C8.973 19.4464 10.6703 17.0163 13.8176 15.6176C14.1907 15.4517 14.5847 15.3328 15 15.1806C15 14.8692 15 14.5854 15 14.3016C15 10.1377 15.0156 5.97346 14.9858 1.80981C14.9802 1.04784 15.1419 0.439638 15.7813 0C37.1876 0 58.5938 0 80 0C80 14.7396 80 29.4791 80 44.2187C79.5566 44.851 78.9505 45.0171 78.1881 45.016C61.6267 44.9977 45.065 45.0008 28.5034 44.9998C28.1781 44.9998 27.8531 44.9998 27.5545 44.9998C27.5545 53.6163 27.5545 62.1103 27.5545 70.7593C29.2759 68.4398 31.396 66.8717 34.0536 65.8301C33.7463 65.5459 33.5131 65.3459 33.2977 65.1286C32.2172 64.0384 31.5273 62.7372 31.397 61.2058C31.287 59.9123 31.2416 58.6073 31.2654 57.3092C31.3339 53.5679 34.1516 50.5232 37.9364 50.0377C41.5175 49.5783 45.129 51.9469 45.9239 55.5622C46.296 57.2551 46.211 59.0751 46.1449 60.8303C46.0735 62.7293 45.1967 64.3203 43.7523 65.5786C43.6798 65.6418 43.634 65.7355 43.5423 65.8607C47.004 67.2386 49.5391 69.5835 51.2522 72.997C52.9527 69.5635 55.5105 67.2197 59.0618 65.8201C56.6181 63.9053 56.1489 61.3587 56.2439 58.6013C56.26 58.1331 56.2437 57.6637 56.2597 57.1953C56.3858 53.5167 59.2351 50.4784 62.9716 50.0327C66.5006 49.6118 70.07 51.9432 70.9059 55.4432C71.2616 56.933 71.2235 58.5373 71.2131 60.0888C71.1989 62.2342 70.4376 64.1059 68.7778 65.5488C68.6882 65.6265 68.6332 65.7441 68.5475 65.8632C68.8067 65.972 69.0263 66.0535 69.237 66.1541C74.306 68.575 77.0542 72.583 77.4957 78.1873C77.5566 78.9603 77.3474 79.5541 76.7183 80C76.4058 80 76.0933 80 75.7809 80C75.1759 79.5791 74.9379 79.007 74.9798 78.2687C75.0029 77.8595 74.9114 77.4418 74.8531 77.0307C74.0449 71.332 68.8697 67.1769 63.007 67.517C57.3522 67.8449 52.6764 72.6197 52.5209 78.269C52.5007 79.0022 52.3215 79.5779 51.7183 80C51.4058 80 51.0933 80 50.7809 80C50.1759 79.5791 49.9348 79.007 49.9806 78.2687C50.0044 77.8856 49.9179 77.4934 49.8652 77.1078C49.082 71.3898 43.9751 67.2313 38.085 67.5128C32.4168 67.7835 27.676 72.5914 27.5211 78.2694C27.5011 79.0026 27.323 79.5787 26.7185 80.0002C26.406 80.0002 26.0935 80.0002 25.7811 80.0002C25.1761 79.5793 24.935 79.0072 24.9808 78.269C25.0048 77.8858 24.9181 77.4936 24.8654 77.108C24.0816 71.3852 18.9676 67.2222 13.0873 67.5176C7.42572 67.802 2.7243 72.5328 2.5274 78.1919C2.50115 78.9461 2.35217 79.5589 1.71876 80ZM77.4609 2.55574C57.4486 2.55574 37.4947 2.55574 17.5282 2.55574C17.5282 6.71959 17.5282 10.8276 17.5282 14.9602C17.7489 15.0038 17.9481 15.0448 18.1479 15.0821C21.895 15.7843 24.4645 18.3817 24.9129 22.1594C25.0921 23.6692 24.9679 25.2254 24.8746 26.7542C24.7833 28.2492 24.1376 29.5564 23.1954 30.7161C23.0775 30.8614 22.9839 31.0264 22.8364 31.2456C27.1069 31.2456 31.2724 31.2543 35.4376 31.226C35.713 31.2241 36.0599 31.0022 36.2489 30.7778C37.557 29.2249 38.8184 27.6328 40.1215 26.0758C41.4414 24.4983 42.7372 22.8724 44.9956 22.578C44.9956 22.2122 44.9956 21.9279 44.9956 21.6435C44.9956 16.7223 44.9956 11.8009 44.996 6.87961C44.996 6.64521 44.9829 6.40913 45.0065 6.17702C45.0769 5.48485 45.5836 5.00875 46.237 5.00188C46.8913 4.995 47.4113 5.4661 47.4874 6.1541C47.513 6.3858 47.4993 6.62229 47.4993 6.85648C47.4997 11.934 47.5057 17.0115 47.4895 22.089C47.488 22.5534 47.5993 22.8181 48.0252 23.0704C49.3074 23.8296 49.9189 25.0081 50.0035 26.4944C50.0717 27.6903 49.4576 28.5884 48.7776 29.4493C46.2602 32.6357 43.7023 35.7903 41.2091 38.9953C40.6349 39.7335 39.9996 40.0235 39.0899 40.0156C35.523 39.9848 31.9555 40.001 28.3883 39.9998C28.1114 39.9998 27.8343 39.9998 27.5564 39.9998C27.5564 40.8834 27.5564 41.6729 27.5564 42.4628C44.2157 42.4628 60.8186 42.4628 77.4605 42.4628C77.4609 29.1566 77.4609 15.8872 77.4609 2.55574ZM24.9958 70.8468C24.9958 70.3211 24.9958 70.0398 24.9958 69.7587C24.9973 59.5797 24.9979 49.401 25.0008 39.222C25.0012 37.8862 25.3844 37.5018 26.7142 37.5009C30.6711 37.4984 34.6283 37.5068 38.585 37.4868C38.8838 37.4853 39.2947 37.3868 39.4633 37.179C42.0698 33.9653 44.6481 30.7286 47.2242 27.4903C47.6335 26.9759 47.6845 26.3862 47.3774 25.8053C47.0846 25.2517 46.5921 25.0138 45.9647 24.9979C44.7471 24.9669 43.8999 25.6361 43.1733 26.4864C41.7702 28.1285 40.2644 29.7062 39.0518 31.4816C37.8322 33.2673 36.3706 33.8384 34.2297 33.8053C26.1874 33.6807 18.1423 33.7432 10.0981 33.7553C6.84419 33.7603 4.32887 35.9385 3.81277 39.1447C3.76755 39.4258 3.7538 39.7148 3.75359 40C3.74984 44.9723 3.74463 49.9446 3.75359 54.9169C3.75672 56.6175 4.79706 58.0698 6.24995 58.3956C6.24995 58.1037 6.24995 57.8233 6.24995 57.5428C6.2487 53.3515 6.24641 49.1603 6.2462 44.969C6.2462 43.329 6.23453 41.6885 6.25891 40.049C6.27058 39.2618 6.81981 38.7392 7.52886 38.7567C8.20665 38.7736 8.69525 39.2812 8.74505 40.0304C8.7588 40.2377 8.74964 40.4467 8.74964 40.6551C8.74984 44.0913 8.74984 47.5278 8.74984 50.9641C8.74984 51.2324 8.74984 51.5008 8.74984 51.8804C9.05217 51.6621 9.21699 51.5408 9.3843 51.4229C13.7286 48.3606 19.7766 50.5274 20.9682 55.6972C21.3395 57.3084 21.2279 59.0582 21.1576 60.737C21.077 62.6591 20.23 64.2876 18.7615 65.5669C18.678 65.6397 18.634 65.7576 18.5565 65.8782C21.1393 66.8869 23.2175 68.4815 24.9958 70.8468ZM11.1954 24.377C11.2181 24.3785 11.2408 24.3797 11.2637 24.3812C11.2637 24.9012 11.2414 25.4226 11.2675 25.9414C11.4068 28.7125 13.6271 30.9974 16.395 31.2331C19.2011 31.4719 21.86 29.5733 22.3272 26.8079C22.5584 25.4398 22.5482 24.0055 22.4574 22.6137C22.2788 19.8725 19.9517 17.6655 17.2367 17.5111C14.4222 17.3513 11.9252 19.2334 11.395 21.9761C11.2437 22.7599 11.2574 23.5759 11.1954 24.377ZM43.7469 58.7367C43.7469 58.2948 43.7565 57.8527 43.7453 57.4111C43.6807 54.8385 41.7142 52.7303 39.1836 52.5153C36.6652 52.3013 34.3201 53.9695 33.9036 56.4781C33.6809 57.8197 33.6811 59.2328 33.8126 60.5911C34.0703 63.254 36.4012 65.1361 39.0549 64.9908C41.6392 64.8494 43.6861 62.7012 43.7459 60.0625C43.7561 59.6206 43.7476 59.1786 43.7469 58.7367ZM58.7057 58.7126C58.7215 58.7136 58.7373 58.7144 58.7532 58.7155C58.7532 59.1832 58.7423 59.6514 58.7551 60.119C58.8228 62.6399 60.7697 64.7343 63.2687 64.9815C65.7663 65.2284 68.14 63.5561 68.5904 61.0664C68.8051 59.8798 68.7528 58.6355 68.7373 57.4184C68.7044 54.8512 66.7146 52.7345 64.1916 52.5155C61.6462 52.2947 59.361 53.9984 58.8674 56.5433C58.7301 57.2503 58.7551 57.9887 58.7057 58.7126ZM8.75922 58.7092C8.75714 58.7092 8.75505 58.7092 8.75318 58.7092C8.75318 59.177 8.74276 59.645 8.75484 60.1123C8.82089 62.6412 10.7547 64.7287 13.2577 64.9804C15.7809 65.2342 18.1704 63.5329 18.5969 60.9943C18.8138 59.7031 18.7994 58.3492 18.7109 57.0359C18.5331 54.4024 16.2316 52.4299 13.5769 52.5084C10.9793 52.5855 8.86069 54.6925 8.76172 57.3059C8.74401 57.7731 8.75922 58.2415 8.75922 58.7092Z" fill="#07EBFE" stroke="white" stroke-width="0.6" mask="url(#path-1-inside-1_716:2679)"/>
<path d="M6.40615 76.3288L6.40615 76.3289C6.3973 76.5857 6.40199 76.843 6.40675 77.1048C6.40767 77.1554 6.40859 77.2063 6.40943 77.2573C6.41451 77.5698 6.41598 77.8879 6.38947 78.2056L6.40615 76.3288ZM6.40615 76.3288C6.41875 75.9616 6.54132 75.6691 6.73092 75.4697C6.91969 75.2712 7.18347 75.1558 7.49899 75.1556C7.81434 75.1554 8.07952 75.2707 8.26921 75.4692C8.45959 75.6684 8.58244 75.9606 8.59329 76.3271L8.59329 76.3271M6.40615 76.3288L8.59329 76.3271M8.59329 76.3271C8.59812 76.4898 8.60503 76.6515 8.61189 76.8123C8.63847 77.4348 8.66442 78.0426 8.56691 78.6302C8.53263 78.8366 8.4256 79.0396 8.28404 79.2566C8.23464 79.3323 8.179 79.4124 8.12186 79.4946C8.04111 79.6108 7.95739 79.7313 7.88408 79.8498C7.61585 79.85 7.34773 79.85 7.07944 79.85M8.59329 76.3271L7.07944 79.85M7.07944 79.85C6.80462 79.6502 6.62219 79.4201 6.51266 79.1599C6.39766 78.8866 6.35904 78.5705 6.38947 78.2056L7.07944 79.85Z" fill="#07EBFE" stroke="white" stroke-width="0.3"/>
<path d="M18.8884 78.2038L18.8884 78.2038C18.9146 77.8858 18.9124 77.5674 18.9065 77.2546C18.9056 77.2044 18.9046 77.1545 18.9036 77.1047C18.8982 76.8417 18.8929 76.5834 18.9015 76.3256L18.9015 76.3256C18.9137 75.9588 19.0362 75.6664 19.226 75.467C19.415 75.2683 19.6794 75.1525 19.9958 75.1517L19.9958 75.1517C20.3085 75.151 20.5744 75.2669 20.7656 75.4666C20.9573 75.6669 21.0815 75.9598 21.0924 76.3241L21.0924 76.3241C21.0972 76.4852 21.1041 76.6455 21.111 76.8048C21.1378 77.4294 21.1639 78.0394 21.066 78.6291L21.066 78.6291C21.0317 78.8356 20.9247 79.0389 20.7831 79.2561C20.7337 79.3319 20.678 79.412 20.6209 79.4943C20.5402 79.6107 20.4564 79.7313 20.3831 79.8499C20.115 79.8501 19.8468 79.8501 19.5785 79.8501C19.3033 79.6501 19.1209 79.4197 19.0115 79.1592C18.8967 78.8856 18.8582 78.5692 18.8884 78.2038Z" fill="#07EBFE" stroke="white" stroke-width="0.3"/>
<path d="M31.4025 76.3248L31.4025 76.3248C31.3935 76.5841 31.3982 76.844 31.403 77.1083C31.4039 77.1568 31.4048 77.2054 31.4056 77.2542C31.4107 77.567 31.4124 77.8853 31.3869 78.2031L31.4025 76.3248ZM31.4025 76.3248C31.4151 75.9581 31.538 75.6658 31.7282 75.4665C31.9177 75.268 32.1824 75.1523 32.4989 75.152C32.816 75.1516 33.0813 75.2665 33.2707 75.4645C33.4607 75.6633 33.5831 75.9553 33.5938 76.3229M31.4025 76.3248L32.0794 79.8501M32.0794 79.8501C31.8042 79.6502 31.6216 79.4196 31.5118 79.1587C31.3966 78.8848 31.3576 78.5681 31.3869 78.2031L32.0794 79.8501ZM32.0794 79.8501H32.0811H32.0829H32.0847H32.0865H32.0884H32.0902H32.092H32.0939H32.0957H32.0975H32.0994H32.1012H32.103H32.1049H32.1067H32.1085H32.1104H32.1122H32.114H32.1158H32.1177H32.1195H32.1213H32.1232H32.125H32.1268H32.1287H32.1305H32.1323H32.1342H32.136H32.1378H32.1396H32.1415H32.1433H32.1451H32.147H32.1488H32.1506H32.1525H32.1543H32.1561H32.158H32.1598H32.1616H32.1635H32.1653H32.1671H32.1689H32.1708H32.1726H32.1744H32.1763H32.1781H32.1799H32.1818H32.1836H32.1854H32.1873H32.1891H32.1909H32.1927H32.1946H32.1964H32.1982H32.2001H32.2019H32.2037H32.2056H32.2074H32.2092H32.2111H32.2129H32.2147H32.2166H32.2184H32.2202H32.222H32.2239H32.2257H32.2275H32.2294H32.2312H32.233H32.2349H32.2367H32.2385H32.2404H32.2422H32.244H32.2458H32.2477H32.2495H32.2513H32.2532H32.255H32.2568H32.2587H32.2605H32.2623H32.2642H32.266H32.2678H32.2696H32.2715H32.2733H32.2751H32.277H32.2788H32.2806H32.2825H32.2843H32.2861H32.288H32.2898H32.2916H32.2934H32.2953H32.2971H32.2989H32.3008H32.3026H32.3044H32.3063H32.3081H32.3099H32.3118H32.3136H32.3154H32.3173H32.3191H32.3209H32.3227H32.3246H32.3264H32.3282H32.3301H32.3319H32.3337H32.3356H32.3374H32.3392H32.3411H32.3429H32.3447H32.3465H32.3484H32.3502H32.352H32.3539H32.3557H32.3575H32.3594H32.3612H32.363H32.3649H32.3667H32.3685H32.3703H32.3722H32.374H32.3758H32.3777H32.3795H32.3813H32.3832H32.385H32.3868H32.3887H32.3905H32.3923H32.3941H32.396H32.3978H32.3996H32.4015H32.4033H32.4051H32.407H32.4088H32.4106H32.4125H32.4143H32.4161H32.4179H32.4198H32.4216H32.4234H32.4253H32.4271H32.4289H32.4308H32.4326H32.4344H32.4363H32.4381H32.4399H32.4418H32.4436H32.4454H32.4472H32.4491H32.4509H32.4527H32.4546H32.4564H32.4582H32.4601H32.4619H32.4637H32.4656H32.4674H32.4692H32.471H32.4729H32.4747H32.4765H32.4784H32.4802H32.482H32.4839H32.4857H32.4875H32.4894H32.4912H32.493H32.4948H32.4967H32.4985H32.5003H32.5022H32.504H32.5058H32.5077H32.5095H32.5113H32.5132H32.515H32.5168H32.5187H32.5205H32.5223H32.5241H32.526H32.5278H32.5296H32.5315H32.5333H32.5351H32.537H32.5388H32.5406H32.5425H32.5443H32.5461H32.5479H32.5498H32.5516H32.5534H32.5553H32.5571H32.5589H32.5608H32.5626H32.5644H32.5663H32.5681H32.5699H32.5718H32.5736H32.5754H32.5772H32.5791H32.5809H32.5827H32.5846H32.5864H32.5882H32.5901H32.5919H32.5937H32.5956H32.5974H32.5992H32.601H32.6029H32.6047H32.6065H32.6084H32.6102H32.612H32.6139H32.6157H32.6175H32.6194H32.6212H32.623H32.6249H32.6267H32.6285H32.6303H32.6322H32.634H32.6358H32.6377H32.6395H32.6413H32.6432H32.645H32.6468H32.6487H32.6505H32.6523H32.6542H32.656H32.6578H32.6596H32.6615H32.6633H32.6651H32.667H32.6688H32.6706H32.6725H32.6743H32.6761H32.678H32.6798H32.6816H32.6835H32.6853H32.6871H32.6889H32.6908H32.6926H32.6944H32.6963H32.6981H32.6999H32.7018H32.7036H32.7054H32.7073H32.7091H32.7109H32.7128H32.7146H32.7164H32.7183H32.7201H32.7219H32.7237H32.7256H32.7274H32.7292H32.7311H32.7329H32.7347H32.7366H32.7384H32.7402H32.7421H32.7439H32.7457H32.7476H32.7494H32.7512H32.7531H32.7549H32.7567H32.7585H32.7604H32.7622H32.764H32.7659H32.7677H32.7695H32.7714H32.7732H32.775H32.7769H32.7787H32.7805H32.7824H32.7842H32.786H32.7879H32.7897H32.7915H32.7933H32.7952H32.797H32.7988H32.8007H32.8025H32.8043H32.8062H32.808H32.8098H32.8117H32.8135H32.8153H32.8172H32.819H32.8208H32.8227H32.8245H32.8263H32.8282H32.83H32.8318H32.8336H32.8355H32.8373H32.8391H32.841H32.8428H32.8446H32.8465H32.8483H32.8501H32.852H32.8538H32.8556H32.8575H32.8593H32.8611H32.863H32.8648H32.8666H32.8685H32.8703H32.8721H32.8739H32.8758H32.8776H32.8794H32.8813H32.8831H32.8843C32.9576 79.7316 33.0412 79.611 33.1219 79.4948C33.1791 79.4123 33.2348 79.332 33.2843 79.2561C33.4258 79.0389 33.5329 78.8355 33.5672 78.6289C33.6644 78.0431 33.6388 77.4373 33.6125 76.8168C33.6055 76.6531 33.5985 76.4885 33.5938 76.3229M33.5938 76.3229L33.7437 76.3186M33.5938 76.3229C33.5938 76.3229 33.5938 76.3229 33.5938 76.3229L33.7437 76.3186M33.7437 76.3186C33.7483 76.4792 33.7552 76.6406 33.7621 76.8022C33.7886 77.4247 33.8152 78.0507 33.7152 78.6535C33.6605 78.9827 33.4496 79.2861 33.2388 79.5895C33.1442 79.7256 33.0497 79.8617 32.9692 80.0001L32.4988 75.002C33.2095 75.0011 33.7206 75.521 33.7437 76.3186Z" fill="#07EBFE" stroke="white" stroke-width="0.3"/>
<path d="M43.8857 78.2064L43.8857 78.2065C43.8548 78.5716 43.8941 78.8874 44.0099 79.1603C44.1202 79.4204 44.3036 79.6502 44.5786 79.8501C44.8469 79.8501 45.1152 79.8501 45.3835 79.8502C45.4567 79.7319 45.5402 79.6116 45.6208 79.4956C45.6781 79.4131 45.7338 79.3327 45.7833 79.2568C45.9248 79.0397 46.0319 78.8364 46.0665 78.6297C46.1652 78.0397 46.14 77.4293 46.1143 76.8043C46.1078 76.6456 46.1012 76.4859 46.0966 76.3254C46.0861 75.958 45.9638 75.6668 45.7738 75.4686C45.5844 75.2712 45.3185 75.1563 44.9999 75.1561C44.6839 75.1559 44.4199 75.2711 44.2309 75.4694C44.0411 75.6687 43.9183 75.9612 43.9053 76.3288L43.8857 78.2064ZM43.8857 78.2064C43.9125 77.8888 43.9117 77.5706 43.9072 77.2579M43.8857 78.2064L43.9072 77.2579M43.9072 77.2579C43.9065 77.2057 43.9056 77.1537 43.9048 77.1019M43.9072 77.2579L43.9048 77.1019M43.9048 77.1019C43.9005 76.8411 43.8963 76.5847 43.9053 76.3289L43.9048 77.1019Z" fill="#07EBFE" stroke="white" stroke-width="0.3"/>
<path d="M56.3898 78.2064L56.3898 78.2065C56.3589 78.5717 56.3969 78.8879 56.5117 79.161C56.621 79.4211 56.8036 79.6509 57.0797 79.8501H57.0797H57.0816H57.0834H57.0852H57.0871H57.0889H57.0907H57.0926H57.0944H57.0962H57.098H57.0999H57.1017H57.1035H57.1054H57.1072H57.109H57.1109H57.1127H57.1145H57.1164H57.1182H57.12H57.1219H57.1237H57.1255H57.1273H57.1292H57.131H57.1328H57.1347H57.1365H57.1383H57.1402H57.142H57.1438H57.1457H57.1475H57.1493H57.1511H57.153H57.1548H57.1566H57.1585H57.1603H57.1621H57.164H57.1658H57.1676H57.1695H57.1713H57.1731H57.175H57.1768H57.1786H57.1804H57.1823H57.1841H57.1859H57.1878H57.1896H57.1914H57.1933H57.1951H57.1969H57.1988H57.2006H57.2024H57.2042H57.2061H57.2079H57.2097H57.2116H57.2134H57.2152H57.2171H57.2189H57.2207H57.2226H57.2244H57.2262H57.228H57.2299H57.2317H57.2335H57.2354H57.2372H57.239H57.2409H57.2427H57.2445H57.2464H57.2482H57.25H57.2519H57.2537H57.2555H57.2573H57.2592H57.261H57.2628H57.2647H57.2665H57.2683H57.2702H57.272H57.2738H57.2757H57.2775H57.2793H57.2811H57.283H57.2848H57.2866H57.2885H57.2903H57.2921H57.294H57.2958H57.2976H57.2995H57.3013H57.3031H57.3049H57.3068H57.3086H57.3104H57.3123H57.3141H57.3159H57.3178H57.3196H57.3214H57.3233H57.3251H57.3269H57.3287H57.3306H57.3324H57.3342H57.3361H57.3379H57.3397H57.3416H57.3434H57.3452H57.3471H57.3489H57.3507H57.3525H57.3544H57.3562H57.358H57.3599H57.3617H57.3635H57.3654H57.3672H57.369H57.3709H57.3727H57.3745H57.3763H57.3782H57.38H57.3818H57.3837H57.3855H57.3873H57.3892H57.391H57.3928H57.3947H57.3965H57.3983H57.4001H57.402H57.4038H57.4056H57.4075H57.4093H57.4111H57.413H57.4148H57.4166H57.4184H57.4203H57.4221H57.4239H57.4258H57.4276H57.4294H57.4313H57.4331H57.4349H57.4368H57.4386H57.4404H57.4422H57.4441H57.4459H57.4477H57.4496H57.4514H57.4532H57.4551H57.4569H57.4587H57.4606H57.4624H57.4642H57.466H57.4679H57.4697H57.4715H57.4734H57.4752H57.477H57.4789H57.4807H57.4825H57.4844H57.4862H57.488H57.4898H57.4917H57.4935H57.4953H57.4972H57.499H57.5008H57.5027H57.5045H57.5063H57.5082H57.51H57.5118H57.5136H57.5155H57.5173H57.5191H57.521H57.5228H57.5246H57.5265H57.5283H57.5301H57.532H57.5338H57.5356H57.5374H57.5393H57.5411H57.5429H57.5448H57.5466H57.5484H57.5503H57.5521H57.5539H57.5558H57.5576H57.5594H57.5612H57.5631H57.5649H57.5667H57.5686H57.5704H57.5722H57.5741H57.5759H57.5777H57.5796H57.5814H57.5832H57.585H57.5869H57.5887H57.5905H57.5924H57.5942H57.596H57.5979H57.5997H57.6015H57.6033H57.6052H57.607H57.6088H57.6107H57.6125H57.6143H57.6162H57.618H57.6198H57.6217H57.6235H57.6253H57.6271H57.629H57.6308H57.6326H57.6345H57.6363H57.6381H57.64H57.6418H57.6436H57.6455H57.6473H57.6491H57.6509H57.6528H57.6546H57.6564H57.6583H57.6601H57.6619H57.6638H57.6656H57.6674H57.6693H57.6711H57.6729H57.6747H57.6766H57.6784H57.6802H57.6821H57.6839H57.6857H57.6876H57.6894H57.6912H57.6931H57.6949H57.6967H57.6985H57.7004H57.7022H57.704H57.7059H57.7077H57.7095H57.7114H57.7132H57.715H57.7169H57.7187H57.7205H57.7223H57.7242H57.726H57.7278H57.7297H57.7315H57.7333H57.7352H57.737H57.7388H57.7407H57.7425H57.7443H57.7461H57.748H57.7498H57.7516H57.7535H57.7553H57.7571H57.759H57.7608H57.7626H57.7645H57.7663H57.7681H57.77H57.7718H57.7736H57.7754H57.7773H57.7791H57.7809H57.7828H57.7846H57.7864H57.7883H57.7901H57.7919H57.7938H57.7956H57.7974H57.7992H57.8011H57.8029H57.8047H57.8066H57.8084H57.8102H57.8121H57.8139H57.8157H57.8176H57.8194H57.8212H57.823H57.8249H57.8267H57.8285H57.8304H57.8322H57.834H57.8359H57.8377H57.8395H57.8414H57.8432H57.845H57.8469H57.8487H57.8505H57.8523H57.8542H57.856H57.8578H57.8597H57.8615H57.8633H57.8652H57.867H57.8688H57.8707H57.8725H57.8743H57.8761H57.878H57.8798H57.8816H57.8835H57.8848C57.9583 79.7316 58.0423 79.6112 58.1232 79.4951C58.1806 79.4128 58.2365 79.3327 58.286 79.257C58.428 79.0401 58.5354 78.8371 58.5698 78.6308L58.5698 78.6308C58.6689 78.0376 58.6426 77.4232 58.6156 76.7943C58.6089 76.6396 58.6023 76.4841 58.5974 76.3278L58.5974 76.3278C58.5861 75.9621 58.4623 75.6699 58.2709 75.4704C58.0802 75.2715 57.8144 75.156 57.4999 75.1561C57.1841 75.1562 56.9203 75.2715 56.7315 75.47C56.542 75.6693 56.4194 75.9618 56.4067 76.3293L56.3898 78.2064ZM56.3898 78.2064C56.4166 77.8887 56.4152 77.5705 56.4101 77.2579M56.3898 78.2064L56.4101 77.2579M56.4101 77.2579C56.4093 77.2061 56.4083 77.1546 56.4074 77.1033M56.4101 77.2579L56.4074 77.1033M56.4074 77.1033C56.4026 76.8421 56.3979 76.5855 56.4067 76.3294L56.4074 77.1033Z" fill="#07EBFE" stroke="white" stroke-width="0.3"/>
<path d="M68.8884 78.2047L68.8884 78.2047C68.8582 78.5697 68.8965 78.8861 69.0113 79.1596C69.1206 79.4201 69.3029 79.6503 69.5783 79.85C69.8467 79.85 70.1151 79.85 70.3834 79.8499C70.4569 79.7316 70.5409 79.6113 70.6219 79.4952C70.6794 79.413 70.7353 79.3329 70.7849 79.2572C70.9269 79.0404 71.0342 78.8376 71.0684 78.6316C71.1652 78.047 71.1388 77.4426 71.1118 76.8233C71.1046 76.6594 71.0974 76.4944 71.0925 76.3285C71.0814 75.9616 70.9587 75.6693 70.7685 75.47C70.579 75.2714 70.3141 75.156 69.9989 75.1559C69.6831 75.1558 69.4191 75.271 69.2302 75.4693C69.0405 75.6684 68.9178 75.9608 68.9051 76.3281L68.8884 78.2047ZM68.8884 78.2047C68.9147 77.8871 68.9133 77.5691 68.9082 77.2565M68.8884 78.2047L68.9082 77.2565M68.9082 77.2565C68.9074 77.2059 68.9065 77.1554 68.9056 77.1051M68.9082 77.2565L68.9056 77.1051M68.9056 77.1051C68.9009 76.8429 68.8963 76.5852 68.9051 76.3281L68.9056 77.1051ZM68.739 78.1923L68.739 78.1923L68.739 78.1923Z" fill="#07EBFE" stroke="white" stroke-width="0.3"/>
</g>
<defs>
<clipPath id="clip0_716:2679">
<rect width="80" height="80" fill="white"/>
</clipPath>
</defs>
</svg>
