<svg width="60" height="60" viewBox="0 0 60 60" fill="none" xmlns="http://www.w3.org/2000/svg">
<g clip-path="url(#clip0)">
<path d="M41.5572 48.334C41.7284 49.0714 41.8832 49.7188 42.0287 50.3683C42.3447 51.779 41.6973 53.0894 40.4287 53.617C39.1325 54.1561 37.7456 53.6637 36.959 52.4072C36.8287 52.1993 36.6437 51.9878 36.4323 51.8741C31.703 49.3306 26.6949 48.3101 21.3538 49.1597C20.9961 49.2167 20.6446 49.314 20.2159 49.4092C20.527 50.7447 20.8268 52.0395 21.1309 53.3333C21.4764 54.8039 21.8388 56.2706 22.1699 57.7445C22.49 59.1692 21.6588 60.54 20.28 60.9103C18.8944 61.2824 17.4226 60.4674 17.0554 59.0227C16.3803 56.3668 15.7626 53.696 15.1441 51.0261C15.0552 50.6421 14.9473 50.4497 14.5051 50.4018C13.146 50.2546 12.0096 49.6344 11.0468 48.6592C10.8642 48.4743 10.5315 48.3516 10.266 48.3482C8.32102 48.3224 6.37547 48.3369 4.4301 48.3333C2.2642 48.3293 1.00309 47.0753 1.00257 44.912C1.00015 33.5637 1.00153 22.2156 1.00153 10.8674C1.00153 8.70597 0.997381 6.54474 1.00274 4.38333C1.00811 2.25167 2.24915 1.00353 4.39257 1.00301C20.4528 0.998862 36.5132 0.998689 52.5735 1.00336C54.7079 1.00405 55.9433 2.25842 55.9438 4.40426C55.9465 17.9136 55.9469 31.4231 55.9436 44.9324C55.9431 47.0573 54.673 48.3292 52.5593 48.3323C49.1657 48.3375 45.772 48.3337 42.3784 48.3337C42.1248 48.334 41.8714 48.334 41.5572 48.334ZM41.1106 46.4478C41.3467 46.4478 41.5587 46.4478 41.771 46.4478C45.3163 46.4478 48.8616 46.4486 52.4068 46.4473C53.6999 46.4467 54.0487 46.0942 54.0487 44.7878C54.0493 33.5682 54.0493 22.3487 54.0477 11.1291C54.0477 10.9006 54.0271 10.6723 54.0162 10.4426C36.9484 10.4426 19.9479 10.4426 2.89865 10.4426C2.89865 10.746 2.89865 11.0032 2.89865 11.2604C2.89865 15.9298 2.89865 20.5993 2.89865 25.2687C2.89865 31.8188 2.89761 38.369 2.89968 44.9193C2.90003 46.0562 3.28609 46.4445 4.40796 46.4469C6.00774 46.4504 7.60735 46.4488 9.20713 46.4464C9.39619 46.446 9.58524 46.4272 9.76911 46.4172C9.76911 46.3061 9.77914 46.2399 9.76772 46.1776C9.1696 42.9564 10.8733 40.3017 14.0373 39.5329C15.1069 39.2731 16.1777 39.0181 17.2495 38.7675C22.7891 37.4726 27.486 34.7996 31.05 30.2946C31.2874 29.9945 31.4389 29.5832 31.507 29.2017C31.6464 28.4209 31.9521 27.7593 32.5872 27.2748C34.2493 26.0075 36.4634 26.8906 36.9872 29.0408C37.4724 31.0329 37.9368 33.0301 38.3977 35.0281C38.4716 35.3484 38.5536 35.5271 38.9524 35.5809C40.9563 35.8511 42.3428 37.0809 42.7501 38.8739C43.168 40.7139 42.4758 42.3479 40.8132 43.5232C40.6659 43.6274 40.5277 43.9074 40.5588 44.0731C40.7049 44.8528 40.9122 45.6213 41.1106 46.4478ZM54.0491 8.51865C54.0491 7.18783 54.0494 5.91721 54.0489 4.64659C54.0484 3.17809 53.7301 2.85913 52.2641 2.85913C36.4044 2.85896 20.5448 2.85896 4.68523 2.85913C4.53406 2.85913 4.38254 2.85481 4.23154 2.86052C3.35978 2.89338 2.91162 3.32684 2.90297 4.19064C2.88982 5.50849 2.89778 6.82668 2.90245 8.14469C2.9028 8.2649 2.94362 8.38494 2.96818 8.51865C19.9849 8.51865 36.9623 8.51865 54.0491 8.51865ZM21.355 47.2445C26.5311 46.5104 31.4058 47.3924 36.1768 49.6048C34.7843 43.719 33.4228 37.9646 32.033 32.0902C28.6368 36.0322 24.4762 38.5815 19.6592 40.0858C20.2302 42.4956 20.782 44.8255 21.355 47.2445ZM17.8334 40.5414C16.4797 40.8732 15.2083 41.1245 13.9752 41.5014C12.2178 42.0387 11.1985 43.8609 11.5737 45.6319C11.9677 47.4916 13.5716 48.7356 15.4333 48.5066C16.518 48.3733 17.5816 48.065 18.6529 47.8277C18.9354 47.7651 19.2116 47.674 19.505 47.5918C18.9426 45.2199 18.3971 42.9192 17.8334 40.5414ZM40.2507 51.0347C40.2212 50.9074 40.1923 50.7813 40.1625 50.6552C39.4687 47.7179 38.7751 44.7807 38.0812 41.8434C37.1095 37.7295 36.1402 33.6149 35.1631 29.5023C34.9927 28.7851 34.5969 28.4897 34.0491 28.6234C33.5147 28.7538 33.331 29.1596 33.4925 29.8473C34.7216 35.0801 35.9476 40.3136 37.1804 45.5456C37.6291 47.4496 38.0971 49.3491 38.5473 51.2528C38.6679 51.7622 38.9903 51.99 39.4847 51.9324C39.9923 51.8734 40.2122 51.5208 40.2507 51.0347ZM16.8713 50.1981C17.5373 53.0069 18.1767 55.7087 18.8207 58.4092C18.8501 58.5324 18.8878 58.7071 18.9758 58.7526C19.242 58.8899 19.5755 59.1115 19.8064 59.0428C20.0387 58.9738 20.2228 58.6156 20.3428 58.3461C20.4089 58.1977 20.3115 57.9683 20.2674 57.7803C19.9228 56.3132 19.575 54.8468 19.2247 53.381C18.9463 52.2159 18.6631 51.0518 18.3718 49.8449C17.8457 49.9689 17.3939 50.0751 16.8713 50.1981ZM38.981 37.4628C39.3292 38.9339 39.6573 40.3195 39.9916 41.7323C40.8201 41.1397 41.1645 40.2223 40.9122 39.2577C40.6634 38.3072 40.0311 37.7326 38.981 37.4628Z" fill="url(#paint0_linear)"/>
<path d="M18.3756 16.9208C15.4149 16.9208 12.4542 16.9229 9.49334 16.9172C9.23769 16.9167 8.90352 16.9559 8.74456 16.8176C8.48165 16.5887 8.18294 16.2323 8.17844 15.9254C8.17446 15.654 8.50846 15.3193 8.77466 15.123C8.95213 14.9921 9.27246 15.0344 9.5288 15.0343C15.4286 15.0303 21.3285 15.031 27.2283 15.0315C28.176 15.0317 28.6405 15.3532 28.6267 15.9934C28.6132 16.6121 28.1613 16.9201 27.2575 16.9205C24.297 16.9215 21.3363 16.9208 18.3756 16.9208Z" fill="url(#paint1_linear)"/>
<path d="M18.361 20.8195C15.4218 20.8195 12.4825 20.8206 9.54345 20.8175C9.30735 20.8173 9.06312 20.8214 8.83688 20.7656C8.38456 20.654 8.13601 20.3325 8.13687 19.8711C8.13774 19.4114 8.37972 19.0916 8.8367 18.9786C9.0223 18.9328 9.22104 18.9248 9.41372 18.9248C15.4001 18.9222 21.3867 18.9224 27.3732 18.9245C27.5448 18.9245 27.7212 18.9297 27.8871 18.9681C28.3428 19.0734 28.6047 19.3804 28.6187 19.839C28.6336 20.3302 28.3636 20.6585 27.8867 20.7763C27.6812 20.8271 27.4583 20.8178 27.2433 20.818C24.2826 20.8202 21.3219 20.8195 18.361 20.8195Z" fill="url(#paint2_linear)"/>
<path d="M18.3411 24.7108C15.3803 24.7108 12.4194 24.7124 9.4587 24.7077C9.22416 24.7074 8.91506 24.7478 8.77133 24.6211C8.50651 24.3875 8.17199 24.0406 8.17805 23.7472C8.1841 23.4551 8.53021 23.1152 8.80869 22.9033C8.98235 22.7712 9.30684 22.817 9.56369 22.8168C15.4422 22.813 21.3205 22.8135 27.199 22.8153C27.4143 22.8153 27.6344 22.8122 27.844 22.8528C28.3302 22.9471 28.6158 23.2657 28.6198 23.7536C28.6241 24.2751 28.3155 24.5948 27.8054 24.6909C27.6169 24.7266 27.4178 24.7101 27.2236 24.7103C24.2627 24.7112 21.302 24.7108 18.3411 24.7108Z" fill="url(#paint3_linear)"/>
<path d="M47.4169 36.7849C47.6355 37.0248 48.0629 37.2887 48.1208 37.6177C48.1739 37.9197 47.91 38.4812 47.6431 38.5958C46.981 38.8802 46.2445 39.0322 45.5235 39.1246C45.0529 39.1848 44.7146 38.8498 44.6258 38.3627C44.5421 37.9031 44.7319 37.5155 45.1615 37.3721C45.8333 37.1477 46.5337 37.0092 47.4169 36.7849Z" fill="url(#paint4_linear)"/>
<path d="M42.9847 35.4311C42.1732 35.4225 41.7297 34.746 42.0523 34.1104C42.3429 33.5377 42.6949 32.9916 43.0633 32.4642C43.3433 32.0633 43.7697 31.9699 44.2094 32.1871C44.6523 32.4059 44.8744 32.8391 44.6682 33.2639C44.3339 33.9528 43.8908 34.5928 43.4512 35.2238C43.3506 35.3684 43.0775 35.3929 42.9847 35.4311Z" fill="url(#paint5_linear)"/>
<path d="M44.6673 41.6838C44.9647 41.7867 45.1389 41.8177 45.2821 41.9017C45.8013 42.2063 46.3249 42.5071 46.8182 42.8506C47.2681 43.1641 47.3824 43.6172 47.0981 44.096C46.8293 44.5485 46.3766 44.6813 45.9226 44.4509C45.3305 44.1505 44.7312 43.8213 44.2386 43.387C44.0127 43.1878 43.9046 42.677 43.9808 42.3658C44.0488 42.0882 44.4442 41.8908 44.6673 41.6838Z" fill="url(#paint6_linear)"/>
<path d="M39.5452 4.77122C42.893 4.77122 46.2409 4.77104 49.5887 4.77156C49.8046 4.77156 50.022 4.76239 50.2362 4.78367C50.7743 4.83694 51.1325 5.21799 51.1005 5.72462C51.0676 6.24525 50.7836 6.5604 50.2531 6.61782C50.0822 6.63633 49.9079 6.62647 49.7351 6.62647C42.9314 6.62682 36.1275 6.62682 29.3238 6.62612C29.1296 6.62612 28.9307 6.64221 28.7421 6.60675C28.2542 6.51508 27.9766 6.19699 27.9719 5.7087C27.9672 5.22007 28.2383 4.89247 28.7259 4.79889C28.9561 4.75478 29.1993 4.77208 29.4366 4.77191C32.8062 4.7707 36.1758 4.77122 39.5452 4.77122Z" fill="url(#paint7_linear)"/>
<path d="M8.61893 5.6876C8.62343 6.28711 8.11906 6.80498 7.5154 6.82072C6.91139 6.83646 6.39733 6.3435 6.37934 5.73154C6.36066 5.09017 6.87576 4.55484 7.50381 4.56331C8.10193 4.57144 8.61444 5.0881 8.61893 5.6876Z" fill="url(#paint8_linear)"/>
<path d="M16.9233 6.82418C16.3274 6.82141 15.8108 6.3096 15.8023 5.71338C15.7935 5.09588 16.3453 4.55501 16.9615 4.57698C17.5609 4.59842 18.0592 5.12252 18.0478 5.71978C18.0362 6.32015 17.5204 6.82694 16.9233 6.82418Z" fill="url(#paint9_linear)"/>
<path d="M13.3147 5.70248C13.3136 6.31565 12.826 6.81605 12.221 6.82504C11.598 6.83421 11.0752 6.29715 11.0938 5.66651C11.1114 5.06319 11.6281 4.56557 12.2253 4.57629C12.8302 4.58719 13.3157 5.08914 13.3147 5.70248Z" fill="url(#paint10_linear)"/>
</g>
<defs>
<linearGradient id="paint0_linear" x1="46.466" y1="-2.3741" x2="-3.63587" y2="43.24" gradientUnits="userSpaceOnUse">
<stop stop-color="#4AB1FE"/>
<stop offset="1" stop-color="#07EBFE"/>
</linearGradient>
<linearGradient id="paint1_linear" x1="46.466" y1="-2.3741" x2="-3.63587" y2="43.24" gradientUnits="userSpaceOnUse">
<stop stop-color="#4AB1FE"/>
<stop offset="1" stop-color="#07EBFE"/>
</linearGradient>
<linearGradient id="paint2_linear" x1="46.466" y1="-2.3741" x2="-3.63587" y2="43.24" gradientUnits="userSpaceOnUse">
<stop stop-color="#4AB1FE"/>
<stop offset="1" stop-color="#07EBFE"/>
</linearGradient>
<linearGradient id="paint3_linear" x1="46.466" y1="-2.3741" x2="-3.63587" y2="43.24" gradientUnits="userSpaceOnUse">
<stop stop-color="#4AB1FE"/>
<stop offset="1" stop-color="#07EBFE"/>
</linearGradient>
<linearGradient id="paint4_linear" x1="46.466" y1="-2.3741" x2="-3.63587" y2="43.24" gradientUnits="userSpaceOnUse">
<stop stop-color="#4AB1FE"/>
<stop offset="1" stop-color="#07EBFE"/>
</linearGradient>
<linearGradient id="paint5_linear" x1="46.466" y1="-2.3741" x2="-3.63587" y2="43.24" gradientUnits="userSpaceOnUse">
<stop stop-color="#4AB1FE"/>
<stop offset="1" stop-color="#07EBFE"/>
</linearGradient>
<linearGradient id="paint6_linear" x1="46.466" y1="-2.3741" x2="-3.63587" y2="43.24" gradientUnits="userSpaceOnUse">
<stop stop-color="#4AB1FE"/>
<stop offset="1" stop-color="#07EBFE"/>
</linearGradient>
<linearGradient id="paint7_linear" x1="46.466" y1="-2.3741" x2="-3.63587" y2="43.24" gradientUnits="userSpaceOnUse">
<stop stop-color="#4AB1FE"/>
<stop offset="1" stop-color="#07EBFE"/>
</linearGradient>
<linearGradient id="paint8_linear" x1="46.466" y1="-2.3741" x2="-3.63587" y2="43.24" gradientUnits="userSpaceOnUse">
<stop stop-color="#4AB1FE"/>
<stop offset="1" stop-color="#07EBFE"/>
</linearGradient>
<linearGradient id="paint9_linear" x1="46.466" y1="-2.3741" x2="-3.63587" y2="43.24" gradientUnits="userSpaceOnUse">
<stop stop-color="#4AB1FE"/>
<stop offset="1" stop-color="#07EBFE"/>
</linearGradient>
<linearGradient id="paint10_linear" x1="46.466" y1="-2.3741" x2="-3.63587" y2="43.24" gradientUnits="userSpaceOnUse">
<stop stop-color="#4AB1FE"/>
<stop offset="1" stop-color="#07EBFE"/>
</linearGradient>
<clipPath id="clip0">
<rect width="60" height="60" fill="white"/>
</clipPath>
</defs>
</svg>
