<svg width="69" height="61" viewBox="0 0 69 61" fill="none" xmlns="http://www.w3.org/2000/svg">
<path d="M37 47.9115V51.4872H42.61V60.0007H46.8462V51.4872H61.5581V47.9115H46.8462V43.144H54.4597C65.1646 43.144 69 36.844 69 30.6007C69 25.8332 66.8819 18.0007 54.4597 18.0007H42.61V39.4548H37V43.144H42.61V47.9115H37ZM46.8462 21.8034H54.517C62.0733 21.8034 64.7639 26.1737 64.7639 30.6575C64.7639 35.0278 62.0733 39.4548 54.517 39.4548H46.8462V21.8034Z" fill="#07EBFE" fill-opacity="0.4"/>
<g clip-path="url(#clip0_1233:686)">
<path d="M58.125 28.1849H56.0988C55.4931 22.5479 53.0767 17.259 49.2117 13.1111L51.4816 10.8412H54.8438C55.0924 10.8412 55.3308 10.7424 55.5067 10.5666C55.6825 10.3908 55.7812 10.1523 55.7812 9.90369C55.7812 9.65505 55.6825 9.41659 55.5067 9.24077C55.3308 9.06496 55.0924 8.96619 54.8438 8.96619H53.3566L54.7629 7.55994H58.125C58.3736 7.55994 58.6121 7.46116 58.7879 7.28535C58.9637 7.10953 59.0625 6.87108 59.0625 6.62244C59.0625 6.3738 58.9637 6.13534 58.7879 5.95952C58.6121 5.78371 58.3736 5.68494 58.125 5.68494H56.6379L56.9133 5.41072C57.0892 5.2348 57.188 4.99622 57.188 4.74744C57.188 4.49866 57.0892 4.26007 56.9133 4.08416C56.7374 3.90824 56.4988 3.80942 56.25 3.80942C56.0012 3.80942 55.7626 3.90824 55.5867 4.08416L55.3125 4.35955V2.87244C55.3125 2.6238 55.2137 2.38534 55.0379 2.20952C54.8621 2.03371 54.6236 1.93494 54.375 1.93494C54.1264 1.93494 53.8879 2.03371 53.7121 2.20952C53.5363 2.38534 53.4375 2.6238 53.4375 2.87244V6.23455L52.0312 7.6408V6.15369C52.0312 5.90505 51.9325 5.66659 51.7567 5.49077C51.5808 5.31496 51.3424 5.21619 51.0938 5.21619C50.8451 5.21619 50.6067 5.31496 50.4308 5.49077C50.255 5.66659 50.1562 5.90505 50.1562 6.15369V9.5158L47.8863 11.7857C43.7384 7.92078 38.4495 5.50433 32.8125 4.89861V2.87244C32.8125 2.6238 32.7137 2.38534 32.5379 2.20952C32.3621 2.03371 32.1236 1.93494 31.875 1.93494H28.125C27.8764 1.93494 27.6379 2.03371 27.4621 2.20952C27.2863 2.38534 27.1875 2.6238 27.1875 2.87244V4.89861C21.2316 5.5406 15.6745 8.20029 11.4387 12.4361C7.20285 16.6719 4.54316 22.2291 3.90117 28.1849H1.875C1.62636 28.1849 1.3879 28.2837 1.21209 28.4595C1.03627 28.6353 0.9375 28.8738 0.9375 29.1224V32.8724C0.9375 33.1211 1.03627 33.3595 1.21209 33.5354C1.3879 33.7112 1.62636 33.8099 1.875 33.8099H3.90117C4.54316 39.7658 7.20285 45.3229 11.4387 49.5588C15.6745 53.7946 21.2316 56.4543 27.1875 57.0963V59.1224C27.1875 59.3711 27.2863 59.6095 27.4621 59.7854C27.6379 59.9612 27.8764 60.0599 28.125 60.0599H31.875C32.1236 60.0599 32.3621 59.9612 32.5379 59.7854C32.7137 59.6095 32.8125 59.3711 32.8125 59.1224V57.0963C38.7684 56.4543 44.3255 53.7946 48.5613 49.5588C52.7971 45.3229 55.4568 39.7658 56.0988 33.8099H58.125C58.3736 33.8099 58.6121 33.7112 58.7879 33.5354C58.9637 33.3595 59.0625 33.1211 59.0625 32.8724V29.1224C59.0625 28.8738 58.9637 28.6353 58.7879 28.4595C58.6121 28.2837 58.3736 28.1849 58.125 28.1849ZM29.0625 3.80994H30.9375V7.55994H29.0625V3.80994ZM2.8125 31.9349V30.0599H6.5625V31.9349H2.8125ZM30.9375 58.1849H29.0625V54.4349H30.9375V58.1849ZM47.2359 48.2334C43.3527 52.1194 38.2697 54.5783 32.8125 55.2107V53.4974C32.8125 53.2488 32.7137 53.0103 32.5379 52.8345C32.3621 52.6587 32.1236 52.5599 31.875 52.5599H28.125C27.8764 52.5599 27.6379 52.6587 27.4621 52.8345C27.2863 53.0103 27.1875 53.2488 27.1875 53.4974V55.2107C21.7309 54.5764 16.6484 52.1178 12.7641 48.2334C8.87966 44.349 6.42103 39.2665 5.78672 33.8099H7.5C7.74864 33.8099 7.9871 33.7112 8.16291 33.5354C8.33873 33.3595 8.4375 33.1211 8.4375 32.8724V29.1224C8.4375 28.8738 8.33873 28.6353 8.16291 28.4595C7.9871 28.2837 7.74864 28.1849 7.5 28.1849H5.78672C6.42103 22.7283 8.87966 17.6459 12.7641 13.7615C16.6484 9.8771 21.7309 7.41847 27.1875 6.78416V8.49744C27.1875 8.74608 27.2863 8.98453 27.4621 9.16035C27.6379 9.33616 27.8764 9.43494 28.125 9.43494H31.875C32.1236 9.43494 32.3621 9.33616 32.5379 9.16035C32.7137 8.98453 32.8125 8.74608 32.8125 8.49744V6.78416C37.9507 7.37985 42.7658 9.59631 46.5598 13.1123L43.2363 16.4357C39.6189 13.1345 34.8973 11.3061 30 11.3099C19.1437 11.3099 10.3125 20.1412 10.3125 30.9974C10.3125 41.8537 19.1437 50.6849 30 50.6849C40.8563 50.6849 49.6875 41.8537 49.6875 30.9974C49.6914 26.1001 47.8629 21.3785 44.5617 17.7611L47.8852 14.4377C51.4011 18.2317 53.6176 23.0467 54.2133 28.1849H52.5C52.2514 28.1849 52.0129 28.2837 51.8371 28.4595C51.6613 28.6353 51.5625 28.8738 51.5625 29.1224V32.8724C51.5625 33.1211 51.6613 33.3595 51.8371 33.5354C52.0129 33.7112 52.2514 33.8099 52.5 33.8099H54.2133C53.5809 39.2671 51.122 44.3501 47.2359 48.2334ZM28.125 28.1849C27.8764 28.1849 27.6379 28.2837 27.4621 28.4595C27.2863 28.6353 27.1875 28.8738 27.1875 29.1224V32.8724C27.1875 33.1211 27.2863 33.3595 27.4621 33.5354C27.6379 33.7112 27.8764 33.8099 28.125 33.8099H31.875C32.1236 33.8099 32.3621 33.7112 32.5379 33.5354C32.7137 33.3595 32.8125 33.1211 32.8125 32.8724C32.8125 32.6238 32.7137 32.3853 32.5379 32.2095C32.3621 32.0337 32.1236 31.9349 31.875 31.9349H30.3879L34.582 27.7408C35.401 28.8921 35.7574 30.309 35.5808 31.7108C35.4042 33.1125 34.7074 34.3968 33.6284 35.3089C32.5495 36.2211 31.1673 36.6946 29.7557 36.6356C28.3441 36.5765 27.0062 35.9893 26.0071 34.9903C25.0081 33.9913 24.4209 32.6534 24.3619 31.2418C24.3029 29.8302 24.7764 28.4479 25.6885 27.369C26.6007 26.2901 27.8849 25.5933 29.2867 25.4166C30.6884 25.24 32.1054 25.5965 33.2566 26.4154L29.0625 30.6095V29.1224C29.0625 28.8738 28.9637 28.6353 28.7879 28.4595C28.6121 28.2837 28.3736 28.1849 28.125 28.1849ZM34.5949 25.076C33.0856 23.9041 31.1863 23.3514 29.2839 23.5306C27.3814 23.7098 25.6187 24.6073 24.3547 26.0404C23.0907 27.4734 22.4204 29.3344 22.4802 31.2443C22.54 33.1543 23.3254 34.9696 24.6766 36.3208C26.0278 37.672 27.8432 38.4575 29.7531 38.5173C31.6631 38.5771 33.524 37.9067 34.9571 36.6427C36.3902 35.3787 37.2877 33.616 37.4668 31.7136C37.646 29.8111 37.0934 27.9119 35.9215 26.4025L43.234 19.0888C46.1838 22.3534 47.8156 26.5975 47.8125 30.9974C47.8125 40.8189 39.8215 48.8099 30 48.8099C20.1785 48.8099 12.1875 40.8189 12.1875 30.9974C12.1875 21.176 20.1785 13.1849 30 13.1849C34.3999 13.1819 38.644 14.8136 41.9086 17.7635L34.5949 25.076ZM57.1875 31.9349H53.4375V30.0599H57.1875V31.9349Z" fill="#475678"/>
</g>
<defs>
<clipPath id="clip0_1233:686">
<rect width="60" height="60" fill="white" transform="translate(0 0.997437)"/>
</clipPath>
</defs>
</svg>
