<svg width="75" height="90" viewBox="0 0 75 90" fill="none" xmlns="http://www.w3.org/2000/svg">
<path d="M67.5459 90C45.0459 90 22.5459 90 0.045891 90C0.0304221 89.6793 0.00154689 89.3586 0.00154689 89.0384C-0.000515629 59.6795 -0.000515629 30.3206 0.00154689 0.961649C0.00154689 0.640927 0.0304221 0.320206 0.045891 0C22.5459 0 45.0459 0 67.5459 0C67.68 0.0479535 67.8104 0.11911 67.9491 0.140767C69.9993 0.463035 71.6776 1.42829 73.0178 3.01076C74.4955 4.75617 74.9849 6.79651 74.9833 9.03795C74.9699 33.0127 74.9751 56.9879 74.9741 80.9626C74.9741 81.3137 74.9622 81.6649 74.9441 82.0155C74.8137 84.557 73.7355 86.6036 71.7643 88.2108C70.5242 89.2209 69.0567 89.6499 67.5459 90ZM25.0586 3.36706C25.0586 31.1755 25.0586 58.8936 25.0586 86.6262C25.2349 86.6417 25.3489 86.6598 25.4633 86.6598C39.1708 86.6608 52.8783 86.6696 66.5853 86.6381C67.3479 86.6366 68.175 86.4375 68.8597 86.1018C70.8537 85.1242 71.6488 83.4092 71.6477 81.2255C71.6374 57.0621 71.6415 32.8982 71.639 8.73476C71.639 8.38413 71.6204 8.03144 71.5864 7.68236C71.3512 5.28365 69.0985 3.30157 66.6286 3.41914C66.6286 13.5466 66.6286 23.6803 66.6286 34.0759C63.7395 31.176 61.0376 28.4638 58.1346 25.5499C55.3977 28.2905 52.6875 31.0038 49.9413 33.7536C49.9413 23.6354 49.9413 13.5167 49.9413 3.36809C41.6128 3.36706 33.3628 3.36706 25.0586 3.36706ZM21.6234 3.38768C15.5091 3.38768 9.46231 3.38768 3.39078 3.38768C3.39078 31.1548 3.39078 58.8709 3.39078 86.6118C9.49377 86.6118 15.5395 86.6118 21.6234 86.6118C21.6234 58.8642 21.6234 31.1677 21.6234 3.38768ZM63.2672 25.9774C63.2672 18.2806 63.2672 10.8385 63.2672 3.40779C59.9228 3.40779 56.6367 3.40779 53.3589 3.40779C53.3589 10.8973 53.3589 18.3157 53.3589 25.8836C55.0455 24.1825 56.6372 22.5768 58.2512 20.949C59.9445 22.6464 61.5321 24.2377 63.2672 25.9774Z" fill="#EFF4F9"/>
<path d="M43.2933 46.7181C46.6516 46.7181 49.9186 46.7181 53.2789 46.7181C53.2789 49.9908 53.2789 53.2521 53.2789 56.6316C56.6568 56.6316 59.944 56.6316 63.277 56.6316C63.277 60.0146 63.277 63.2785 63.277 66.6255C59.9842 66.6255 56.7187 66.6255 53.3403 66.6255C53.3403 69.9926 53.3403 73.2797 53.3403 76.6107C49.9609 76.6107 46.6944 76.6107 43.3417 76.6107C43.3417 73.3246 43.3417 70.0575 43.3417 66.6693C39.9716 66.6693 36.6845 66.6693 33.3509 66.6693C33.3509 63.3069 33.3509 60.0662 33.3509 56.6976C36.6313 56.6976 39.9174 56.6976 43.2928 56.6976C43.2933 53.3063 43.2933 50.0413 43.2933 46.7181ZM50.0073 73.2704C50.0073 69.9353 50.0073 66.6704 50.0073 63.3208C53.3609 63.3208 56.6274 63.3208 59.9223 63.3208C59.9223 62.1736 59.9223 61.1134 59.9223 59.9631C56.5924 59.9631 53.3269 59.9631 49.9702 59.9631C49.9702 56.6089 49.9702 53.3444 49.9702 50.0681C48.8141 50.0681 47.7524 50.0681 46.6005 50.0681C46.6005 53.4115 46.6005 56.6775 46.6005 60.0327C43.2412 60.0327 39.9742 60.0327 36.6973 60.0327C36.6973 61.165 36.6973 62.204 36.6973 63.3332C40.0226 63.3332 43.2902 63.3332 46.6454 63.3332C46.6454 66.69 46.6454 69.9559 46.6454 73.2699C47.7751 73.2704 48.8162 73.2704 50.0073 73.2704Z" fill="#EFF4F9"/>
</svg>
