<svg width="60" height="60" viewBox="0 0 60 60" fill="none" xmlns="http://www.w3.org/2000/svg">
<g clip-path="url(#clip0_714:6609)">
<path d="M41.9077 19.0793V16.4685H48.9906V28.9711H44.5597C43.9913 28.9711 43.5308 29.4318 43.5308 30V36.2508H39.195C38.6266 36.2508 38.1661 36.7115 38.1661 37.2797C38.1661 37.8479 38.6266 38.3086 39.195 38.3086H43.5308V58.0922H31.0282V38.3086H35.3641C35.9325 38.3086 36.393 37.8479 36.393 37.2797C36.393 36.7115 35.9325 36.2508 35.3641 36.2508H29.9993C29.4309 36.2508 28.9704 36.7115 28.9704 37.2797V43.5315H15.4388C14.8705 43.5315 14.4099 43.9922 14.4099 44.5604V50.8113H9.52896C8.96059 50.8113 8.50005 51.272 8.50005 51.8402C8.50005 52.4085 8.96059 52.8691 9.52896 52.8691H14.4098V58.0922H1.90708V52.8691H5.6981C6.26646 52.8691 6.727 52.4085 6.727 51.8402C6.727 51.272 6.26646 50.8113 5.6981 50.8113H0.878174C0.30981 50.8113 -0.150732 51.272 -0.150732 51.8402V59.1211C-0.150732 59.6893 0.30981 60.15 0.878174 60.15L59.1201 60.1498C59.6885 60.1498 60.149 59.6891 60.149 59.1209V30C60.149 29.4318 59.6885 28.9711 59.1201 28.9711H54.6883V17.3543C54.6883 16.7861 54.2278 16.3254 53.6594 16.3254C53.0911 16.3254 52.6305 16.7861 52.6305 17.3543V28.9711H51.0484V1.90781H52.6305V13.5246C52.6305 14.0928 53.0911 14.5535 53.6594 14.5535C54.2278 14.5535 54.6883 14.0928 54.6883 13.5246V0.878906C54.6883 0.310686 54.2278 -0.15 53.6594 -0.15H50.0195C49.4511 -0.15 48.9906 0.310686 48.9906 0.878906V3.49031H37.2794C36.7111 3.49031 36.2505 3.951 36.2505 4.51922V7.13086H26.3594H26.3441L26.329 7.13398C25.9152 7.21967 25.6046 7.38965 25.4523 7.67426C25.3 7.95887 25.3308 8.31157 25.4891 8.70343L25.4948 8.71768L25.5034 8.73047L28.7627 13.6195L25.5034 18.5086L25.4948 18.5214L25.4891 18.5356C25.3308 18.9275 25.3 19.2802 25.4523 19.5648C25.6046 19.8494 25.9152 20.0194 26.329 20.1051L26.3441 20.1082H26.3594H40.8788C41.4472 20.1082 41.9077 19.6475 41.9077 19.0793ZM39.85 18.0504H28.282L30.8553 14.1903C30.8553 14.1903 30.8553 14.1902 30.8553 14.1902C31.0858 13.8447 31.0858 13.3944 30.8553 13.0488C30.8553 13.0488 30.8553 13.0488 30.8553 13.0488L28.282 9.18867H36.2505V15.4396C36.2505 16.0078 36.7111 16.4685 37.2794 16.4685H39.85V18.0504ZM38.3083 14.4107V5.54812H48.9907V14.4107H38.3083ZM16.4677 45.5893H28.9704V58.0919H16.4677V45.5893ZM58.0912 58.0919H45.5887L45.5886 31.0289H58.0912V58.0919Z" fill="#3FBAFE" stroke="#3FBAFE" stroke-width="0.3"/>
</g>
<defs>
<clipPath id="clip0_714:6609">
<rect width="60" height="60" fill="white"/>
</clipPath>
</defs>
</svg>
