<svg width="70" height="70" viewBox="0 0 70 70" fill="none" xmlns="http://www.w3.org/2000/svg">
<g clip-path="url(#clip0)">
<path fill-rule="evenodd" clip-rule="evenodd" d="M70.0008 42.1094C69.659 42.6723 69.1627 42.8463 68.5084 42.8388C67.1841 42.8237 65.8595 42.8246 64.535 42.8255C63.3304 42.8264 62.1258 42.8272 60.9214 42.816C60.4575 42.8116 60.2612 42.9496 60.0982 43.3934C59.6754 44.5445 59.2012 45.6793 58.6869 46.7926C58.4885 47.222 58.5374 47.4605 58.8687 47.7859C60.4612 49.3505 62.0353 50.9338 63.6095 52.5172L63.61 52.5177L64.2847 53.1963C65.0482 53.964 65.0473 54.457 64.2761 55.2296C61.2661 58.2453 58.2534 61.258 55.2379 64.268C54.4455 65.0589 53.9657 65.0485 53.1564 64.242C52.7658 63.8526 52.3749 63.4637 51.9839 63.0747L51.9782 63.0691L51.9777 63.0686L51.9773 63.0682L51.9769 63.0678C50.5933 61.6914 49.2098 60.315 47.8436 58.9217C47.4875 58.5585 47.2253 58.4796 46.7404 58.7111C45.6545 59.2294 44.5353 59.6843 43.4068 60.1038C42.9771 60.2635 42.8117 60.4383 42.8168 60.9151C42.8387 62.9791 42.8347 65.0432 42.8307 67.1073C42.8298 67.5722 42.8289 68.0372 42.8283 68.5021C42.8268 69.6746 42.4985 69.9995 41.3255 69.9998C37.1104 70.0009 32.8952 70.0009 28.68 69.9998C27.5024 69.9995 27.1724 69.678 27.1708 68.5067L27.1693 67.6097V67.6093C27.1657 65.3793 27.162 63.1492 27.1837 60.9195C27.1883 60.4555 27.0497 60.2604 26.6058 60.0967C25.4338 59.665 24.2811 59.1758 23.1432 58.6595C22.762 58.4865 22.5449 58.5335 22.2619 58.8203C20.7447 60.358 19.2159 61.8841 17.687 63.4101L17.6866 63.4105L17.6862 63.4109L17.6858 63.4112L16.9037 64.192C16.0293 65.0651 15.5765 65.0695 14.7231 64.2168C11.7415 61.2372 8.761 58.2568 5.78144 55.2752C4.94462 54.4378 4.93951 53.9698 5.76248 53.1447C6.07818 52.8282 6.39371 52.5116 6.70925 52.1949L6.71337 52.1908C8.1817 50.7173 9.65005 49.2439 11.1346 47.7868C11.4658 47.4617 11.5101 47.2229 11.3125 46.7934C10.7905 45.6585 10.318 44.4989 9.87914 43.3292C9.73256 42.9387 9.55261 42.8158 9.1486 42.8186C8.0117 42.8264 6.87468 42.8262 5.73767 42.8259C4.32277 42.8256 2.90788 42.8253 1.49322 42.8406C0.840535 42.8477 0.340811 42.6758 0.000976562 42.1094V27.8906C0.340264 27.3247 0.837618 27.1539 1.49121 27.1614C2.83859 27.1767 4.18618 27.1757 5.5338 27.1748C6.71298 27.174 7.89218 27.1732 9.0713 27.1833C9.52581 27.1871 9.73493 27.0677 9.89937 26.6155C10.318 25.4642 10.7953 24.3319 11.3057 23.2177C11.4972 22.8001 11.4859 22.5559 11.1455 22.2221C9.70267 20.8073 8.27691 19.375 6.85115 17.9427C6.47821 17.568 6.10528 17.1934 5.73203 16.8191C4.96485 16.0497 4.9561 15.545 5.71125 14.7886C8.73457 11.7596 11.7606 8.73359 14.7892 5.71009C15.546 4.95458 16.0503 4.96132 16.8206 5.72887C17.1379 6.04514 17.4555 6.36125 17.773 6.67736L17.7744 6.67868C19.2633 8.16082 20.7523 9.64305 22.2227 11.1432C22.5562 11.4834 22.7999 11.4962 23.2182 11.3042C24.3112 10.8025 25.4247 10.3403 26.5525 9.92301C26.9992 9.75783 27.1919 9.58044 27.1859 9.06996C27.1708 7.78809 27.1718 6.50598 27.1728 5.22388C27.1738 3.97919 27.1748 2.73451 27.1611 1.49006C27.1538 0.836823 27.3252 0.339105 27.8914 0H42.1101C42.677 0.339652 42.8494 0.840105 42.8425 1.49224C42.8279 2.87222 42.8281 4.25241 42.8284 5.63261V5.63409C42.8286 6.8053 42.8288 7.97652 42.8199 9.14763C42.8168 9.55765 42.9523 9.72739 43.3362 9.87251C44.5048 10.3148 45.6644 10.7872 46.7984 11.3112C47.2297 11.5106 47.4673 11.4597 47.7907 11.1303C49.1623 9.73311 50.5488 8.35072 51.9354 6.96835L51.936 6.96776C52.3241 6.58079 52.7123 6.19382 53.1001 5.80653C53.9728 4.93489 54.4264 4.92723 55.2813 5.78101C58.2636 8.75966 61.2442 11.7403 64.2229 14.7226C65.0572 15.5578 65.0602 16.0309 64.2373 16.8562L63.7914 17.3035L63.7903 17.3045C62.1376 18.9623 60.4849 20.6201 58.8187 22.2641C58.5301 22.5488 58.4882 22.7671 58.6599 23.1459C59.1755 24.2841 59.6661 25.4363 60.0984 26.6081C60.2625 27.0529 60.4606 27.188 60.9228 27.1836C62.146 27.1718 63.3694 27.172 64.5927 27.1722C65.8984 27.1725 67.2042 27.1727 68.5098 27.1583C69.1623 27.1512 69.6619 27.3235 70.001 27.8903C70.0008 32.6303 70.0008 37.3697 70.0008 42.1094ZM15.9342 62.2392C15.9724 62.1844 16.0101 62.1246 16.0488 62.0628C16.1366 61.9232 16.2304 61.7739 16.3515 61.6518C17.9499 60.0404 19.556 58.4368 21.162 56.8332L21.1626 56.8326L21.1644 56.8309L21.4218 56.5738C22.1174 55.8794 22.4149 55.8836 23.2929 56.2726C24.9108 56.9899 26.5465 57.6708 28.1981 58.3065C29.1312 58.6657 29.3573 58.8796 29.3587 59.8828C29.3611 61.5503 29.3608 63.2178 29.3604 64.8852V64.8886C29.3603 65.589 29.3601 66.2893 29.3602 66.9896V67.7707H40.6363L40.6362 67.3693L40.6363 66.992C40.6368 66.3323 40.637 65.6725 40.6372 65.0127C40.6378 63.2805 40.6384 61.5481 40.6431 59.8159C40.6456 58.8912 40.8803 58.6706 41.739 58.3399C43.3698 57.712 44.9924 57.056 46.5834 56.3348C47.6128 55.8683 47.8529 55.8422 48.6744 56.667C49.9783 57.9761 51.2797 59.288 52.5486 60.567L52.5497 60.5682L52.5532 60.5717C53.065 61.0876 53.5715 61.5982 54.0707 62.101L57.0913 59.0839L62.0956 54.0852L60.5868 52.5811L60.5863 52.5807L60.5728 52.5672L60.5714 52.5658C59.2404 51.2392 57.8889 49.8921 56.5392 48.5434C55.8847 47.8893 55.8902 47.5671 56.2638 46.7239C56.9897 45.0849 57.6805 43.4286 58.3287 41.7573C58.6727 40.8702 58.8907 40.6432 59.8632 40.641C61.5879 40.6373 63.3126 40.6366 65.0374 40.6358C65.7047 40.6355 66.372 40.6353 67.0393 40.6348C67.1325 40.6347 67.2258 40.6347 67.32 40.6347L67.5143 40.6348H67.5179H67.5215L67.7771 40.6348V29.361H67.0094L64.6857 29.361C63.1366 29.361 61.5875 29.3611 60.0384 29.3605C58.8417 29.3599 58.6747 29.1729 58.2683 28.0874C57.6796 26.5153 57.0357 24.9605 56.3398 23.4329C55.863 22.3866 55.8421 22.1521 56.6557 21.3388C57.9952 19.9999 59.3353 18.6616 60.6552 17.3435L60.6705 17.3281L60.6958 17.3029L60.7028 17.2959L62.1128 15.8878L54.1017 7.88784L52.5144 9.48003C51.2229 10.7756 49.914 12.0887 48.6038 13.4005C47.8758 14.1294 47.5922 14.1172 46.6795 13.7088C45.0636 12.9857 43.4255 12.3088 41.7734 11.6727C40.8733 11.3263 40.6445 11.1157 40.6429 10.1513C40.64 8.42885 40.6405 6.70633 40.641 4.98386C40.6412 4.31429 40.6414 3.64473 40.6414 2.97519V2.23864H29.3596C29.3596 3.00103 29.3599 3.75934 29.3603 4.51473V4.51715V4.51749V4.51782C29.3611 6.42926 29.3619 8.32199 29.3574 10.2147C29.3554 11.0953 29.1098 11.3365 28.2978 11.6565C26.5881 12.3303 24.8918 13.0402 23.2071 13.7742C22.4528 14.1028 22.0937 14.0945 21.4975 13.5006C20.4263 12.4334 19.3573 11.3638 18.2883 10.2942L18.2849 10.2907C17.6319 9.63739 16.9789 8.98403 16.3254 8.33122C16.2053 8.21123 16.0803 8.09595 15.973 7.99698L15.9728 7.99683C15.9279 7.95541 15.8861 7.91685 15.849 7.882L7.85308 15.8809C8.37002 16.3946 8.88977 16.9106 9.41139 17.4285L9.41864 17.4357L9.41938 17.4364L9.42013 17.4372C10.7685 18.7759 12.1293 20.127 13.4864 21.4819C14.1072 22.1016 14.1039 22.4557 13.754 23.2482C13.0299 24.8879 12.3304 26.5404 11.6839 28.2121C11.3269 29.1351 11.1174 29.3575 10.1008 29.3594C8.41054 29.3626 6.72015 29.3634 5.0298 29.3643H5.02976H5.02971H5.02966L3.12986 29.3654C2.93844 29.3655 2.7471 29.3655 2.54828 29.3654L2.23451 29.3654V40.6133C2.31005 40.6166 2.3805 40.6206 2.44757 40.6243L2.44774 40.6243C2.5805 40.6318 2.69998 40.6384 2.81938 40.6384C3.81335 40.6391 4.80733 40.639 5.80132 40.6389H5.81616C7.2548 40.6388 8.69346 40.6387 10.1322 40.6408C11.1098 40.6423 11.3274 40.8696 11.6715 41.7515C12.3311 43.4426 13.0405 45.1155 13.7705 46.7779C14.1017 47.5321 14.0952 47.9024 13.5132 48.4909C12.9069 49.1038 12.2966 49.7126 11.6863 50.3214L11.6852 50.3225C11.4895 50.5177 11.2937 50.713 11.0981 50.9084C10.3532 51.6526 9.60782 52.3965 8.87096 53.1319L7.84834 54.1527L15.9342 62.2392ZM54.1302 35.0071C54.1251 45.5354 45.518 54.1355 34.9918 54.1299C24.4636 54.1242 15.8639 45.5168 15.8697 34.9909C15.8755 24.4602 24.4782 15.8654 35.0074 15.8701C45.5379 15.875 54.1351 24.4786 54.1302 35.0071ZM35.0142 51.9425C44.3164 51.9339 51.9311 44.3214 51.9426 35.0188C51.9541 25.6861 44.319 18.0495 34.985 18.0577C25.6815 18.0659 18.0682 25.6768 18.0571 34.98C18.0462 44.3106 25.6841 51.9509 35.0142 51.9425ZM27.2332 35.898L27.2294 35.8957L27.2192 35.8893C26.7632 35.6034 26.3016 35.314 25.8323 35.019C25.9146 34.9612 25.9852 34.9105 26.0485 34.865L26.0491 34.8646C26.1686 34.7787 26.2621 34.7115 26.3595 34.6502C26.8121 34.365 27.2656 34.0814 27.7191 33.7977L27.7193 33.7976L27.7195 33.7975C28.6942 33.1878 29.6689 32.5782 30.6341 31.9537C31.1967 31.5897 31.3223 30.9816 31.0162 30.4664C30.7081 29.9477 30.084 29.7528 29.5309 30.0923C27.3967 31.4022 25.2697 32.7242 23.1632 34.0781C22.4483 34.5377 22.4405 35.4509 23.147 35.9067C25.2509 37.264 27.3756 38.5896 29.5077 39.9027C30.1083 40.2726 30.7796 40.0363 31.0647 39.4354C31.3205 38.8963 31.1504 38.3712 30.5486 37.9878C29.4583 37.2932 28.3631 36.6065 27.2332 35.898ZM44.1771 34.9847L42.7488 34.0869C41.734 33.449 40.7397 32.824 39.7451 32.1992C39.6963 32.1685 39.6465 32.1394 39.5967 32.1102C39.5089 32.0588 39.421 32.0075 39.3392 31.9478C38.8109 31.5616 38.6738 30.9654 38.9886 30.4508C39.3026 29.9372 39.9097 29.7698 40.4793 30.0903C40.8752 30.3131 41.258 30.5592 41.6408 30.8054L41.6409 30.8054C41.8132 30.9162 41.9855 31.0269 42.1589 31.1355C42.608 31.4168 43.0575 31.6973 43.507 31.9778L43.5077 31.9783C44.5439 32.6249 45.58 33.2715 46.6107 33.9268C47.6253 34.5718 47.6369 35.4283 46.6311 36.0653C44.6519 37.3191 42.6623 38.5565 40.6718 39.7922C39.9788 40.2225 39.3598 40.1242 38.9998 39.5563C38.6402 38.9895 38.8233 38.3825 39.5095 37.9484C40.353 37.4148 41.1994 36.8858 42.0458 36.3567C42.5689 36.0297 43.0919 35.7028 43.6143 35.3747C43.7243 35.3055 43.8303 35.2301 43.9572 35.1399L43.9573 35.1398L43.9578 35.1395C44.024 35.0924 44.096 35.0412 44.1771 34.9847ZM32.8689 41.0117C32.7444 41.7519 33.2521 42.3745 34.0339 42.3685C34.5546 42.2901 34.9194 41.9683 35.0264 41.3369C35.3579 39.38 35.6924 37.4237 36.027 35.4673C36.3982 33.2965 36.7694 31.1256 37.1365 28.954C37.2466 28.3027 36.8359 27.743 36.2286 27.6424C35.6583 27.5479 35.1318 27.9233 34.9974 28.5627C34.8942 29.0538 34.8119 29.5493 34.7297 30.0447C34.7038 30.2005 34.6779 30.3563 34.6514 30.512C34.5331 31.2067 34.4148 31.9013 34.2964 32.596C33.8185 35.4009 33.3406 38.2058 32.8689 41.0117Z" fill="url(#paint0_linear)"/>
</g>
<defs>
<linearGradient id="paint0_linear" x1="57.9236" y1="-3.93634" x2="-0.785372" y2="54.4301" gradientUnits="userSpaceOnUse">
<stop stop-color="#4AB1FE"/>
<stop offset="1" stop-color="#07EBFE"/>
</linearGradient>
<clipPath id="clip0">
<rect width="70" height="70.0004" fill="white"/>
</clipPath>
</defs>
</svg>
