<svg width="90" height="90" viewBox="0 0 90 90" fill="none" xmlns="http://www.w3.org/2000/svg">
<path d="M40.0781 0C40.835 0.292301 41.6256 0.519673 42.342 0.8905C43.7446 1.61668 44.6762 2.79737 45.3456 4.21692C47.5661 8.92515 49.9078 13.5797 51.9945 18.3461C53.0671 20.7963 54.7103 21.8738 57.3091 22.1849C62.1582 22.7653 66.9799 23.5801 71.8068 24.3381C74.6543 24.7854 76.623 26.3833 77.5618 29.124C78.529 31.9473 77.9877 34.5345 75.9529 36.6966C73.5045 39.2978 70.9545 41.8036 68.4379 44.3403C68.0265 44.7549 67.5615 45.1166 67.0723 45.546C67.6231 46.0156 68.0802 46.3388 68.4571 46.738C70.1219 48.5007 71.8241 50.2334 73.3953 52.0772C74.7197 53.6313 76.2464 54.8165 78.1804 55.5286C78.454 55.0804 78.6703 54.6308 78.9722 54.249C79.8133 53.1855 80.9136 52.5683 82.2876 52.5303C83.312 52.502 84.3377 52.5046 85.3628 52.5186C87.6058 52.5493 89.0821 53.6388 89.8312 55.7871C89.8671 55.89 89.9428 55.9789 90 56.0743C90 65.6837 90 75.293 90 84.9024C89.9376 85.0278 89.8608 85.1478 89.8155 85.2791C89.1315 87.2619 87.6607 88.3953 85.5679 88.4766C84.4594 88.5197 83.3453 88.5197 82.238 88.4614C80.5927 88.3746 79.3836 87.5418 78.5613 86.1274C78.4498 85.9357 78.3311 85.7479 78.1441 85.4404C77.1657 86.0079 76.2159 86.5104 75.3162 87.091C73.4577 88.2905 71.5032 89.2483 69.2977 89.5896C68.1768 89.763 67.0451 89.8654 65.9181 89.9998C56.1329 89.9998 46.3477 89.9998 36.5628 89.9998C36.4298 89.9451 36.3009 89.8758 36.1633 89.8383C33.5511 89.1278 32.0177 87.4387 31.5639 84.7714C31.3119 83.2904 31.776 81.9524 32.4766 80.6405C31.0852 80.0667 30.0013 79.213 29.2817 77.939C28.5708 76.6802 28.3729 75.3235 28.5905 73.7823C26.5038 74.9217 24.5343 76.0052 22.5574 77.0747C20.0973 78.4059 17.6457 78.3883 15.3462 76.7764C12.9412 75.0903 11.8212 72.6977 12.2645 69.7742C13.1154 64.1619 14.06 58.5634 15.0098 52.9666C15.3148 51.1701 14.8624 49.6922 13.5835 48.4067C10.2153 45.0217 6.8985 41.5856 3.50129 38.2301C1.89187 36.6403 0.464354 34.9859 0 32.6953C0 31.9335 0 31.1719 0 30.4101C0.0578977 30.2824 0.137126 30.1598 0.170411 30.0259C0.978401 26.76 3.08686 24.8027 6.39219 24.2962C11.4544 23.5203 16.5123 22.7132 21.5858 22.0189C23.5585 21.7489 24.8262 20.8141 25.6574 19.0205C27.9573 14.0577 30.3407 9.13377 32.6756 4.18715C33.2654 2.93802 34.0427 1.83491 35.2461 1.15233C36.0975 0.669457 37.0571 0.37739 37.9685 0C38.6717 0 39.3749 0 40.0781 0ZM29.2672 60.0441C29.236 59.9126 29.2337 59.8505 29.2076 59.8008C27.0492 55.6479 30.0749 50.8077 35.0633 50.9645C39.0132 51.0887 42.9704 50.9851 46.9243 50.9828C47.2309 50.9826 47.5378 50.9828 47.9597 50.9828C47.7576 50.6003 47.6271 50.3471 47.4914 50.0968C44.4917 44.5576 43.0571 38.6569 43.5613 32.3571C43.8082 29.2735 46.2994 27.0582 49.3734 26.9578C52.3152 26.862 54.9264 29.0196 55.3884 32.0355C55.77 34.5256 56.5002 36.8703 57.8178 39.028C58.5983 40.3064 59.6035 41.3521 60.9255 42.0534C62.1353 42.6952 63.3795 43.2721 64.6818 43.9137C67.7781 40.7499 70.9863 37.6584 73.9701 34.3631C76.2853 31.8062 74.6604 27.8003 71.2432 27.2764C66.4717 26.5448 61.7112 25.7054 56.9177 25.1625C53.1534 24.7362 50.7266 22.9774 49.2138 19.4808C47.148 14.7063 44.7995 10.0536 42.5485 5.36011C41.5549 3.28822 39.384 2.46171 37.4143 3.35221C36.3998 3.81094 35.7836 4.62713 35.3174 5.61514C32.934 10.6665 30.5315 15.709 28.1315 20.7527C27.0495 23.0264 25.2884 24.4497 22.7866 24.8407C17.4971 25.6672 12.2024 26.4632 6.9067 27.2504C5.24244 27.4977 3.98392 28.2646 3.35455 29.8672C2.68603 31.5695 2.95114 33.1517 4.14004 34.5427C4.67167 35.1648 5.27197 35.7285 5.8479 36.3119C9.1605 39.6677 12.4747 43.022 15.7894 46.3758C17.5936 48.2014 18.3744 50.3909 18.0413 52.9361C17.8442 54.4435 17.5475 55.9379 17.3013 57.4392C16.6056 61.6831 15.8883 65.9237 15.2308 70.1734C14.9662 71.8834 15.627 73.295 17.021 74.2966C18.3761 75.2701 19.797 75.1901 21.2304 74.3859C22.965 73.4127 24.7219 72.4786 26.4651 71.5208C26.6257 71.4326 26.7593 71.2958 26.9356 71.1582C24.622 69.5654 23.5934 67.4279 24.1595 64.7482C24.7272 62.0603 26.5638 60.5598 29.2672 60.0441ZM52.3946 87.005C52.3946 86.9539 52.3948 86.9026 52.3948 86.8515C57.1964 86.8515 61.9984 86.8782 66.7997 86.8402C69.196 86.8212 71.3797 86.0726 73.4035 84.7587C74.6241 83.9662 75.9351 83.2972 77.2573 82.6845C77.8232 82.4224 78.0316 82.1712 78.0297 81.5465C78.0074 74.1956 78.0081 66.8444 78.0292 59.4935C78.0309 58.9038 77.8736 58.626 77.2995 58.4202C74.6102 57.4559 72.4678 55.7703 70.721 53.4984C69.673 52.1354 68.4707 50.8792 67.2474 49.6659C65.4891 47.9217 63.485 46.4558 61.188 45.5315C57.3023 43.968 54.9993 41.0153 53.6454 37.2324C53.0784 35.6479 52.8102 33.9557 52.4152 32.3104C52.0686 30.8656 50.7622 29.8567 49.3408 29.9512C47.8685 30.0489 46.7122 31.1401 46.5394 32.6231C46.4785 33.1456 46.4478 33.6744 46.4471 34.2007C46.4382 39.5233 47.729 44.5027 50.3783 49.1296C51.8419 51.6858 50.5163 53.971 47.5825 53.9771C43.3068 53.986 39.0308 53.9766 34.755 53.9909C32.8772 53.9972 31.5254 55.2457 31.4952 56.9554C31.4645 58.7001 32.821 59.971 34.7581 59.9823C36.9544 59.9952 39.151 59.983 41.3476 59.9884C41.6681 59.9891 41.9969 59.9886 42.3071 60.0563C43.0675 60.2221 43.514 60.8303 43.4756 61.5837C43.4371 62.3319 42.9224 62.8741 42.1404 62.9625C41.8507 62.9953 41.5556 62.9873 41.263 62.9875C37.7193 62.989 34.1756 62.985 30.6319 62.9929C30.1949 62.9939 29.7493 63.0124 29.3232 63.0989C28.0527 63.357 27.1161 64.4683 27.0338 65.7606C26.9142 67.64 28.2121 68.9838 30.243 68.9977C33.933 69.0225 37.6232 69.0042 41.3134 69.0077C41.6348 69.008 41.9625 69.0007 42.2761 69.0579C42.9983 69.1894 43.4123 69.6509 43.4655 70.3776C43.5215 71.1406 43.1711 71.6879 42.4266 71.904C42.0968 71.9999 41.7332 72.0065 41.3847 72.0079C39.159 72.0168 36.9331 72.0222 34.7075 72.0088C33.6787 72.0027 32.7985 72.3124 32.1623 73.1407C31.4223 74.1044 31.2751 75.1674 31.803 76.2754C32.3643 77.4545 33.358 77.9974 34.6306 78.0086C36.9732 78.0292 39.3163 78.0105 41.6592 78.0177C42.8127 78.0213 43.4538 78.5398 43.476 79.4584C43.4995 80.419 42.8309 81.0005 41.6575 81.0108C40.2518 81.023 38.8456 80.9968 37.4404 81.0226C36.0588 81.0479 34.9543 81.9328 34.6151 83.23C34.0919 85.2301 35.5279 86.9954 37.7224 87.0015C42.6127 87.0142 47.5038 87.005 52.3946 87.005ZM81.013 70.3898C81.013 74.7499 81.0116 79.1101 81.0137 83.4702C81.0146 85.0471 81.456 85.4795 83.0584 85.4873C83.702 85.4903 84.3459 85.4912 84.9896 85.487C86.5482 85.477 87.0041 85.0117 87.0046 83.4229C87.006 77.6875 87.0053 71.9519 87.005 66.2165C87.005 63.2316 87.0123 60.2469 87.0008 57.262C86.9963 56.0801 86.4551 55.5401 85.2927 55.5183C84.5321 55.504 83.7712 55.5127 83.0103 55.5152C81.4672 55.5206 81.0148 55.9627 81.0139 57.4847C81.0111 61.7865 81.013 66.0882 81.013 70.3898Z" fill="#EFF4F9"/>
</svg>
