<svg width="70" height="70" viewBox="0 0 70 70" fill="none" xmlns="http://www.w3.org/2000/svg">
<g clip-path="url(#clip0)">
<path d="M39.5842 11.9722C36.235 8.62318 31.7824 6.77856 27.0459 6.77856C22.3095 6.77856 17.8566 8.62304 14.5074 11.9722C7.5939 18.8859 7.5939 30.1352 14.5074 37.049C17.8566 40.398 22.3094 42.2427 27.0459 42.2427C31.7822 42.2427 36.235 40.3982 39.5842 37.049C42.9333 33.6999 44.7778 29.247 44.7778 24.5106C44.7778 19.7743 42.9333 15.3215 39.5842 11.9722ZM15.9354 13.4003C18.903 10.4327 22.8489 8.79818 27.0457 8.79818C31.2426 8.79818 35.1883 10.4327 38.1559 13.4003C40.4982 15.7424 42.0091 18.6942 42.5421 21.8975L37.038 27.28C36.5167 26.9858 35.9157 26.8172 35.2757 26.8172C34.0298 26.8172 32.93 27.4539 32.284 28.4187L24.1939 25.8803C24.1943 25.8569 24.1957 25.8335 24.1957 25.81C24.1957 23.8258 22.5814 22.2114 20.5971 22.2114C18.6129 22.2114 16.9985 23.8258 16.9985 25.81C16.9985 26.4586 17.1719 27.0673 17.4735 27.5935L13.2288 31.9935C10.0079 26.0382 10.9093 18.4263 15.9354 13.4003ZM36.8549 30.4156C36.8549 31.2863 36.1464 31.9947 35.2758 31.9947C34.4052 31.9947 33.6967 31.2863 33.6967 30.4156C33.6967 29.545 34.4052 28.8365 35.2758 28.8365C36.1464 28.8365 36.8549 29.5449 36.8549 30.4156ZM22.1763 25.8097C22.1763 26.6803 21.4679 27.3888 20.5972 27.3888C19.7265 27.3888 19.018 26.6803 19.018 25.8097C19.018 24.9391 19.7265 24.2306 20.5972 24.2306C21.4679 24.2307 22.1763 24.9391 22.1763 25.8097ZM38.1561 35.6211C35.1884 38.5887 31.2427 40.2232 27.0459 40.2232C22.849 40.2232 18.9032 38.5888 15.9355 35.6211C15.3461 35.0317 14.8139 34.4063 14.3378 33.7525L18.9268 28.9957C19.4264 29.2587 19.9946 29.4083 20.5972 29.4083C21.8432 29.4083 22.9429 28.7716 23.5889 27.8068L31.679 30.3452C31.6786 30.3686 31.6772 30.392 31.6772 30.4155C31.6772 32.3997 33.2915 34.0141 35.2758 34.0141C37.26 34.0141 38.8744 32.3997 38.8744 30.4155C38.8744 29.8041 38.7206 29.2281 38.4506 28.7233L42.7583 24.5109C42.7582 28.7077 41.1237 32.6535 38.1561 35.6211Z" fill="url(#paint0_linear)"/>
<path d="M52.3407 40.7338L50.8745 42.2L47.237 38.3118C51.5423 32.0185 52.5787 24.1454 50.3453 17.0914L53.2313 14.2691C53.7389 14.5433 54.3194 14.6992 54.9359 14.6992C56.9201 14.6992 58.5345 13.0848 58.5345 11.1006C58.5345 10.513 58.392 9.95834 58.1411 9.46779L64.3367 3.40936V6.54077H66.3562V0H59.8155V2.01948H62.8696L56.7558 7.99793C56.2215 7.68333 55.5997 7.50191 54.936 7.50191C52.9518 7.50191 51.3375 9.11629 51.3375 11.1005C51.3375 11.7354 51.5034 12.3321 51.7933 12.8505L49.5814 15.0134C48.3907 12.1778 46.6444 9.52221 44.3391 7.21685C34.8032 -2.31889 19.2878 -2.31862 9.75203 7.21685C1.25754 15.7113 0.330177 28.9508 6.96912 38.4815L5.26888 40.2439C4.76931 39.9809 4.2011 39.8313 3.59844 39.8313C1.61424 39.8312 0 41.4456 0 43.4298C0 45.414 1.61424 47.0283 3.59858 47.0283C5.58292 47.0283 7.19716 45.414 7.19716 43.4298C7.19716 42.781 7.0238 42.1725 6.72206 41.6463L8.20752 40.1064C8.6915 40.6902 9.20529 41.2572 9.7519 41.8039C14.5198 46.5717 20.7827 48.9555 27.0455 48.9555C31.8531 48.9555 36.6601 47.549 40.7915 44.7394L44.4376 48.6368L42.9214 50.153L60.5806 67.7506L70.0001 58.3313L52.3407 40.7338ZM54.936 9.52152C55.8067 9.52152 56.5151 10.23 56.5151 11.1006C56.5151 11.9713 55.8067 12.6797 54.936 12.6797C54.0653 12.6797 53.3569 11.9713 53.3569 11.1006C53.3569 10.23 54.0653 9.52152 54.936 9.52152ZM3.59858 45.0087C2.72795 45.0087 2.01948 44.3002 2.01948 43.4296C2.01948 42.559 2.72795 41.8505 3.59858 41.8505C4.46935 41.8505 5.17769 42.559 5.17769 43.4296C5.17755 44.3004 4.46921 45.0087 3.59858 45.0087ZM11.1799 40.376C2.43169 31.6278 2.43169 17.3934 11.1799 8.64488C15.554 4.27069 21.2996 2.08387 27.0453 2.08387C32.7911 2.08387 38.5369 4.27097 42.9109 8.64488C51.6591 17.3931 51.6591 31.6276 42.9109 40.376C34.1629 49.1241 19.9279 49.1241 11.1799 40.376ZM42.4236 43.5279C43.0847 42.9927 43.7244 42.4184 44.3391 41.8039C44.933 41.21 45.4897 40.5928 46.0095 39.9556L49.4459 43.6285L45.8665 47.208L42.4236 43.5279ZM60.5783 64.8971L45.7801 50.1504L52.3434 43.5871L67.1416 58.3336L60.5783 64.8971Z" fill="url(#paint1_linear)"/>
</g>
<defs>
<linearGradient id="paint0_linear" x1="38.6605" y1="4.78432" x2="8.91709" y2="34.3473" gradientUnits="userSpaceOnUse">
<stop stop-color="#4AB1FE"/>
<stop offset="1" stop-color="#07EBFE"/>
</linearGradient>
<linearGradient id="paint1_linear" x1="57.9228" y1="-3.80981" x2="1.12035" y2="54.5368" gradientUnits="userSpaceOnUse">
<stop stop-color="#4AB1FE"/>
<stop offset="1" stop-color="#07EBFE"/>
</linearGradient>
<clipPath id="clip0">
<rect width="70" height="70" fill="white"/>
</clipPath>
</defs>
</svg>
