<svg width="70" height="49" viewBox="0 0 70 49" fill="none" xmlns="http://www.w3.org/2000/svg">
<path fill-rule="evenodd" clip-rule="evenodd" d="M12.0478 0.174467C6.36332 1.25152 1.86115 5.43022 0.357146 11.0252C0.0383292 12.2113 0 12.6035 0 14.681C0 16.7535 0.0387398 17.1521 0.354134 18.3248C1.75301 23.526 5.78428 27.5601 10.9717 28.9501C12.1367 29.2623 12.5787 29.3074 14.5591 29.3165C16.965 29.3276 17.919 29.1792 19.6631 28.5228C24.0484 26.8722 27.5895 23.0846 28.7673 18.7848L29.029 17.8294L40.2742 17.7944L51.5193 17.7593V19.5159C51.5193 21.175 51.5368 21.2889 51.8361 21.5701C52.0773 21.7966 52.3224 21.8677 52.8628 21.8677H53.5727V27.2064V32.5451H48.5113H43.4498L43.2538 32.1658C42.3069 30.335 39.7798 29.9405 38.3241 31.3962C37.1353 32.5849 37.1353 34.5586 38.3241 35.7473C39.7798 37.203 42.3069 36.8085 43.2538 34.9778L43.4498 34.5984H49.2402H55.0307L55.3284 34.2817C55.6246 33.9661 55.626 33.9381 55.626 27.9163V21.8677H56.3166C56.8675 21.8677 57.0754 21.7996 57.3433 21.5316C57.6644 21.2106 57.6794 21.1192 57.6794 19.4783V17.761H58.706H59.7327V19.4783C59.7327 21.1192 59.7476 21.2106 60.0688 21.5316C60.4003 21.8633 60.4362 21.8677 62.8511 21.8677C66.0187 21.8677 65.8927 21.9658 65.8927 19.4976V17.761H67.6485C70.0988 17.761 69.9994 17.892 69.9994 14.6618C69.9994 12.2616 69.9911 12.1883 69.6827 11.8985L69.3658 11.6009H54.3064H39.247L38.9493 11.9177C38.5539 12.3386 38.5624 12.9752 38.9684 13.3567L39.2853 13.6543H53.6156H67.9461V14.681V15.7076H48.6446H29.3432V14.681V13.6543H32.2953C33.9592 13.6543 35.3567 13.5958 35.4979 13.5203C35.9111 13.2991 36.0821 12.6061 35.8391 12.1362C35.7258 11.9172 35.6193 11.7252 35.6023 11.7099C35.5855 11.6944 34.0995 11.6483 32.3001 11.6072L29.0287 11.5325L28.7671 10.5771C27.4643 5.81802 23.3518 1.80482 18.3773 0.438664C16.726 -0.014852 13.711 -0.140654 12.0478 0.174467ZM17.3382 2.36005C22.0135 3.33827 25.9294 7.27453 26.9744 12.0464C27.2604 13.3519 27.2604 16.01 26.9744 17.3155C25.9243 22.1109 22.0575 25.9778 17.2621 27.0279C15.9566 27.3138 13.2984 27.3138 11.9929 27.0279C7.1885 25.9757 3.33272 22.12 2.28059 17.3155C1.99804 16.0256 1.99476 13.3511 2.27401 12.0777C2.93451 9.06656 4.64851 6.39638 7.0783 4.59286C10.0543 2.38401 13.6808 1.59484 17.3382 2.36005ZM31.8756 3.12212C30.9245 3.40123 30.0394 4.48349 29.8332 5.6194C29.71 6.29741 30.0503 7.47453 30.5366 8.0522C30.9994 8.60236 32.1187 9.13377 32.818 9.13555C33.9949 9.13856 35.2639 8.40237 35.6378 7.49971L35.8102 7.08357H44.3555H52.9007L53.2366 6.74751C53.4214 6.5627 53.5727 6.25197 53.5727 6.0569C53.5727 5.86183 53.4214 5.55109 53.2366 5.36629L52.9007 5.03022H44.3555H35.8102L35.6378 4.61408C35.4101 4.06447 34.5416 3.33402 33.88 3.13581C33.2708 2.95319 32.4695 2.94785 31.8756 3.12212ZM60.9461 3.35784C60.4315 3.62477 60.089 3.92977 59.8011 4.37712L59.3905 5.0153L57.9783 5.02283C56.4068 5.03104 56.127 5.1218 55.9299 5.68716C55.7696 6.14697 56.0104 6.85483 56.3749 6.99459C56.5024 7.0436 57.233 7.08549 57.9986 7.08795L59.3905 7.0922L59.753 7.68999C60.434 8.8129 62.0954 9.41741 63.3567 9.00126C64.465 8.63549 65.4793 7.2284 65.4793 6.0569C65.4793 5.30044 64.937 4.20683 64.3019 3.68309C63.32 2.87298 62.1072 2.75552 60.9461 3.35784ZM12.9848 4.16029C12.2193 4.2828 10.6608 4.78587 9.97325 5.13262C7.28254 6.48919 5.32282 8.8181 4.41483 11.7378C3.99007 13.1038 3.95488 16.1306 4.34899 17.4188C4.94008 19.3511 5.98606 21.112 7.21629 22.246C7.94947 22.9219 8.46089 23.0007 8.92275 22.5091C9.44266 21.9556 9.32083 21.4586 8.42201 20.4667C6.85038 18.7326 6.16442 16.9855 6.15046 14.681C6.14389 13.6188 6.21316 13.0819 6.45928 12.2854C8.10758 6.94969 14.1823 4.55508 18.9521 7.36064C22.9792 9.72938 24.3256 14.9632 21.9478 19.0056C20.2581 21.8784 16.7997 23.5914 13.6693 23.1063C11.4402 22.7607 11.4291 22.7607 11.0638 23.1039C10.6336 23.508 10.6222 24.1034 11.0367 24.5179C11.7866 25.2677 15.6238 25.4858 17.5706 24.8891C21.1173 23.8021 23.7314 21.1895 24.8402 17.6241C25.1105 16.7547 25.1595 16.3038 25.1595 14.681C25.1595 13.0581 25.1105 12.6072 24.8402 11.7378C23.7414 8.20442 21.1403 5.58545 17.6391 4.48704C16.6865 4.18821 13.9925 3.99903 12.9848 4.16029ZM33.621 5.40982C33.9492 5.69811 33.9295 6.43115 33.585 6.74299C32.9631 7.30574 31.9441 6.87974 31.9441 6.0569C31.9441 5.17683 32.9247 4.79847 33.621 5.40982ZM62.9385 5.31974C63.7189 5.93356 63.0402 7.29575 62.1083 6.9861C61.2698 6.70753 61.1555 5.59572 61.9253 5.20626C62.3896 4.97122 62.5131 4.98505 62.9385 5.31974ZM55.626 18.7877V19.8143H54.5993H53.5727V18.7877V17.761H54.5993H55.626V18.7877ZM63.8394 18.7877V19.8143H62.8127H61.7861V18.7877V17.761H62.8127H63.8394V18.7877ZM39.8837 20.7609C37.8974 21.1738 36.8752 23.2401 37.745 25.0846C37.9226 25.461 38.2155 25.9047 38.3958 26.0705C39.2507 26.8562 40.8592 27.0759 41.8895 26.5475C42.4695 26.2502 43.3059 25.3678 43.3059 25.0534C43.3059 24.9217 43.7236 24.8793 45.017 24.8793H46.7282V27.3194C46.7282 29.6931 46.7368 29.7677 47.0449 30.0572C47.4659 30.4526 48.1024 30.4441 48.4839 30.0381C48.7714 29.732 48.7815 29.6155 48.7815 26.6269C48.7815 24.9251 48.7432 23.433 48.6965 23.3112C48.5019 22.804 47.9244 22.689 45.5714 22.689C43.8293 22.689 43.3059 22.6488 43.3059 22.5149C43.3059 22.2151 42.4808 21.3237 41.958 21.0588C41.3429 20.7471 40.5193 20.6288 39.8837 20.7609ZM58.272 22.8949C58.0439 22.9907 57.8172 23.1735 57.7683 23.301C57.7193 23.4285 57.6794 27.8381 57.6794 33.1003V42.6679L57.3 42.864C55.4693 43.8108 55.0748 46.338 56.5304 47.7937C58.0522 49.3155 60.6203 48.8306 61.5288 46.8501C62.1763 45.4386 61.5201 43.5921 60.112 42.864L59.7327 42.6679V33.0802C59.7327 27.0878 59.6825 23.3985 59.5987 23.2419C59.3903 22.8525 58.763 22.6883 58.272 22.8949ZM41.1858 23.1015C41.7485 23.7234 41.3225 24.7424 40.4997 24.7424C39.9595 24.7424 39.5643 24.3374 39.5643 23.7841C39.5643 23.2308 39.9595 22.8259 40.4997 22.8259C40.7635 22.8259 41.0351 22.935 41.1858 23.1015ZM22.0196 30.8171C20.835 31.3758 20.2713 32.2869 20.2659 33.6517C20.2619 34.6357 20.6994 35.4536 21.5769 36.1031L22.2249 36.5828V37.9658C22.2249 39.4579 22.3829 40.1393 22.7778 40.3507C22.9358 40.4353 27.5532 40.4847 35.2888 40.4847H47.5495V42.7175C47.5495 44.7755 47.5714 44.9739 47.8286 45.25C48.0107 45.4454 48.2705 45.5496 48.5762 45.5496C48.8819 45.5496 49.1417 45.4454 49.3237 45.25C49.5868 44.9677 49.6029 44.78 49.6029 41.9886C49.6029 39.0695 49.5983 39.0223 49.2861 38.7289L48.9692 38.4313H36.6922H24.4151V37.4047C24.4151 36.6651 24.4639 36.378 24.5893 36.378C24.9009 36.378 25.7847 35.5441 26.0902 34.9616C26.6689 33.8591 26.3918 32.197 25.4893 31.3558C24.9907 30.8912 23.9987 30.4979 23.32 30.4961C22.9545 30.495 22.4257 30.6256 22.0196 30.8171ZM24.0387 32.9247C24.3669 33.213 24.3472 33.946 24.0027 34.2578C23.3808 34.8206 22.3618 34.3946 22.3618 33.5718C22.3618 32.6917 23.3425 32.3133 24.0387 32.9247ZM40.8946 32.6998C41.6585 33.0477 41.6287 34.1356 40.8466 34.4596C39.7432 34.9166 38.9951 33.2258 40.0704 32.7052C40.4553 32.5188 40.4969 32.5185 40.8946 32.6998ZM6.74005 42.9204C5.48915 43.5739 4.88669 44.8216 5.14227 46.2294C5.45246 47.9372 7.28446 49.0456 9.02323 48.5773C9.69536 48.3964 10.6255 47.6287 10.8607 47.0609L11.0332 46.6447H22.8371H34.6409L35.0528 47.3074C35.8157 48.5345 37.533 49.0447 38.8647 48.4399C39.8813 47.978 40.7064 46.7054 40.7042 45.6022C40.702 44.4733 39.9139 43.2748 38.857 42.7935C37.5342 42.191 35.8139 42.7044 35.0528 43.9287L34.6409 44.5914H22.8371H11.0332L10.8607 44.1752C10.766 43.9464 10.4391 43.5457 10.1344 43.2849C9.14328 42.4365 7.91826 42.3049 6.74005 42.9204ZM8.73015 44.8809C9.51056 45.4947 8.83186 46.8569 7.89991 46.5473C7.06146 46.2687 6.94716 45.1569 7.71689 44.7674C8.18122 44.5324 8.3047 44.5462 8.73015 44.8809ZM38.0244 44.748C38.7334 45.071 38.707 46.2013 37.9835 46.5011C36.8449 46.9727 36.0501 45.3231 37.1482 44.7674C37.5678 44.5551 37.5994 44.5544 38.0244 44.748ZM59.101 44.7461C59.8648 45.094 59.8351 46.1819 59.0529 46.5059C57.9496 46.9629 57.2015 45.2721 58.2767 44.7515C58.6617 44.5651 58.7033 44.5648 59.101 44.7461Z" fill="url(#paint0_linear)"/>
<defs>
<linearGradient id="paint0_linear" x1="70" y1="7.41795e-07" x2="6.66036" y2="31.9535" gradientUnits="userSpaceOnUse">
<stop stop-color="#4AB1FE"/>
<stop offset="1" stop-color="#07EBFE"/>
</linearGradient>
</defs>
</svg>
