<svg width="60" height="60" viewBox="0 0 60 60" fill="none" xmlns="http://www.w3.org/2000/svg">
<path d="M57.9492 50.625H57.832V18.6914C57.832 17.5607 56.912 16.6406 55.7812 16.6406H49.2773V10.5382C49.2783 10.5216 49.2798 10.5052 49.2798 10.4883C49.2798 10.4714 49.2783 10.455 49.2773 10.4384V4.62891C49.2773 3.49816 48.3573 2.57812 47.2266 2.57812H26.2675C25.7821 2.57812 25.3886 2.97152 25.3886 3.45703C25.3886 3.94254 25.7821 4.33594 26.2675 4.33594H47.2266C47.388 4.33594 47.5195 4.4673 47.5195 4.62891V9.60938H12.4805V4.62891C12.4805 4.4673 12.612 4.33594 12.7734 4.33594H22.1659C22.6513 4.33594 23.0448 3.94254 23.0448 3.45703C23.0448 2.97152 22.6513 2.57812 22.1659 2.57812H12.7734C11.6427 2.57812 10.7227 3.49816 10.7227 4.62891V10.4384C10.7217 10.455 10.7202 10.4714 10.7202 10.4883C10.7202 10.5052 10.7217 10.5216 10.7227 10.5382V16.6406H4.21875C3.08801 16.6406 2.16797 17.5607 2.16797 18.6914V50.625H2.05078C0.920039 50.625 0 51.545 0 52.6758V53.0273C0 55.4505 1.97133 57.4219 4.39453 57.4219H55.6055C58.0287 57.4219 60 55.4505 60 53.0273V52.6758C60 51.545 59.08 50.625 57.9492 50.625ZM55.7812 18.3984C55.9427 18.3984 56.0742 18.5298 56.0742 18.6914V20.1562H49.2773V18.3984H55.7812ZM4.21875 18.3984H10.7227V20.1562H3.92578V18.6914C3.92578 18.5298 4.05727 18.3984 4.21875 18.3984ZM58.2422 53.0273C58.2422 54.4812 57.0594 55.6641 55.6055 55.6641H4.39453C2.94059 55.6641 1.75781 54.4812 1.75781 53.0273V52.6758C1.75781 52.5142 1.8893 52.3828 2.05078 52.3828H44.3555C44.8409 52.3828 45.2344 51.9894 45.2344 51.5039C45.2344 51.0184 44.8409 50.625 44.3555 50.625H3.92578V21.9141H10.7227V26.9531C10.7227 27.4386 11.1162 27.832 11.6016 27.832C12.087 27.832 12.4805 27.4386 12.4805 26.9531V11.3672H47.5195V46.8164C47.5195 46.978 47.388 47.1094 47.2266 47.1094H12.7734C12.612 47.1094 12.4805 46.978 12.4805 46.8164V31.0547C12.4805 30.5692 12.087 30.1758 11.6016 30.1758C11.1162 30.1758 10.7227 30.5692 10.7227 31.0547V46.8164C10.7227 47.9471 11.6427 48.8672 12.7734 48.8672H47.2266C48.3573 48.8672 49.2773 47.9471 49.2773 46.8164V21.9141H56.0742V50.625H48.457C47.9716 50.625 47.5781 51.0184 47.5781 51.5039C47.5781 51.9894 47.9716 52.3828 48.457 52.3828H57.9492C58.1107 52.3828 58.2422 52.5142 58.2422 52.6758V53.0273Z" fill="url(#paint0_linear)"/>
<path d="M44.8849 7.85156C45.3703 7.85156 45.7638 7.45816 45.7638 6.97266C45.7638 6.48715 45.3703 6.09375 44.8849 6.09375H37.8486C37.3632 6.09375 36.9697 6.48715 36.9697 6.97266C36.9697 7.45816 37.3632 7.85156 37.8486 7.85156H44.8849Z" fill="url(#paint1_linear)"/>
<path d="M15.1359 6.09375C14.6505 6.09375 14.2576 6.48715 14.2576 6.97266C14.2576 7.45816 14.6517 7.85156 15.1371 7.85156C15.6225 7.85156 16.016 7.45816 16.016 6.97266C16.016 6.48715 15.6225 6.09375 15.1371 6.09375H15.1359Z" fill="url(#paint2_linear)"/>
<path d="M18.6515 6.09375C18.1661 6.09375 17.7732 6.48715 17.7732 6.97266C17.7732 7.45816 18.1673 7.85156 18.6527 7.85156C19.1381 7.85156 19.5316 7.45816 19.5316 6.97266C19.5316 6.48715 19.1381 6.09375 18.6527 6.09375H18.6515Z" fill="url(#paint3_linear)"/>
<path d="M22.1683 6.09375H22.1671C21.6817 6.09375 21.2888 6.48715 21.2888 6.97266C21.2888 7.45816 21.6829 7.85156 22.1683 7.85156C22.6537 7.85156 23.0472 7.45816 23.0472 6.97266C23.0472 6.48715 22.6537 6.09375 22.1683 6.09375Z" fill="url(#paint4_linear)"/>
<path d="M15.4503 37.4631H45.2159C45.7013 37.4631 46.0949 37.0697 46.0949 36.5842V31.2422C46.0949 30.7567 45.7013 30.3633 45.2159 30.3633C44.7306 30.3633 44.337 30.7567 44.337 31.2422V35.7053H16.3292V17.5413H44.337V27.1407C44.337 27.6262 44.7306 28.0196 45.2159 28.0196C45.7013 28.0196 46.0949 27.6262 46.0949 27.1407V16.6624C46.0949 16.1768 45.7013 15.7834 45.2159 15.7834H15.4503C14.9649 15.7834 14.5714 16.1768 14.5714 16.6624V36.5842C14.5714 37.0697 14.9649 37.4631 15.4503 37.4631Z" fill="url(#paint5_linear)"/>
<path d="M19.4785 41.9999H40.5215C40.8646 41.9999 41.1428 41.6163 41.1428 41.1428C41.1428 40.6693 40.8646 40.2856 40.5215 40.2856H19.4785C19.1353 40.2856 18.8571 40.6693 18.8571 41.1428C18.8571 41.6163 19.1353 41.9999 19.4785 41.9999Z" fill="url(#paint6_linear)"/>
<path d="M22.1934 22.2288C21.7419 22.2288 21.3306 22.5121 21.1696 22.9343L18.545 29.8261C18.3722 30.2797 18.5999 30.7876 19.0534 30.9603C19.5073 31.1334 20.0148 30.9052 20.1876 30.4517L20.6389 29.2668H23.7282L24.1744 30.4493C24.3073 30.8013 24.6416 31.0182 24.9969 31.0182C25.1 31.0182 25.205 30.9999 25.307 30.9613C25.7611 30.79 25.9905 30.2829 25.819 29.8287L23.2184 22.9377C23.0583 22.5136 22.6464 22.2288 22.1934 22.2288ZM21.3082 27.509L22.1904 25.1926L23.0646 27.509H21.3082Z" fill="url(#paint7_linear)"/>
<path d="M28.4414 22.2288C27.956 22.2288 27.5625 22.6222 27.5625 23.1077V30.1389C27.5625 30.6244 27.956 31.0178 28.4414 31.0178C28.4452 31.0177 30.4385 31.0181 30.5016 31.0177C32.6152 30.9808 34.1493 29.1343 34.1493 26.6272C34.1493 23.9963 32.6537 22.2288 30.4279 22.2288H28.4414ZM32.3915 26.6272C32.3915 27.8768 31.7925 29.2321 30.4778 29.26H29.3203V23.9866H30.4279C31.8756 23.9866 32.3915 25.3506 32.3915 26.6272Z" fill="url(#paint8_linear)"/>
<path d="M38.519 29.26C37.82 29.26 37.1475 28.9784 36.72 28.5065C36.3941 28.1468 35.8383 28.1194 35.4785 28.4454C35.1188 28.7714 35.0915 29.3271 35.4175 29.6869C36.1727 30.5202 37.3322 31.0178 38.519 31.0178C40.0008 31.0178 41.2451 30.0723 41.4777 28.7695C41.6528 27.7891 41.2077 26.5083 39.4337 25.8541C38.9735 25.664 38.0256 25.4331 37.5972 25.1356C37.4143 25.0041 37.3263 24.7985 37.362 24.5859C37.403 24.3399 37.5963 24.1531 37.9064 24.0597C38.8961 23.7616 39.8135 24.4847 39.8413 24.5069C40.2128 24.8152 40.7641 24.7661 41.0752 24.396C41.3875 24.0244 41.3394 23.47 40.9678 23.1577C40.9015 23.1018 39.3205 21.7978 37.3992 22.3765C36.4427 22.6647 35.7806 23.3825 35.6279 24.2964C35.4819 25.1712 35.8432 26.0397 36.5707 26.5628C37.1791 26.9942 37.8975 27.1669 38.8252 27.5032C39.1335 27.617 39.8405 27.9379 39.7471 28.4605C39.6771 28.8535 39.1985 29.26 38.519 29.26Z" fill="url(#paint9_linear)"/>
<defs>
<linearGradient id="paint0_linear" x1="60" y1="2.57813" x2="0.641346" y2="25.3675" gradientUnits="userSpaceOnUse">
<stop stop-color="#4AB1FE"/>
<stop offset="1" stop-color="#07EBFE"/>
</linearGradient>
<linearGradient id="paint1_linear" x1="45.7638" y1="6.09375" x2="43.3186" y2="10.3868" gradientUnits="userSpaceOnUse">
<stop stop-color="#4AB1FE"/>
<stop offset="1" stop-color="#07EBFE"/>
</linearGradient>
<linearGradient id="paint2_linear" x1="16.016" y1="6.09375" x2="14.2389" y2="6.71758" gradientUnits="userSpaceOnUse">
<stop stop-color="#4AB1FE"/>
<stop offset="1" stop-color="#07EBFE"/>
</linearGradient>
<linearGradient id="paint3_linear" x1="19.5316" y1="6.09375" x2="17.7546" y2="6.71758" gradientUnits="userSpaceOnUse">
<stop stop-color="#4AB1FE"/>
<stop offset="1" stop-color="#07EBFE"/>
</linearGradient>
<linearGradient id="paint4_linear" x1="23.0472" y1="6.09375" x2="21.2702" y2="6.71758" gradientUnits="userSpaceOnUse">
<stop stop-color="#4AB1FE"/>
<stop offset="1" stop-color="#07EBFE"/>
</linearGradient>
<linearGradient id="paint5_linear" x1="46.0949" y1="15.7834" x2="17.7039" y2="30.2706" gradientUnits="userSpaceOnUse">
<stop stop-color="#4AB1FE"/>
<stop offset="1" stop-color="#07EBFE"/>
</linearGradient>
<linearGradient id="paint6_linear" x1="41.1428" y1="40.2856" x2="39.9831" y2="45.5765" gradientUnits="userSpaceOnUse">
<stop stop-color="#4AB1FE"/>
<stop offset="1" stop-color="#07EBFE"/>
</linearGradient>
<linearGradient id="paint7_linear" x1="25.8759" y1="22.2288" x2="18.1602" y2="24.5049" gradientUnits="userSpaceOnUse">
<stop stop-color="#4AB1FE"/>
<stop offset="1" stop-color="#07EBFE"/>
</linearGradient>
<linearGradient id="paint8_linear" x1="34.1493" y1="22.2288" x2="27.1561" y2="24.0679" gradientUnits="userSpaceOnUse">
<stop stop-color="#4AB1FE"/>
<stop offset="1" stop-color="#07EBFE"/>
</linearGradient>
<linearGradient id="paint9_linear" x1="41.513" y1="22.2288" x2="34.7654" y2="23.9324" gradientUnits="userSpaceOnUse">
<stop stop-color="#4AB1FE"/>
<stop offset="1" stop-color="#07EBFE"/>
</linearGradient>
</defs>
</svg>
