<svg width="260" height="53" viewBox="0 0 260 53" fill="none" xmlns="http://www.w3.org/2000/svg">
<path fill-rule="evenodd" clip-rule="evenodd" d="M0 18.4566L4.9537 9.74609H14.4144L9.46372 18.4492L18.5991 34.2025L30.5054 34.1018L38.8352 19.738L43.6119 27.8168L43.6041 27.8298L35.236 42.2603L18.5797 42.398L18.5723 42.3861L13.8997 42.4247L0 18.4566Z" fill="url(#paint0_linear_716:3109)"/>
<path fill-rule="evenodd" clip-rule="evenodd" d="M49.9659 0L55.0884 8.56252L50.3375 16.6594L45.2198 8.10275H26.8697L20.9784 18.3426L29.3445 32.6006L19.8886 32.6786L19.8811 32.6653L11.4766 18.3412L19.7186 4.01848H19.7332L22.0463 0H49.9659Z" fill="url(#paint1_linear_716:3109)"/>
<path fill-rule="evenodd" clip-rule="evenodd" d="M52.7227 24.0696L52.7298 24.0563L44.2988 9.74609H27.5984H27.582L22.9531 17.9145H39.5783L45.607 28.1444L36.491 43.9194L26.4642 44.0025L31.1848 52.1709L41.2171 52.0864L55.0882 28.0847L52.7227 24.0696Z" fill="url(#paint2_linear_716:3109)"/>
<path d="M69.0591 44.5867C70.1732 44.5867 71.0899 44.2203 71.7668 43.544L71.2591 42.8536C70.7232 43.4031 69.9335 43.7131 69.1578 43.7131C67.6911 43.7131 66.7886 42.6423 66.704 41.3601H72.2181V41.0924C72.2181 39.0494 71.0053 37.4432 68.9463 37.4432C67.0001 37.4432 65.5898 39.0353 65.5898 41.0079C65.5898 43.1354 67.0424 44.5867 69.0591 44.5867ZM71.1745 40.5852H66.704C66.7604 39.5426 67.4796 38.3168 68.9322 38.3168C70.4835 38.3168 71.1604 39.5708 71.1745 40.5852Z" fill="#7685A8"/>
<path d="M77.7531 44.4176L80.5877 37.6123H79.4313L77.1749 43.1918L74.9044 37.6123H73.762L76.5967 44.4176H77.7531Z" fill="#7685A8"/>
<path d="M85.5129 44.5867C87.586 44.5867 88.8834 42.9804 88.8834 41.0079C88.8834 39.0353 87.586 37.4432 85.5129 37.4432C83.4398 37.4432 82.1423 39.0353 82.1423 41.0079C82.1423 42.9804 83.4398 44.5867 85.5129 44.5867ZM85.5129 43.6427C84.0603 43.6427 83.2424 42.4028 83.2424 41.0079C83.2424 39.6271 84.0603 38.3872 85.5129 38.3872C86.9655 38.3872 87.7693 39.6271 87.7693 41.0079C87.7693 42.4028 86.9655 43.6427 85.5129 43.6427Z" fill="#7685A8"/>
<path d="M92.5116 44.4176V35.0198H91.4539V44.4176H92.5116Z" fill="#7685A8"/>
<path d="M101.123 44.4176V37.6123H100.065V42.6141C99.6702 43.1636 98.8805 43.6427 98.0484 43.6427C97.1318 43.6427 96.5253 43.2904 96.5253 42.0928V37.6123H95.4676V42.4169C95.4676 43.8963 96.2151 44.5867 97.6395 44.5867C98.6549 44.5867 99.5433 44.0512 100.065 43.4595V44.4176H101.123Z" fill="#7685A8"/>
<path d="M105.802 44.5867C106.422 44.5867 106.803 44.4035 107.071 44.1499L106.761 43.3609C106.62 43.5158 106.338 43.6427 106.042 43.6427C105.576 43.6427 105.351 43.2763 105.351 42.7691V38.5422H106.733V37.6123H105.351V35.7525H104.293V37.6123H103.165V38.5422H104.293V42.9945C104.293 44.009 104.801 44.5867 105.802 44.5867Z" fill="#7685A8"/>
<path d="M109.595 36.6401C109.99 36.6401 110.314 36.3301 110.314 35.9356C110.314 35.5411 109.99 35.2171 109.595 35.2171C109.214 35.2171 108.89 35.5411 108.89 35.9356C108.89 36.3301 109.214 36.6401 109.595 36.6401ZM110.131 44.4176V37.6123H109.073V44.4176H110.131Z" fill="#7685A8"/>
<path d="M116.062 44.5867C118.135 44.5867 119.433 42.9804 119.433 41.0079C119.433 39.0353 118.135 37.4432 116.062 37.4432C113.989 37.4432 112.692 39.0353 112.692 41.0079C112.692 42.9804 113.989 44.5867 116.062 44.5867ZM116.062 43.6427C114.61 43.6427 113.792 42.4028 113.792 41.0079C113.792 39.6271 114.61 38.3872 116.062 38.3872C117.515 38.3872 118.319 39.6271 118.319 41.0079C118.319 42.4028 117.515 43.6427 116.062 43.6427Z" fill="#7685A8"/>
<path d="M127.659 44.4176V39.6412C127.659 38.1618 126.911 37.4432 125.487 37.4432C124.471 37.4432 123.541 38.035 123.061 38.5986V37.6123H122.003V44.4176H123.061V39.4439C123.456 38.8944 124.246 38.3872 125.078 38.3872C125.994 38.3872 126.601 38.7676 126.601 39.9653V44.4176H127.659Z" fill="#7685A8"/>
<path d="M138.075 44.5867C140.148 44.5867 141.445 42.9804 141.445 41.0079C141.445 39.0353 140.148 37.4432 138.075 37.4432C136.002 37.4432 134.704 39.0353 134.704 41.0079C134.704 42.9804 136.002 44.5867 138.075 44.5867ZM138.075 43.6427C136.622 43.6427 135.804 42.4028 135.804 41.0079C135.804 39.6271 136.622 38.3872 138.075 38.3872C139.527 38.3872 140.331 39.6271 140.331 41.0079C140.331 42.4028 139.527 43.6427 138.075 43.6427Z" fill="#7685A8"/>
<path d="M145.37 44.4176V38.5422H146.752V37.6123H145.37V37.091C145.37 36.2315 145.75 35.7525 146.441 35.7525C146.794 35.7525 147.062 35.8934 147.287 36.0906L147.725 35.4002C147.302 35.0057 146.822 34.8789 146.286 34.8789C145.073 34.8789 144.312 35.6961 144.312 37.091V37.6123H143.184V38.5422H144.312V44.4176H145.37Z" fill="#7685A8"/>
<path d="M152.957 47.0805C153.154 47.1369 153.507 47.1791 153.733 47.1791C154.635 47.1651 155.326 46.7846 155.735 45.7984L159.148 37.6123H157.992L155.735 43.1918L153.465 37.6123H152.322L155.171 44.488L154.72 45.5166C154.48 46.0802 154.17 46.2351 153.704 46.2351C153.535 46.2351 153.281 46.1929 153.126 46.1224L152.957 47.0805Z" fill="#7685A8"/>
<path d="M164.073 44.5867C166.146 44.5867 167.444 42.9804 167.444 41.0079C167.444 39.0353 166.146 37.4432 164.073 37.4432C162 37.4432 160.703 39.0353 160.703 41.0079C160.703 42.9804 162 44.5867 164.073 44.5867ZM164.073 43.6427C162.621 43.6427 161.803 42.4028 161.803 41.0079C161.803 39.6271 162.621 38.3872 164.073 38.3872C165.526 38.3872 166.33 39.6271 166.33 41.0079C166.33 42.4028 165.526 43.6427 164.073 43.6427Z" fill="#7685A8"/>
<path d="M175.669 44.4176V37.6123H174.612V42.6141C174.217 43.1636 173.427 43.6427 172.595 43.6427C171.678 43.6427 171.072 43.2904 171.072 42.0928V37.6123H170.014V42.4169C170.014 43.8963 170.762 44.5867 172.186 44.5867C173.201 44.5867 174.09 44.0512 174.612 43.4595V44.4176H175.669Z" fill="#7685A8"/>
<path d="M179.686 44.4176V39.5989C179.996 39.0494 180.884 38.514 181.533 38.514C181.702 38.514 181.829 38.5281 181.956 38.5563V37.4714C181.025 37.4714 180.236 37.9927 179.686 38.7113V37.6123H178.628V44.4176H179.686Z" fill="#7685A8"/>
<path d="M189.669 42.5718V39.4862C190.035 38.8944 190.867 38.3872 191.7 38.3872C193.082 38.3872 193.9 39.5144 193.9 41.022C193.9 42.5296 193.082 43.6427 191.7 43.6427C190.867 43.6427 190.035 43.1636 189.669 42.5718ZM189.669 44.4176V43.4031C190.176 44.0935 191.009 44.5867 191.967 44.5867C193.744 44.5867 195 43.2341 195 41.022C195 38.8522 193.744 37.4432 191.967 37.4432C191.037 37.4432 190.219 37.8941 189.669 38.6408V35.0198H188.611V44.4176H189.669Z" fill="#7685A8"/>
<path d="M203.224 44.4176V37.6123H202.167V42.6141C201.772 43.1636 200.982 43.6427 200.15 43.6427C199.233 43.6427 198.627 43.2904 198.627 42.0928V37.6123H197.569V42.4169C197.569 43.8963 198.316 44.5867 199.741 44.5867C200.756 44.5867 201.645 44.0512 202.167 43.4595V44.4176H203.224Z" fill="#7685A8"/>
<path d="M208.34 44.5867C210.103 44.5867 211.02 43.6708 211.02 42.5296C211.02 39.8807 206.803 40.867 206.803 39.3735C206.803 38.7676 207.381 38.3027 208.312 38.3027C209.187 38.3027 209.934 38.669 210.343 39.1622L210.837 38.4295C210.287 37.88 209.469 37.4432 208.312 37.4432C206.69 37.4432 205.774 38.345 205.774 39.4017C205.774 41.9237 209.99 40.9093 209.99 42.5578C209.99 43.2341 209.426 43.7272 208.383 43.7272C207.452 43.7272 206.592 43.2763 206.14 42.755L205.59 43.5158C206.281 44.2485 207.226 44.5867 208.34 44.5867Z" fill="#7685A8"/>
<path d="M214.106 36.6401C214.501 36.6401 214.825 36.3301 214.825 35.9356C214.825 35.5411 214.501 35.2171 214.106 35.2171C213.725 35.2171 213.401 35.5411 213.401 35.9356C213.401 36.3301 213.725 36.6401 214.106 36.6401ZM214.642 44.4176V37.6123H213.584V44.4176H214.642Z" fill="#7685A8"/>
<path d="M223.253 44.4176V39.6412C223.253 38.1618 222.506 37.4432 221.082 37.4432C220.066 37.4432 219.135 38.035 218.656 38.5986V37.6123H217.598V44.4176H218.656V39.4439C219.051 38.8944 219.84 38.3872 220.673 38.3872C221.589 38.3872 222.196 38.7676 222.196 39.9653V44.4176H223.253Z" fill="#7685A8"/>
<path d="M229.286 44.5867C230.4 44.5867 231.317 44.2203 231.994 43.544L231.486 42.8536C230.95 43.4031 230.161 43.7131 229.385 43.7131C227.918 43.7131 227.016 42.6423 226.931 41.3601H232.445V41.0924C232.445 39.0494 231.232 37.4432 229.173 37.4432C227.227 37.4432 225.817 39.0353 225.817 41.0079C225.817 43.1354 227.27 44.5867 229.286 44.5867ZM231.402 40.5852H226.931C226.988 39.5426 227.707 38.3168 229.159 38.3168C230.711 38.3168 231.388 39.5708 231.402 40.5852Z" fill="#7685A8"/>
<path d="M237.162 44.5867C238.925 44.5867 239.842 43.6708 239.842 42.5296C239.842 39.8807 235.625 40.867 235.625 39.3735C235.625 38.7676 236.203 38.3027 237.134 38.3027C238.008 38.3027 238.756 38.669 239.165 39.1622L239.658 38.4295C239.108 37.88 238.29 37.4432 237.134 37.4432C235.512 37.4432 234.596 38.345 234.596 39.4017C234.596 41.9237 238.812 40.9093 238.812 42.5578C238.812 43.2341 238.248 43.7272 237.205 43.7272C236.274 43.7272 235.414 43.2763 234.962 42.755L234.412 43.5158C235.103 44.2485 236.048 44.5867 237.162 44.5867Z" fill="#7685A8"/>
<path d="M244.564 44.5867C246.327 44.5867 247.243 43.6708 247.243 42.5296C247.243 39.8807 243.027 40.867 243.027 39.3735C243.027 38.7676 243.605 38.3027 244.536 38.3027C245.41 38.3027 246.158 38.669 246.567 39.1622L247.06 38.4295C246.51 37.88 245.692 37.4432 244.536 37.4432C242.914 37.4432 241.997 38.345 241.997 39.4017C241.997 41.9237 246.214 40.9093 246.214 42.5578C246.214 43.2341 245.65 43.7272 244.606 43.7272C243.676 43.7272 242.815 43.2763 242.364 42.755L241.814 43.5158C242.505 44.2485 243.45 44.5867 244.564 44.5867Z" fill="#7685A8"/>
<path d="M87.5196 29.007L92.7023 11.9937H88.0484L84.8753 23.4416L81.1381 11.9937H77.1541L73.4168 23.4416L70.2437 11.9937H65.5898L70.7726 29.007H75.5675L79.1637 17.4182L82.7599 29.007H87.5196Z" fill="#1F2B45"/>
<path d="M103.616 29.4297C106.26 29.4297 108.94 28.6195 110.632 27.0696L108.658 24.1813C107.565 25.238 105.555 25.872 104.11 25.872C101.219 25.872 99.4912 24.0756 99.2091 21.9269H111.866V20.9407C111.866 15.3753 108.411 11.5711 103.334 11.5711C98.1514 11.5711 94.5199 15.5514 94.5199 20.4827C94.5199 25.9425 98.4335 29.4297 103.616 29.4297ZM107.53 18.8977H99.1386C99.3501 17.2069 100.549 15.1287 103.334 15.1287C106.296 15.1287 107.424 17.2774 107.53 18.8977Z" fill="#1F2B45"/>
<path d="M120.283 23.5472V17.5239C121.024 16.3968 122.681 15.5514 124.126 15.5514C126.735 15.5514 128.463 17.5591 128.463 20.518C128.463 23.4768 126.735 25.4493 124.126 25.4493C122.681 25.4493 121.024 24.6392 120.283 23.5472ZM120.283 29.007V26.8231C121.623 28.5138 123.492 29.4297 125.537 29.4297C129.838 29.4297 133.081 26.189 133.081 20.518C133.081 14.9526 129.873 11.5711 125.537 11.5711C123.527 11.5711 121.623 12.4517 120.283 14.1776V5.51252H115.806V29.007H120.283Z" fill="#1F2B45"/>
<path d="M145.067 29.4297C150.708 29.4297 154.092 25.3437 154.092 20.4827C154.092 15.657 150.708 11.5711 145.067 11.5711C139.461 11.5711 136.076 15.657 136.076 20.4827C136.076 25.3437 139.461 29.4297 145.067 29.4297ZM145.067 25.4493C142.281 25.4493 140.73 23.1598 140.73 20.4827C140.73 17.8409 142.281 15.5514 145.067 15.5514C147.852 15.5514 149.438 17.8409 149.438 20.4827C149.438 23.1598 147.852 25.4493 145.067 25.4493Z" fill="#1F2B45"/>
<path d="M162.597 29.007V5.51252H158.119V29.007H162.597Z" fill="#1F2B45"/>
<path d="M183.713 29.007V11.9937H179.236V23.512C178.46 24.4983 177.085 25.4493 175.357 25.4493C173.454 25.4493 172.22 24.6744 172.22 22.3144V11.9937H167.742V24.0756C167.742 27.3867 169.505 29.4297 173.242 29.4297C176.027 29.4297 178.072 28.1616 179.236 26.8583V29.007H183.713Z" fill="#1F2B45"/>
<path d="M194.576 29.4297C196.445 29.4297 197.643 28.9365 198.313 28.3377L197.361 24.9562C197.114 25.2028 196.48 25.4493 195.81 25.4493C194.823 25.4493 194.259 24.6392 194.259 23.5825V15.9036H197.714V11.9937H194.259V7.34417H189.746V11.9937H186.925V15.9036H189.746V24.7801C189.746 27.8093 191.438 29.4297 194.576 29.4297Z" fill="#1F2B45"/>
<path d="M203.704 10.1621C205.184 10.1621 206.383 8.96448 206.383 7.48507C206.383 6.00566 205.184 4.84326 203.704 4.84326C202.258 4.84326 201.024 6.00566 201.024 7.48507C201.024 8.96448 202.258 10.1621 203.704 10.1621ZM205.96 29.007V11.9937H201.482V29.007H205.96Z" fill="#1F2B45"/>
<path d="M219.003 29.4297C224.644 29.4297 228.028 25.3437 228.028 20.4827C228.028 15.657 224.644 11.5711 219.003 11.5711C213.397 11.5711 210.012 15.657 210.012 20.4827C210.012 25.3437 213.397 29.4297 219.003 29.4297ZM219.003 25.4493C216.217 25.4493 214.666 23.1598 214.666 20.4827C214.666 17.8409 216.217 15.5514 219.003 15.5514C221.788 15.5514 223.374 17.8409 223.374 20.4827C223.374 23.1598 221.788 25.4493 219.003 25.4493Z" fill="#1F2B45"/>
<path d="M248.027 29.007V16.9956C248.027 13.6845 246.228 11.5711 242.491 11.5711C239.706 11.5711 237.626 12.9096 236.533 14.2129V11.9937H232.055V29.007H236.533V17.5591C237.273 16.5376 238.648 15.5514 240.411 15.5514C242.315 15.5514 243.549 16.3615 243.549 18.7215V29.007H248.027Z" fill="#1F2B45"/>
<g clip-path="url(#clip0_716:3109)">
<path d="M259.999 9.17102L259.99 9.06814C259.984 8.99856 259.977 8.92847 259.969 8.86088C259.879 8.00556 259.589 7.21807 259.107 6.52094C258.392 5.48313 257.411 4.78626 256.191 4.44984C255.864 4.35897 255.517 4.30365 255.16 4.28513L255.105 4.27637L254.632 4.27687L254.317 4.30666C253.682 4.37399 253.08 4.55422 252.528 4.84258C251.4 5.43407 250.584 6.33145 250.102 7.51018C249.915 7.97076 249.799 8.46213 249.758 8.96702C249.751 9.03585 249.743 9.10444 249.737 9.18304L249.738 9.64462L249.747 9.74625C249.753 9.81633 249.76 9.88667 249.768 9.95476C249.858 10.8063 250.147 11.5926 250.628 12.2914C251.244 13.1921 252.074 13.8419 253.095 14.2229C253.66 14.4334 254.244 14.54 254.831 14.54C254.93 14.54 255.028 14.537 255.127 14.5313C256.612 14.4427 257.854 13.8201 258.817 12.6802C259.403 11.9873 259.776 11.173 259.926 10.2619C259.947 10.14 259.959 10.0168 259.971 9.89368C259.978 9.82835 259.984 9.76302 259.995 9.67466L260 9.64537L259.999 9.17102ZM254.878 5.07437L254.883 5.19928C257.199 5.20228 259.081 7.09216 259.079 9.41183C259.074 11.7312 257.186 13.6181 254.866 13.6181C253.742 13.6169 252.686 13.1778 251.891 12.3821C251.096 11.5866 250.659 10.53 250.661 9.40757C250.663 7.08715 252.555 5.19928 254.878 5.19928V5.07437Z" fill="#1F2B45"/>
<path d="M252.821 6.62939C252.806 6.62939 252.793 6.63115 252.772 6.6344L252.661 6.64717V12.448H253.607V9.9756L253.972 9.97485C254.081 9.97485 254.19 9.9751 254.305 9.9766C254.416 9.97811 254.531 9.97936 254.634 9.99813C254.813 10.0299 254.965 10.1203 255.085 10.2667C255.207 10.4147 255.363 10.6117 255.496 10.8239C255.744 11.2174 255.986 11.6154 256.228 12.0134L256.434 12.3533C256.452 12.3801 256.5 12.4515 256.605 12.4515H256.607C256.751 12.4505 256.894 12.4505 257.037 12.4505H257.392C257.407 12.4505 257.419 12.4492 257.451 12.4457L257.643 12.4294L257.55 12.2605C257.535 12.2347 257.524 12.2167 257.514 12.2012L257.311 11.8645C257.164 11.6212 257.017 11.3781 256.868 11.1363C256.707 10.8777 256.54 10.6104 256.361 10.3563C256.213 10.1451 256.051 9.9766 255.865 9.84544C255.917 9.83217 255.968 9.8179 256.018 9.80213C256.439 9.66972 256.745 9.43142 256.929 9.09299C257.199 8.59662 257.214 8.0672 256.974 7.51901C256.801 7.12502 256.518 6.86519 256.132 6.74654C255.88 6.66995 255.601 6.63365 255.253 6.63215C254.703 6.62965 254.155 6.62939 253.606 6.62939H252.821ZM253.607 9.08899V7.49724H254.149C254.528 7.49724 254.905 7.49774 255.283 7.50274C255.392 7.50424 255.514 7.52402 255.646 7.56182C255.955 7.64993 256.152 7.90675 256.161 8.23241C256.17 8.55582 256.054 8.78636 255.805 8.93755C255.686 9.00989 255.545 9.05119 255.359 9.06746C255.212 9.08023 255.062 9.08724 254.911 9.08824C254.718 9.08924 254.526 9.08974 254.334 9.08974L253.607 9.08899Z" fill="#1F2B45"/>
</g>
<defs>
<linearGradient id="paint0_linear_716:3109" x1="-0.100965" y1="9.9305" x2="35.2766" y2="41.3727" gradientUnits="userSpaceOnUse">
<stop stop-color="#F97695"/>
<stop offset="1" stop-color="#FEDD44"/>
</linearGradient>
<linearGradient id="paint1_linear_716:3109" x1="47.5639" y1="-1.83761" x2="21.2166" y2="33.12" gradientUnits="userSpaceOnUse">
<stop stop-color="#4AB1FE"/>
<stop offset="1" stop-color="#07EBFE"/>
</linearGradient>
<linearGradient id="paint2_linear_716:3109" x1="38.9962" y1="52.1442" x2="33.0373" y2="9.66902" gradientUnits="userSpaceOnUse">
<stop stop-color="#F3648A"/>
<stop offset="1" stop-color="#FF83D4"/>
</linearGradient>
<clipPath id="clip0_716:3109">
<rect width="10.2632" height="10.2637" fill="white" transform="translate(249.737 4.27637)"/>
</clipPath>
</defs>
</svg>
