<svg width="260" height="53" viewBox="0 0 260 53" fill="none" xmlns="http://www.w3.org/2000/svg">
<path fill-rule="evenodd" clip-rule="evenodd" d="M0 18.4566L4.9537 9.74615H14.4144L9.46372 18.4492L18.5991 34.2026L30.5054 34.1019L38.8352 19.7381L43.6119 27.8169L43.6041 27.8299L35.236 42.2603L18.5797 42.3981L18.5723 42.3862L13.8997 42.4247L0 18.4566Z" fill="url(#paint0_linear)"/>
<path fill-rule="evenodd" clip-rule="evenodd" d="M49.966 0L55.0886 8.56252L50.3376 16.6594L45.2199 8.10275H26.8698L20.9786 18.3426L29.3446 32.6006L19.8887 32.6786L19.8812 32.6653L11.4767 18.3412L19.7187 4.01848H19.7333L22.0464 0H49.966Z" fill="url(#paint1_linear)"/>
<path fill-rule="evenodd" clip-rule="evenodd" d="M52.7231 24.0697L52.7301 24.0563L44.2992 9.74615H27.5987H27.5824L22.9535 17.9146H39.5786L45.6074 28.1444L36.4913 43.9195L26.4646 44.0026L31.1852 52.171L41.2175 52.0864L55.0886 28.0847L52.7231 24.0697Z" fill="url(#paint2_linear)"/>
<path d="M69.059 44.5866C70.1731 44.5866 71.0898 44.2203 71.7667 43.544L71.259 42.8536C70.7231 43.4031 69.9334 43.7131 69.1577 43.7131C67.691 43.7131 66.7885 42.6422 66.7038 41.3601H72.218V41.0924C72.218 39.0494 71.0052 37.4432 68.9462 37.4432C67 37.4432 65.5897 39.0353 65.5897 41.0079C65.5897 43.1354 67.0423 44.5866 69.059 44.5866ZM71.1744 40.5852H66.7038C66.7602 39.5425 67.4795 38.3167 68.9321 38.3167C70.4834 38.3167 71.1603 39.5707 71.1744 40.5852Z" fill="#7685A8"/>
<path d="M77.753 44.4175L80.5876 37.6123H79.4312L77.1748 43.1917L74.9042 37.6123H73.7619L76.5966 44.4175H77.753Z" fill="#7685A8"/>
<path d="M85.5128 44.5866C87.5859 44.5866 88.8833 42.9804 88.8833 41.0079C88.8833 39.0353 87.5859 37.4432 85.5128 37.4432C83.4397 37.4432 82.1422 39.0353 82.1422 41.0079C82.1422 42.9804 83.4397 44.5866 85.5128 44.5866ZM85.5128 43.6426C84.0602 43.6426 83.2422 42.4027 83.2422 41.0079C83.2422 39.6271 84.0602 38.3872 85.5128 38.3872C86.9653 38.3872 87.7692 39.6271 87.7692 41.0079C87.7692 42.4027 86.9653 43.6426 85.5128 43.6426Z" fill="#7685A8"/>
<path d="M92.5115 44.4175V35.0198H91.4538V44.4175H92.5115Z" fill="#7685A8"/>
<path d="M101.123 44.4175V37.6123H100.065V42.6141C99.6701 43.1636 98.8804 43.6426 98.0483 43.6426C97.1316 43.6426 96.5252 43.2904 96.5252 42.0928V37.6123H95.4675V42.4168C95.4675 43.8962 96.215 44.5866 97.6393 44.5866C98.6547 44.5866 99.5432 44.0512 100.065 43.4594V44.4175H101.123Z" fill="#7685A8"/>
<path d="M105.802 44.5866C106.422 44.5866 106.803 44.4035 107.071 44.1498L106.761 43.3608C106.62 43.5158 106.338 43.6426 106.041 43.6426C105.576 43.6426 105.35 43.2763 105.35 42.7691V38.5422H106.732V37.6123H105.35V35.7524H104.293V37.6123H103.165V38.5422H104.293V42.9945C104.293 44.0089 104.8 44.5866 105.802 44.5866Z" fill="#7685A8"/>
<path d="M109.595 36.6401C109.989 36.6401 110.314 36.3301 110.314 35.9356C110.314 35.5411 109.989 35.217 109.595 35.217C109.214 35.217 108.889 35.5411 108.889 35.9356C108.889 36.3301 109.214 36.6401 109.595 36.6401ZM110.13 44.4175V37.6123H109.073V44.4175H110.13Z" fill="#7685A8"/>
<path d="M116.062 44.5866C118.135 44.5866 119.433 42.9804 119.433 41.0079C119.433 39.0353 118.135 37.4432 116.062 37.4432C113.989 37.4432 112.692 39.0353 112.692 41.0079C112.692 42.9804 113.989 44.5866 116.062 44.5866ZM116.062 43.6426C114.61 43.6426 113.792 42.4027 113.792 41.0079C113.792 39.6271 114.61 38.3872 116.062 38.3872C117.515 38.3872 118.319 39.6271 118.319 41.0079C118.319 42.4027 117.515 43.6426 116.062 43.6426Z" fill="#7685A8"/>
<path d="M127.658 44.4175V39.6412C127.658 38.1618 126.911 37.4432 125.487 37.4432C124.471 37.4432 123.54 38.0349 123.061 38.5985V37.6123H122.003V44.4175H123.061V39.4439C123.456 38.8944 124.246 38.3872 125.078 38.3872C125.994 38.3872 126.601 38.7676 126.601 39.9652V44.4175H127.658Z" fill="#7685A8"/>
<path d="M138.075 44.5866C140.148 44.5866 141.445 42.9804 141.445 41.0079C141.445 39.0353 140.148 37.4432 138.075 37.4432C136.001 37.4432 134.704 39.0353 134.704 41.0079C134.704 42.9804 136.001 44.5866 138.075 44.5866ZM138.075 43.6426C136.622 43.6426 135.804 42.4027 135.804 41.0079C135.804 39.6271 136.622 38.3872 138.075 38.3872C139.527 38.3872 140.331 39.6271 140.331 41.0079C140.331 42.4027 139.527 43.6426 138.075 43.6426Z" fill="#7685A8"/>
<path d="M145.369 44.4175V38.5422H146.751V37.6123H145.369V37.0909C145.369 36.2315 145.75 35.7524 146.441 35.7524C146.794 35.7524 147.062 35.8933 147.287 36.0906L147.725 35.4002C147.301 35.0057 146.822 34.8789 146.286 34.8789C145.073 34.8789 144.312 35.6961 144.312 37.0909V37.6123H143.183V38.5422H144.312V44.4175H145.369Z" fill="#7685A8"/>
<path d="M152.957 47.0805C153.154 47.1368 153.507 47.1791 153.733 47.1791C154.635 47.165 155.326 46.7846 155.735 45.7983L159.148 37.6123H157.992L155.735 43.1917L153.465 37.6123H152.322L155.171 44.488L154.72 45.5165C154.48 46.0801 154.17 46.2351 153.704 46.2351C153.535 46.2351 153.281 46.1928 153.126 46.1224L152.957 47.0805Z" fill="#7685A8"/>
<path d="M164.073 44.5866C166.146 44.5866 167.444 42.9804 167.444 41.0079C167.444 39.0353 166.146 37.4432 164.073 37.4432C162 37.4432 160.703 39.0353 160.703 41.0079C160.703 42.9804 162 44.5866 164.073 44.5866ZM164.073 43.6426C162.621 43.6426 161.803 42.4027 161.803 41.0079C161.803 39.6271 162.621 38.3872 164.073 38.3872C165.526 38.3872 166.33 39.6271 166.33 41.0079C166.33 42.4027 165.526 43.6426 164.073 43.6426Z" fill="#7685A8"/>
<path d="M175.669 44.4175V37.6123H174.612V42.6141C174.217 43.1636 173.427 43.6426 172.595 43.6426C171.678 43.6426 171.072 43.2904 171.072 42.0928V37.6123H170.014V42.4168C170.014 43.8962 170.762 44.5866 172.186 44.5866C173.201 44.5866 174.09 44.0512 174.612 43.4594V44.4175H175.669Z" fill="#7685A8"/>
<path d="M179.685 44.4175V39.5989C179.996 39.0494 180.884 38.514 181.533 38.514C181.702 38.514 181.829 38.5281 181.956 38.5563V37.4714C181.025 37.4714 180.235 37.9927 179.685 38.7112V37.6123H178.628V44.4175H179.685Z" fill="#7685A8"/>
<path d="M189.669 42.5718V39.4862C190.035 38.8944 190.867 38.3872 191.699 38.3872C193.081 38.3872 193.899 39.5144 193.899 41.0219C193.899 42.5295 193.081 43.6426 191.699 43.6426C190.867 43.6426 190.035 43.1636 189.669 42.5718ZM189.669 44.4175V43.4031C190.176 44.0935 191.008 44.5866 191.967 44.5866C193.744 44.5866 194.999 43.234 194.999 41.0219C194.999 38.8521 193.744 37.4432 191.967 37.4432C191.037 37.4432 190.219 37.894 189.669 38.6408V35.0198H188.611V44.4175H189.669Z" fill="#7685A8"/>
<path d="M203.224 44.4175V37.6123H202.166V42.6141C201.772 43.1636 200.982 43.6426 200.15 43.6426C199.233 43.6426 198.627 43.2904 198.627 42.0928V37.6123H197.569V42.4168C197.569 43.8962 198.316 44.5866 199.741 44.5866C200.756 44.5866 201.645 44.0512 202.166 43.4594V44.4175H203.224Z" fill="#7685A8"/>
<path d="M208.34 44.5866C210.103 44.5866 211.02 43.6708 211.02 42.5295C211.02 39.8807 206.803 40.867 206.803 39.3735C206.803 38.7676 207.381 38.3026 208.312 38.3026C209.186 38.3026 209.934 38.669 210.343 39.1621L210.836 38.4295C210.286 37.88 209.469 37.4432 208.312 37.4432C206.69 37.4432 205.774 38.3449 205.774 39.4016C205.774 41.9237 209.99 40.9092 209.99 42.5577C209.99 43.234 209.426 43.7271 208.383 43.7271C207.452 43.7271 206.592 43.2763 206.14 42.755L205.59 43.5158C206.281 44.2485 207.226 44.5866 208.34 44.5866Z" fill="#7685A8"/>
<path d="M214.106 36.6401C214.501 36.6401 214.825 36.3301 214.825 35.9356C214.825 35.5411 214.501 35.217 214.106 35.217C213.725 35.217 213.401 35.5411 213.401 35.9356C213.401 36.3301 213.725 36.6401 214.106 36.6401ZM214.642 44.4175V37.6123H213.584V44.4175H214.642Z" fill="#7685A8"/>
<path d="M223.253 44.4175V39.6412C223.253 38.1618 222.506 37.4432 221.081 37.4432C220.066 37.4432 219.135 38.0349 218.656 38.5985V37.6123H217.598V44.4175H218.656V39.4439C219.051 38.8944 219.84 38.3872 220.672 38.3872C221.589 38.3872 222.196 38.7676 222.196 39.9652V44.4175H223.253Z" fill="#7685A8"/>
<path d="M229.286 44.5866C230.4 44.5866 231.317 44.2203 231.994 43.544L231.486 42.8536C230.95 43.4031 230.16 43.7131 229.385 43.7131C227.918 43.7131 227.016 42.6422 226.931 41.3601H232.445V41.0924C232.445 39.0494 231.232 37.4432 229.173 37.4432C227.227 37.4432 225.817 39.0353 225.817 41.0079C225.817 43.1354 227.269 44.5866 229.286 44.5866ZM231.402 40.5852H226.931C226.987 39.5425 227.707 38.3167 229.159 38.3167C230.71 38.3167 231.387 39.5707 231.402 40.5852Z" fill="#7685A8"/>
<path d="M237.162 44.5866C238.925 44.5866 239.842 43.6708 239.842 42.5295C239.842 39.8807 235.625 40.867 235.625 39.3735C235.625 38.7676 236.203 38.3026 237.134 38.3026C238.008 38.3026 238.756 38.669 239.165 39.1621L239.658 38.4295C239.108 37.88 238.29 37.4432 237.134 37.4432C235.512 37.4432 234.595 38.3449 234.595 39.4016C234.595 41.9237 238.812 40.9092 238.812 42.5577C238.812 43.234 238.248 43.7271 237.204 43.7271C236.274 43.7271 235.413 43.2763 234.962 42.755L234.412 43.5158C235.103 44.2485 236.048 44.5866 237.162 44.5866Z" fill="#7685A8"/>
<path d="M244.564 44.5866C246.327 44.5866 247.243 43.6708 247.243 42.5295C247.243 39.8807 243.027 40.867 243.027 39.3735C243.027 38.7676 243.605 38.3026 244.536 38.3026C245.41 38.3026 246.157 38.669 246.566 39.1621L247.06 38.4295C246.51 37.88 245.692 37.4432 244.536 37.4432C242.914 37.4432 241.997 38.3449 241.997 39.4016C241.997 41.9237 246.214 40.9092 246.214 42.5577C246.214 43.234 245.65 43.7271 244.606 43.7271C243.675 43.7271 242.815 43.2763 242.364 42.755L241.814 43.5158C242.505 44.2485 243.45 44.5866 244.564 44.5866Z" fill="#7685A8"/>
<path d="M87.5193 29.0071L92.7021 11.9939H88.0482L84.8751 23.4417L81.1378 11.9939H77.1538L73.4166 23.4417L70.2435 11.9939H65.5896L70.7723 29.0071H75.5673L79.1635 17.4184L82.7596 29.0071H87.5193Z" fill="#1F2B45"/>
<path d="M103.616 29.4298C106.26 29.4298 108.94 28.6197 110.632 27.0698L108.658 24.1814C107.565 25.2382 105.555 25.8722 104.11 25.8722C101.218 25.8722 99.4909 24.0758 99.2089 21.9271H111.866V20.9408C111.866 15.3754 108.411 11.5712 103.334 11.5712C98.1512 11.5712 94.5197 15.5515 94.5197 20.4829C94.5197 25.9426 98.4332 29.4298 103.616 29.4298ZM107.529 18.8978H99.1383C99.3499 17.2071 100.549 15.1289 103.334 15.1289C106.295 15.1289 107.424 17.2775 107.529 18.8978Z" fill="#1F2B45"/>
<path d="M120.283 23.5474V17.5241C121.023 16.3969 122.681 15.5515 124.126 15.5515C126.735 15.5515 128.463 17.5593 128.463 20.5181C128.463 23.477 126.735 25.4495 124.126 25.4495C122.681 25.4495 121.023 24.6393 120.283 23.5474ZM120.283 29.0071V26.8232C121.623 28.514 123.491 29.4298 125.536 29.4298C129.838 29.4298 133.081 26.1892 133.081 20.5181C133.081 14.9527 129.873 11.5712 125.536 11.5712C123.527 11.5712 121.623 12.4518 120.283 14.1778V5.51269H115.805V29.0071H120.283Z" fill="#1F2B45"/>
<path d="M145.066 29.4298C150.707 29.4298 154.092 25.3438 154.092 20.4829C154.092 15.6572 150.707 11.5712 145.066 11.5712C139.461 11.5712 136.076 15.6572 136.076 20.4829C136.076 25.3438 139.461 29.4298 145.066 29.4298ZM145.066 25.4495C142.281 25.4495 140.73 23.1599 140.73 20.4829C140.73 17.8411 142.281 15.5515 145.066 15.5515C147.852 15.5515 149.438 17.8411 149.438 20.4829C149.438 23.1599 147.852 25.4495 145.066 25.4495Z" fill="#1F2B45"/>
<path d="M162.597 29.0071V5.51269H158.119V29.0071H162.597Z" fill="#1F2B45"/>
<path d="M183.713 29.0071V11.9939H179.235V23.5122C178.46 24.4985 177.085 25.4495 175.357 25.4495C173.453 25.4495 172.219 24.6746 172.219 22.3146V11.9939H167.742V24.0758C167.742 27.3868 169.505 29.4298 173.242 29.4298C176.027 29.4298 178.072 28.1618 179.235 26.8585V29.0071H183.713Z" fill="#1F2B45"/>
<path d="M194.576 29.4298C196.444 29.4298 197.643 28.9367 198.313 28.3379L197.361 24.9564C197.114 25.2029 196.48 25.4495 195.81 25.4495C194.822 25.4495 194.258 24.6394 194.258 23.5826V15.9038H197.714V11.9939H194.258V7.34434H189.745V11.9939H186.925V15.9038H189.745V24.7802C189.745 27.8095 191.438 29.4298 194.576 29.4298Z" fill="#1F2B45"/>
<path d="M203.703 10.1623C205.184 10.1623 206.383 8.96465 206.383 7.48524C206.383 6.00582 205.184 4.84343 203.703 4.84343C202.258 4.84343 201.024 6.00582 201.024 7.48524C201.024 8.96465 202.258 10.1623 203.703 10.1623ZM205.96 29.0071V11.9939H201.482V29.0071H205.96Z" fill="#1F2B45"/>
<path d="M219.002 29.4298C224.643 29.4298 228.028 25.3438 228.028 20.4829C228.028 15.6572 224.643 11.5712 219.002 11.5712C213.396 11.5712 210.012 15.6572 210.012 20.4829C210.012 25.3438 213.396 29.4298 219.002 29.4298ZM219.002 25.4495C216.217 25.4495 214.666 23.1599 214.666 20.4829C214.666 17.8411 216.217 15.5515 219.002 15.5515C221.788 15.5515 223.374 17.8411 223.374 20.4829C223.374 23.1599 221.788 25.4495 219.002 25.4495Z" fill="#1F2B45"/>
<path d="M248.026 29.0071V16.9957C248.026 13.6847 246.228 11.5712 242.491 11.5712C239.706 11.5712 237.626 12.9097 236.533 14.213V11.9939H232.055V29.0071H236.533V17.5593C237.273 16.5378 238.648 15.5515 240.411 15.5515C242.315 15.5515 243.549 16.3617 243.549 18.7217V29.0071H248.026Z" fill="#1F2B45"/>
<g clip-path="url(#clip0)">
<path d="M259.999 9.17097L259.989 9.06809C259.983 8.9985 259.977 8.92842 259.969 8.86083C259.879 8.0055 259.588 7.21801 259.107 6.52089C258.391 5.48308 257.41 4.78621 256.191 4.44978C255.863 4.35892 255.517 4.3036 255.16 4.28507L255.105 4.27631L254.631 4.27681L254.317 4.3066C253.682 4.37394 253.08 4.55416 252.527 4.84253C251.4 5.43402 250.584 6.3314 250.102 7.51013C249.915 7.97071 249.799 8.46208 249.758 8.96696C249.75 9.0358 249.742 9.10439 249.737 9.18298L249.737 9.64457L249.747 9.74619C249.753 9.81628 249.759 9.88662 249.768 9.95471C249.857 10.8063 250.147 11.5925 250.627 12.2914C251.244 13.192 252.074 13.8418 253.095 14.2228C253.659 14.4333 254.243 14.54 254.831 14.54C254.929 14.54 255.027 14.537 255.126 14.5312C256.612 14.4426 257.853 13.8201 258.816 12.6801C259.402 11.9873 259.776 11.173 259.925 10.2618C259.947 10.1399 259.959 10.0168 259.971 9.89363C259.977 9.8283 259.984 9.76296 259.994 9.6746L260 9.64532L259.999 9.17097ZM254.877 5.07432L254.883 5.19922C257.199 5.20223 259.081 7.09211 259.078 9.41177C259.073 11.7312 257.186 13.6181 254.866 13.6181C253.742 13.6168 252.685 13.1778 251.89 12.382C251.096 11.5865 250.659 10.5299 250.66 9.40752C250.663 7.0871 252.554 5.19922 254.877 5.19922V5.07432Z" fill="#1F2B45"/>
<path d="M252.82 6.62935C252.805 6.62935 252.792 6.6311 252.771 6.63436L252.66 6.64712V12.4479H253.606V9.97556L253.971 9.97481C254.08 9.97481 254.189 9.97506 254.304 9.97656C254.415 9.97806 254.53 9.97932 254.633 9.99809C254.812 10.0299 254.964 10.1202 255.084 10.2667C255.206 10.4146 255.362 10.6116 255.495 10.8239C255.743 11.2174 255.985 11.6154 256.227 12.0134L256.433 12.3533C256.451 12.3801 256.499 12.4514 256.604 12.4514H256.606C256.75 12.4504 256.893 12.4504 257.036 12.4504H257.391C257.406 12.4504 257.418 12.4492 257.45 12.4457L257.642 12.4294L257.549 12.2604C257.534 12.2347 257.523 12.2166 257.513 12.2011L257.31 11.8644C257.163 11.6211 257.016 11.3781 256.867 11.1363C256.706 10.8777 256.539 10.6104 256.36 10.3563C256.212 10.145 256.05 9.97656 255.864 9.8454C255.916 9.83213 255.967 9.81786 256.017 9.80209C256.438 9.66968 256.744 9.43138 256.928 9.09295C257.198 8.59658 257.213 8.06716 256.973 7.51897C256.8 7.12498 256.517 6.86515 256.132 6.7465C255.879 6.6699 255.6 6.63361 255.252 6.63211C254.702 6.6296 254.154 6.62935 253.605 6.62935H252.82ZM253.606 9.08895V7.49719H254.148C254.527 7.49719 254.904 7.49769 255.282 7.5027C255.391 7.5042 255.513 7.52398 255.645 7.56178C255.954 7.64989 256.151 7.90671 256.16 8.23237C256.169 8.55578 256.053 8.78632 255.804 8.93751C255.685 9.00985 255.544 9.05115 255.358 9.06742C255.211 9.08018 255.061 9.08719 254.91 9.08819C254.717 9.0892 254.526 9.0897 254.334 9.0897L253.606 9.08895Z" fill="#1F2B45"/>
</g>
<defs>
<linearGradient id="paint0_linear" x1="-0.100965" y1="9.93056" x2="35.2766" y2="41.3728" gradientUnits="userSpaceOnUse">
<stop stop-color="#F97695"/>
<stop offset="1" stop-color="#FEDD44"/>
</linearGradient>
<linearGradient id="paint1_linear" x1="47.5641" y1="-1.83761" x2="21.2167" y2="33.12" gradientUnits="userSpaceOnUse">
<stop stop-color="#4AB1FE"/>
<stop offset="1" stop-color="#07EBFE"/>
</linearGradient>
<linearGradient id="paint2_linear" x1="38.9965" y1="52.1442" x2="33.0376" y2="9.66908" gradientUnits="userSpaceOnUse">
<stop stop-color="#F3648A"/>
<stop offset="1" stop-color="#FF83D4"/>
</linearGradient>
<clipPath id="clip0">
<rect width="10.2632" height="10.2637" fill="white" transform="translate(249.737 4.27631)"/>
</clipPath>
</defs>
</svg>
