<svg width="104" height="35" viewBox="0 0 104 35" fill="none" xmlns="http://www.w3.org/2000/svg">
<path fill-rule="evenodd" clip-rule="evenodd" d="M90.3353 14.3574L94.5398 26.1884H86.1926L90.3353 14.3574ZM97.8787 35H104L90.3353 0L76.7325 35H82.9156L84.3377 31.0563H96.3948L97.8787 35ZM60.0999 29.4542V6.53169C60.0999 6.53169 74.2592 4.375 74.2592 17.993C74.2592 31.4261 60.0999 29.4542 60.0999 29.4542ZM54.3496 0.985915V35H60.0999C68.5707 35 80.0095 32.5352 80.0095 17.993C80.0095 2.89613 68.3853 0.985915 60.0999 0.985915H54.3496ZM35.1819 6.65493H39.7574C39.7574 6.65493 45.4459 6.65493 45.4459 10.9067C45.4459 14.2342 41.9834 14.9736 40.4994 15.1585L35.1819 6.65493ZM52.9275 35L43.6528 20.2113C46.9298 19.287 51.1344 16.9454 51.1344 10.9067C51.1344 0.985915 39.7574 0.985915 39.7574 0.985915H28.3805V6.65493L33.7598 15.1585H28.3805V35H34.069V20.8275H37.346L46.2497 35H52.9275ZM13.6029 14.3574L17.7455 26.1884H9.46017L13.6029 14.3574ZM21.0844 35H27.2675L13.6029 0L0 35H6.12128L7.60523 31.0563H19.6005L21.0844 35Z" fill="white"/>
</svg>
