<svg width="232" height="46" viewBox="0 0 232 46" fill="none" xmlns="http://www.w3.org/2000/svg">
<path fill-rule="evenodd" clip-rule="evenodd" d="M0 16.2734L4.36371 8.59326H12.6977L8.33658 16.2669L16.3839 30.1569L26.8722 30.0681L34.2099 17.4033L38.4177 24.5265L38.4108 24.538L31.0393 37.2616L16.3668 37.383L16.3603 37.3726L12.2443 37.4065L0 16.2734Z" fill="url(#paint0_linear_1124:675)"/>
<path fill-rule="evenodd" clip-rule="evenodd" d="M0 16.2734L4.36371 8.59326H12.6977L8.33658 16.2669L16.3839 30.1569L26.8722 30.0681L34.2099 17.4033L38.4177 24.5265L38.4108 24.538L31.0393 37.2616L16.3668 37.383L16.3603 37.3726L12.2443 37.4065L0 16.2734Z" fill="white"/>
<path fill-rule="evenodd" clip-rule="evenodd" d="M44.0155 0L48.528 7.54972L44.3429 14.6889L39.8347 7.14433H23.6701L18.4805 16.173L25.8502 28.7445L17.5205 28.8132L17.5139 28.8016L10.1104 16.1717L17.3708 3.54316H17.3836L19.4212 0H44.0155Z" fill="url(#paint1_linear_1124:675)"/>
<path fill-rule="evenodd" clip-rule="evenodd" d="M44.0155 0L48.528 7.54972L44.3429 14.6889L39.8347 7.14433H23.6701L18.4805 16.173L25.8502 28.7445L17.5205 28.8132L17.5139 28.8016L10.1104 16.1717L17.3708 3.54316H17.3836L19.4212 0H44.0155Z" fill="white"/>
<path fill-rule="evenodd" clip-rule="evenodd" d="M46.4437 21.2226L46.4499 21.2108L39.0231 8.59326H24.3117H24.2973L20.2197 15.7955H34.8648L40.1755 24.8153L32.1452 38.7245L23.3127 38.7977L27.471 45.9999L36.3084 45.9254L48.5275 24.7627L46.4437 21.2226Z" fill="url(#paint2_linear_1124:675)"/>
<path fill-rule="evenodd" clip-rule="evenodd" d="M46.4437 21.2226L46.4499 21.2108L39.0231 8.59326H24.3117H24.2973L20.2197 15.7955H34.8648L40.1755 24.8153L32.1452 38.7245L23.3127 38.7977L27.471 45.9999L36.3084 45.9254L48.5275 24.7627L46.4437 21.2226Z" fill="white"/>
<path d="M63.0385 39.3129C64.0199 39.3129 64.8274 38.9899 65.4237 38.3936L64.9765 37.7849C64.5044 38.2694 63.8087 38.5427 63.1255 38.5427C61.8335 38.5427 61.0384 37.5985 60.9638 36.468H65.8213V36.232C65.8213 34.4306 64.7529 33.0144 62.9391 33.0144C61.2247 33.0144 59.9824 34.4182 59.9824 36.1574C59.9824 38.0333 61.262 39.3129 63.0385 39.3129ZM64.902 35.7848H60.9638C61.0135 34.8654 61.6471 33.7846 62.9267 33.7846C64.2932 33.7846 64.8895 34.8903 64.902 35.7848Z" fill="#C0C6D5"/>
<path d="M70.697 39.1638L73.1941 33.1635H72.1754L70.1877 38.083L68.1876 33.1635H67.1813L69.6783 39.1638H70.697Z" fill="#C0C6D5"/>
<path d="M77.5326 39.3129C79.3588 39.3129 80.5017 37.8967 80.5017 36.1574C80.5017 34.4182 79.3588 33.0144 77.5326 33.0144C75.7064 33.0144 74.5635 34.4182 74.5635 36.1574C74.5635 37.8967 75.7064 39.3129 77.5326 39.3129ZM77.5326 38.4806C76.253 38.4806 75.5325 37.3873 75.5325 36.1574C75.5325 34.94 76.253 33.8468 77.5326 33.8468C78.8122 33.8468 79.5203 34.94 79.5203 36.1574C79.5203 37.3873 78.8122 38.4806 77.5326 38.4806Z" fill="#C0C6D5"/>
<path d="M83.6977 39.1638V30.8776H82.766V39.1638H83.6977Z" fill="#C0C6D5"/>
<path d="M91.2834 39.1638V33.1635H90.3517V37.5737C90.0038 38.0582 89.3081 38.4806 88.5752 38.4806C87.7677 38.4806 87.2335 38.17 87.2335 37.114V33.1635H86.3017V37.3998C86.3017 38.7042 86.9602 39.3129 88.2149 39.3129C89.1093 39.3129 89.892 38.8408 90.3517 38.3191V39.1638H91.2834Z" fill="#C0C6D5"/>
<path d="M95.4051 39.3129C95.9517 39.3129 96.2872 39.1514 96.5232 38.9278L96.2499 38.2321C96.1257 38.3688 95.8772 38.4806 95.6163 38.4806C95.2063 38.4806 95.0076 38.1576 95.0076 37.7103V33.9834H96.225V33.1635H95.0076V31.5236H94.0759V33.1635H93.082V33.9834H94.0759V37.9091C94.0759 38.8036 94.5231 39.3129 95.4051 39.3129Z" fill="#C0C6D5"/>
<path d="M98.7462 32.3063C99.0941 32.3063 99.3798 32.033 99.3798 31.6851C99.3798 31.3373 99.0941 31.0516 98.7462 31.0516C98.4108 31.0516 98.1251 31.3373 98.1251 31.6851C98.1251 32.033 98.4108 32.3063 98.7462 32.3063ZM99.2183 39.1638V33.1635H98.2866V39.1638H99.2183Z" fill="#C0C6D5"/>
<path d="M104.444 39.3129C106.27 39.3129 107.413 37.8967 107.413 36.1574C107.413 34.4182 106.27 33.0144 104.444 33.0144C102.617 33.0144 101.474 34.4182 101.474 36.1574C101.474 37.8967 102.617 39.3129 104.444 39.3129ZM104.444 38.4806C103.164 38.4806 102.443 37.3873 102.443 36.1574C102.443 34.94 103.164 33.8468 104.444 33.8468C105.723 33.8468 106.431 34.94 106.431 36.1574C106.431 37.3873 105.723 38.4806 104.444 38.4806Z" fill="#C0C6D5"/>
<path d="M114.659 39.1638V34.9524C114.659 33.648 114 33.0144 112.745 33.0144C111.851 33.0144 111.031 33.5362 110.609 34.0331V33.1635H109.677V39.1638H110.609V34.7785C110.957 34.294 111.652 33.8468 112.385 33.8468C113.193 33.8468 113.727 34.1822 113.727 35.2381V39.1638H114.659Z" fill="#C0C6D5"/>
<path d="M123.834 39.3129C125.66 39.3129 126.803 37.8967 126.803 36.1574C126.803 34.4182 125.66 33.0144 123.834 33.0144C122.008 33.0144 120.865 34.4182 120.865 36.1574C120.865 37.8967 122.008 39.3129 123.834 39.3129ZM123.834 38.4806C122.555 38.4806 121.834 37.3873 121.834 36.1574C121.834 34.94 122.555 33.8468 123.834 33.8468C125.114 33.8468 125.822 34.94 125.822 36.1574C125.822 37.3873 125.114 38.4806 123.834 38.4806Z" fill="#C0C6D5"/>
<path d="M130.26 39.1638V33.9834H131.478V33.1635H130.26V32.7038C130.26 31.946 130.596 31.5236 131.204 31.5236C131.515 31.5236 131.751 31.6479 131.95 31.8218L132.335 31.2131C131.962 30.8652 131.54 30.7534 131.068 30.7534C129.999 30.7534 129.329 31.474 129.329 32.7038V33.1635H128.335V33.9834H129.329V39.1638H130.26Z" fill="#C0C6D5"/>
<path d="M136.944 41.5118C137.118 41.5615 137.429 41.5987 137.627 41.5987C138.422 41.5863 139.031 41.2509 139.391 40.3813L142.398 33.1635H141.379L139.391 38.083L137.391 33.1635H136.385L138.894 39.2259L138.497 40.1328C138.286 40.6297 138.012 40.7664 137.602 40.7664C137.453 40.7664 137.23 40.7291 137.093 40.667L136.944 41.5118Z" fill="#C0C6D5"/>
<path d="M146.736 39.3129C148.563 39.3129 149.705 37.8967 149.705 36.1574C149.705 34.4182 148.563 33.0144 146.736 33.0144C144.91 33.0144 143.767 34.4182 143.767 36.1574C143.767 37.8967 144.91 39.3129 146.736 39.3129ZM146.736 38.4806C145.457 38.4806 144.736 37.3873 144.736 36.1574C144.736 34.94 145.457 33.8468 146.736 33.8468C148.016 33.8468 148.724 34.94 148.724 36.1574C148.724 37.3873 148.016 38.4806 146.736 38.4806Z" fill="#C0C6D5"/>
<path d="M156.951 39.1638V33.1635H156.02V37.5737C155.672 38.0582 154.976 38.4806 154.243 38.4806C153.436 38.4806 152.901 38.17 152.901 37.114V33.1635H151.97V37.3998C151.97 38.7042 152.628 39.3129 153.883 39.3129C154.777 39.3129 155.56 38.8408 156.02 38.3191V39.1638H156.951Z" fill="#C0C6D5"/>
<path d="M160.489 39.1638V34.9151C160.763 34.4306 161.545 33.9586 162.117 33.9586C162.266 33.9586 162.378 33.971 162.489 33.9958V33.0393C161.669 33.0393 160.974 33.4989 160.489 34.1325V33.1635H159.557V39.1638H160.489Z" fill="#C0C6D5"/>
<path d="M169.283 37.5364V34.8158C169.606 34.294 170.339 33.8468 171.072 33.8468C172.29 33.8468 173.01 34.8406 173.01 36.1699C173.01 37.4991 172.29 38.4806 171.072 38.4806C170.339 38.4806 169.606 38.0582 169.283 37.5364ZM169.283 39.1638V38.2694C169.731 38.8781 170.464 39.3129 171.308 39.3129C172.874 39.3129 173.979 38.1203 173.979 36.1699C173.979 34.2567 172.874 33.0144 171.308 33.0144C170.488 33.0144 169.768 33.412 169.283 34.0704V30.8776H168.352V39.1638H169.283Z" fill="#C0C6D5"/>
<path d="M181.224 39.1638V33.1635H180.293V37.5737C179.945 38.0582 179.249 38.4806 178.516 38.4806C177.709 38.4806 177.174 38.17 177.174 37.114V33.1635H176.243V37.3998C176.243 38.7042 176.901 39.3129 178.156 39.3129C179.05 39.3129 179.833 38.8408 180.293 38.3191V39.1638H181.224Z" fill="#C0C6D5"/>
<path d="M185.731 39.3129C187.284 39.3129 188.092 38.5054 188.092 37.4991C188.092 35.1636 184.377 36.0332 184.377 34.7164C184.377 34.1822 184.886 33.7722 185.706 33.7722C186.477 33.7722 187.135 34.0952 187.495 34.53L187.93 33.884C187.446 33.3995 186.725 33.0144 185.706 33.0144C184.278 33.0144 183.47 33.8095 183.47 34.7412C183.47 36.9649 187.185 36.0705 187.185 37.524C187.185 38.1203 186.688 38.5551 185.768 38.5551C184.949 38.5551 184.191 38.1576 183.793 37.6979L183.309 38.3688C183.917 39.0148 184.75 39.3129 185.731 39.3129Z" fill="#C0C6D5"/>
<path d="M190.81 32.3063C191.158 32.3063 191.444 32.033 191.444 31.6851C191.444 31.3373 191.158 31.0516 190.81 31.0516C190.475 31.0516 190.189 31.3373 190.189 31.6851C190.189 32.033 190.475 32.3063 190.81 32.3063ZM191.282 39.1638V33.1635H190.351V39.1638H191.282Z" fill="#C0C6D5"/>
<path d="M198.868 39.1638V34.9524C198.868 33.648 198.21 33.0144 196.955 33.0144C196.06 33.0144 195.24 33.5362 194.818 34.0331V33.1635H193.886V39.1638H194.818V34.7785C195.166 34.294 195.862 33.8468 196.595 33.8468C197.402 33.8468 197.936 34.1822 197.936 35.2381V39.1638H198.868Z" fill="#C0C6D5"/>
<path d="M204.182 39.3129C205.164 39.3129 205.971 38.9899 206.568 38.3936L206.12 37.7849C205.648 38.2694 204.953 38.5427 204.269 38.5427C202.977 38.5427 202.182 37.5985 202.108 36.468H206.965V36.232C206.965 34.4306 205.897 33.0144 204.083 33.0144C202.369 33.0144 201.126 34.4182 201.126 36.1574C201.126 38.0333 202.406 39.3129 204.182 39.3129ZM206.046 35.7848H202.108C202.157 34.8654 202.791 33.7846 204.071 33.7846C205.437 33.7846 206.033 34.8903 206.046 35.7848Z" fill="#C0C6D5"/>
<path d="M211.12 39.3129C212.673 39.3129 213.481 38.5054 213.481 37.4991C213.481 35.1636 209.766 36.0332 209.766 34.7164C209.766 34.1822 210.276 33.7722 211.096 33.7722C211.866 33.7722 212.524 34.0952 212.884 34.53L213.319 33.884C212.835 33.3995 212.114 33.0144 211.096 33.0144C209.667 33.0144 208.859 33.8095 208.859 34.7412C208.859 36.9649 212.574 36.0705 212.574 37.524C212.574 38.1203 212.077 38.5551 211.158 38.5551C210.338 38.5551 209.58 38.1576 209.182 37.6979L208.698 38.3688C209.307 39.0148 210.139 39.3129 211.12 39.3129Z" fill="#C0C6D5"/>
<path d="M217.641 39.3129C219.193 39.3129 220.001 38.5054 220.001 37.4991C220.001 35.1636 216.286 36.0332 216.286 34.7164C216.286 34.1822 216.796 33.7722 217.616 33.7722C218.386 33.7722 219.044 34.0952 219.405 34.53L219.839 33.884C219.355 33.3995 218.634 33.0144 217.616 33.0144C216.187 33.0144 215.38 33.8095 215.38 34.7412C215.38 36.9649 219.094 36.0705 219.094 37.524C219.094 38.1203 218.597 38.5551 217.678 38.5551C216.858 38.5551 216.1 38.1576 215.703 37.6979L215.218 38.3688C215.827 39.0148 216.659 39.3129 217.641 39.3129Z" fill="#C0C6D5"/>
<path d="M77.1626 25.5761L81.7281 10.5752H77.6284L74.8333 20.6689L71.5411 10.5752H68.0316L64.7395 20.6689L61.9443 10.5752H57.8447L62.4102 25.5761H66.634L69.8019 15.3581L72.9698 25.5761H77.1626Z" fill="white"/>
<path d="M91.3421 25.9487C93.6714 25.9487 96.0318 25.2344 97.5226 23.8679L95.7833 21.3212C94.8205 22.2529 93.0503 22.8119 91.7769 22.8119C89.2302 22.8119 87.7083 21.228 87.4599 19.3335H98.6096V18.4639C98.6096 13.5567 95.5659 10.2025 91.0936 10.2025C86.5282 10.2025 83.3292 13.712 83.3292 18.0601C83.3292 22.874 86.7766 25.9487 91.3421 25.9487ZM94.7895 16.6625H87.3978C87.5841 15.1717 88.6401 13.3393 91.0936 13.3393C93.7025 13.3393 94.6963 15.2339 94.7895 16.6625Z" fill="white"/>
<path d="M106.024 20.7621V15.4513C106.676 14.4574 108.136 13.712 109.409 13.712C111.708 13.712 113.229 15.4823 113.229 18.0912C113.229 20.7 111.708 22.4392 109.409 22.4392C108.136 22.4392 106.676 21.7249 106.024 20.7621ZM106.024 25.5761V23.6505C107.204 25.1412 108.85 25.9487 110.652 25.9487C114.441 25.9487 117.298 23.0914 117.298 18.0912C117.298 13.1841 114.472 10.2025 110.652 10.2025C108.881 10.2025 107.204 10.979 106.024 12.5008V4.8606H102.08V25.5761H106.024Z" fill="white"/>
<path d="M127.856 25.9487C132.825 25.9487 135.806 22.3461 135.806 18.0601C135.806 13.8052 132.825 10.2025 127.856 10.2025C122.918 10.2025 119.936 13.8052 119.936 18.0601C119.936 22.3461 122.918 25.9487 127.856 25.9487ZM127.856 22.4392C125.402 22.4392 124.036 20.4205 124.036 18.0601C124.036 15.7308 125.402 13.712 127.856 13.712C130.309 13.712 131.707 15.7308 131.707 18.0601C131.707 20.4205 130.309 22.4392 127.856 22.4392Z" fill="white"/>
<path d="M143.298 25.5761V4.8606H139.354V25.5761H143.298Z" fill="white"/>
<path d="M161.899 25.5761V10.5752H157.955V20.7311C157.272 21.6007 156.061 22.4392 154.539 22.4392C152.862 22.4392 151.775 21.756 151.775 19.6751V10.5752H147.83V21.228C147.83 24.1474 149.383 25.9487 152.675 25.9487C155.129 25.9487 156.93 24.8307 157.955 23.6815V25.5761H161.899Z" fill="white"/>
<path d="M171.468 25.9487C173.114 25.9487 174.17 25.5139 174.76 24.986L173.922 22.0044C173.705 22.2218 173.145 22.4392 172.555 22.4392C171.686 22.4392 171.189 21.7249 171.189 20.7932V14.0226H174.233V10.5752H171.189V6.4756H167.213V10.5752H164.729V14.0226H167.213V21.8491C167.213 24.5201 168.704 25.9487 171.468 25.9487Z" fill="white"/>
<path d="M179.509 8.96021C180.813 8.96021 181.869 7.90425 181.869 6.59983C181.869 5.29541 180.813 4.27051 179.509 4.27051C178.236 4.27051 177.149 5.29541 177.149 6.59983C177.149 7.90425 178.236 8.96021 179.509 8.96021ZM181.497 25.5761V10.5752H177.552V25.5761H181.497Z" fill="white"/>
<path d="M192.986 25.9487C197.955 25.9487 200.936 22.3461 200.936 18.0601C200.936 13.8052 197.955 10.2025 192.986 10.2025C188.048 10.2025 185.066 13.8052 185.066 18.0601C185.066 22.3461 188.048 25.9487 192.986 25.9487ZM192.986 22.4392C190.532 22.4392 189.166 20.4205 189.166 18.0601C189.166 15.7308 190.532 13.712 192.986 13.712C195.439 13.712 196.837 15.7308 196.837 18.0601C196.837 20.4205 195.439 22.4392 192.986 22.4392Z" fill="white"/>
<path d="M218.553 25.5761V14.9854C218.553 12.066 216.969 10.2025 213.677 10.2025C211.223 10.2025 209.391 11.3827 208.428 12.5318V10.5752H204.484V25.5761H208.428V15.4823C209.08 14.5816 210.292 13.712 211.845 13.712C213.522 13.712 214.609 14.4264 214.609 16.5072V25.5761H218.553Z" fill="white"/>
<path d="M231.999 10.7689L231.99 10.6687C231.984 10.6009 231.978 10.5326 231.97 10.4667C231.882 9.63339 231.599 8.86613 231.13 8.18691C230.433 7.17577 229.477 6.49679 228.289 6.16901C227.969 6.08048 227.632 6.02658 227.284 6.00854L227.23 6L226.769 6.00049L226.462 6.02951C225.844 6.09511 225.257 6.27071 224.719 6.55167C223.62 7.12797 222.825 8.00229 222.355 9.15075C222.173 9.59949 222.06 10.0782 222.02 10.5702C222.013 10.6372 222.005 10.704 222 10.7806L222 11.2303L222.01 11.3294C222.016 11.3977 222.022 11.4662 222.03 11.5325C222.117 12.3622 222.4 13.1283 222.868 13.8092C223.469 14.6867 224.277 15.3198 225.272 15.691C225.822 15.8961 226.391 16 226.964 16C227.059 16 227.155 15.9971 227.251 15.9915C228.699 15.9051 229.908 15.2986 230.847 14.1879C231.418 13.5129 231.781 12.7195 231.927 11.8318C231.948 11.713 231.96 11.593 231.972 11.473C231.978 11.4094 231.984 11.3457 231.995 11.2596L232 11.2311L231.999 10.7689ZM227.008 6.7775L227.014 6.8992C229.271 6.90213 231.104 8.74346 231.102 11.0035C231.097 13.2634 229.258 15.1018 226.997 15.1018C225.902 15.1006 224.873 14.6728 224.098 13.8975C223.324 13.1224 222.899 12.093 222.9 10.9994C222.902 8.73858 224.745 6.8992 227.008 6.8992V6.7775Z" fill="white"/>
<path d="M225.005 8.29248C224.99 8.29248 224.977 8.29419 224.956 8.29736L224.849 8.3098V13.9616H225.771V11.5527L226.125 11.552C226.232 11.552 226.338 11.5522 226.45 11.5537C226.558 11.5552 226.67 11.5564 226.771 11.5747C226.945 11.6057 227.093 11.6937 227.21 11.8364C227.329 11.9805 227.481 12.1724 227.611 12.3793C227.853 12.7626 228.088 13.1504 228.324 13.5382L228.525 13.8694C228.542 13.8955 228.589 13.965 228.691 13.965H228.693C228.833 13.964 228.973 13.964 229.112 13.964H229.459C229.472 13.964 229.485 13.9628 229.515 13.9594L229.703 13.9435L229.612 13.7789C229.598 13.7538 229.587 13.7362 229.577 13.7211L229.379 13.3931C229.236 13.156 229.093 12.9192 228.948 12.6836C228.79 12.4317 228.628 12.1712 228.454 11.9237C228.31 11.7178 228.151 11.5537 227.971 11.4259C228.021 11.413 228.071 11.3991 228.12 11.3837C228.53 11.2547 228.828 11.0225 229.007 10.6928C229.27 10.2092 229.285 9.69335 229.051 9.15925C228.883 8.77537 228.607 8.52222 228.231 8.40662C227.985 8.33199 227.713 8.29663 227.374 8.29516C226.839 8.29272 226.304 8.29248 225.769 8.29248H225.005ZM225.771 10.6889V9.13803H226.299C226.667 9.13803 227.035 9.13852 227.403 9.14339C227.509 9.14486 227.628 9.16412 227.757 9.20095C228.058 9.2868 228.25 9.53702 228.258 9.85432C228.268 10.1694 228.154 10.394 227.912 10.5413C227.796 10.6118 227.658 10.6521 227.477 10.6679C227.334 10.6804 227.188 10.6872 227.041 10.6882C226.853 10.6891 226.666 10.6896 226.479 10.6896L225.771 10.6889Z" fill="white"/>
<defs>
<linearGradient id="paint0_linear_1124:675" x1="-0.0889396" y1="8.75585" x2="31.1007" y2="36.4502" gradientUnits="userSpaceOnUse">
<stop stop-color="#F97695"/>
<stop offset="1" stop-color="#FEDD44"/>
</linearGradient>
<linearGradient id="paint1_linear_1124:675" x1="41.8997" y1="-1.62025" x2="18.6628" y2="29.1817" gradientUnits="userSpaceOnUse">
<stop stop-color="#4AB1FE"/>
<stop offset="1" stop-color="#07EBFE"/>
</linearGradient>
<linearGradient id="paint2_linear_1124:675" x1="34.352" y1="45.9764" x2="29.0933" y2="8.52665" gradientUnits="userSpaceOnUse">
<stop stop-color="#F3648A"/>
<stop offset="1" stop-color="#FF83D4"/>
</linearGradient>
</defs>
</svg>
