<svg width="130" height="30" viewBox="0 0 130 30" fill="none" xmlns="http://www.w3.org/2000/svg">
<path fill-rule="evenodd" clip-rule="evenodd" d="M18.1499 21.3838C18.1499 26.0955 14.5298 29.5125 8.77948 29.5125C5.44516 29.4168 2.28532 27.9468 0 25.4284L1.92314 23.2238C3.72313 25.0002 5.84105 26.7267 8.74142 26.7267C11.9631 26.7267 15.4365 24.8541 15.4365 21.4916C15.4365 18.6989 13.2951 16.8772 8.79514 15.4408C3.66717 13.8164 1.06231 11.6119 1.06231 7.46747C1.06231 3.36593 4.41156 0 9.18358 0C12.7478 0 14.9776 1.57447 17.1481 3.58639L15.2575 5.76188C13.3544 4.01451 11.541 2.82989 9.31566 2.82989C6.55522 2.82989 3.83059 4.67472 3.83059 7.33056C3.83059 9.73695 5.16492 11.2697 9.87536 12.7641C14.1896 14.1413 18.1499 16.2751 18.1499 21.3825V21.3838ZM41.4258 2.71751C41.4258 4.00974 42.4361 5.05731 43.6825 5.05731C44.2811 5.05761 44.8553 4.8112 45.2785 4.37233C45.7019 3.93347 45.9395 3.33815 45.9392 2.71751C45.9392 1.42528 44.9288 0.377719 43.6825 0.377719C42.4361 0.377719 41.4258 1.42528 41.4258 2.71751ZM63.2643 0.857279H60.544V29.0504H63.2643V0.857279ZM69.6127 28.1119C69.6127 28.1119 71.2873 29.5216 76.8664 29.5216L76.863 29.5205C82.3705 29.5205 86.8403 25.3458 86.8403 19.642C86.8403 13.9381 82.3738 9.77973 76.8664 9.77973C75.3041 9.73636 73.7532 10.065 72.3329 10.7404V0.857279H69.6127V28.1119ZM90.0162 19.6667C90.0158 25.3731 94.4786 29.9993 99.9844 30C105.49 30 109.954 25.3742 109.955 19.6675C109.955 13.9611 105.492 9.33522 99.9858 9.335C94.4801 9.3348 90.0165 13.9604 90.0162 19.6667ZM126.449 29.0591H130L122.15 19.3674L129.471 10.2778H125.94L120.38 17.1815L114.792 10.2778H111.241L118.615 19.38L110.819 29.0591H114.349L120.383 21.5661L126.449 29.0591ZM100.001 12.1247C97.0652 12.1242 94.4176 13.9573 93.2938 16.769C92.1699 19.5808 92.7909 22.8174 94.8672 24.9694C96.9435 27.1215 100.066 27.7653 102.779 26.6003C105.492 25.4354 107.26 22.6914 107.26 19.6479C107.259 15.4932 104.01 12.1253 100.001 12.1247ZM76.866 12.605C75.2417 12.6287 73.6617 13.1593 72.3325 14.1275V25.764C73.7413 26.4738 75.3023 26.7974 76.866 26.704C80.8713 26.704 84.1197 23.803 84.1197 19.6545C84.1197 15.5061 80.868 12.6039 76.8627 12.6039L76.866 12.605ZM51.4781 0.857595H54.1983V29.0506H51.4781V0.857595ZM34.7016 29.0528L25.1866 19.1905L33.8004 10.2565H37.6467L29.0329 19.1905L38.5479 29.0528H34.7016ZM22.4579 0.857279V29.0504H25.178V0.857279H22.4579ZM42.418 29.0528H45.1381V10.2565H42.418V29.0528Z" fill="white"/>
</svg>
